<svg width="64" height="64" viewBox="0 0 64 64" fill="none" xmlns="http://www.w3.org/2000/svg">
<path fill-rule="evenodd" clip-rule="evenodd" d="M13.8035 11.8333H50.1968C51.6365 11.8332 52.8079 11.8332 53.7586 11.9109C54.7407 11.9911 55.6186 12.1617 56.4358 12.578C57.7215 13.2332 58.7669 14.2785 59.422 15.5643C59.8384 16.3815 60.0089 17.2594 60.0892 18.2415C60.1669 19.1922 60.1668 20.3635 60.1668 21.8032V29.3333C60.1668 30.1617 59.4953 30.8333 58.6668 30.8333C57.8384 30.8333 57.1668 30.1617 57.1668 29.3333V28.1666H6.8335V42.1332C6.8335 43.6515 6.83466 44.6999 6.90118 45.514C6.96626 46.3106 7.08636 46.7498 7.25131 47.0735C7.61882 47.7948 8.20524 48.3813 8.92653 48.7488C9.25026 48.9137 9.68947 49.0338 10.4861 49.0989C11.3001 49.1654 12.3486 49.1666 13.8668 49.1666H30.6668C31.4953 49.1666 32.1668 49.8382 32.1668 50.6666C32.1668 51.495 31.4953 52.1666 30.6668 52.1666H13.8034C12.3638 52.1666 11.1924 52.1666 10.2418 52.0889C9.25965 52.0087 8.38169 51.8381 7.56456 51.4218C6.27879 50.7667 5.23342 49.7213 4.57829 48.4355C4.16194 47.6184 3.99138 46.7404 3.91114 45.7583C3.83347 44.8076 3.83348 43.6363 3.8335 42.1966V21.8032C3.83348 20.3636 3.83347 19.1922 3.91114 18.2415C3.99138 17.2594 4.16194 16.3815 4.57829 15.5643C5.23342 14.2785 6.27879 13.2332 7.56456 12.578C8.3817 12.1617 9.25965 11.9911 10.2418 11.9109C11.1925 11.8332 12.3638 11.8332 13.8035 11.8333ZM6.8335 25.1666H57.1668V21.8666C57.1668 20.3484 57.1657 19.2999 57.0992 18.4858C57.0341 17.6892 56.914 17.25 56.749 16.9263C56.3815 16.205 55.7951 15.6186 55.0738 15.2511C54.7501 15.0861 54.3109 14.966 53.5143 14.9009C52.7002 14.8344 51.6517 14.8333 50.1335 14.8333H13.8668C12.3486 14.8333 11.3002 14.8344 10.4861 14.9009C9.68947 14.966 9.25026 15.0861 8.92653 15.2511C8.20525 15.6186 7.61882 16.205 7.25131 16.9263C7.08636 17.25 6.96626 17.6892 6.90118 18.4858C6.83466 19.2999 6.8335 20.3484 6.8335 21.8666V25.1666Z" fill="#141414"/>
<path fill-rule="evenodd" clip-rule="evenodd" d="M50.6722 36.2977C50.672 36.2977 50.6724 36.2978 50.6722 36.2977L56.5047 38.3818C57.1016 38.5951 57.5 39.1605 57.5 39.7944V46.4673C57.5 50.027 55.0403 52.7958 52.9608 54.5304C51.8837 55.4288 50.8143 56.1289 50.0178 56.6035C49.6178 56.8417 49.2825 57.0257 49.0438 57.1516C48.9244 57.2146 48.8288 57.2633 48.7612 57.2972C48.7273 57.3141 48.7004 57.3274 48.681 57.3369L48.6574 57.3483L48.65 57.3519L48.6463 57.3537C48.6458 57.3539 48.6454 57.3541 48 56C47.3546 57.3541 47.3542 57.3539 47.3537 57.3537L47.35 57.3519L47.3426 57.3483L47.319 57.3369C47.2996 57.3274 47.2727 57.3141 47.2388 57.2972C47.1712 57.2633 47.0756 57.2146 46.9562 57.1516C46.7175 57.0257 46.3822 56.8417 45.9822 56.6035C45.1857 56.1289 44.1163 55.4288 43.0392 54.5304C40.9597 52.7958 38.5 50.027 38.5 46.4673V39.7944C38.5 39.1606 38.8983 38.5953 39.495 38.3819L45.3246 36.2977C47.0526 35.679 48.9431 35.6786 50.6711 36.2974C50.6713 36.2974 50.6721 36.2977 50.6722 36.2977ZM48 56L47.3537 57.3537C47.762 57.5482 48.238 57.5482 48.6463 57.3537L48 56ZM48 54.3047C48.1425 54.225 48.3046 54.132 48.4822 54.0262C49.1857 53.6071 50.1163 52.9964 51.0392 52.2266C52.9597 50.6247 54.5 48.6272 54.5 46.4673V40.8513L49.6606 39.122C48.586 38.7371 47.4108 38.7371 46.3362 39.122L41.5 40.8511V46.4673C41.5 48.6272 43.0403 50.6247 44.9608 52.2266C45.8837 52.9964 46.8143 53.6071 47.5178 54.0262C47.6954 54.132 47.8575 54.225 48 54.3047Z" fill="#345AFA"/>
</svg>
