<svg width="22" height="20" viewBox="0 0 22 20" fill="none" xmlns="http://www.w3.org/2000/svg">
<path fill-rule="evenodd" clip-rule="evenodd" d="M13.2168 0.023783C13.7559 0.14359 14.0959 0.677767 13.9761 1.2169L9.97606 19.2169C9.85626 19.756 9.32208 20.096 8.78295 19.9762C8.24381 19.8563 7.90388 19.3222 8.02369 18.783L12.0237 0.78304C12.1435 0.243906 12.6777 -0.0960244 13.2168 0.023783ZM6.70698 4.29286C7.09751 4.68339 7.09751 5.31655 6.70698 5.70708L2.41409 9.99997L6.70698 14.2929C7.09751 14.6834 7.09751 15.3166 6.70698 15.7071C6.31646 16.0976 5.68329 16.0976 5.29277 15.7071L0.292771 10.7071C-0.0977531 10.3166 -0.0977531 9.68339 0.292771 9.29286L5.29277 4.29286C5.68329 3.90234 6.31646 3.90234 6.70698 4.29286ZM15.2928 4.29286C15.6833 3.90234 16.3165 3.90234 16.707 4.29286L21.707 9.29286C22.0975 9.68339 22.0975 10.3166 21.707 10.7071L16.707 15.7071C16.3165 16.0976 15.6833 16.0976 15.2928 15.7071C14.9022 15.3166 14.9022 14.6834 15.2928 14.2929L19.5857 9.99997L15.2928 5.70708C14.9022 5.31655 14.9022 4.68339 15.2928 4.29286Z" fill="white"/>
</svg>
