<svg width="19" height="25" viewBox="0 0 19 25" fill="none" xmlns="http://www.w3.org/2000/svg">
<path fill-rule="evenodd" clip-rule="evenodd" d="M6.37671 23.1867C7.06076 24.2986 8.27285 25 9.61574 25C10.9586 25 12.1707 24.2986 12.8547 23.1867C14.9569 22.8521 16.5696 21.0117 16.5696 18.7986V18.6989C17.6406 18.0031 18.3134 16.7982 18.3134 15.4657C18.3134 14.166 17.6733 12.9878 16.6477 12.2848C16.5993 12.2516 16.5696 12.1973 16.5696 12.1383V7.21986C16.5696 7.13498 16.6092 7.05415 16.6782 7.00556C17.7687 6.23752 18.4101 4.9252 18.3013 3.53854C18.1535 1.65672 16.6339 0.13947 14.7666 0.00936254C14.6777 0.00316389 14.5876 0 14.4988 0C12.3954 0 10.6842 1.7262 10.6842 3.84802C10.6842 5.12839 11.3176 6.30495 12.3289 7.01223C12.3918 7.05622 12.4281 7.12958 12.4284 7.20679L12.4323 8.19118C12.4327 8.30856 12.3385 8.40397 12.2222 8.40397H7.06019C4.84941 8.40397 3.01436 10.058 2.70709 12.2037C1.60986 12.8948 0.918091 14.1147 0.918091 15.4657C0.918091 16.7983 1.59091 18.0032 2.66183 18.6989V18.7986C2.66183 21.0117 4.27452 22.8521 6.37671 23.1867ZM14.9903 6.3359V13.0391C14.9903 13.1671 15.0706 13.2822 15.1913 13.3218C16.0867 13.6159 16.734 14.4643 16.734 15.4657C16.734 16.4672 16.0867 17.3156 15.1913 17.6097C15.0706 17.6493 14.9903 17.7644 14.9903 17.8924V18.7986C14.9903 20.3722 13.7257 21.6479 12.1657 21.6479H12.0212C11.8943 21.6479 11.7802 21.729 11.7409 21.8506C11.4494 22.7539 10.6084 23.4069 9.61565 23.4069C8.62294 23.4069 7.7819 22.7539 7.49036 21.8506C7.45109 21.729 7.33699 21.6479 7.21014 21.6479H7.06557C5.50561 21.6479 4.24102 20.3722 4.24102 18.7986V17.8924C4.24102 17.7644 4.16067 17.6493 4.04005 17.6097C3.1446 17.3156 2.49727 16.4672 2.49727 15.4657C2.49727 14.4643 3.1446 13.6159 4.04005 13.3218C4.16067 13.2822 4.24102 13.1671 4.24102 13.0391V12.8409C4.24102 11.2703 5.50316 9.99712 7.0601 9.99712H12.2921L12.3206 10.0005C12.3406 10.0027 12.9182 10.0545 13.3798 9.6323C13.7961 9.25166 14.0071 8.59215 14.0071 7.67197V6.33587C14.0071 6.17132 13.9024 6.02746 13.7487 5.97226C12.8832 5.66135 12.2634 4.82796 12.2634 3.84806C12.2634 2.54966 13.3512 1.50757 14.6576 1.59867C15.7509 1.67491 16.6403 2.56226 16.7268 3.66432C16.8099 4.72259 16.168 5.64194 15.2489 5.97218C15.0951 6.02743 14.9903 6.17125 14.9903 6.3359ZM12.0212 20.6561H12.1657C13.1827 20.6561 14.0071 19.8245 14.0071 18.7986V17.8924C14.0071 17.7644 13.9268 17.6493 13.8062 17.6097C12.9107 17.3156 12.2634 16.4672 12.2634 15.4657C12.2634 14.4643 12.9107 13.6159 13.8062 13.3218C13.9268 13.2822 14.0071 13.1671 14.0071 13.0391V10.3967C13.2896 11.0284 12.4313 11.0032 12.2426 10.9889H7.06013C6.04616 10.9889 5.22418 11.8181 5.22418 12.841V13.0391C5.22418 13.1671 5.30453 13.2822 5.42515 13.3218C6.3206 13.6159 6.96794 14.4643 6.96794 15.4657C6.96794 16.4672 6.3206 17.3156 5.42515 17.6097C5.30453 17.6493 5.22418 17.7644 5.22418 17.8924V18.7986C5.22418 19.8245 6.0486 20.6561 7.06557 20.6561H7.21012C7.33698 20.6561 7.45108 20.5751 7.49035 20.4534C7.78187 19.5501 8.62292 18.897 9.61565 18.897C10.6084 18.897 11.4494 19.5501 11.741 20.4534C11.7802 20.5751 11.8943 20.6561 12.0212 20.6561Z" fill="white"/>
</svg>
