<svg width="20" height="20" viewBox="0 0 20 20" fill="none" xmlns="http://www.w3.org/2000/svg">
<path fill-rule="evenodd" clip-rule="evenodd" d="M6.00007 7C6.00007 3.13401 9.13407 0 13.0001 0C16.8661 0 20.0001 3.13401 20.0001 7C20.0001 10.866 16.8661 14 13.0001 14C12.6817 14 12.3678 13.9787 12.0598 13.9373C11.8348 13.907 11.694 13.8883 11.5914 13.8784C11.5731 13.8766 11.558 13.8753 11.5459 13.8745C11.5429 13.8771 11.5396 13.8801 11.5361 13.8833C11.4826 13.9321 11.4122 14.0021 11.2863 14.128L9.70718 15.7071C9.51964 15.8946 9.26529 16 9.00007 16H8.00007V17C8.00007 17.5523 7.55235 18 7.00007 18H6.00007V19C6.00007 19.5523 5.55235 20 5.00007 20L2.56815 20C2.31578 20 2.06999 20.0001 1.86184 19.9831C1.63325 19.9644 1.36351 19.9203 1.09209 19.782C0.715765 19.5903 0.409803 19.2843 0.218056 18.908C0.0797585 18.6366 0.035691 18.3668 0.0170143 18.1382C7.02217e-06 17.9301 3.6467e-05 17.6843 6.63885e-05 17.4319L6.90111e-05 15.6627C6.90111e-05 15.6462 2.35924e-05 15.6291 -2.30184e-05 15.6117C-0.000530254 15.4218 -0.00116886 15.1827 0.0553292 14.9473C0.104323 14.7432 0.185132 14.5482 0.294789 14.3692C0.421243 14.1629 0.590792 13.9942 0.725438 13.8603C0.737804 13.848 0.749875 13.836 0.761591 13.8243L5.8721 8.71376C5.99802 8.58784 6.06801 8.51748 6.11672 8.464C6.11996 8.46044 6.12292 8.45715 6.12562 8.45414C6.12473 8.44204 6.12348 8.42701 6.12171 8.40871C6.11181 8.30608 6.09304 8.16528 6.0628 7.94028C6.02139 7.63227 6.00007 7.31836 6.00007 7ZM6.00007 16V15C6.00007 14.4477 6.44778 14 7.00007 14H8.58586L9.8721 12.7138C9.88917 12.6967 9.90663 12.6791 9.92448 12.6611C10.1037 12.4807 10.3218 12.2613 10.5703 12.1224C10.8037 11.9919 10.9982 11.9262 11.2629 11.8884C11.4563 11.8607 11.6446 11.8742 11.7836 11.8876C11.9281 11.9016 12.1067 11.9256 12.3085 11.9527L12.3263 11.9551C12.5462 11.9847 12.7711 12 13.0001 12C15.7615 12 18.0001 9.76142 18.0001 7C18.0001 4.23858 15.7615 2 13.0001 2C10.2386 2 8.00007 4.23858 8.00007 7C8.00007 7.22899 8.0154 7.45388 8.04496 7.67379L8.04736 7.6916C8.0745 7.89344 8.0985 8.07198 8.11246 8.21652C8.12587 8.35546 8.13937 8.54378 8.11171 8.73718C8.07385 9.0019 8.00812 9.19639 7.87765 9.4298C7.73875 9.67831 7.51932 9.89634 7.33892 10.0756C7.32095 10.0934 7.30338 10.1109 7.28631 10.128L2.17581 15.2385C2.08317 15.3311 2.03711 15.3775 2.00506 15.4126C2.00422 15.4135 2.00342 15.4144 2.00265 15.4153C2.00259 15.4164 2.00254 15.4176 2.00248 15.4189C2.00031 15.4664 2.00007 15.5317 2.00007 15.6627V17.4C2.00007 17.6965 2.00085 17.8588 2.01037 17.9754C2.01075 17.98 2.01113 17.9844 2.01152 17.9885C2.01566 17.9889 2.02006 17.9893 2.0247 17.9897C2.14129 17.9992 2.30354 18 2.60007 18H4.00007V17C4.00007 16.4477 4.44778 16 5.00007 16H6.00007ZM12.0001 5C12.0001 4.44772 12.4478 4 13.0001 4C13.7663 4 14.5358 4.29309 15.1214 4.87868C15.707 5.46425 16 6.23372 16.0001 6.99991C16.0001 7.5522 15.5524 7.99993 15.0001 7.99994C14.4478 7.99996 14.0001 7.55226 14.0001 6.99997C14.0001 6.74251 13.9026 6.48834 13.7072 6.29289C13.5117 6.09743 13.2575 6 13.0001 6C12.4478 6 12.0001 5.55228 12.0001 5Z" fill="white"/>
</svg>
