<svg width="20" height="21" viewBox="0 0 20 21" fill="none" xmlns="http://www.w3.org/2000/svg">
<path fill-rule="evenodd" clip-rule="evenodd" d="M12.952 2.60462C12.7782 2.66636 12.5437 2.7735 12.1485 2.9559L5.55295 6.00002L13 6.00002V3.50067C13 3.06542 12.999 2.80761 12.9822 2.62394C12.9813 2.61366 12.9803 2.60408 12.9794 2.59516C12.9709 2.59802 12.9618 2.60117 12.952 2.60462ZM15 6.00002L15 3.46009C15 3.07922 15 2.72806 14.9739 2.4421C14.9469 2.14575 14.8825 1.7719 14.6496 1.43206C14.3434 0.985476 13.8693 0.682103 13.3355 0.591272C12.9293 0.52215 12.5629 0.620401 12.2825 0.720022C12.0119 0.816151 11.6931 0.963337 11.3473 1.12297L2.43994 5.23405C2.40064 5.25219 2.36165 5.27012 2.32299 5.2879C1.76618 5.54398 1.2767 5.76908 0.903143 6.13416C0.576072 6.45381 0.32641 6.84401 0.173242 7.27493C-0.00169539 7.7671 -0.000963454 8.30586 -0.000130896 8.91873C-7.30793e-05 8.96128 -1.47264e-05 9.0042 -1.47264e-05 9.04748V10.0843C-1.75278e-05 10.1098 -1.65741e-05 10.1356 -1.57397e-05 10.1615L-1.58589e-05 16.8386C-3.37403e-05 17.3657 -4.92372e-05 17.8205 0.0305545 18.195C0.0628555 18.5904 0.134171 18.9836 0.326965 19.362C0.614585 19.9265 1.07353 20.3854 1.63801 20.673C2.01639 20.8658 2.40961 20.9371 2.80496 20.9694C3.17952 21.0001 3.63428 21 4.16142 21H15.8386C16.3657 21 16.8204 21.0001 17.195 20.9694C17.5904 20.9371 17.9836 20.8658 18.362 20.673C18.9264 20.3854 19.3854 19.9265 19.673 19.362C19.8658 18.9836 19.9371 18.5904 19.9694 18.195C20 17.8205 20 17.3657 20 16.8386V10.1615C20 9.63432 20 9.17956 19.9694 8.80499C19.9371 8.40965 19.8658 8.01643 19.673 7.63805C19.3854 7.07356 18.9264 6.61462 18.362 6.327C17.9836 6.13421 17.5904 6.06289 17.195 6.03059C16.8204 5.99999 16.3657 6 15.8385 6.00002L15 6.00002ZM4.19999 8.00002C3.62343 8.00002 3.25116 8.0008 2.96782 8.02395C2.69616 8.04614 2.59544 8.08382 2.54599 8.10901C2.35783 8.20489 2.20485 8.35787 2.10898 8.54603C2.08379 8.59547 2.04611 8.69619 2.02391 8.96786C2.00076 9.25119 1.99999 9.62347 1.99999 10.2V14C1.99999 14.0001 1.99999 13.9999 1.99999 14L1.99998 16.8C1.99998 17.3766 2.00076 17.7488 2.02391 18.0322C2.04611 18.3038 2.08379 18.4046 2.10898 18.454C2.20485 18.6422 2.35783 18.7952 2.54599 18.891C2.59544 18.9162 2.69616 18.9539 2.96782 18.9761C3.25116 18.9992 3.62343 19 4.19999 19H15.8C16.3765 19 16.7488 18.9992 17.0322 18.9761C17.3038 18.9539 17.4045 18.9162 17.454 18.891C17.6421 18.7952 17.7951 18.6422 17.891 18.454C17.9162 18.4046 17.9539 18.3038 17.9761 18.0322C17.9992 17.7488 18 17.3766 18 16.8V10.2C18 9.62347 17.9992 9.25119 17.9761 8.96786C17.9539 8.69619 17.9162 8.59547 17.891 8.54603C17.7951 8.35787 17.6421 8.20489 17.454 8.10901C17.4045 8.08382 17.3038 8.04614 17.0322 8.02395C16.7488 8.0008 16.3765 8.00002 15.8 8.00002L4.19999 8.00002ZM13 13.5C13 12.6716 13.6716 12 14.5 12C15.3284 12 16 12.6716 16 13.5C16 14.3284 15.3284 15 14.5 15C13.6716 15 13 14.3284 13 13.5Z" fill="white"/>
</svg>
