<svg width="31" height="32" viewBox="0 0 31 32" fill="none" xmlns="http://www.w3.org/2000/svg">
<path fill-rule="evenodd" clip-rule="evenodd" d="M24.8521 1.17047C25.6094 0.733235 26.5777 0.992693 27.015 1.74999C29.5164 6.08255 30.8333 10.9972 30.8333 16C30.8333 21.0028 29.5164 25.9175 27.015 30.25C26.5777 31.0073 25.6094 31.2668 24.8521 30.8295C24.0948 30.3923 23.8353 29.4239 24.2726 28.6666C26.4961 24.8155 27.6666 20.4469 27.6666 16C27.6666 11.5531 26.4961 7.1845 24.2726 3.33335C23.8353 2.57606 24.0948 1.6077 24.8521 1.17047ZM5.57963 9.33997C5.48998 8.91552 5.22728 8.52944 4.82202 8.29546C4.55435 8.14092 4.26032 8.07342 3.97269 8.08417C3.66755 8.0731 3.35594 8.14999 3.07751 8.32401C2.66649 8.5809 2.41404 8.99551 2.34957 9.44035C1.30003 11.4644 0.75 13.7138 0.75 16C0.75 18.5014 1.40845 20.9587 2.65913 23.125C3.09635 23.8823 4.06469 24.1418 4.822 23.7046C5.5793 23.2673 5.83878 22.299 5.40157 21.5417C4.42878 19.8567 3.91667 17.9455 3.91667 16C3.91667 15.0583 4.03666 14.1246 4.2708 13.2207L10.1704 22.66C10.26 23.0845 10.5227 23.4706 10.928 23.7046C11.1956 23.859 11.4895 23.9265 11.7771 23.9158C12.0823 23.927 12.394 23.8501 12.6725 23.676C13.0836 23.4191 13.336 23.0044 13.4005 22.5595C14.4499 20.5355 15 18.2863 15 16C15 13.4986 14.3415 11.0413 13.0909 8.87504C12.6537 8.11773 11.6853 7.85823 10.928 8.29544C10.1707 8.73264 9.91121 9.70099 10.3484 10.4583C11.3211 12.1432 11.8333 14.0545 11.8333 16C11.8333 16.9417 11.7133 17.8754 11.4792 18.7792L5.57963 9.33997ZM20.159 5.70835C19.7218 4.95105 18.7535 4.69158 17.9962 5.1288C17.2389 5.56602 16.9794 6.53437 17.4166 7.29167C18.9452 9.93935 19.75 12.9428 19.75 16C19.75 19.0572 18.9452 22.0607 17.4166 24.7083C16.9794 25.4656 17.2389 26.434 17.9962 26.8712C18.7535 27.3084 19.7218 27.049 20.159 26.2917C21.9656 23.1627 22.9167 19.6131 22.9167 16C22.9167 12.3869 21.9656 8.8374 20.159 5.70835Z" fill="white"/>
</svg>
