<svg width="29" height="30" viewBox="0 0 29 30" fill="none" xmlns="http://www.w3.org/2000/svg">
<path d="M24.7708 9.4421L14.5 15.1481M14.5 15.1481L4.22913 9.4421M14.5 15.1481L14.5 26.6273M16.9167 25.8889L15.4389 26.7099C15.0962 26.9003 14.9249 26.9954 14.7434 27.0328C14.5828 27.0658 14.4172 27.0658 14.2566 27.0328C14.0751 26.9954 13.9038 26.9003 13.5611 26.7099L4.61942 21.7423C4.25751 21.5412 4.07653 21.4407 3.94477 21.2977C3.82819 21.1712 3.73997 21.0212 3.686 20.8579C3.625 20.6733 3.625 20.4663 3.625 20.0522V10.2441C3.625 9.83004 3.625 9.62303 3.686 9.4384C3.73997 9.27506 3.82819 9.12513 3.94476 8.99863C4.07654 8.85564 4.2575 8.7551 4.61942 8.55403L13.5611 3.58644C13.9038 3.39606 14.0751 3.30086 14.2566 3.26354C14.4172 3.23051 14.5828 3.23051 14.7434 3.26354C14.9249 3.30086 15.0962 3.39605 15.4389 3.58644L24.3806 8.55403C24.7425 8.7551 24.9235 8.85563 25.0552 8.99862C25.1718 9.12512 25.26 9.27506 25.314 9.43839C25.375 9.62303 25.375 9.83004 25.375 10.2441L25.375 15.7523M9.0625 6.08565L19.9375 12.1273M19.3333 22.3982L21.75 24.8148L26.5833 19.9815" stroke="white" stroke-width="2" stroke-linecap="round" stroke-linejoin="round"/>
</svg>
