<svg width="64" height="64" viewBox="0 0 64 64" fill="none" xmlns="http://www.w3.org/2000/svg">
<path fill-rule="evenodd" clip-rule="evenodd" d="M13.8032 11.8333L50.1966 11.8333C51.6363 11.8332 52.8076 11.8332 53.7583 11.9109C54.7404 11.9911 55.6184 12.1617 56.4355 12.578C57.7213 13.2332 58.7667 14.2785 59.4218 15.5643C59.8382 16.3815 60.0087 17.2594 60.0889 18.2415C60.1666 19.1922 60.1666 20.3635 60.1666 21.8032V42.1966C60.1666 43.6363 60.1666 44.8076 60.0889 45.7583C60.0087 46.7404 59.8382 47.6184 59.4218 48.4355C58.7667 49.7213 57.7213 50.7667 56.4355 51.4218C55.6184 51.8381 54.7404 52.0087 53.7583 52.0889C52.8076 52.1666 51.6363 52.1666 50.1966 52.1666L13.8032 52.1666C12.3635 52.1666 11.1922 52.1666 10.2415 52.0889C9.25941 52.0087 8.38145 51.8381 7.56432 51.4218C6.27854 50.7667 5.23318 49.7213 4.57804 48.4355C4.16169 47.6184 3.99114 46.7404 3.9109 45.7583C3.83322 44.8076 3.83324 43.6363 3.83325 42.1966L3.83325 26.6678C3.83325 26.6674 3.83325 26.667 3.83325 26.6666C3.83325 26.6662 3.83325 26.6658 3.83325 26.6654L3.83325 21.8032C3.83324 20.3636 3.83322 19.1922 3.9109 18.2415C3.99114 17.2594 4.16169 16.3814 4.57804 15.5643C5.23318 14.2785 6.27854 13.2332 7.56432 12.578C8.38145 12.1617 9.25941 11.9911 10.2415 11.9109C11.1922 11.8332 12.3636 11.8332 13.8032 11.8333ZM6.83325 28.1666L6.83325 42.1332C6.83325 43.6515 6.83442 44.6999 6.90093 45.514C6.96602 46.3106 7.08611 46.7498 7.25106 47.0735C7.61858 47.7948 8.205 48.3813 8.92629 48.7488C9.25002 48.9137 9.68923 49.0338 10.4858 49.0989C11.2999 49.1654 12.3484 49.1666 13.8666 49.1666L50.1333 49.1666C51.6515 49.1666 52.6999 49.1654 53.514 49.0989C54.3106 49.0338 54.7498 48.9137 55.0736 48.7488C55.7948 48.3813 56.3813 47.7948 56.7488 47.0735C56.9137 46.7498 57.0338 46.3106 57.0989 45.514C57.1654 44.6999 57.1666 43.6515 57.1666 42.1333V28.1666H6.83325ZM57.1666 25.1666H6.83325V21.8666C6.83325 20.3484 6.83442 19.2999 6.90093 18.4858C6.96602 17.6892 7.08611 17.25 7.25106 16.9263C7.61858 16.205 8.205 15.6186 8.92629 15.2511C9.25002 15.0861 9.68923 14.966 10.4858 14.9009C11.2999 14.8344 12.3484 14.8333 13.8666 14.8333L50.1333 14.8333C51.6515 14.8333 52.6999 14.8344 53.514 14.9009C54.3106 14.966 54.7498 15.0861 55.0736 15.2511C55.7948 15.6186 56.3813 16.205 56.7488 16.9263C56.9137 17.25 57.0338 17.6892 57.0989 18.4858C57.1654 19.2999 57.1666 20.3484 57.1666 21.8666V25.1666Z" fill="#141414"/>
<path fill-rule="evenodd" clip-rule="evenodd" d="M14.5 37.3333C14.5 36.5048 15.1716 35.8333 16 35.8333H29.3333C30.1618 35.8333 30.8333 36.5048 30.8333 37.3333C30.8333 38.1617 30.1618 38.8333 29.3333 38.8333H16C15.1716 38.8333 14.5 38.1617 14.5 37.3333Z" fill="#345AFA"/>
</svg>
