<svg width="26" height="26" viewBox="0 0 26 26" fill="none" xmlns="http://www.w3.org/2000/svg">
<path d="M8.73511 20.4609C8.73511 20.3594 8.63354 20.2578 8.4812 20.2578C8.32886 20.2578 8.22729 20.3594 8.22729 20.4609C8.22729 20.5625 8.32886 20.6641 8.4812 20.6133C8.63354 20.6133 8.73511 20.5625 8.73511 20.4609ZM7.16089 20.207C7.21167 20.1055 7.36401 20.0547 7.51636 20.1055C7.6687 20.1562 7.71948 20.2578 7.71948 20.3594C7.6687 20.4609 7.51636 20.5117 7.41479 20.4609C7.26245 20.4609 7.16089 20.3086 7.16089 20.207ZM9.44604 20.1562C9.54761 20.1055 9.69995 20.207 9.69995 20.3086C9.75073 20.4102 9.64917 20.4609 9.49683 20.5117C9.34448 20.5625 9.19214 20.5117 9.19214 20.4102C9.19214 20.2578 9.2937 20.1562 9.44604 20.1562ZM12.7468 0.65625C19.8054 0.65625 25.5437 6.03906 25.5437 13.0469C25.5437 18.6836 22.0906 23.5078 17.0125 25.1836C16.3523 25.3359 16.0984 24.9297 16.0984 24.5742C16.0984 24.168 16.1492 22.0352 16.1492 20.3594C16.1492 19.1406 15.7429 18.3789 15.2859 17.9727C18.1296 17.668 21.1257 17.2617 21.1257 12.3867C21.1257 10.9648 20.6179 10.3047 19.8054 9.39062C19.907 9.03516 20.364 7.71484 19.6531 5.9375C18.5867 5.58203 16.1492 7.30859 16.1492 7.30859C15.1335 7.00391 14.0671 6.90234 12.95 6.90234C11.8835 6.90234 10.8171 7.00391 9.80151 7.30859C9.80151 7.30859 7.31323 5.63281 6.29761 5.9375C5.58667 7.71484 5.99292 9.03516 6.14526 9.39062C5.33276 10.3047 4.92651 10.9648 4.92651 12.3867C4.92651 17.2617 7.82104 17.668 10.6648 17.9727C10.2585 18.3281 9.95386 18.8867 9.85229 19.6992C9.09058 20.0547 7.26245 20.6133 6.14526 18.6328C5.43433 17.4141 4.16479 17.3125 4.16479 17.3125C2.94604 17.3125 4.11401 18.125 4.11401 18.125C4.92651 18.4805 5.48511 19.9531 5.48511 19.9531C6.24683 22.2383 9.80151 21.4766 9.80151 21.4766C9.80151 22.543 9.80151 24.2695 9.80151 24.625C9.80151 24.9297 9.59839 25.3359 8.93823 25.2344C3.86011 23.5078 0.356201 18.6836 0.356201 13.0469C0.356201 6.03906 5.73901 0.65625 12.7468 0.65625ZM5.28198 18.1758C5.33276 18.125 5.43433 18.1758 5.53589 18.2266C5.63745 18.3281 5.63745 18.4805 5.58667 18.5312C5.48511 18.582 5.38354 18.5312 5.28198 18.4805C5.2312 18.3789 5.18042 18.2266 5.28198 18.1758ZM4.72339 17.7695C4.77417 17.7188 4.82495 17.7188 4.92651 17.7695C5.02808 17.8203 5.07886 17.8711 5.07886 17.9219C5.02808 18.0234 4.92651 18.0234 4.82495 17.9727C4.72339 17.9219 4.67261 17.8711 4.72339 17.7695ZM6.34839 19.5977C6.44995 19.4961 6.60229 19.5469 6.70386 19.6484C6.80542 19.75 6.80542 19.9023 6.75464 19.9531C6.70386 20.0547 6.55151 20.0039 6.44995 19.9023C6.29761 19.8008 6.29761 19.6484 6.34839 19.5977ZM5.78979 18.8359C5.89136 18.7852 5.99292 18.8359 6.09448 18.9375C6.14526 19.0391 6.14526 19.1914 6.09448 19.2422C5.99292 19.293 5.89136 19.2422 5.78979 19.1406C5.68823 19.0391 5.68823 18.8867 5.78979 18.8359Z" fill="white"/>
</svg>
