<svg width="18" height="22" viewBox="0 0 18 22" fill="none" xmlns="http://www.w3.org/2000/svg">
<path fill-rule="evenodd" clip-rule="evenodd" d="M8.71387 0.0885525C8.90357 0.0611401 9.09623 0.0611401 9.28593 0.0885525C9.50456 0.120145 9.708 0.197001 9.86954 0.258026C9.88433 0.263612 9.89876 0.269064 9.91282 0.274337L15.2746 2.28501C15.3185 2.30148 15.3621 2.31774 15.4053 2.33386C16.023 2.56451 16.5656 2.76707 16.9834 3.13529C17.3489 3.45741 17.6305 3.8637 17.8038 4.31905C18.0018 4.83956 18.001 5.41867 18 6.07812C18 6.12421 17.9999 6.1707 17.9999 6.21759V11C17.9999 13.8266 16.4626 16.1832 14.8008 17.9144C13.1279 19.6572 11.2139 20.8882 10.2018 21.4786C10.1884 21.4864 10.1748 21.4944 10.1608 21.5026C9.97613 21.6111 9.7364 21.7519 9.41926 21.8199C9.15981 21.8755 8.83999 21.8755 8.58054 21.8199C8.2634 21.7519 8.02367 21.6111 7.83897 21.5026C7.825 21.4944 7.81135 21.4864 7.798 21.4786C6.7859 20.8882 4.87186 19.6572 3.19896 17.9144C1.53719 16.1832 -0.00010138 13.8266 -0.00010138 11V6.21759C-0.00010138 6.17071 -0.000168733 6.12422 -0.000235491 6.07812C-0.00119048 5.41868 -0.00202924 4.83956 0.196039 4.31905C0.36931 3.8637 0.650872 3.45741 1.01639 3.13529C1.43421 2.76707 1.97675 2.56451 2.59454 2.33386C2.63773 2.31774 2.68128 2.30148 2.72518 2.28501L8.08698 0.274338C8.10104 0.269064 8.11547 0.263611 8.13026 0.258026C8.2918 0.197001 8.49523 0.120145 8.71387 0.0885525ZM9.9999 2.44299L14.5724 4.15767C15.3976 4.46713 15.5564 4.54354 15.6611 4.63576C15.7829 4.74313 15.8768 4.87856 15.9345 5.03035C15.9841 5.16071 15.9999 5.33624 15.9999 6.21759V11C15.9999 13.0818 14.8602 14.9644 13.358 16.5294C12.2279 17.7067 10.9567 18.6363 9.9999 19.2552V2.44299ZM7.9999 19.2552C7.04311 18.6363 5.77185 17.7067 4.64181 16.5294C3.13959 14.9644 1.9999 13.0818 1.9999 11V6.21759C1.9999 5.33624 2.01567 5.16071 2.06528 5.03035C2.12304 4.87856 2.21689 4.74313 2.33873 4.63576C2.44337 4.54354 2.60219 4.46713 3.42743 4.15767L7.9999 2.44299V19.2552Z" fill="white"/>
</svg>
