<svg width="250" height="150" viewBox="0 0 250 150" fill="none" xmlns="http://www.w3.org/2000/svg">
<path d="M236.479 21.4703L0.831207 60.6583L13.3228 127.473L248.97 88.2847L236.479 21.4703Z" fill="white"/>
<path d="M172.448 46.9616L165.139 48.175L165.234 52.4581L173.297 51.117C173.946 51.0452 174.541 50.7402 174.958 50.2655C175.139 50.0341 175.265 49.7687 175.327 49.4873C175.389 49.2059 175.387 48.9151 175.319 48.6348C175.273 48.3616 175.17 48.0998 175.015 47.865C174.86 47.6303 174.656 47.4273 174.416 47.2681C174.128 47.0921 173.805 46.9741 173.466 46.9214C173.127 46.8686 172.781 46.8823 172.448 46.9616Z" fill="#345AFA"/>
<path d="M170.137 41.7886C170.684 41.7133 171.178 41.4418 171.518 41.0307C171.683 40.8338 171.799 40.605 171.86 40.3606C171.92 40.1163 171.922 39.8624 171.866 39.6172C171.83 39.388 171.743 39.1686 171.61 38.974C171.477 38.7793 171.301 38.6139 171.094 38.4889C170.607 38.2182 170.027 38.1372 169.478 38.2633L162.814 39.3703L164.088 42.7763L170.137 41.7886Z" fill="#345AFA"/>
<path d="M133.701 52.4113L139.9 51.3809L135.457 44.7178L133.701 52.4113Z" fill="#345AFA"/>
<path d="M7.13266 76.9309L17.5157 75.2066L15.7099 65.5886L6.83472 67.0618C6.97466 67.6961 7.10558 68.3092 7.21392 68.884C7.64007 70.887 7.76318 72.9368 7.57958 74.9724C7.506 75.6385 7.35616 76.2952 7.13266 76.9309Z" fill="#345AFA"/>
<path d="M235.008 35.5639L230.566 28.9008L228.805 36.5943L235.008 35.5639Z" fill="#345AFA"/>
<path d="M78.0666 101.932L86.4407 100.539L80.4411 91.5387L78.0666 101.932Z" fill="#345AFA"/>
<path d="M248.971 88.2861L237.685 90.1595L233.473 67.6452L221.081 69.7059L219.217 59.7516L242.886 55.8133L240.701 44.1219L239.062 41.661L227.185 43.6365L226.196 47.9665L217.258 49.4524L216.847 49.5205L207.344 51.0916L201.507 44.3135L196.541 52.8883L188.587 54.2124L184.073 30.1697L192.776 28.7221L195.219 41.7972L203.245 26.9807L212.423 25.4523L205.805 36.9095L216.964 49.1203L223.551 23.6172L235.243 21.6758L236.972 24.1239L236.019 19.0147C234.893 13.0035 231.281 7.66042 225.978 4.16079C220.675 0.661166 214.115 -0.708313 207.741 0.35362L20.1747 31.5492C17.0176 32.0736 14.0009 33.1795 11.2971 34.8037C8.59321 36.428 6.25515 38.5387 4.41645 41.0153C2.57774 43.492 1.27442 46.2861 0.580946 49.2379C-0.112533 52.1897 -0.182583 55.2415 0.374795 58.2189L0.82623 60.6585L23.1361 56.9501L26.2646 73.6825L30.6164 72.9587L32.8736 85.0461L24.653 86.4298L23.7501 81.6528L5.31349 84.7182L7.24112 95.0217L18.527 93.1441L30.7157 112.946L34.9141 90.4192L53.2694 87.3537L59.3412 119.822L48.096 121.696L43.8344 98.9089L38.661 123.258L26.9553 125.208L13.3084 104.09L17.5474 126.771L13.3219 127.473L13.9946 130.973C15.1197 136.986 18.7315 142.332 24.0354 145.834C29.3392 149.336 35.9009 150.707 42.277 149.647L229.839 118.451C236.215 117.391 241.883 113.986 245.597 108.984C249.311 103.983 250.767 97.7951 249.643 91.7816M171.884 32.2091C174.24 31.8174 176.185 32.0289 177.716 32.8435C179.248 33.6581 180.186 34.9851 180.529 36.8243C180.724 37.8493 180.655 38.9033 180.33 39.8983C179.955 40.968 179.263 41.9137 178.335 42.6232C178.227 42.7126 178.114 42.7978 177.996 42.8829C178.487 42.9164 178.974 42.9833 179.454 43.083C180.704 43.3122 181.854 43.8856 182.759 44.7307C183.604 45.5882 184.154 46.6676 184.334 47.826C184.585 49.0539 184.49 50.3221 184.059 51.5046C183.606 52.6917 182.777 53.7188 181.684 54.4466C180.314 55.3411 178.743 55.924 177.093 56.1497L157.072 59.4791L156.702 46.8127L152.585 35.4236L171.884 32.2091ZM140.139 37.4928L155.817 59.675L146.468 61.229L143.967 57.478L132.094 59.4536L131.106 63.7836L121.757 65.3376L128.442 39.4343L140.139 37.4928ZM120.493 40.7584L121.847 48.1326L112.669 49.6568L115.784 66.3296L107.017 67.7857L103.898 51.1172L94.7201 52.6414L93.3432 45.2672L120.493 40.7584ZM65.1602 55.528C66.0845 53.4018 67.6316 51.5677 69.6204 50.2401C71.9084 48.7313 74.5346 47.7405 77.2947 47.3449C79.855 46.872 82.4926 46.9184 85.0323 47.4812C87.2585 47.9785 89.3129 49.0044 91.0003 50.4615C92.6571 51.9198 93.8592 53.778 94.4763 55.8346L85.6734 57.2992C85.3506 56.5325 84.8216 55.8583 84.1384 55.3432C83.4552 54.828 82.6415 54.4897 81.7775 54.3615C80.7299 54.1956 79.659 54.2115 78.6174 54.4083C77.4456 54.5705 76.3298 54.9874 75.3581 55.626C74.5243 56.1886 73.8939 56.9793 73.5523 57.891C73.2034 58.8938 73.138 59.9652 73.3627 60.9991C73.5249 62.0375 73.975 63.0171 74.6674 63.8389C75.322 64.5814 76.198 65.1213 77.1819 65.3887C78.3259 65.6836 79.5272 65.7215 80.6895 65.4994C81.7366 65.3457 82.7485 65.0261 83.6825 64.5542C84.4535 64.1636 85.1014 63.5879 85.5605 62.8852C86.0111 62.1628 86.2567 61.3431 86.2738 60.5052L95.0768 59.0406C95.2416 61.1719 94.7858 63.3051 93.7586 65.2099C92.7043 67.1192 91.1504 68.743 89.2442 69.9273C87.0608 71.2743 84.5987 72.1682 82.0213 72.55C79.2884 73.0658 76.4663 72.9813 73.7736 72.303C71.4218 71.6983 69.3016 70.4739 67.6611 68.7735C66.0492 66.9672 64.9715 64.7916 64.5371 62.4665C64.1027 60.1414 64.327 57.7494 65.1873 55.5323L65.1602 55.528ZM49.2065 77.9997C46.4128 78.5276 43.5289 78.4548 40.7692 77.7868C38.3787 77.1966 36.2142 75.9803 34.5258 74.2786C32.8843 72.4878 31.7875 70.3112 31.3519 67.9799C30.9164 65.6486 31.1583 63.2495 32.052 61.0374C33.0219 58.8941 34.6152 57.0534 36.6476 55.7282C38.992 54.2085 41.6689 53.206 44.48 52.7947C47.2741 52.2701 50.1576 52.3443 52.9173 53.0118C55.3077 53.6021 57.4723 54.8184 59.1606 56.5201C60.8044 58.3088 61.9027 60.4848 62.3383 62.8159C62.774 65.147 62.5307 67.546 61.6345 69.757C60.6653 71.9019 59.0719 73.7441 57.0389 75.0705C54.6934 76.5874 52.0168 77.5884 49.2065 77.9997ZM95.3205 113.84L91.9438 108.778L75.9088 111.443L74.5545 117.289L61.9144 119.388L70.9431 84.4074L86.7433 81.7805L107.916 111.741L95.3205 113.84ZM141.01 91.3984C140.133 93.4187 138.635 95.1448 136.708 96.3543C134.653 97.6855 132.067 98.6137 128.952 99.1388L120.736 100.505L122.389 109.336L110.547 111.303L104.476 78.8342L124.533 75.5005C127.657 74.9811 130.418 75.0208 132.817 75.6197C135.066 76.1327 137.101 77.2702 138.658 78.8853C140.157 80.6048 141.16 82.6601 141.57 84.8523C141.979 87.0445 141.782 89.2993 140.997 91.3984H141.01ZM174.317 100.701L166.417 91.5389L159.709 103.12L148.965 104.908L142.897 72.4393L154.635 70.485L157.948 88.1329L168.782 68.1221L181.174 66.0614L172.222 81.5123L187.702 98.4533L174.317 100.701ZM222.472 92.6928L189.147 98.2277L188.632 81.5719L183.075 65.7591L216.17 60.254L217.822 69.0843L197.245 72.4904L198.532 75.9348L217.014 72.8608L218.458 80.5671L199.972 83.6411L200.017 87.2941L220.806 83.8752L222.472 92.6928Z" fill="#345AFA"/>
<path d="M128.239 84.6797C127.364 84.238 126.347 84.1138 125.381 84.3306L117.946 85.5781L119.111 91.8155L126.546 90.5765C127.539 90.4711 128.452 90.0146 129.101 89.2992C129.602 88.5702 129.792 87.6893 129.632 86.8338C129.472 85.9782 128.974 85.2116 128.239 84.6882V84.6797Z" fill="#345AFA"/>
<path d="M49.545 60.207C47.092 59.758 44.5497 60.1812 42.4078 61.3948C41.5397 61.92 40.8575 62.6776 40.4485 63.5705C40.084 64.51 39.9889 65.5236 40.1728 66.509C40.3567 67.4943 40.8131 68.4163 41.4959 69.182C42.2045 69.8896 43.1209 70.3818 44.1277 70.5955C46.5818 71.0477 49.1264 70.6211 51.2649 69.3991C52.1339 68.8749 52.8163 68.1171 53.2242 67.2235C53.5882 66.2839 53.6831 65.2704 53.4992 64.2851C53.3153 63.2999 52.8592 62.3779 52.1768 61.612C51.4658 60.9089 50.5501 60.42 49.545 60.207Z" fill="#345AFA"/>
<mask id="mask0_170_2759" style="mask-type:luminance" maskUnits="userSpaceOnUse" x="148" y="61" width="95" height="70">
<path d="M232.448 61.8501L148.676 75.7812L158.861 130.256L242.632 116.325L232.448 61.8501Z" fill="white"/>
</mask>
<g mask="url(#mask0_170_2759)">
<path d="M183.251 120.065C180.163 111 173.807 105.189 162.819 103.979C173.382 99.7218 177.405 93.0587 174.335 83.7345C184.235 84.4029 192.103 81.3971 197.859 74.5593C204.793 82.9724 214.44 86.2507 226.245 85.4248C216.765 90.0272 214.251 96.5882 221.113 105.763C210.685 107.556 210.599 116.595 216.964 130.151C206.658 114.385 195.679 107.569 183.251 120.065Z" fill="#E6F19E"/>
<path d="M216.747 130.283C209.917 119.856 203.561 114.492 197.277 113.891C192.722 113.465 188.068 115.594 183.454 120.239L183.161 120.533L183.03 120.146C179.77 110.57 173.157 105.363 162.81 104.222L161.866 104.12L162.738 103.767C173.256 99.5473 177.08 92.833 174.114 83.8154L174.001 83.4833L174.371 83.5089C184.208 84.1688 192.049 81.1118 197.679 74.4188L197.877 74.1804L198.076 74.4188C204.671 82.4146 214.147 86.0421 226.245 85.1949L227.482 85.1097L226.381 85.6462C221.51 88.0049 218.607 90.8618 217.759 94.1273C216.91 97.3929 218.102 101.31 221.338 105.623L221.564 105.925L221.176 105.993C217.709 106.589 215.307 108.041 214.039 110.302C211.804 114.283 212.842 120.746 217.199 130.053L216.747 130.283ZM193.959 113.534C195.064 113.35 196.191 113.309 197.309 113.414C203.272 113.981 209.258 118.643 215.565 127.639C212.129 119.575 211.502 113.815 213.574 110.089C214.869 107.777 217.262 106.257 220.684 105.606C217.524 101.28 216.373 97.3802 217.248 94.0081C218.075 90.8405 220.72 88.0475 225.112 85.7356C213.501 86.2806 204.346 82.6573 197.855 74.9468C192.203 81.5205 184.407 84.569 174.683 84.0027C177.463 92.8841 173.78 99.5601 163.749 103.856C173.68 105.201 180.086 110.366 183.359 119.609C186.894 116.16 190.429 114.125 193.959 113.538V113.534Z" fill="#262C3F"/>
</g>
<path d="M194.325 95.6091C193.496 94.9581 192.487 94.5444 191.417 94.4169C190.203 94.305 188.978 94.4369 187.821 94.8038C186.665 95.1707 185.604 95.7644 184.709 96.5457C183.935 97.2531 183.392 98.1541 183.143 99.1429C182.928 100.175 183 101.243 183.354 102.241C183.708 103.238 184.33 104.132 185.16 104.835C185.988 105.485 186.995 105.899 188.063 106.027C189.277 106.139 190.503 106.008 191.659 105.641C192.815 105.274 193.876 104.68 194.772 103.899C195.547 103.192 196.09 102.291 196.338 101.301C196.555 100.269 196.484 99.2018 196.131 98.2037C195.778 97.2055 195.155 96.3113 194.325 95.6091ZM192.356 101.48C192.182 101.792 191.941 102.067 191.649 102.286C191.357 102.506 191.02 102.667 190.659 102.758C190.309 102.89 189.934 102.954 189.556 102.946C189.179 102.937 188.808 102.855 188.465 102.707C188.132 102.527 187.841 102.286 187.608 101.999C187.376 101.712 187.207 101.383 187.111 101.033C186.966 100.7 186.895 100.342 186.901 99.9824C186.907 99.6223 186.991 99.2672 187.147 98.9385C187.544 98.3388 188.15 97.8882 188.861 97.6644C189.572 97.4406 190.343 97.4576 191.043 97.7123C191.687 98.1037 192.171 98.6892 192.417 99.3735C192.663 100.058 192.656 100.8 192.397 101.48H192.356Z" fill="#262C3F"/>
<path d="M208.405 92.3179C208.206 91.6855 207.807 91.1259 207.26 90.7147C206.714 90.3035 206.046 90.0606 205.349 90.0188C204.495 89.9597 203.638 90.0715 202.834 90.3466L196.965 92.1987L198.5 96.5414L197.038 97.0013L197.873 99.3557L199.335 98.8959L199.593 99.6282L198.13 100.088L198.843 102.098L200.306 101.638L200.622 102.536L204.392 101.348L204.076 100.454L208.269 99.1343L207.556 97.1205L203.362 98.4403L203.105 97.7123L205.209 97.0481C206.027 96.8143 206.784 96.4196 207.43 95.89C207.963 95.4623 208.344 94.8896 208.519 94.2502C208.694 93.6108 208.656 92.9359 208.409 92.3179H208.405ZM204.658 94.3104C204.611 94.4233 204.537 94.5242 204.442 94.6049C204.346 94.6856 204.231 94.7437 204.107 94.7745L202.265 95.3706L201.566 93.3865L203.407 92.8075C203.525 92.7617 203.653 92.7425 203.78 92.7513C203.906 92.7602 204.03 92.7969 204.139 92.8586C204.362 93.0336 204.528 93.2638 204.62 93.5233C204.712 93.7828 204.725 94.0613 204.658 94.3275V94.3104Z" fill="#262C3F"/>
<path d="M31.8803 41.1627L31.0813 36.8752L27.8039 37.4202L28.6074 41.7247L24.0615 42.4612L24.6393 45.5565L29.1852 44.8029L29.9843 49.0861L33.2572 48.5368L32.4581 44.2494L37.0176 43.4958L36.4263 40.4048L31.8803 41.1627ZM36.2908 43.0232L31.7494 43.7811L32.5484 48.0643L30.4809 48.4091L29.6818 44.1217L31.3837 41.8311L35.9252 41.0775L36.2908 43.0232Z" fill="#E6F19E"/>
<path d="M178.849 16.7197L178.05 12.4323L174.777 12.9772L175.576 17.2646L171.031 18.0182L171.608 21.1093L176.154 20.3514L176.962 24.6388L180.235 24.0939L179.432 19.8064L183.978 19.0528L183.4 15.9618L178.849 16.7197ZM183.282 18.5802L178.741 19.3381L179.54 23.6213L177.477 23.9661L176.673 19.6787L178.375 17.3881L182.921 16.6345L183.282 18.5802Z" fill="#E6F19E"/>
<path d="M140.766 119.558L139.967 115.271L136.694 115.807L137.493 120.095L132.948 120.848L133.525 123.935L138.071 123.181L138.87 127.465L142.148 126.924L141.344 122.636L145.89 121.883L145.312 118.788L140.766 119.558ZM145.177 121.419L140.635 122.194L141.434 126.451L139.371 126.796L138.59 122.517L140.292 120.227L144.838 119.473L145.177 121.419Z" fill="#E6F19E"/>
<path d="M91.8128 91.113C87.3513 91.039 82.973 89.9618 79.0417 87.9709C71.6698 84.2412 68.6587 78.353 71.3673 72.9756C71.5102 72.6935 71.7106 72.4407 71.957 72.2317C72.2035 72.0227 72.4912 71.8615 72.8037 71.7573C73.1162 71.6531 73.4474 71.608 73.7784 71.6246C74.1094 71.6411 74.4337 71.719 74.7328 71.8537C75.0318 71.9885 75.2999 72.1774 75.5215 72.4099C75.7431 72.6423 75.9141 72.9137 76.0245 73.2084C76.135 73.5031 76.1828 73.8155 76.1653 74.1277C76.1477 74.4398 76.0652 74.7457 75.9223 75.0278C73.6335 79.5536 80.0935 83.1172 81.4117 83.7772C88.6934 87.4643 99.0177 87.609 102.972 81.3631C103.136 81.0835 103.358 80.8379 103.625 80.641C103.892 80.4441 104.198 80.3 104.526 80.2171C104.853 80.1342 105.194 80.1143 105.53 80.1586C105.866 80.2029 106.188 80.3105 106.479 80.475C106.769 80.6395 107.022 80.8574 107.221 81.1159C107.42 81.3743 107.562 81.668 107.639 81.9793C107.715 82.2907 107.724 82.6133 107.665 82.9281C107.607 83.2428 107.481 83.5432 107.297 83.8112C104.033 88.9842 98.0922 91.1769 91.8128 91.113Z" fill="white" stroke="#262C3F" stroke-width="0.71" stroke-miterlimit="10"/>
<path d="M68.8663 78.9788C68.5639 78.8128 67.4398 78.1741 66.8484 78.1656C66.2571 78.1571 66.1487 78.3274 65.6115 78.2891C65.0771 78.231 64.5706 78.0334 64.1489 77.7186C63.4491 77.2247 63.5078 76.867 63.0067 76.7053C62.4334 76.535 62.2302 76.9905 61.6118 76.9054C60.7089 76.7776 60.7089 75.7601 59.648 75.4195C59.1199 75.2492 59.1018 75.4961 58.068 75.4195C57.2238 75.3513 56.3345 75.279 55.7792 74.7084C55.224 74.1379 55.3775 73.61 54.8764 73.4695C54.5739 73.3843 54.4565 73.5844 54.0187 73.5461C53.495 73.5035 53.3505 73.1885 52.854 72.95C51.9872 72.5243 51.5854 73.0778 50.8225 72.7201C49.9196 72.2944 49.6533 71.1193 49.6307 71.0171C49.4682 70.2209 49.8339 69.9229 49.5449 69.3438C49.3057 68.8627 48.9806 68.9181 48.4254 68.4029C48.0406 68.0636 47.7336 67.6536 47.5232 67.1981C47.3128 66.7427 47.2035 66.2515 47.202 65.7547C47.2562 64.8478 47.8024 64.6264 47.5812 64.0133C47.36 63.4002 46.7506 63.4683 46.4707 62.7829C46.1908 62.0974 46.6422 61.8547 46.3623 61.1948C46.1366 60.654 45.7935 60.7307 45.4595 60.2113C44.9358 59.4193 45.5317 58.934 45.2202 57.6226C44.9764 56.5455 44.4889 56.4348 44.5792 55.6641C44.659 55.0917 44.9576 54.5664 45.4188 54.1867C46.1592 53.6205 46.8408 53.9142 47.1478 53.4118C47.4097 52.9861 46.9537 52.6668 47.211 51.9941C47.3961 51.513 47.6625 51.5683 47.9604 50.9935C48.2583 50.4187 48.0642 50.2144 48.3441 49.7844C48.624 49.3543 49.0077 49.4267 49.4095 49.001C50.1228 48.2516 49.4863 47.3873 50.1408 46.7657C50.6464 46.2846 51.1972 46.638 51.6486 46.1654C52.2129 45.5778 51.4861 44.8881 51.915 43.9983C52.4296 42.9126 54.285 42.2314 55.2556 42.0227C55.6097 41.9822 55.9398 41.8325 56.1946 41.597C56.5693 41.1712 56.3616 40.7753 56.646 40.2516C56.9824 39.7442 57.5179 39.383 58.1357 39.2468C59.0323 38.9897 59.9984 39.058 60.8443 39.4384C61.4944 39.7662 61.7246 40.1707 62.3476 40.1622C62.7991 40.1622 62.8939 39.9663 63.2776 40.0302C63.8012 40.1153 63.8193 40.507 64.4017 40.8008C65.0517 41.1329 65.3045 40.771 66.0494 41.0818C66.7943 41.3926 66.7807 41.7673 67.3405 41.8141C67.7919 41.8482 67.8416 41.6097 68.4555 41.5544C68.9268 41.4753 69.4122 41.5714 69.8098 41.8226C70.3967 42.291 69.9859 43.0701 70.5367 43.4277C70.8165 43.6108 70.9384 43.4277 71.7962 43.5512C72.392 43.6406 72.9609 43.7258 73.2588 44.1175C73.4981 44.4368 73.331 44.6539 73.5838 44.8668C73.9134 45.1478 74.279 44.8668 74.6989 45.1052C75.0375 45.3054 75.1503 45.7056 75.2948 46.208C75.4663 46.8125 75.3444 46.9701 75.5476 47.183C75.8681 47.5065 76.2924 47.2553 76.6536 47.5449C77.1863 47.9706 76.8658 49.0393 76.8432 49.1117C76.7469 49.394 76.5919 49.6554 76.3873 49.8805C76.1827 50.1057 75.9325 50.2901 75.6514 50.423C75.3023 50.5613 74.9319 50.6461 74.5544 50.6742C75.4573 54.8083 72.7171 56.9286 70.2206 59.1426L69.3178 62.7914L72.532 72.5541L68.8663 78.9788Z" fill="#262C3F"/>
<path d="M76.1164 102.285L67.8551 81.6525C67.1609 79.92 67.177 78.0056 67.9003 76.2837L70.5231 70.0633L76.157 68.752L83.8314 76.0623C84.5627 76.7633 85.1388 77.5944 85.5263 78.5074C85.9138 79.4203 86.1049 80.3968 86.0886 81.38L85.8448 100.02L76.1164 102.285Z" fill="white" stroke="#262C3F" stroke-width="0.71" stroke-miterlimit="10"/>
<path d="M76.5046 78.37L67.0245 112.857C66.6363 114.266 65.2458 115.147 63.9141 114.819C62.5824 114.496 61.8195 113.087 62.2077 111.677L72.1031 77.263C72.4643 75.9857 73.7102 75.2065 74.9111 75.479C76.1435 75.7515 76.8658 77.0629 76.5046 78.37Z" fill="white" stroke="#262C3F" stroke-width="0.75" stroke-miterlimit="10"/>
<path d="M69.3088 62.7828C69.864 65.7631 70.4509 70.0633 70.4509 70.0633L76.0848 68.752C75.9557 67.59 75.7216 66.4405 75.3851 65.3161L74.2204 60.4581L68.9386 61.944L69.3088 62.7828Z" fill="white" stroke="#262C3F" stroke-width="0.71" stroke-miterlimit="10"/>
<path d="M70.5863 61.8632C70.3593 62.1928 70.0274 62.4462 69.6383 62.587C69.1295 62.7397 68.5783 62.7062 68.0944 62.4933C67.7295 62.3505 67.4006 62.1367 67.1292 61.8661C66.8577 61.5954 66.6498 61.2738 66.5189 60.9222C66.3517 60.4599 66.3517 59.9583 66.5189 59.4959C66.6066 59.2368 66.7501 58.9975 66.9404 58.7931C67.1307 58.5887 67.3638 58.4236 67.6249 58.3081C68.0531 58.1351 68.5313 58.1066 68.9792 58.2272C69.4941 58.3724 69.9313 58.6965 70.2026 59.134C72.2949 56.1688 73.1295 52.5703 72.541 49.052C72.541 49.052 75.6018 50.2228 76.4775 54.5869C76.496 54.6841 76.5367 54.7763 76.5967 54.8571C76.6568 54.938 76.7347 55.0056 76.8251 55.0552C77.7508 55.5469 78.6272 56.1169 79.4435 56.7583C79.513 56.8202 79.5658 56.8971 79.5972 56.9823C79.6286 57.0675 79.6378 57.1586 79.624 57.2479C79.4661 57.6756 79.2241 58.0713 78.9108 58.4145C78.9108 58.4145 79.3893 59.2873 79.9175 60.5092C80.2736 61.3201 80.5574 62.1575 80.7662 63.0127C80.8468 63.3396 80.7958 63.683 80.6232 63.9765C80.4505 64.2699 80.1684 64.4924 79.8317 64.6008C77.4406 65.3899 74.8661 65.5459 72.3875 65.0521" fill="white"/>
<path d="M70.5863 61.8632C70.3593 62.1928 70.0274 62.4462 69.6383 62.587C69.1295 62.7397 68.5783 62.7062 68.0944 62.4933C67.7295 62.3505 67.4006 62.1367 67.1292 61.8661C66.8577 61.5954 66.6498 61.2738 66.5189 60.9222C66.3517 60.4599 66.3517 59.9583 66.5189 59.4959C66.6066 59.2368 66.7501 58.9975 66.9404 58.7931C67.1307 58.5887 67.3638 58.4236 67.6249 58.3081C68.0531 58.1351 68.5313 58.1066 68.9792 58.2272C69.4941 58.3724 69.9313 58.6965 70.2026 59.134C72.2949 56.1688 73.1295 52.5703 72.541 49.052C72.541 49.052 75.6018 50.2228 76.4775 54.5869C76.496 54.6841 76.5367 54.7763 76.5967 54.8571C76.6568 54.938 76.7347 55.0056 76.8251 55.0552C77.7508 55.5469 78.6272 56.1169 79.4435 56.7583C79.513 56.8202 79.5658 56.8971 79.5972 56.9823C79.6286 57.0675 79.6378 57.1586 79.624 57.2479C79.4661 57.6756 79.2241 58.0713 78.9108 58.4145C78.9108 58.4145 79.3893 59.2873 79.9175 60.5092C80.2736 61.3201 80.5574 62.1575 80.7662 63.0127C80.8468 63.3396 80.7958 63.683 80.6232 63.9765C80.4505 64.2699 80.1684 64.4924 79.8317 64.6008C77.4406 65.3899 74.8661 65.5459 72.3875 65.0521" stroke="#262C3F" stroke-width="0.71" stroke-miterlimit="10"/>
<path d="M73.0421 54.8934C73.2282 54.4402 73.5225 54.0335 73.9022 53.705C74.282 53.3764 74.7368 53.1347 75.2316 52.9988" stroke="#262C3F" stroke-width="0.71" stroke-miterlimit="10"/>
<path d="M74.4867 55.8259C74.6322 55.4266 74.8877 55.0709 75.227 54.7955C75.4053 54.6518 75.6045 54.5328 75.8184 54.4421" stroke="#345AFA" stroke-width="0.71" stroke-miterlimit="10"/>
<path d="M76.5543 60.3815C76.9893 60.4204 77.4278 60.4061 77.8589 60.3389C78.2078 60.2868 78.5498 60.1998 78.8791 60.0792" stroke="#262C3F" stroke-width="0.71" stroke-miterlimit="10"/>
<path d="M69.715 60.6583C69.7158 60.3368 69.6031 60.0242 69.3947 59.7698C69.1862 59.5153 68.8939 59.3336 68.5639 59.2533C68.1909 59.2086 67.8143 59.305 67.5165 59.5215" stroke="#262C3F" stroke-width="0.71" stroke-miterlimit="10"/>
<path d="M74.7982 55.2256C74.8943 55.5025 75.0478 55.7586 75.2497 55.9792C75.4889 56.2304 75.6334 56.2474 75.7011 56.2474C75.7662 56.251 75.8313 56.2393 75.8904 56.2133C75.9495 56.1873 76.0008 56.1478 76.0397 56.0984C76.0848 56.0303 76.1209 55.911 75.9584 55.5619C75.8109 55.2554 75.6094 54.9747 75.3625 54.7317" fill="#345AFA"/>
<path d="M76.6897 58.0355C77.3722 57.6282 77.856 56.9826 78.0354 56.2398C78.2147 55.4971 78.075 54.7176 77.6468 54.0717L76.9561 53.0328L71.7781 56.0855L72.4688 57.1244C72.682 57.4462 72.9605 57.725 73.2882 57.9451C73.6159 58.1651 73.9865 58.3219 74.3787 58.4066C74.7708 58.4912 75.1768 58.502 75.5734 58.4383C75.97 58.3747 76.3494 58.2378 76.6897 58.0355Z" fill="#262C3F"/>
<path d="M99.5233 105.687C96.0788 102.732 92.824 102.161 88.6121 100.624C87.6988 100.319 86.7501 100.118 85.7861 100.024C85.2256 100.046 84.6764 100.179 84.1745 100.416C81.3666 101.14 78.8476 101.297 76.0487 102.285C75.8481 104.795 75.8119 107.315 75.9403 109.829C76.1435 113.482 75.5882 112.384 76.5814 116.867C81.3666 138.377 67.5527 140.05 52.1181 136.567C51.8473 140.399 51.7389 144.265 51.608 148.093L93.447 141.131C95.1111 138.492 96.3739 135.646 97.1984 132.676C99.5519 134.904 101.917 137.121 104.295 139.326L131.381 134.822C120.425 125.451 110.457 115.058 99.5233 105.687Z" fill="#262C3F"/>
</svg>
