<svg width="264" height="174" viewBox="0 0 264 174" fill="none" xmlns="http://www.w3.org/2000/svg">
<path d="M254.258 55.7967L15.9443 39.6716L9.15582 117.014L247.47 133.139L254.258 55.7967Z" fill="white"/>
<path d="M133.504 107.709L140.352 108.171L137.622 99.9923L133.504 107.709Z" fill="#345AFA"/>
<path d="M56.554 95.8075C55.3539 95.2391 54.0386 94.9143 52.6922 94.8539C51.3439 94.7313 49.9801 94.876 48.6881 95.2787C47.6164 95.6167 46.6733 96.2497 45.981 97.0957C45.3204 98.0002 44.922 99.0504 44.8261 100.141C44.7302 101.231 44.9402 102.322 45.4348 103.305C45.9728 104.233 46.7949 104.984 47.7949 105.462C49.0001 106.035 50.3221 106.362 51.6756 106.422C53.0239 106.545 54.3876 106.4 55.6796 105.997C56.7518 105.658 57.6959 105.025 58.3913 104.18C59.0519 103.275 59.4502 102.225 59.5461 101.135C59.642 100.045 59.4321 98.9534 58.9375 97.9707C58.3922 97.0387 57.5621 96.2853 56.554 95.8075Z" fill="#345AFA"/>
<path d="M207.761 107.806C207.621 110.039 207.148 112.245 206.355 114.36C206.073 115.048 205.715 115.707 205.286 116.325L216.771 117.091L217.706 106.446L207.895 105.782C207.854 106.483 207.817 107.171 207.761 107.806Z" fill="#345AFA"/>
<path d="M237.615 126.57L241.639 120.954L230.912 99.3271L241.577 100.049L247.724 112.617L249.49 110.126L251.474 87.5117C250.87 87.5521 250.263 87.5527 249.66 87.5133L230.998 86.2624L233.819 74.8345L232.97 63.7562L251.005 64.9913C251.83 65.0462 252.645 65.1921 253.433 65.426L254.068 57.9931C254.334 54.9756 253.968 51.945 252.991 49.0744C252.014 46.2037 250.446 43.5493 248.376 41.2628C246.305 38.9763 243.774 37.1025 240.925 35.7484C238.077 34.3943 234.967 33.5865 231.774 33.3711L42.0842 20.5243C35.6397 20.0925 29.2484 22.0966 24.315 26.0963C19.3815 30.0959 16.3096 35.7638 15.7743 41.8542L15.1132 49.0244L27.6359 49.8689C29.832 50.0183 31.5188 50.6195 32.6833 51.678C33.2603 52.2102 33.6975 52.8627 33.9607 53.5844C34.2239 54.3061 34.3059 55.0774 34.2003 55.8379C34.1262 56.7964 33.8094 57.7267 33.2767 58.5504C32.6741 59.4289 31.8205 60.1296 30.816 60.5701C30.6903 60.6294 30.5494 60.6731 30.4143 60.7291C30.8561 60.8609 31.286 61.0249 31.7003 61.2196C32.7596 61.6892 33.6434 62.4473 34.2394 63.3975C34.7811 64.345 35.0039 65.4286 34.8782 66.5052C34.795 67.6626 34.393 68.7828 33.7122 69.7547C33.01 70.7205 32.0143 71.4639 30.8587 71.8854C29.413 72.3926 27.866 72.5772 26.3398 72.4247L13.1549 71.5335L12.0109 84.5389L15.2617 84.7607L13.9928 99.2285L26.8383 85.5307L36.9783 86.2184L26.5973 96.6812L35.006 112.861L24.0487 112.117L19.8804 103.467L12.1191 111.308L9.69963 111.146L9.28494 115.589C9.01936 118.606 9.38541 121.637 10.3622 124.508C11.3389 127.378 12.9073 130.033 14.9776 132.319C17.0479 134.606 19.5796 136.48 22.4281 137.834C25.2766 139.188 28.3861 139.996 31.5789 140.211L221.268 153.045C224.46 153.262 227.674 152.882 230.725 151.927C233.776 150.972 236.605 149.461 239.05 147.48C241.495 145.499 243.508 143.087 244.974 140.382C246.441 137.677 247.331 134.731 247.596 131.713L247.988 127.273L237.615 126.57ZM198.689 54.2882C198.871 54.8118 199.207 55.2744 199.658 55.6225C200.104 55.9432 200.644 56.1277 201.207 56.1516C201.768 56.2013 202.333 56.0909 202.831 55.8349C203.335 55.5501 203.747 55.1396 204.022 54.6492L210.367 55.0782C209.635 57.1461 208.43 58.5741 206.754 59.3622C204.892 60.1265 202.867 60.4545 200.853 60.318C198.838 60.1814 196.895 59.5844 195.189 58.5782C193.657 57.5669 192.71 55.9938 192.348 53.8588L198.689 54.2882ZM186.632 60.628L194.758 61.1743L193.479 75.7328L204.094 61.8077L214.795 62.5305L212.819 85.0371L204.692 84.4867L206.014 69.4448L195.041 83.8326L184.659 83.1342L186.632 60.628ZM124.793 56.4411L151.204 58.2279L149.231 80.7299L141.059 80.1753L142.433 64.5123L132.39 63.8366L131.016 79.5123L122.798 78.9495L124.793 56.4411ZM102.029 54.9016L107.237 65.5161L114.183 55.7265L123.012 56.3196L107.517 77.912L98.692 77.3142L102.097 72.5629L93.0128 54.2925L102.029 54.9016ZM38.2258 68.1379C37.1935 66.1969 36.7727 64.0118 37.0126 61.8393C37.1511 59.6534 37.9512 57.5441 39.3178 55.7622C40.6727 54.0524 42.5106 52.7365 44.6168 51.9683C47.0305 51.1041 49.6163 50.7742 52.1737 51.0043C54.5725 51.1163 56.9132 51.7073 59.0415 52.7385C60.9039 53.6568 62.4828 55.0103 63.6295 56.6715C64.7444 58.3299 65.3551 60.2495 65.3956 62.2231L57.178 61.6687C57.073 60.9245 56.7735 60.2187 56.3064 59.6147C55.8158 59.0089 55.1721 58.5292 54.4332 58.2189C53.5362 57.852 52.5757 57.6386 51.5961 57.5888C50.5095 57.4889 49.4103 57.6269 48.3837 57.992C47.499 58.3197 46.7396 58.8957 46.2089 59.6416C45.6515 60.4656 45.328 61.4095 45.2698 62.3813C45.1544 63.3457 45.3088 64.319 45.7175 65.2038C46.1173 66.0065 46.7657 66.6738 47.5779 67.1185C48.5234 67.6299 49.5872 67.9191 50.6807 67.9623C51.6542 68.0492 52.6382 67.9778 53.5899 67.7512C54.3749 67.5649 55.0967 67.1877 55.6828 66.6572C56.2619 66.1026 56.6837 65.4196 56.9087 64.6724L65.1267 65.231C64.7433 67.1759 63.8053 68.9908 62.4142 70.4795C60.9918 71.9667 59.1957 73.0915 57.1954 73.7479C54.9111 74.491 52.4912 74.7694 50.0958 74.5646C47.5333 74.4437 45.0409 73.7693 42.8102 72.5931C40.8604 71.5537 39.2703 70.0084 38.2258 68.1379ZM66.5059 108.98C64.8515 111.01 62.6267 112.562 60.0898 113.456C57.1614 114.474 54.0359 114.86 50.9437 114.588C47.8381 114.443 44.8148 113.64 42.0974 112.238C39.7467 111.014 37.8192 109.182 36.5386 106.954C35.3309 104.641 34.8132 102.056 35.0403 99.473C35.2674 96.8897 36.2309 94.405 37.8285 92.2829C39.4843 90.2541 41.7085 88.7024 44.2446 87.8068C47.1724 86.7869 50.2984 86.4 53.3907 86.6749C56.4962 86.82 59.5195 87.623 62.237 89.0246C64.5868 90.2498 66.5139 92.0817 67.7958 94.3088C69.0034 96.6211 69.5212 99.2063 69.2941 101.79C69.067 104.373 68.1034 106.858 66.5059 108.98ZM66.4388 59.4347L67.0442 52.531L92.3776 54.2433L91.7722 61.147L83.2029 60.5671L81.8328 76.1826L73.6422 75.6256L75.0135 60.0228L66.4388 59.4347ZM114.946 118.268L105.747 117.647L107.385 98.9639L98.0456 117.128L88.4583 116.481L82.4168 97.3699L80.7836 115.959L71.5839 115.333L73.9218 88.7188L88.9056 89.7339L94.1127 107.544L102.309 90.6379L117.289 91.6534L114.946 118.268ZM144.38 120.261L142.847 115.662L129.731 114.773L127.41 119.114L117.083 118.411L131.77 92.632L144.691 93.5104L154.707 120.96L144.38 120.261ZM151.039 80.8572L163.462 59.0597L174.382 59.7954L182.851 83.0112L174.122 82.4211L172.836 78.5297L161.734 77.7988L159.777 81.4464L151.039 80.8572ZM188.24 123.229L178.552 122.574L179.39 113.029L167.373 112.212L166.536 121.761L156.844 121.107L159.177 94.4885L168.869 95.1471L168.086 104.13L180.102 104.943L180.891 95.9678L190.574 96.6231L188.24 123.229ZM230.093 131.38L221.003 130.766L221.472 125.479L200.215 124.041L199.751 129.327L190.666 128.712L191.842 115.335L195.494 115.582C196.532 114.426 197.303 113.08 197.757 111.631C198.407 109.564 198.808 107.437 198.953 105.29C199.058 104.086 199.119 102.814 199.135 101.482C199.15 100.15 199.124 98.7236 199.058 97.2114L228.085 99.1323L226.462 117.686L231.269 118.008L230.093 131.38Z" fill="#345AFA"/>
<path d="M168.405 65.281L164.923 71.8023L170.712 72.1958L168.405 65.281Z" fill="#345AFA"/>
<path d="M248.461 72.807C248.656 72.6642 248.817 72.4834 248.931 72.2773C249.046 72.0711 249.112 71.8445 249.125 71.6129C249.15 71.4005 249.126 71.186 249.056 70.984C248.985 70.782 248.869 70.5972 248.716 70.4421C248.341 70.0904 247.833 69.894 247.302 69.8956L241.084 69.4755L241.369 72.8145L247.016 73.1961C247.531 73.2491 248.05 73.1094 248.461 72.807Z" fill="#345AFA"/>
<path d="M247.521 82.2247C248.119 82.2951 248.726 82.1455 249.217 81.8068C249.437 81.6387 249.616 81.4277 249.743 81.1887C249.869 80.9496 249.939 80.6881 249.948 80.4222C249.975 80.1674 249.948 79.9106 249.868 79.6671C249.789 79.4236 249.658 79.1982 249.483 79.0044C249.269 78.7864 249.009 78.6127 248.72 78.4937C248.43 78.3748 248.118 78.3133 247.801 78.313L240.953 77.8517L239.969 81.7123L247.521 82.2247Z" fill="#345AFA"/>
<path d="M25.1255 57.6986C25.3196 57.555 25.4793 57.3741 25.5937 57.1681C25.7082 56.9621 25.7748 56.7358 25.7891 56.5045C25.8143 56.2914 25.7907 56.0762 25.7201 55.8735C25.6494 55.6708 25.5334 55.4853 25.3797 55.3295C25.1946 55.1551 24.9744 55.0175 24.7319 54.9244C24.4893 54.8314 24.2291 54.7847 23.9662 54.7872L17.7702 54.3607L18.0551 57.6996L23.707 58.0808C24.2122 58.1295 24.7201 57.9927 25.1255 57.6986Z" fill="#345AFA"/>
<path d="M24.1844 67.112C24.7827 67.1837 25.3899 67.0357 25.881 66.6984C26.1003 66.5295 26.2791 66.3184 26.4053 66.0795C26.5314 65.8406 26.602 65.5794 26.6122 65.3137C26.6394 65.0583 26.6123 64.8009 26.5323 64.5567C26.4524 64.3125 26.3214 64.0864 26.1469 63.8918C25.9324 63.674 25.6726 63.5003 25.3834 63.3814C25.0942 63.2625 24.7816 63.2009 24.4649 63.2003L17.6423 62.7665L16.658 66.6228L24.1844 67.112Z" fill="#345AFA"/>
<path d="M50.9593 30.6056L51.3386 26.265L48.0286 26.0404L47.6448 30.3814L43.0701 30.0705L42.7948 33.1989L47.3879 33.5123L47.0086 37.8529L50.3276 38.0767L50.7114 33.7356L55.304 34.0447L55.5793 30.9164L50.9593 30.6056ZM54.718 33.4303L50.1384 33.1156L49.7595 37.4605L47.6685 37.3179L48.0518 32.9726L50.3133 31.1435L54.906 31.4526L54.718 33.4303Z" fill="#E6F19E"/>
<path d="M216.652 41.8151L217.031 37.4744L213.721 37.2498L213.338 41.5908L208.745 41.2817L208.47 44.4101L213.063 44.7235L212.684 49.0641L215.994 49.2887L216.377 44.9434L220.97 45.2568L221.25 42.128L216.652 41.8151ZM220.41 44.6355L215.813 44.3268L215.434 48.6674L213.343 48.5291L213.74 44.1825L216.001 42.3491L220.594 42.6583L220.41 44.6355Z" fill="#E6F19E"/>
<path d="M129.697 133.299L130.076 128.954L126.748 128.731L126.364 133.077L121.771 132.763L121.497 135.896L126.116 136.203L125.733 140.548L129.043 140.772L129.426 136.427L134.019 136.741L134.294 133.608L129.697 133.299ZM133.455 136.12L128.863 135.811L128.479 140.152L126.392 140.009L126.771 135.668L129.033 133.835L133.626 134.148L133.455 136.12Z" fill="#E6F19E"/>
<path d="M108.624 95.8612C106.343 95.6919 104.14 95.0286 102.186 93.9226C98.5231 91.8971 95.3297 88.4055 92.6928 83.5506C92.3263 82.8767 92.26 82.0899 92.5085 81.3632C92.757 80.6366 93.2999 80.0297 94.0177 79.676C94.7356 79.3223 95.5697 79.2509 96.3364 79.4773C97.1031 79.7038 97.7397 80.2096 98.1062 80.8835C101.859 87.7899 106.812 91.0927 111.628 89.9213C116.333 88.7778 119.973 83.7425 119.911 78.4568C119.902 77.6964 120.213 76.9602 120.776 76.4103C121.055 76.138 121.387 75.9196 121.753 75.7676C122.12 75.6156 122.514 75.533 122.913 75.5244C123.312 75.5158 123.708 75.5815 124.078 75.7177C124.448 75.8538 124.785 76.0578 125.07 76.318C125.356 76.5782 125.583 76.8894 125.74 77.234C125.897 77.5786 125.98 77.9497 125.985 78.3262C126.077 86.2913 120.528 93.6645 113.081 95.4734C111.625 95.829 110.12 95.9599 108.624 95.8612Z" fill="white" stroke="#262C3F" stroke-width="0.65" stroke-miterlimit="10"/>
<path d="M139.492 102C138.965 101.963 138.442 101.894 137.925 101.794C133.852 100.998 130.258 98.1868 128.066 94.0884C125.846 89.9201 125.197 84.8499 126.182 79.4234C126.363 78.4847 126.929 77.6474 127.756 77.0939C128.583 76.5405 129.605 76.3159 130.599 76.4691C131.592 76.6222 132.477 77.1408 133.06 77.9116C133.643 78.6824 133.877 79.643 133.711 80.5841C132.281 88.3383 135.624 93.9628 139.544 94.7268C143.242 95.4441 146.854 91.4127 148.786 84.4436C149.044 83.5154 149.68 82.7176 150.555 82.2259C151.431 81.7341 152.473 81.5887 153.453 81.8215C154.433 82.0544 155.271 82.6464 155.782 83.4674C156.293 84.2885 156.435 85.2712 156.178 86.1995C154.647 91.7519 152.215 95.9719 148.968 98.7228C146.16 101.089 142.843 102.225 139.492 102Z" fill="white" stroke="#262C3F" stroke-width="0.65" stroke-miterlimit="10"/>
<path d="M192.837 90.5033L189.64 84.622L239.067 60.276C239.478 60.0733 239.927 59.9486 240.388 59.9092C240.849 59.8698 241.312 59.9163 241.752 60.0462C242.191 60.1761 242.598 60.3867 242.95 60.6661C243.302 60.9455 243.591 61.2882 243.801 61.6747C244.011 62.0611 244.138 62.4837 244.174 62.9183C244.211 63.3528 244.156 63.7909 244.014 64.2076C243.871 64.6242 243.644 65.0111 243.344 65.3463C243.044 65.6815 242.678 65.9584 242.266 66.1611L192.839 90.5071L192.837 90.5033Z" fill="white" stroke="#262C3F" stroke-width="0.66" stroke-miterlimit="10"/>
<path d="M150.926 136.414L149.89 148.215L167.667 149.418L168.703 137.617L150.926 136.414Z" fill="#262C3F"/>
<path d="M169.771 137.694L168.735 149.495L187.011 150.731L188.047 138.931L169.771 137.694Z" fill="#262C3F"/>
<path d="M147.691 74.6086L151.874 91.6887C152.493 94.2306 152.691 96.8522 152.46 99.4602L149.022 138.605C148.974 138.967 149.079 139.33 149.314 139.616C149.549 139.901 149.896 140.086 150.278 140.13L188.038 142.683C188.229 142.688 188.419 142.657 188.598 142.592C188.777 142.528 188.942 142.431 189.081 142.307C189.221 142.183 189.334 142.034 189.414 141.869C189.494 141.704 189.538 141.527 189.545 141.347L192.983 102.206C193.211 99.5956 193.865 97.0296 194.921 94.599L202.037 78.2859C202.118 78.1155 202.161 77.9315 202.163 77.7455C202.164 77.5595 202.125 77.3757 202.047 77.2058C201.969 77.0359 201.854 76.8836 201.709 76.7586C201.565 76.6337 201.394 76.5389 201.208 76.4802C184.183 72.1559 166.403 70.9531 148.825 72.9365C148.63 72.9689 148.445 73.0393 148.28 73.1432C148.115 73.247 147.975 73.382 147.868 73.5395C147.761 73.697 147.69 73.8735 147.66 74.0576C147.629 74.2417 147.64 74.4294 147.691 74.6086Z" fill="#E6F19E" stroke="#262C3F" stroke-width="0.66" stroke-miterlimit="10"/>
<path d="M171.534 66.2505L170.986 72.4899C170.929 73.481 171.284 74.4494 171.974 75.1897C172.665 75.9299 173.636 76.3837 174.683 76.4547C175.73 76.5257 176.77 76.2083 177.581 75.57C178.393 74.9316 178.913 74.0224 179.03 73.0355L179.578 66.7962L171.534 66.2505Z" fill="white" stroke="#262C3F" stroke-width="0.66" stroke-miterlimit="10"/>
<path d="M166.709 63.1962C166.318 62.8066 165.774 62.0725 164.806 61.9145C163.912 61.7664 163.394 62.2191 162.853 61.8826C162.312 61.5461 162.647 60.8803 162.039 60.2765C161.33 59.5671 160.349 59.9666 160.052 59.388C159.755 58.8095 160.59 58.2533 160.271 57.5014C160.086 57.0917 159.749 57.1246 159.49 56.7477C158.914 55.9484 160.027 54.95 160.396 53.0574C160.613 51.941 160.48 50.9915 160.213 49.0882C159.996 47.5137 159.78 47.2524 160.012 46.5709C160.321 45.6852 161.011 45.19 160.959 44.2326C160.908 43.7114 160.718 43.6743 160.774 43.318C160.929 42.3019 162.75 41.7221 163.586 41.4566C165.441 40.8479 166.057 41.2155 166.956 40.4819C167.679 39.898 167.457 39.5303 168.18 39.0791C169.132 38.4771 169.793 38.9217 170.886 38.4129C171.754 38.0117 171.624 37.6094 172.545 36.8223C173.737 35.8585 175.249 35.3229 176.81 35.311C177.437 35.3225 179.05 35.3534 179.737 36.3088C180.073 36.7723 179.942 37.1059 180.38 37.4567C180.999 37.9482 181.571 37.533 182.296 37.9843C183.02 38.4355 182.695 38.9164 183.387 39.4093C184.079 39.9022 184.495 39.5193 185.408 39.9479C186.083 40.2671 186.02 40.5513 187.02 41.459C187.647 42.0249 188.331 42.5312 189.063 42.9709C190.388 43.7657 191.045 43.8556 191.26 44.5191C191.378 44.8884 191.272 45.1596 191.545 45.4881C191.874 45.8838 192.232 45.7419 192.507 46.053C192.866 46.4757 192.471 47.0361 192.426 48.1528C192.45 48.6781 192.51 49.201 192.606 49.7181C192.737 51.0572 192.846 52.1802 192.394 53.3579C192.034 54.3086 191.601 54.5262 191.704 55.1621C191.807 55.798 192.362 55.9065 192.485 56.5661C192.622 57.3142 191.995 57.5422 191.724 58.5697C191.335 60.0279 192.287 60.765 191.739 61.4216C191.519 61.6826 191.347 61.5924 189.571 61.9754C187.794 62.3584 187.362 62.5802 187.062 62.8062C186.458 63.2588 186.618 63.4655 186.074 63.7924C185.282 64.2676 184.69 63.9702 183.599 64.2263C182.914 64.4116 182.273 64.7259 181.717 65.1501C179.285 66.6708 174.582 65.6579 171.923 65.0874C169.061 64.4256 167.611 64.1178 166.709 63.1962Z" fill="#262C3F"/>
<path d="M174.486 69.9238C171.782 68.7355 169.357 67.0568 167.346 64.9821C167.173 64.8014 167.044 64.5871 166.967 64.354C166.89 64.1208 166.868 63.8741 166.901 63.6309C167.457 59.8267 167.795 55.9994 167.914 52.1655C167.927 51.8634 168.026 51.5692 168.201 51.3142C168.375 51.0591 168.619 50.8527 168.907 50.7169C171.056 49.7193 173.146 48.6113 175.168 47.398C175.488 47.2056 175.864 47.1144 176.24 47.1378C176.616 47.1612 176.973 47.2979 177.258 47.5278C179.388 49.1954 181.637 50.7225 183.99 52.0987C184.268 52.2659 184.491 52.5039 184.632 52.7857C184.773 53.0675 184.828 53.3819 184.79 53.6934C184.289 57.8619 183.992 60.9068 183.805 64.9849C183.796 65.2264 183.731 65.4638 183.614 65.68C183.497 65.8962 183.331 66.086 183.129 66.2358C180.925 67.8143 178.485 69.072 175.892 69.9664C175.665 70.0486 175.424 70.0872 175.183 70.0798C174.941 70.0725 174.704 70.0195 174.486 69.9238Z" fill="white" stroke="#262C3F" stroke-width="0.66" stroke-miterlimit="10"/>
<path d="M172.174 56.7766C172.442 56.7504 172.639 56.5243 172.614 56.2716C172.59 56.0188 172.353 55.8351 172.085 55.8612C171.817 55.8874 171.619 56.1135 171.644 56.3662C171.669 56.619 171.906 56.8027 172.174 56.7766Z" fill="#345AFA"/>
<path d="M179.798 57.2905C180.066 57.2643 180.263 57.0382 180.239 56.7855C180.214 56.5327 179.977 56.349 179.709 56.3752C179.441 56.4013 179.244 56.6274 179.268 56.8801C179.293 57.1329 179.53 57.3166 179.798 57.2905Z" fill="#345AFA"/>
<path d="M176.789 60.985C176.643 61.1496 176.461 61.2833 176.257 61.377C176.052 61.4707 175.83 61.5223 175.604 61.5284C175.363 61.5381 175.125 61.4871 174.914 61.3806C174.702 61.2741 174.526 61.1161 174.402 60.9227C173.989 60.1801 174.572 59.4131 175.017 58.8136C175.27 58.5204 175.483 58.1977 175.649 57.8535C175.818 57.3529 175.878 56.8258 175.824 56.3049" fill="white"/>
<path d="M176.789 60.985C176.643 61.1496 176.461 61.2833 176.257 61.377C176.052 61.4707 175.83 61.5223 175.604 61.5284C175.363 61.5381 175.125 61.4871 174.914 61.3806C174.702 61.2741 174.526 61.1161 174.402 60.9227C173.989 60.1801 174.572 59.4131 175.017 58.8136C175.27 58.5204 175.483 58.1977 175.649 57.8535C175.818 57.3529 175.878 56.8258 175.824 56.3049" stroke="#262C3F" stroke-width="0.66" stroke-miterlimit="10"/>
<path d="M169.188 55.1812C169.894 54.5614 170.729 54.0886 171.638 53.7941C172.548 53.4996 173.511 53.3901 174.464 53.473" fill="white"/>
<path d="M169.188 55.1812C169.894 54.5614 170.729 54.0886 171.638 53.7941C172.548 53.4996 173.511 53.3901 174.464 53.473" stroke="#262C3F" stroke-width="0.66" stroke-miterlimit="10"/>
<path d="M177.798 53.7595C178.97 53.6849 180.137 53.911 181.177 54.4138C181.769 54.7077 182.306 55.0884 182.77 55.5417" fill="white"/>
<path d="M177.798 53.7595C178.97 53.6849 180.137 53.911 181.177 54.4138C181.769 54.7077 182.306 55.0884 182.77 55.5417" stroke="#262C3F" stroke-width="0.66" stroke-miterlimit="10"/>
<path d="M168.829 54.335L168.701 55.8106C168.661 56.2671 168.716 56.7255 168.863 57.1599C169.011 57.5942 169.248 57.9958 169.561 58.3419C169.874 58.6879 170.257 58.9716 170.687 59.1767C171.118 59.3818 171.588 59.5043 172.071 59.5373C172.555 59.5693 173.043 59.5109 173.505 59.3653C173.967 59.2196 174.396 58.9897 174.765 58.6886C175.135 58.3875 175.44 58.0211 175.661 57.6104C175.882 57.1998 176.016 56.7529 176.055 56.2953C175.974 57.217 176.285 58.1268 176.918 58.8248C177.551 59.5228 178.454 59.9517 179.429 60.0173C180.404 60.0826 181.37 59.7798 182.116 59.1752C182.863 58.5706 183.328 57.7137 183.409 56.7927L183.537 55.3129L168.829 54.335Z" fill="#262C3F"/>
<path d="M183.993 61.7067C183.646 62.0571 182.745 62.8637 181.974 63.0501C181.203 63.2365 180.612 63.0333 179.418 62.7391C177.214 62.1841 176.112 61.9023 174.973 61.992C173.834 62.0817 173.684 62.3573 172.097 62.448C171.395 62.5308 170.685 62.4943 170 62.3403C168.947 61.9909 168.014 61.382 167.297 60.5763C167.176 61.6262 167.043 62.6373 166.899 63.6096C166.866 63.8529 166.888 64.0996 166.965 64.3327C167.042 64.5659 167.171 64.7802 167.344 64.9609C169.355 67.0356 171.78 68.7143 174.484 69.9026C174.701 69.9972 174.936 70.0498 175.176 70.0573C175.416 70.0647 175.655 70.0269 175.881 69.946C178.477 69.0535 180.92 67.7969 183.127 66.2188C183.33 66.069 183.495 65.8792 183.612 65.663C183.729 65.4468 183.794 65.2095 183.803 64.9679C183.843 63.8916 183.907 62.8046 183.993 61.7067Z" fill="#262C3F"/>
<path d="M173.683 64.3425C174.153 64.5385 174.655 64.6572 175.169 64.6938C176.095 64.7533 177.023 64.5512 177.833 64.113" stroke="white" stroke-width="0.66" stroke-miterlimit="10"/>
<path d="M85.2483 114.234L78.0276 113.746L76.6439 129.511L83.8645 129.999L85.2483 114.234Z" fill="#345AFA"/>
<path d="M81.1286 79.5153C80.7517 79.6468 80.3468 79.6863 79.9516 79.6301C79.7539 79.6293 79.5617 79.572 79.4004 79.4657C79.1698 79.2871 79.2133 79.0818 79.0634 78.8013C78.8067 78.4269 78.4189 78.1501 77.9666 78.0185C77.4701 77.8102 77.4502 77.9319 76.8561 77.699C76.418 77.5152 75.9931 77.3051 75.5838 77.0702C75.2748 76.8934 74.9563 76.7317 74.6295 76.5858C73.8605 76.3271 73.6067 76.5615 73.191 76.2983C72.7753 76.0352 72.912 75.5769 72.486 75.2549C71.9083 74.8192 71.3265 75.4107 70.2099 75.1689C69.4665 74.9608 68.8086 74.5468 68.3206 73.98C67.8168 73.4645 67.8471 73.1706 67.2981 72.7964C66.9326 72.5368 66.7746 72.5437 66.2219 72.1784C65.8702 71.9833 65.5549 71.7352 65.2885 71.4438C65.0775 71.1863 65.0888 71.0697 64.6685 69.3653C64.6007 68.9209 64.4592 68.4901 64.2492 68.0886C64.0335 67.7375 63.8708 67.6507 63.8755 67.4192C63.8828 67.0763 64.2474 66.9551 64.7623 66.4215C65.1589 66.1015 65.4353 65.6689 65.5492 65.1897C65.5927 64.7063 65.2499 64.6328 64.954 63.7376C64.748 63.268 64.6776 62.754 64.7496 62.2475C64.8625 61.6846 65.1402 61.6019 65.3572 61.0374C65.561 60.4216 65.571 59.765 65.3861 59.148C65.0633 57.6993 64.2341 57.6605 64.2428 56.727C64.2515 55.7936 65.0272 55.7949 65.3838 54.4767C65.5945 53.7075 65.3441 53.6507 65.4321 52.0421C65.5013 50.7991 65.5361 50.1796 65.8761 49.6673C66.3267 48.986 66.7333 49.1559 67.5037 48.1738C68.0257 47.4812 67.9943 47.1591 68.4349 47.0263C69.0922 46.7911 69.5043 47.4353 70.2707 47.2493C70.7138 47.142 70.6915 46.9131 71.455 46.2782C72.2184 45.6433 72.7885 45.1642 73.6326 44.9834C74.3745 44.8255 74.8596 45.0092 75.2611 44.615C75.4969 44.3823 75.4232 44.2312 75.6819 44.0007C76.0405 43.679 76.4111 43.7584 77.0453 43.611C77.596 43.4723 78.1148 43.2358 78.5737 42.9143C79.4639 42.3226 79.3862 41.9452 79.9709 41.7555C80.6883 41.5315 80.963 42.0224 81.6644 41.7743C82.3658 41.5262 82.2407 41.0336 82.9328 40.8291C83.5277 40.6513 83.8099 40.9874 84.4023 40.7371C84.8387 40.5619 84.787 40.3573 85.1565 40.1459C85.5828 39.943 86.0658 39.8754 86.533 39.9532C87.0001 40.031 87.4263 40.2501 87.7474 40.5776C88.1941 41.1116 87.8875 41.5949 88.385 41.9998C88.7399 42.2903 89.0756 42.1977 89.8224 42.3216C90.5281 42.4541 91.2045 42.696 91.8242 43.0375C92.6825 43.4672 93.4885 43.8719 94.0723 44.6962C94.2449 45.0283 94.507 45.311 94.8326 45.5161C95.3099 45.7605 95.5234 45.5771 95.9745 45.7855C96.5254 46.0397 96.3886 46.4039 97.033 46.9656C97.5948 47.4712 97.8037 47.2883 98.4187 47.8272C98.8734 48.2106 98.8115 48.3664 99.3549 48.9165C99.6786 49.2826 100.068 49.5921 100.505 49.831C101.457 50.2858 101.897 49.8193 102.766 50.2693C103.229 50.5269 103.61 50.8974 103.868 51.3424C104.172 51.8561 104.101 52.1412 104.512 52.7299C104.823 53.1829 104.926 53.1173 105.117 53.4452C105.376 53.9735 105.434 54.5718 105.282 55.1402C105.109 55.7389 104.848 55.7601 104.817 56.2337C104.786 56.7073 105.037 56.8112 105.212 57.4443C105.357 58.0038 105.363 58.5889 105.229 59.1538C105.066 59.9483 104.787 60.0141 104.661 60.7194C104.535 61.4247 104.769 61.4617 104.788 62.3027C104.819 63.69 104.203 63.9297 104.336 65.1573C104.414 65.9582 104.688 65.8845 104.682 66.561C104.675 67.2376 104.431 67.7576 103.995 68.8226C103.745 69.416 103.601 69.6568 103.662 70.0487C103.722 70.4406 103.917 70.5714 103.977 71.0019C104.014 71.3923 103.933 71.786 103.743 72.137C103.2 73.3108 101.459 74.4388 99.5305 75.0291C98.4118 75.3693 98.12 75.2609 97.4727 75.6919C96.5021 76.3427 96.5654 76.9911 95.7346 77.3074C94.8159 77.6537 94.3769 77.0121 93.4738 77.3783C92.8157 77.6521 92.9481 78.0327 92.0209 78.7563C91.4069 79.2256 90.6976 79.5701 89.9381 79.7681C89.2682 79.9187 88.5769 79.9586 87.8952 79.8861C83.9305 79.6911 82.0959 79.2027 81.1286 79.5153Z" fill="#262C3F"/>
<path d="M80.6392 143.531L99.7909 144.824C100.092 138.427 100.017 132.024 99.5658 125.642C99.3662 122.573 98.4996 121.687 96.8393 119.312C94.4098 115.84 91.3832 112.43 89.3083 108.642C86.5163 108.52 83.7742 108.352 80.9909 108.366C80.9834 108.568 80.9849 108.769 80.9773 108.971L73.4673 108.463L64.5156 118.701L64.4096 118.822C64.3162 118.934 64.2473 119.065 64.1629 119.176C62.6354 121.083 61.7088 123.354 61.4911 125.725L61.4616 126.027L61.2956 127.952L60.0264 142.137L78.4799 143.387L79.3034 134.023L80.8602 134.128C80.8684 137.28 80.8022 140.414 80.6392 143.531Z" fill="#262C3F"/>
<path d="M68.233 79.8301L70.9768 84.3306C70.9994 84.3677 71.0054 84.4118 70.9934 84.4534C70.9815 84.4949 70.9526 84.5305 70.9131 84.5522L34.8607 104.408C34.5251 104.592 34.1548 104.713 33.7712 104.763C33.3877 104.813 32.9983 104.79 32.6256 104.697C32.2528 104.604 31.9041 104.442 31.5994 104.221C31.2948 103.999 31.0401 103.723 30.8503 103.407C30.4641 102.773 30.362 102.018 30.5663 101.307C30.7707 100.597 31.2647 99.9886 31.9398 99.6168L67.9884 79.7636C68.0279 79.7418 68.0747 79.7357 68.1185 79.7465C68.1624 79.7573 68.1997 79.7842 68.2223 79.8212L68.233 79.8301Z" fill="white" stroke="#262C3F" stroke-width="0.66" stroke-miterlimit="10"/>
<path d="M73.4672 108.463L71.6891 104.183C70.4331 101.165 69.6072 97.9992 69.233 94.7674L67.272 77.6886C67.2344 77.5004 67.2373 77.3065 67.2807 77.1185C67.3241 76.9305 67.407 76.7522 67.5244 76.5942C67.6419 76.4363 67.7915 76.3019 67.9644 76.1991C68.1373 76.0963 68.33 76.0272 68.5309 75.9958C78.8985 74.3347 89.5094 75.0607 99.4594 78.1119C99.6504 78.1693 99.827 78.2622 99.9788 78.385C100.131 78.5079 100.255 78.6584 100.344 78.8276C100.433 78.9969 100.485 79.1816 100.498 79.371C100.51 79.5604 100.483 79.7507 100.417 79.9307L94.5644 98.5975C93.9554 100.539 93.1799 102.431 92.2456 104.257L89.5327 109.548L73.4672 108.463Z" fill="#E6F19E" stroke="#262C3F" stroke-width="0.66" stroke-miterlimit="10"/>
<path d="M82.9379 77.8467C82.1902 77.7961 81.4979 77.4669 81.013 76.9314C80.5282 76.396 80.2907 75.6982 80.3527 74.9916L81.0987 66.4929L86.7322 66.8741L85.9863 75.3728C85.9243 76.0794 85.5678 76.737 84.9953 77.2009C84.4227 77.6648 83.6811 77.897 82.9334 77.8464L82.9379 77.8467Z" fill="white" stroke="#262C3F" stroke-width="0.66" stroke-miterlimit="10"/>
<path d="M93.4351 62.8028C93.5994 62.7927 93.7635 62.8183 93.9148 62.8777C94.066 62.9371 94.2004 63.0287 94.3076 63.1455C94.4608 63.3134 94.5555 63.522 94.5791 63.7435C94.6365 64.1691 94.5706 64.6028 94.3886 64.9985C94.212 65.4439 93.9435 65.8525 93.5988 66.2006C93.1971 66.604 92.6971 66.9085 92.1433 67.087" fill="white"/>
<path d="M93.4351 62.8028C93.5994 62.7927 93.7635 62.8183 93.9148 62.8777C94.066 62.9371 94.2004 63.0287 94.3076 63.1455C94.4608 63.3134 94.5555 63.522 94.5791 63.7435C94.6365 64.1691 94.5706 64.6028 94.3886 64.9985C94.212 65.4439 93.9435 65.8525 93.5988 66.2006C93.1971 66.604 92.6971 66.9085 92.1433 67.087" stroke="#262C3F" stroke-width="0.66" stroke-miterlimit="10"/>
<path d="M75.7933 62.0171C75.7266 61.9185 75.6307 61.8407 75.5173 61.7933C75.404 61.7458 75.278 61.7308 75.155 61.7499C74.6428 61.7999 74.4095 62.4301 74.3545 62.5638C74.2456 62.9153 74.2242 63.285 74.2921 63.6437C74.3161 64.0558 74.4 64.4622 74.5414 64.8514C74.6767 65.201 74.8614 65.5312 75.0907 65.8331C75.2653 66.0878 75.4933 66.3057 75.7609 66.4736C75.9218 66.5779 76.1012 66.6546 76.291 66.6999" fill="white"/>
<path d="M75.7933 62.0171C75.7266 61.9185 75.6307 61.8407 75.5173 61.7933C75.404 61.7458 75.278 61.7308 75.155 61.7499C74.6428 61.7999 74.4095 62.4301 74.3545 62.5638C74.2456 62.9153 74.2242 63.285 74.2921 63.6437C74.3161 64.0558 74.4 64.4622 74.5414 64.8514C74.6767 65.201 74.8614 65.5312 75.0907 65.8331C75.2653 66.0878 75.4933 66.3057 75.7609 66.4736C75.9218 66.5779 76.1012 66.6546 76.291 66.6999" stroke="#262C3F" stroke-width="0.66" stroke-miterlimit="10"/>
<path d="M84.2188 72.4204C86.3756 71.6453 88.481 70.7455 90.5231 69.7262C91.0057 69.4853 91.3799 69.0865 91.5748 68.6055C92.5709 66.1246 93.3338 63.5678 93.8544 60.9651C93.9267 60.6164 93.9058 60.2572 93.7937 59.92C93.6816 59.5828 93.4819 59.2784 93.2125 59.0342C91.2961 57.3109 89.2241 55.7482 87.0197 54.3637C86.6591 54.1369 86.2345 54.0163 85.799 54.0169C85.3634 54.0175 84.9363 54.1394 84.571 54.3673C82.2083 55.8225 79.7044 57.0596 77.0944 58.0613C76.6722 58.2266 76.3123 58.5095 76.0631 58.8718C75.8138 59.2342 75.6872 59.6587 75.7003 60.0882C75.7868 62.644 76.0262 65.1915 76.4175 67.7185C76.5 68.2505 76.7932 68.7309 77.238 69.0631C78.8416 70.27 80.5487 71.3496 82.3422 72.2912C82.6252 72.4392 82.9393 72.5274 83.2632 72.5497C83.5871 72.572 83.9131 72.5279 84.2188 72.4204Z" fill="white" stroke="#262C3F" stroke-width="0.66" stroke-miterlimit="10"/>
<path d="M78.8675 61.499C79.212 60.8798 79.7738 60.3914 80.4554 60.1186C81.137 59.8459 81.8955 59.8059 82.5995 60.0055" stroke="#262C3F" stroke-width="0.66" stroke-miterlimit="10"/>
<path d="M90.2938 61.89C89.9679 61.5335 89.5879 61.2247 89.1658 60.9734C88.3781 60.5113 87.4745 60.2516 86.5435 60.2196" stroke="#262C3F" stroke-width="0.66" stroke-miterlimit="10"/>
<path d="M82.5267 67.5803C82.9043 67.8781 83.355 68.0823 83.8388 68.1747C84.3226 68.267 84.8244 68.2447 85.2996 68.1098" stroke="#262C3F" stroke-width="0.66" stroke-miterlimit="10"/>
<path d="M91.2474 61.4847L91.133 62.822C91.0595 63.6556 90.6387 64.4313 89.9633 64.9785C89.2878 65.5257 88.413 65.7997 87.5309 65.7402C86.7712 65.6881 86.0561 65.3921 85.5042 64.9013C84.9523 64.4104 84.5968 63.7543 84.4966 63.0417C84.4931 63.0255 84.484 63.011 84.4709 63.0001C84.4578 62.9893 84.4413 62.9828 84.4238 62.9816C84.4063 62.9804 84.3889 62.9846 84.374 62.9936C84.3592 63.0025 84.3477 63.0157 84.3414 63.0312C84.1174 63.7197 83.652 64.3181 83.0222 64.7272C82.3925 65.1364 81.6361 65.3319 80.8782 65.2813C79.9963 65.2213 79.1796 64.8327 78.6077 64.201C78.0358 63.5694 77.7555 62.7463 77.8284 61.9126L77.9473 60.5749L91.2474 61.4847Z" fill="#262C3F"/>
<path d="M84.1913 66.0019C84.3812 66.0807 84.5865 66.1223 84.7947 66.124C85.003 66.1258 85.21 66.0876 85.4032 66.012C85.5711 65.9383 85.7103 65.8163 85.8006 65.6636C85.8909 65.5109 85.9276 65.3355 85.9054 65.163C85.8416 64.7414 85.3892 64.5203 85.1078 64.2398C84.8768 64.027 84.6939 63.7722 84.5698 63.4904C84.4457 63.2086 84.383 62.9055 84.3854 62.5991" fill="white"/>
<path d="M84.1913 66.0019C84.3812 66.0807 84.5865 66.1223 84.7947 66.124C85.003 66.1258 85.21 66.0876 85.4032 66.012C85.5711 65.9383 85.7103 65.8163 85.8006 65.6636C85.8909 65.5109 85.9276 65.3355 85.9054 65.163C85.8416 64.7414 85.3892 64.5203 85.1078 64.2398C84.8768 64.027 84.6939 63.7722 84.5698 63.4904C84.4457 63.2086 84.383 62.9055 84.3854 62.5991" stroke="#262C3F" stroke-width="0.66" stroke-miterlimit="10"/>
</svg>
