<svg width="250" height="151" viewBox="0 0 250 151" fill="none" xmlns="http://www.w3.org/2000/svg">
<g clip-path="url(#clip0_202_2321)">
<path d="M13.9947 19.2978L0.374642 92.054C0.0581104 93.7697 -0.0494291 95.5139 0.0541178 97.2527L234.439 136.232C235.167 134.631 235.699 132.957 236.023 131.242L249.648 58.486C250.08 56.1801 250.138 53.8256 249.819 51.5033L16.3512 12.6813C15.2145 14.7614 14.4199 16.9924 13.9947 19.2978Z" fill="white"/>
<path d="M124.589 96.2607L136.236 98.1979L132.932 83.7429L124.589 96.2607Z" fill="#345AFA"/>
<path d="M64.2087 42.3407C65.4187 42.0833 66.5193 41.4901 67.3688 40.6376C68.1834 39.7211 68.7278 38.6184 68.9473 37.4405C69.1668 36.2626 69.0537 35.051 68.6193 33.9274C68.1282 32.8584 67.311 31.9514 66.2718 31.3217C63.7087 29.8646 60.663 29.3578 57.7259 29.8996C56.5159 30.157 55.4153 30.7501 54.5658 31.6027C53.7489 32.5197 53.2027 33.6236 52.9824 34.8032C52.762 35.9828 52.8753 37.1963 53.3108 38.3214C53.8 39.3902 54.6157 40.2974 55.6538 40.9271C58.2188 42.3837 61.2657 42.8905 64.2042 42.3492L64.2087 42.3407Z" fill="#345AFA"/>
<path d="M232.443 61.1131L248.632 63.804L249.219 60.6575L232.484 57.8729L232.443 61.1131Z" fill="#345AFA"/>
<path d="M247.355 70.6376L231.166 67.9467L230.028 71.0038L246.768 73.7883L247.355 70.6376Z" fill="#345AFA"/>
<path d="M196.229 82.159L202.17 113.526L219.022 85.9612L243.725 90.0699L245.3 81.6311L217.46 76.9901L222.39 62.9652L222.841 48.1951L249.901 52.6955C249.482 47.6104 247.282 42.801 243.648 39.0242C240.014 35.2473 235.151 32.7174 229.825 31.8326L42.255 0.623405C35.8819 -0.433316 29.3248 0.940285 24.0253 4.44219C18.7258 7.94409 15.1178 13.2876 13.9947 19.2978L12.3695 27.9964L18.3737 28.9927L18.2292 29.7591C17.859 31.729 17.9629 33.2703 18.5407 34.383C19.1186 35.4957 20.3224 36.2053 22.1522 36.5119C23.958 36.7957 25.3439 36.5644 26.31 35.8178C27.2761 35.0713 27.9157 33.8976 28.2287 32.2967L31.2172 16.3302L41.7178 18.0759L38.6299 34.5831C38.2351 36.9929 37.1147 39.2451 35.4021 41.0719C33.7073 42.8298 31.5141 44.0931 29.0819 44.7122C26.2985 45.41 23.3822 45.4945 20.5587 44.9592C17.7621 44.5547 15.1114 43.5159 12.8345 41.9319C11.8451 41.217 10.9628 40.3792 10.2116 39.4412L8.07626 50.8774L51.0446 58.0219L48.4533 71.8723L31.2172 69.0069L25.362 100.327L8.88886 97.5891L14.7576 66.2777L5.49853 64.7364L0.37465 92.054C-0.182739 95.0315 -0.112687 98.0833 0.580804 101.035C1.2743 103.987 2.57764 106.781 4.41637 109.258C6.25511 111.735 8.59321 113.846 11.2971 115.47C14.001 117.094 17.0177 118.2 20.1749 118.724L207.745 149.917C213.387 150.852 219.198 149.886 224.161 147.187C229.124 144.488 232.922 140.229 234.89 135.155L220.412 132.749L226.335 101.055L207.321 130.557L191.042 127.849L183.85 94.1275L177.954 125.673L162.312 123.072L170.754 77.9098L196.229 82.159ZM184.491 41.8212L194.992 43.5669L193.186 53.2788L206.21 55.446L208.016 45.7341L218.521 47.4798L213.153 76.2706L202.653 74.5249L204.585 64.1999L191.561 62.0327L189.628 72.362L179.128 70.6121L184.491 41.8212ZM101.349 27.9921L114.892 30.2445L123.524 49.6257L126.779 32.2243L136.954 33.9274L131.573 62.7182L118.427 60.534L109.511 40.463L106.143 58.4775L95.9632 56.7744L101.349 27.9921ZM85.9637 25.4375L96.4642 27.1832L91.0785 55.974L80.578 54.2283L85.9637 25.4375ZM48.7558 47.7054C46.3165 46.1204 44.405 43.9144 43.2437 41.3444C42.112 38.7176 41.8201 35.8359 42.404 33.0546C42.8631 30.2437 44.1845 27.621 46.2051 25.5099C48.2289 23.4732 50.8222 22.0178 53.6855 21.3117C56.6951 20.5198 60.0614 20.4332 63.7843 21.052C67.5072 21.6708 70.6402 22.8332 73.1833 24.5391C75.6174 26.1236 77.5255 28.3262 78.6864 30.8916C79.8224 33.5264 80.1143 36.4174 79.5261 39.207C79.0679 42.0169 77.7464 44.6385 75.725 46.7474C73.7006 48.7817 71.1072 50.2342 68.2446 50.9371C65.2349 51.729 61.8687 51.8156 58.1458 51.1968C54.4229 50.578 51.2929 49.4142 48.7558 47.7054ZM92.8572 111.533L46.4986 103.827L54.2318 81.8269L54.9405 58.6606L100.988 66.3245L98.6763 78.6123L70.0594 73.8437L70.0007 78.9274L95.7103 83.1852L93.7059 93.9402L67.9963 89.6824L66.1905 94.4767L95.1235 99.2879L92.8572 111.533ZM141.125 119.559L139.266 111.427L116.96 107.718L112.265 114.76L94.6991 111.823L124.147 70.1735L146.109 73.8224L158.673 122.467L141.125 119.559ZM168.569 48.276L164.84 68.2362L154.335 66.4906L158.068 46.526L147.08 44.6995L148.728 35.8732L181.232 41.272L179.561 50.0855L168.569 48.276Z" fill="#345AFA"/>
<path d="M49.7671 13.4349L50.5616 9.14741L47.2887 8.60242L46.4986 12.89L41.9481 12.1321L41.3748 15.2232L45.9163 15.9768L45.1172 20.2814L48.3902 20.8264L49.2073 16.5218L53.7217 17.301L54.2996 14.2099L49.7671 13.4349ZM53.2387 16.607L48.6926 15.8491L47.8936 20.1366L45.826 19.7917L46.6295 15.5085L49.0583 13.8948L53.5998 14.6527L53.2387 16.607Z" fill="#E6F19E"/>
<path d="M214.309 36.8525L215.108 32.5649L211.835 32.02L211.036 36.3075L206.49 35.5496L205.912 38.6407L210.458 39.3944L209.655 43.6989L212.928 44.2439L213.731 39.9564L218.273 40.7185L218.85 37.6274L214.309 36.8525ZM217.776 40.0245L213.235 39.2666L212.431 43.5542L210.368 43.2093L211.167 38.926L213.596 37.3123L218.142 38.0702L217.776 40.0245Z" fill="#E6F19E"/>
<path d="M123.659 122.229L124.463 117.941L121.185 117.396L120.386 121.684L115.84 120.926L115.262 124.017L119.808 124.77L119.009 129.058L122.282 129.603L123.081 125.315L127.627 126.073L128.205 122.982L123.659 122.229ZM127.126 125.401L122.585 124.647L121.786 128.93L119.718 128.585L120.535 124.302L122.968 122.697L127.51 123.455L127.126 125.401Z" fill="#E6F19E"/>
<path d="M101.642 82.142C99.3883 81.7521 97.2597 80.8779 95.4215 79.5874C91.9725 77.2158 89.1329 73.4307 86.9795 68.3427C86.6802 67.6364 86.6906 66.8468 87.0085 66.1478C87.3264 65.4487 87.9258 64.8974 88.6747 64.615C89.4236 64.3327 90.2607 64.3426 91.002 64.6424C91.7432 64.9422 92.3277 65.5075 92.6271 66.2138C95.6924 73.452 100.279 77.2158 105.209 76.5175C110.003 75.8363 114.116 71.1783 114.567 65.9115C114.632 65.1538 115.014 64.4516 115.628 63.9593C116.243 63.4671 117.039 63.2251 117.842 63.2866C118.646 63.3482 119.39 63.7082 119.912 64.2875C120.434 64.8668 120.691 65.6179 120.626 66.3756C119.944 74.312 113.705 81.1074 106.116 82.1846C104.632 82.4006 103.121 82.3862 101.642 82.142Z" fill="white" stroke="#262C3F" stroke-width="0.65" stroke-miterlimit="10"/>
<path d="M131.772 91.2493C131.251 91.1628 130.736 91.0433 130.232 90.8916C126.255 89.7037 122.95 86.5615 121.172 82.2655C119.366 77.9013 119.208 72.792 120.72 67.4911C120.992 66.5744 121.636 65.7959 122.513 65.3255C123.39 64.855 124.429 64.7307 125.403 64.9796C126.377 65.2285 127.208 65.8304 127.713 66.6542C128.218 67.478 128.358 68.4568 128.101 69.3773C125.953 76.9518 128.715 82.8701 132.544 84.0197C136.155 85.0884 140.141 81.4267 142.742 74.6824C143.102 73.8013 143.814 73.0884 144.725 72.697C145.636 72.3056 146.674 72.2669 147.615 72.5891C148.556 72.9114 149.325 73.5689 149.758 74.4205C150.191 75.2721 150.252 76.2497 149.929 77.1434C147.852 82.5295 145.026 86.4849 141.523 88.899C138.498 90.9896 135.09 91.8113 131.772 91.2493Z" fill="white" stroke="#262C3F" stroke-width="0.65" stroke-miterlimit="10"/>
<path d="M185.985 84.9803L183.374 78.8163L234.937 59.3847C235.367 59.2229 235.826 59.1424 236.288 59.1479C236.751 59.1534 237.207 59.2447 237.632 59.4167C238.057 59.5886 238.442 59.8378 238.765 60.15C239.088 60.4623 239.342 60.8314 239.514 61.2364C239.685 61.6414 239.771 62.0743 239.765 62.5104C239.759 62.9465 239.662 63.3772 239.48 63.778C239.298 64.1788 239.033 64.5418 238.702 64.8463C238.371 65.1508 237.98 65.3908 237.55 65.5526L185.987 84.9843L185.985 84.9803Z" fill="white" stroke="#262C3F" stroke-width="0.66" stroke-miterlimit="10"/>
<path d="M139.813 126.615L137.636 138.26L155.686 141.261L157.863 129.617L139.813 126.615Z" fill="#262C3F"/>
<path d="M158.445 129.709L156.268 141.353L174.34 144.359L176.517 132.715L158.445 129.709Z" fill="#262C3F"/>
<path d="M142.593 64.7832L145.098 82.1888C145.468 84.7803 145.41 87.41 144.927 89.9848L137.704 128.607C137.62 128.962 137.689 129.334 137.895 129.641C138.102 129.948 138.429 130.166 138.805 130.246L176.144 136.454C176.333 136.477 176.526 136.465 176.71 136.418C176.895 136.371 177.068 136.29 177.219 136.18C177.37 136.071 177.497 135.934 177.592 135.777C177.688 135.621 177.749 135.449 177.774 135.27L184.997 96.6481C185.475 94.069 186.375 91.5755 187.665 89.2567L196.332 73.7074C196.43 73.5457 196.49 73.3667 196.51 73.1817C196.529 72.9968 196.508 72.81 196.447 72.6333C196.386 72.4566 196.286 72.2939 196.154 72.1556C196.023 72.0172 195.862 71.9062 195.682 71.8298C179.156 65.8728 161.574 62.9492 143.884 63.2164C143.686 63.2295 143.493 63.2819 143.318 63.37C143.143 63.4582 142.989 63.5801 142.867 63.728C142.746 63.8758 142.658 64.0462 142.611 64.228C142.564 64.4098 142.557 64.599 142.593 64.7832Z" fill="#E6F19E" stroke="#262C3F" stroke-width="0.66" stroke-miterlimit="10"/>
<path d="M167.138 58.7841L165.986 64.9365C165.879 65.4349 165.878 65.9486 165.984 66.4473C166.09 66.946 166.301 67.4196 166.605 67.8402C166.908 68.2608 167.298 68.6199 167.75 68.8962C168.203 69.1726 168.71 69.3606 169.241 69.4493C169.772 69.538 170.317 69.5255 170.843 69.4126C171.368 69.2997 171.865 69.0886 172.303 68.7918C172.741 68.4951 173.112 68.1186 173.393 67.6846C173.674 67.2506 173.86 66.7679 173.941 66.2649L175.092 60.1082L167.138 58.7841Z" fill="white" stroke="#262C3F" stroke-width="0.66" stroke-miterlimit="10"/>
<path d="M162.632 55.2629C162.28 54.8371 161.811 54.058 160.863 53.8025C159.987 53.5683 159.427 53.9728 158.921 53.5811C158.416 53.1894 158.813 52.5635 158.267 51.9036C157.63 51.1287 156.615 51.431 156.375 50.8306C156.136 50.2303 157.021 49.7492 156.777 48.9742C156.633 48.5229 156.294 48.5485 156.073 48.1482C155.576 47.2967 156.782 46.4068 157.332 44.559C157.657 43.4733 157.617 42.511 157.536 40.5908C157.472 39.0026 157.283 38.7216 157.581 38.0659C157.978 37.2144 158.709 36.7886 158.75 35.8306C158.75 35.3069 158.565 35.2558 158.655 34.9024C158.908 33.9104 160.777 33.5059 161.635 33.3228C163.54 32.897 164.122 33.3228 165.084 32.6842C165.86 32.169 165.675 31.7815 166.438 31.4068C167.445 30.9002 168.059 31.4068 169.196 31.0066C170.099 30.6915 170.009 30.2785 171.002 29.5888C172.282 28.7436 173.839 28.3557 175.395 28.4945C176.018 28.5669 177.62 28.7543 178.212 29.7719C178.501 30.2615 178.338 30.5808 178.74 30.9725C179.309 31.5218 179.918 31.1641 180.595 31.6836C181.272 32.203 180.902 32.6543 181.543 33.2121C182.184 33.7699 182.636 33.425 183.503 33.9402C184.144 34.3234 184.058 34.6044 184.961 35.6007C185.528 36.2259 186.16 36.7964 186.848 37.3038C188.089 38.2235 188.735 38.3767 188.884 39.058C188.965 39.4369 188.834 39.6966 189.073 40.0543C189.362 40.4801 189.732 40.3694 189.976 40.71C190.292 41.1656 189.845 41.685 189.692 42.7878C189.664 43.3129 189.673 43.8391 189.719 44.3631C189.719 45.7128 189.719 46.8369 189.155 47.9652C188.703 48.8806 188.252 49.0509 188.292 49.6938C188.333 50.3367 188.875 50.4985 188.933 51.167C188.997 51.9249 188.351 52.0909 187.981 53.0872C187.453 54.505 188.328 55.331 187.719 55.9271C187.48 56.1656 187.313 56.0634 185.507 56.272C183.701 56.4806 183.25 56.6552 182.929 56.8553C182.284 57.2428 182.424 57.4684 181.85 57.7367C181.015 58.1326 180.455 57.7792 179.345 57.9283C178.646 58.0469 177.979 58.2975 177.385 58.6648C174.812 59.9422 170.23 58.4775 167.639 57.6515C164.853 56.7233 163.445 56.2763 162.632 55.2629Z" fill="#262C3F"/>
<path d="M169.742 62.7225C167.167 61.2788 164.916 59.3739 163.115 57.1151C162.961 56.9184 162.853 56.6926 162.799 56.4531C162.745 56.2136 162.747 55.9659 162.804 55.727C163.726 51.9933 164.434 48.2155 164.926 44.41C164.967 44.1108 165.094 43.8279 165.292 43.5916C165.491 43.3553 165.755 43.1746 166.054 43.0688C168.29 42.2845 170.478 41.3848 172.609 40.3736C172.946 40.2139 173.329 40.1599 173.701 40.2197C174.073 40.2794 174.415 40.4497 174.677 40.7057C176.636 42.5725 178.726 44.3122 180.934 45.913C181.195 46.1054 181.393 46.3631 181.506 46.6566C181.62 46.9502 181.643 47.2678 181.575 47.5735C180.672 51.6779 180.081 54.6754 179.498 58.716C179.465 58.9559 179.377 59.1862 179.24 59.3907C179.102 59.5951 178.92 59.7688 178.704 59.8996C176.352 61.2471 173.798 62.2519 171.128 62.88C170.898 62.9418 170.657 62.9597 170.419 62.9327C170.181 62.9056 169.951 62.8342 169.742 62.7225Z" fill="white" stroke="#262C3F" stroke-width="0.66" stroke-miterlimit="10"/>
<path d="M168.695 49.4128C168.964 49.4128 169.183 49.2069 169.183 48.9529C169.183 48.699 168.964 48.4931 168.695 48.4931C168.426 48.4931 168.208 48.699 168.208 48.9529C168.208 49.2069 168.426 49.4128 168.695 49.4128Z" fill="#345AFA"/>
<path d="M176.234 50.6645C176.504 50.6645 176.722 50.4587 176.722 50.2047C176.722 49.9507 176.504 49.7449 176.234 49.7449C175.965 49.7449 175.747 49.9507 175.747 50.2047C175.747 50.4587 175.965 50.6645 176.234 50.6645Z" fill="#345AFA"/>
<path d="M172.903 54.0495C172.741 54.1994 172.548 54.3149 172.335 54.3884C172.123 54.4618 171.896 54.4914 171.67 54.4752C171.43 54.4585 171.199 54.3829 170.999 54.256C170.8 54.129 170.639 53.9551 170.533 53.7514C170.194 52.9765 170.849 52.2655 171.35 51.7162C171.631 51.4476 171.874 51.1456 172.072 50.8178C172.29 50.336 172.4 49.8173 172.397 49.2936" fill="white"/>
<path d="M172.903 54.0495C172.741 54.1994 172.548 54.3149 172.335 54.3884C172.123 54.4618 171.896 54.4914 171.67 54.4752C171.43 54.4585 171.199 54.3829 170.999 54.256C170.8 54.129 170.639 53.9551 170.533 53.7514C170.194 52.9765 170.849 52.2655 171.35 51.7162C171.631 51.4476 171.874 51.1456 172.072 50.8178C172.29 50.336 172.4 49.8173 172.397 49.2936" stroke="#262C3F" stroke-width="0.66" stroke-miterlimit="10"/>
<path d="M165.878 47.5309C166.751 46.905 167.772 46.4873 168.853 46.3132C169.657 46.1845 170.478 46.196 171.277 46.3472" fill="white"/>
<path d="M165.878 47.5309C166.751 46.905 167.772 46.4873 168.853 46.3132C169.657 46.1845 170.478 46.196 171.277 46.3472" stroke="#262C3F" stroke-width="0.66" stroke-miterlimit="10"/>
<path d="M174.586 46.9603C175.508 46.9837 176.413 47.1971 177.239 47.5855C178.064 47.9738 178.789 48.5278 179.363 49.2084" fill="white"/>
<path d="M174.586 46.9603C175.508 46.9837 176.413 47.1971 177.239 47.5855C178.064 47.9738 178.789 48.5278 179.363 49.2084" stroke="#262C3F" stroke-width="0.66" stroke-miterlimit="10"/>
<path d="M165.603 46.6793L165.332 48.1397C165.163 49.0493 165.383 49.985 165.946 50.7411C166.508 51.4972 167.365 52.0118 168.33 52.1718C168.807 52.2514 169.296 52.2416 169.769 52.1428C170.242 52.044 170.69 51.8582 171.087 51.596C171.484 51.3339 171.823 51.0005 172.083 50.6149C172.344 50.2293 172.521 49.7991 172.605 49.3489C172.435 50.2585 172.656 51.1942 173.218 51.9503C173.78 52.7064 174.638 53.221 175.602 53.381C176.08 53.4606 176.569 53.4508 177.042 53.352C177.515 53.2532 177.963 53.0674 178.36 52.8052C178.757 52.5431 179.096 52.2097 179.356 51.8241C179.616 51.4385 179.793 51.0083 179.877 50.5581L180.148 49.102L165.603 46.6793Z" fill="#262C3F"/>
<path d="M179.986 55.4716C179.602 55.7824 178.631 56.4977 177.841 56.6084C177.051 56.7191 176.464 56.4594 175.327 56.0506C173.187 55.2842 172.117 54.901 170.979 54.8755C169.842 54.85 169.657 55.1182 168.068 55.0543C167.361 55.0665 166.659 54.9613 165.991 54.7435C164.978 54.2905 164.11 53.5946 163.472 52.7253C163.249 53.7557 163.019 54.7492 162.781 55.7058C162.724 55.9446 162.723 56.1923 162.776 56.4318C162.83 56.6713 162.938 56.8971 163.093 57.0938C164.897 59.3624 167.157 61.2748 169.742 62.7225C169.949 62.8377 170.178 62.9129 170.416 62.9436C170.654 62.9743 170.896 62.96 171.128 62.9013C173.798 62.2732 176.352 61.2684 178.704 59.9209C178.92 59.7901 179.102 59.6164 179.24 59.412C179.377 59.2075 179.465 58.9772 179.498 58.7373C179.634 57.6345 179.801 56.553 179.986 55.4716Z" fill="#262C3F"/>
<path d="M169.467 57.0895C169.913 57.3325 170.4 57.501 170.907 57.5876C171.824 57.7345 172.766 57.6234 173.616 57.2683" stroke="white" stroke-width="0.66" stroke-miterlimit="10"/>
<path d="M75.8423 63.2036C75.4551 63.3027 75.0468 63.3027 74.6596 63.2036C74.4631 63.1876 74.2776 63.1113 74.1314 62.9864C73.9147 62.7863 73.9779 62.5862 73.856 62.2924C73.6365 61.8961 73.2773 61.5844 72.8403 61.4111C72.3662 61.1556 72.3346 61.2706 71.7658 60.9853C71.3485 60.7569 70.946 60.5053 70.5605 60.2317C70.2701 60.0257 69.9687 59.8339 69.6576 59.6569C68.9172 59.3248 68.6463 59.5334 68.2536 59.2311C67.8608 58.9288 68.0459 58.486 67.6532 58.1241C67.1205 57.6387 66.4839 58.1667 65.396 57.8176C64.6872 57.5409 64.0809 57.0728 63.6534 56.4721C63.2245 55.9058 63.2606 55.6206 62.7505 55.1948C62.4119 54.901 62.2539 54.8925 61.7393 54.4752C61.4091 54.2458 61.1196 53.9684 60.8815 53.6535C60.6964 53.3767 60.7235 53.2618 60.4662 51.5246C60.4422 51.0743 60.3432 50.6303 60.1728 50.209C59.9922 49.8428 59.8387 49.7364 59.8658 49.5107C59.9064 49.1701 60.2856 49.0849 60.8454 48.5996C61.2723 48.3205 61.5896 47.9164 61.7483 47.45C61.8386 46.9731 61.5045 46.8667 61.2969 45.947C61.1396 45.4593 61.1193 44.9413 61.2382 44.444C61.4052 43.899 61.6896 43.8437 61.9605 43.2987C62.2221 42.7053 62.2973 42.0536 62.1772 41.421C61.9921 39.9521 61.1705 39.8286 61.2743 38.9004C61.3781 37.9723 62.1411 38.0489 62.6286 36.7716C62.9085 36.0222 62.6647 35.9413 62.9085 34.3532C63.0981 33.1184 63.1929 32.5053 63.5812 32.0285C64.0958 31.394 64.4615 31.6027 65.3463 30.7C65.9106 30.0486 65.9377 29.7463 66.362 29.6484C67.0392 29.4781 67.3868 30.1593 68.1678 30.0443C68.6193 29.9847 68.6193 29.7548 69.4409 29.1928C70.2625 28.6308 70.8765 28.2093 71.7342 28.1113C72.4881 28.0262 72.9531 28.2604 73.391 27.9027C73.6483 27.6941 73.5896 27.5408 73.8695 27.3322C74.2578 27.0469 74.6189 27.1619 75.2645 27.0767C75.8272 26.9961 76.3674 26.8108 76.8536 26.5317C77.8016 26.0293 77.7565 25.6461 78.3569 25.5141C79.0927 25.3608 79.3185 25.8803 80.0408 25.6972C80.7631 25.5141 80.6863 25.016 81.3951 24.884C82.0045 24.7648 82.2528 25.1224 82.8668 24.9351C83.3182 24.7988 83.2866 24.5902 83.6749 24.4199C84.119 24.2593 84.6063 24.2389 85.0638 24.3617C85.5212 24.4846 85.9241 24.744 86.212 25.1011C86.6047 25.6759 86.2526 26.123 86.7086 26.5786C87.0336 26.8979 87.3767 26.8383 88.108 27.0384C88.7952 27.2379 89.4422 27.5444 90.0222 27.9453C90.8348 28.4562 91.5977 28.9373 92.0988 29.8144C92.2386 30.1628 92.4719 30.4709 92.776 30.7086C93.2274 30.9938 93.4576 30.8363 93.8865 31.0875C94.4102 31.3898 94.2386 31.7389 94.8255 32.3648C95.3357 32.9226 95.5614 32.7608 96.1212 33.3611C96.5365 33.7869 96.4597 33.9359 96.9473 34.5363C97.2344 34.9319 97.5936 35.2764 98.0082 35.5539C98.9111 36.1031 99.3896 35.6816 100.211 36.2138C100.648 36.513 100.991 36.9174 101.204 37.3847C101.457 37.9254 101.362 38.2064 101.71 38.8323C101.981 39.3092 102.085 39.2581 102.243 39.5987C102.449 40.1497 102.449 40.7508 102.243 41.3018C102.012 41.8766 101.751 41.8723 101.678 42.3407C101.606 42.809 101.836 42.941 101.949 43.5882C102.039 44.1592 101.988 44.7419 101.8 45.2913C101.561 46.0619 101.277 46.1003 101.083 46.7943C100.888 47.4883 101.119 47.5436 101.055 48.3782C100.952 49.7662 100.315 49.9407 100.329 51.1755C100.329 51.9845 100.609 51.9334 100.536 52.6061C100.464 53.2788 100.171 53.7727 99.6334 54.7903C99.3264 55.3566 99.1819 55.5865 99.1819 55.9782C99.1819 56.3699 99.3851 56.5275 99.4031 56.9575C99.4022 57.351 99.2833 57.7363 99.06 58.0688C98.4055 59.18 96.5636 60.1338 94.5863 60.534C93.4396 60.7682 93.1597 60.6277 92.4735 60.9938C91.4442 61.5473 91.4442 62.203 90.5865 62.4329C89.6384 62.6927 89.2637 62.0072 88.3293 62.2839C87.6476 62.4925 87.7424 62.8843 86.7492 63.5144C86.0924 63.9218 85.3529 64.1959 84.5778 64.3191C83.8964 64.406 83.204 64.3787 82.5327 64.2382C78.6323 63.6507 76.8536 62.9864 75.8423 63.2036Z" fill="#262C3F"/>
<path d="M89.7332 110.907C89.8371 107.833 89.0561 106.867 87.634 104.342C85.5574 100.646 82.8713 96.9589 81.1739 92.9864C78.4065 92.599 75.6934 92.1604 72.926 91.905C72.8944 92.1093 72.8763 92.3052 72.8493 92.5053L65.423 91.2706L55.5274 100.595L55.41 100.706C55.3062 100.808 55.2295 100.927 55.1301 101.034C53.4239 102.781 52.2807 104.95 51.8346 107.288L51.7759 107.586L51.4238 109.489L48.8099 123.468L67.0573 126.499L68.7863 117.26L70.3257 117.515C70.0052 120.657 69.6485 123.766 69.1881 126.852L88.1216 130.003C89.0326 123.671 89.5707 117.296 89.7332 110.907Z" fill="#262C3F"/>
<path d="M63.0022 62.2863L65.2871 67.0127C65.306 67.0517 65.3076 67.0962 65.2917 67.1364C65.2758 67.1766 65.2436 67.2092 65.2022 67.227L27.3914 83.4861C26.6833 83.7906 25.876 83.8173 25.1469 83.5604C24.4179 83.3034 23.827 82.7839 23.5042 82.116C23.1813 81.4482 23.153 80.6867 23.4254 79.9992C23.6978 79.3116 24.2487 78.7543 24.9568 78.4498L62.7675 62.1907C62.8089 62.1729 62.8561 62.1714 62.8987 62.1864C62.9413 62.2014 62.9759 62.2318 62.9948 62.2708L63.0022 62.2863Z" fill="white" stroke="#262C3F" stroke-width="0.66" stroke-miterlimit="10"/>
<path d="M65.4231 91.2706L64.0688 86.8425C63.1113 83.7157 62.5981 80.4828 62.5429 77.2286L62.245 60.0443C62.2252 59.8532 62.2465 59.6603 62.3077 59.4771C62.3689 59.294 62.4686 59.1243 62.601 58.9784C62.7334 58.8325 62.8956 58.7133 63.078 58.6279C63.2604 58.5426 63.4592 58.4929 63.6625 58.4817C74.1419 57.8285 84.6334 59.5741 94.2432 63.5697C94.4279 63.6458 94.5947 63.7558 94.734 63.8932C94.8733 64.0307 94.9822 64.1928 95.0544 64.3703C95.1267 64.5478 95.1608 64.737 95.1549 64.927C95.1489 65.1171 95.1029 65.3041 95.0197 65.4772L87.3813 83.5002C86.5866 85.3731 85.6309 87.1816 84.5237 88.9075L81.3094 93.9146L65.4231 91.2706Z" fill="#E6F19E" stroke="#262C3F" stroke-width="0.66" stroke-miterlimit="10"/>
<path d="M77.8261 61.702C77.0868 61.5791 76.4296 61.1842 75.999 60.6042C75.5684 60.0242 75.3997 59.3067 75.5301 58.6094L77.0979 50.2233L82.673 51.1504L81.1052 59.5365C80.9748 60.2338 80.5561 60.8537 79.9412 61.2598C79.3262 61.6659 78.5654 61.825 77.8261 61.702Z" fill="white" stroke="#262C3F" stroke-width="0.66" stroke-miterlimit="10"/>
<path d="M89.7333 47.7651C89.8978 47.771 90.0587 47.8124 90.2035 47.8862C90.3483 47.9601 90.4732 48.0643 90.5685 48.1908C90.7041 48.3731 90.7781 48.5898 90.7807 48.8125C90.7964 49.2416 90.6888 49.6668 90.4692 50.043C90.2501 50.4691 89.9431 50.8498 89.5663 51.1627C89.1272 51.5253 88.5999 51.7798 88.0314 51.9036" fill="white"/>
<path d="M89.7333 47.7651C89.8978 47.771 90.0587 47.8124 90.2035 47.8862C90.3483 47.9601 90.4732 48.0643 90.5685 48.1908C90.7041 48.3731 90.7781 48.5898 90.7807 48.8125C90.7964 49.2416 90.6888 49.6668 90.4692 50.043C90.2501 50.4691 89.9431 50.8498 89.5663 51.1627C89.1272 51.5253 88.5999 51.7798 88.0314 51.9036" stroke="#262C3F" stroke-width="0.66" stroke-miterlimit="10"/>
<path d="M72.2308 45.2743C72.1751 45.1685 72.0876 45.0806 71.9792 45.0216C71.8708 44.9625 71.7463 44.9349 71.6213 44.9422C71.1067 44.9422 70.8133 45.5468 70.7456 45.6745C70.6033 46.0138 70.5461 46.3796 70.5785 46.7432C70.5623 47.1571 70.6064 47.5711 70.7094 47.9737C70.8098 48.3335 70.9617 48.6787 71.1609 48.9998C71.312 49.2726 71.5228 49.5121 71.7794 49.7023C71.9278 49.8228 72.0974 49.9179 72.2805 49.9833" fill="white"/>
<path d="M72.2308 45.2743C72.1751 45.1685 72.0876 45.0806 71.9792 45.0216C71.8708 44.9625 71.7463 44.9349 71.6213 44.9422C71.1067 44.9422 70.8133 45.5468 70.7456 45.6745C70.6033 46.0138 70.5461 46.3796 70.5785 46.7432C70.5623 47.1571 70.6064 47.5711 70.7094 47.9737C70.8098 48.3335 70.9617 48.6787 71.1609 48.9998C71.312 49.2726 71.5228 49.5121 71.7794 49.7023C71.9278 49.8228 72.0974 49.9179 72.2805 49.9833" stroke="#262C3F" stroke-width="0.66" stroke-miterlimit="10"/>
<path d="M79.6255 56.4423C81.8469 55.8798 84.0299 55.1902 86.1624 54.3773C86.6661 54.1844 87.0773 53.8238 87.3181 53.364C88.5498 50.9898 89.5574 48.5178 90.3292 45.9768C90.4342 45.6374 90.4479 45.2787 90.3691 44.933C90.2902 44.5874 90.1214 44.2657 89.8777 43.997C88.1387 42.0933 86.228 40.3353 84.167 38.7429C83.8301 38.4822 83.4191 38.3209 82.9855 38.2793C82.5519 38.2376 82.1149 38.3174 81.7292 38.5088C79.2369 39.7295 76.6242 40.7177 73.9283 41.4594C73.4932 41.5863 73.1091 41.8344 72.8263 42.171C72.5435 42.5077 72.3753 42.9171 72.3437 43.3455C72.1815 45.8977 72.1724 48.4564 72.3166 51.0095C72.344 51.5476 72.5896 52.0553 73.0028 52.4273C74.4807 53.7854 76.0752 55.0258 77.7701 56.1358C78.0377 56.3099 78.342 56.4274 78.6622 56.4803C78.9825 56.5332 79.3111 56.5203 79.6255 56.4423Z" fill="white" stroke="#262C3F" stroke-width="0.66" stroke-miterlimit="10"/>
<path d="M75.3594 45.0614C75.7264 44.5408 76.2544 44.1394 76.8717 43.9118C77.6308 43.647 78.4668 43.6561 79.2192 43.9373" stroke="#262C3F" stroke-width="0.66" stroke-miterlimit="10"/>
<path d="M86.677 46.5516C86.3872 46.1651 86.0389 45.8209 85.6432 45.5297C84.9043 44.9936 84.0297 44.6487 83.1061 44.5292" stroke="#262C3F" stroke-width="0.66" stroke-miterlimit="10"/>
<path d="M78.4156 51.4608C78.7026 51.738 79.0468 51.9568 79.4269 52.1037C79.9712 52.3091 80.5668 52.3623 81.1424 52.2569" stroke="#262C3F" stroke-width="0.66" stroke-miterlimit="10"/>
<path d="M87.6882 46.2536L87.4399 47.5735C87.2858 48.396 86.7917 49.1271 86.0662 49.6061C85.3407 50.0852 84.4432 50.2729 83.5711 50.1281C82.8195 50.0032 82.1359 49.6393 81.6341 49.0971C81.1323 48.5549 80.8424 47.8669 80.8127 47.1477C80.8072 47.1327 80.7968 47.1197 80.7831 47.1104C80.7693 47.1012 80.7529 47.0963 80.736 47.0963C80.7191 47.0963 80.7027 47.1012 80.6889 47.1104C80.6752 47.1197 80.6648 47.1327 80.6592 47.1477C80.3693 47.8109 79.8478 48.3608 79.1811 48.7062C78.5144 49.0516 77.7425 49.1717 76.9935 49.0467C76.122 48.9002 75.3476 48.434 74.8399 47.75C74.3321 47.0661 74.1326 46.2202 74.2849 45.3978L74.5332 44.0779L87.6882 46.2536Z" fill="#262C3F"/>
<path d="M80.2214 50.0515C80.4028 50.1484 80.6031 50.2097 80.8103 50.2317C81.0174 50.2536 81.2271 50.2358 81.4268 50.1792C81.601 50.1222 81.7515 50.0143 81.8562 49.8711C81.961 49.7279 82.0145 49.5569 82.0092 49.383C82.0092 48.9572 81.5577 48.6933 81.3049 48.391C81.0961 48.1565 80.939 47.8851 80.8428 47.5927C80.7467 47.3002 80.7135 46.9926 80.7451 46.6879" fill="white"/>
<path d="M80.2214 50.0515C80.4028 50.1484 80.6031 50.2097 80.8103 50.2317C81.0174 50.2536 81.2271 50.2358 81.4268 50.1792C81.601 50.1222 81.7515 50.0143 81.8562 49.8711C81.961 49.7279 82.0145 49.5569 82.0092 49.383C82.0092 48.9572 81.5577 48.6933 81.3049 48.391C81.0961 48.1565 80.939 47.8851 80.8428 47.5927C80.7467 47.3002 80.7135 46.9926 80.7451 46.6879" stroke="#262C3F" stroke-width="0.66" stroke-miterlimit="10"/>
</g>
<defs>
<clipPath id="clip0_202_2321">
<rect width="250" height="150" fill="white" transform="translate(0 0.27002)"/>
</clipPath>
</defs>
</svg>
