<svg width="250" height="150" viewBox="0 0 250 150" fill="none" xmlns="http://www.w3.org/2000/svg">
<g clip-path="url(#clip0_202_2288)">
<path d="M236.251 20.2623L0.603607 59.4503L13.9739 130.965L249.622 91.7769L236.251 20.2623Z" fill="white"/>
<path d="M239.017 35.0529L238.543 32.4984L232.037 33.5968C231.649 32.921 231.04 32.3817 230.299 32.0598C229.433 31.6702 228.498 31.4335 227.541 31.3616C226.393 31.2717 225.237 31.3289 224.106 31.5319C222.746 31.7273 221.447 32.1994 220.3 32.9156C219.305 33.5574 218.557 34.4846 218.165 35.5596C217.745 36.8533 217.685 38.2274 217.993 39.549C218.194 40.9399 218.798 42.2515 219.74 43.3383C220.608 44.2704 221.772 44.9126 223.058 45.169C224.573 45.4578 226.134 45.4578 227.65 45.169C229.15 44.9399 230.608 44.5098 231.979 43.8917C232.646 43.5799 233.265 43.1846 233.821 42.7166L228.024 43.6831L226.787 37.0796L239.017 35.0529Z" fill="#345AFA"/>
<path d="M12.577 80.0772C13.2682 80.4099 14.0272 80.5987 14.8026 80.6307C15.8683 80.6852 16.9371 80.6165 17.9852 80.4263C19.2427 80.2605 20.4628 79.9009 21.5967 79.3619C22.4213 78.9191 22.7719 78.3614 22.6485 77.6887C22.5931 77.4539 22.4735 77.2368 22.3017 77.0591C22.1298 76.8813 21.9117 76.749 21.6689 76.6754C21.1091 76.4511 20.0422 76.4171 18.4682 76.5732L13.5024 77.0883C9.22584 77.5368 5.96197 77.2359 3.71082 76.1857L4.42408 79.9835L11.3807 78.8297C11.6026 79.3705 12.0287 79.8148 12.577 80.0772Z" fill="#345AFA"/>
<path d="M127.995 85.2545C127.126 84.8273 126.122 84.7108 125.169 84.9266L117.373 86.2295L118.493 92.2327L126.311 90.9299C127.287 90.8268 128.19 90.3943 128.853 89.7122C129.354 89.012 129.547 88.1558 129.391 87.3241C129.235 86.4925 128.743 85.7504 128.018 85.2545H127.995Z" fill="#345AFA"/>
<path d="M139.29 46.6549C138.536 46.2722 137.658 46.1647 136.825 46.3526L130.419 47.417L131.422 52.7944L137.832 51.73C138.686 51.6398 139.472 51.2472 140.031 50.6315C140.463 50.0038 140.626 49.245 140.489 48.508C140.352 47.7709 139.923 47.1103 139.29 46.6592V46.6549Z" fill="#345AFA"/>
<path d="M107.383 54.0206C107.34 53.6462 107.211 53.2852 107.003 52.9635C106.796 52.6419 106.515 52.3675 106.182 52.16C105.428 51.7773 104.55 51.6698 103.717 51.8577L97.3113 52.9264L98.3135 58.2952L104.724 57.2308C105.577 57.1401 106.362 56.7494 106.922 56.1366C107.157 55.8364 107.32 55.4917 107.399 55.1263C107.479 54.761 107.473 54.3837 107.383 54.0206Z" fill="#345AFA"/>
<path d="M78.017 103.29L86.3098 101.91L80.3689 92.9991L78.017 103.29Z" fill="#345AFA"/>
<path d="M237.879 91.3386L233.708 69.0457L221.433 71.1022L219.591 61.2415L243.174 57.3203L241.82 50.0312L238.719 50.5464L237.726 47.5661C236.7 48.9332 235.384 50.0843 233.861 50.9466C231.901 52.0316 229.739 52.7541 227.491 53.0754C225.286 53.4531 223.032 53.5034 220.81 53.2244C218.726 52.9687 216.713 52.3355 214.883 51.3596C213.065 50.3753 211.506 49.0159 210.323 47.383C209.015 45.5365 208.151 43.4425 207.791 41.2478C207.332 39.068 207.385 36.8199 207.944 34.6612C208.463 32.7379 209.447 30.9541 210.82 29.4499C212.239 27.9205 213.955 26.6617 215.876 25.7415C217.979 24.737 220.232 24.0393 222.557 23.6723C225.988 23.1047 229.013 23.0961 231.631 23.6468C233.664 24.0483 235.593 24.8222 237.31 25.9246L236.019 19.0273C235.463 16.0497 234.29 13.2046 232.568 10.6545C230.846 8.10441 228.608 5.89932 225.982 4.16518C223.356 2.43105 220.394 1.20185 217.264 0.547808C214.134 -0.106232 210.898 -0.172299 207.741 0.353381L20.1746 31.5489C17.0175 32.0733 14.0008 33.1792 11.297 34.8035C8.59312 36.4277 6.25506 38.5384 4.41636 41.0151C2.57765 43.4918 1.27433 46.2858 0.580855 49.2376C-0.112624 52.1895 -0.182675 55.2412 0.374704 58.2186L1.35432 63.4938C2.37837 62.4515 3.58854 61.5868 4.92968 60.9392C7.38721 59.7679 10.0238 58.9663 12.744 58.5635C15.4322 58.0701 18.1909 58.0212 20.8969 58.4187C23.114 58.7254 25.2158 59.5461 27.0139 60.8072C28.6006 61.9445 29.7179 63.5673 30.1739 65.397L19.7909 67.1213C19.6159 66.6711 19.2633 66.3019 18.8068 66.0909C18.1864 65.8162 17.5104 65.671 16.825 65.6652C15.8413 65.6338 14.8571 65.7066 13.8907 65.8823C12.7271 66.0371 11.5975 66.3677 10.5455 66.8616C9.76605 67.2731 9.435 67.7897 9.55237 68.4113C9.60204 68.6361 9.71505 68.8442 9.8795 69.0135C10.0439 69.1828 10.2538 69.3072 10.4868 69.3736C11.0286 69.5893 12.0082 69.6319 13.4257 69.5013L19.0235 68.9137C21.4358 68.5998 23.8835 68.6142 26.2916 68.9563C28.2057 69.2941 29.6818 69.9526 30.7201 70.9319C31.8131 72.012 32.5203 73.3876 32.7426 74.8659C33.1455 76.8201 32.8169 78.8456 31.8126 80.5966C30.6915 82.4657 29.0593 84.0169 27.0861 85.0884C24.6399 86.4281 21.9498 87.3248 19.1544 87.7324C16.2887 88.2632 13.3473 88.3237 10.4598 87.9112C8.7706 87.6611 7.1406 87.1352 5.64295 86.3572L7.53897 96.4903L19.0822 94.5701L31.149 114.185L35.3067 91.8708L53.4454 88.8564L59.4585 121.01L48.3035 122.862L44.0826 100.297L38.9949 124.412L27.4021 126.34L13.8816 105.427L18.08 127.89L13.5656 128.644L14.0171 130.973C15.1422 136.986 18.7539 142.332 24.0578 145.834C29.3617 149.336 35.9234 150.707 42.2994 149.647L229.862 118.451C236.233 117.386 241.896 113.979 245.605 108.978C249.315 103.977 250.767 97.7917 249.643 91.7814L249.192 89.4567L237.879 91.3386ZM151.921 36.1131L162.124 34.41L167.356 62.3911L157.149 64.0941L151.921 36.1131ZM70.7534 49.6097L80.9558 47.9067L86.1879 75.8877L75.981 77.5908L70.7534 49.6097ZM46.4978 72.1453L48.3712 82.172L38.1688 83.875L32.9547 55.8982L43.1572 54.1952L44.9223 63.63L57.5624 61.5268L55.7973 52.0876L66.0043 50.3846L71.2364 78.3656L61.0295 80.0687L59.138 70.042L46.4978 72.1453ZM95.0902 115.083L91.7496 110.072L75.8636 112.712L74.5409 118.502L62.0407 120.58L70.9836 85.9357L86.6258 83.3385L107.59 113.006L95.0902 115.083ZM101.121 73.4055L90.9144 75.1086L85.6868 47.1275L102.972 44.2536C105.33 43.7999 107.763 43.8348 110.105 44.3558C112.045 44.7971 113.799 45.7792 115.138 47.1744C116.433 48.654 117.3 50.4246 117.653 52.3138C118.007 54.203 117.836 56.1464 117.156 57.9546C116.398 59.6901 115.107 61.1726 113.45 62.2123C111.436 63.4563 109.159 64.2741 106.778 64.6093L99.6994 65.7887L101.121 73.4055ZM133.119 108.744L123.377 99.3131L119.888 99.8921L121.892 110.613L110.155 112.563L104.141 80.405L125.508 76.8542C127.961 76.3928 130.492 76.4466 132.92 77.0117C135.004 77.5052 136.901 78.5373 138.396 79.9921C139.826 81.4954 140.781 83.3463 141.153 85.3351C141.524 87.3238 141.298 89.3711 140.5 91.2449C139.63 93.0931 138.221 94.6701 136.437 95.7921C136.157 95.9751 135.859 96.1497 135.561 96.3157L146.531 106.534L133.119 108.744ZM132.808 60.275L134.23 67.8877L124.023 69.5907L118.813 41.6182L136.099 38.7443C138.456 38.2906 140.89 38.3254 143.231 38.8465C145.17 39.288 146.924 40.2684 148.265 41.6608C149.559 43.1414 150.425 44.9127 150.779 46.8025C151.132 48.6923 150.961 50.6362 150.283 52.4453C149.524 54.1808 148.234 55.6632 146.576 56.7029C144.562 57.947 142.286 58.7647 139.904 59.0999L132.808 60.275ZM175.08 101.765L167.27 92.701L160.643 104.184L150.003 105.951L144.008 73.7972L155.646 71.86L158.905 89.3503L169.636 69.5311L181.928 67.4917L173.062 82.7936L188.411 99.5728L175.08 101.765ZM181.973 59.9472L172.082 61.5906L166.873 33.6351L180.041 31.4425L194.753 46.408L191.593 29.4967L201.484 27.8533L206.712 55.8344L193.936 57.9632L178.718 42.4569L181.973 59.9472ZM222.765 93.8378L189.761 99.3259L189.255 82.8319L183.752 67.1681L216.526 61.7184L218.165 70.4635L197.787 73.8696L199.06 77.2757L217.366 74.2315L218.792 81.8611L200.487 84.9053L200.527 88.5243L221.131 85.0969L222.765 93.8378Z" fill="#345AFA"/>
<mask id="mask0_202_2288" style="mask-type:luminance" maskUnits="userSpaceOnUse" x="148" y="61" width="95" height="70">
<path d="M232.448 61.85L148.676 75.7812L158.861 130.256L242.632 116.325L232.448 61.85Z" fill="white"/>
</mask>
<g mask="url(#mask0_202_2288)">
<path d="M183.251 120.065C180.163 111 173.807 105.189 162.819 103.979C173.383 99.7218 177.405 93.0587 174.335 83.7345C184.235 84.4029 192.104 81.3971 197.859 74.5593C204.793 82.9724 214.441 86.2507 226.246 85.4248C216.765 90.0272 214.251 96.5882 221.113 105.763C210.685 107.556 210.599 116.595 216.964 130.151C206.658 114.385 195.679 107.573 183.251 120.065Z" fill="#E6F19E" stroke="#262C3F" stroke-width="1.12" stroke-miterlimit="10"/>
</g>
<path d="M180.084 107.222L176.412 96.1795L183.103 94.2008L183.498 95.3869L178.158 96.966L179.399 100.697L184.237 99.2662L184.631 100.452L179.793 101.883L181.435 106.822L180.084 107.222ZM189.089 104.558L185.418 93.5163L189.188 92.4013C190.06 92.1435 190.824 92.0792 191.482 92.2085C192.138 92.3342 192.685 92.6126 193.124 93.0435C193.562 93.4744 193.89 94.0151 194.106 94.6657C194.322 95.3163 194.38 95.933 194.278 96.5157C194.177 97.0984 193.896 97.6157 193.436 98.0676C192.974 98.5159 192.311 98.8679 191.447 99.1236L188.396 100.026L187.994 98.8182L191.002 97.9287C191.597 97.7526 192.048 97.5245 192.354 97.2446C192.664 96.9635 192.848 96.6407 192.906 96.276C192.967 95.9067 192.923 95.501 192.776 95.0589C192.629 94.6168 192.417 94.2551 192.14 93.9738C191.863 93.6925 191.512 93.5163 191.085 93.4451C190.657 93.3703 190.142 93.422 189.539 93.6003L187.163 94.3029L190.44 104.159L189.089 104.558ZM192.692 98.0447L197.087 102.193L195.518 102.657L191.166 98.4959L192.692 98.0447ZM198.903 101.656L195.232 90.6139L201.966 88.6223L202.361 89.8084L196.977 91.4004L198.218 95.1314L203.252 93.6425L203.647 94.8287L198.612 96.3176L199.86 100.07L205.33 98.4524L205.725 99.6385L198.903 101.656ZM208.073 98.944L204.402 87.902L211.136 85.9104L211.53 87.0965L206.147 88.6885L207.388 92.4195L212.422 90.9306L212.817 92.1168L207.782 93.6057L209.03 97.3583L214.5 95.7405L214.894 96.9266L208.073 98.944Z" fill="#262C3F"/>
<path d="M31.8803 41.1626L31.0813 36.8752L27.8039 37.4202L28.6074 41.7246L24.0615 42.4612L24.6393 45.5565L29.1853 44.8029L29.9843 49.086L33.2572 48.5368L32.4582 44.2494L37.0177 43.4958L36.4263 40.4047L31.8803 41.1626ZM36.2909 43.0232L31.7494 43.781L32.5485 48.0642L30.4809 48.4091L29.6819 44.1216L31.3838 41.831L35.9252 41.0774L36.2909 43.0232Z" fill="#E6F19E"/>
<path d="M178.849 16.7196L178.05 12.4322L174.777 12.9772L175.576 17.2646L171.035 18.0182L171.608 21.1092L176.154 20.3514L176.962 24.6388L180.235 24.0938L179.432 19.8064L183.978 19.0528L183.4 15.9618L178.849 16.7196ZM183.282 18.5802L178.741 19.3381L179.54 23.6212L177.477 23.9661L176.673 19.6787L178.375 17.3881L182.921 16.6345L183.282 18.5802Z" fill="#E6F19E"/>
<path d="M140.766 119.558L139.967 115.271L136.694 115.807L137.493 120.095L132.948 120.848L133.525 123.935L138.071 123.181L138.87 127.464L142.148 126.924L141.344 122.636L145.89 121.883L145.312 118.787L140.766 119.558ZM145.177 121.419L140.635 122.194L141.434 126.451L139.371 126.796L138.59 122.517L140.292 120.226L144.838 119.473L145.177 121.419Z" fill="#E6F19E"/>
<path d="M91.8128 91.1129C87.3513 91.0389 82.973 89.9617 79.0417 87.9708C71.6698 84.2411 68.6587 78.3529 71.3673 72.9755C71.5102 72.6934 71.7106 72.4407 71.957 72.2316C72.2035 72.0226 72.4912 71.8614 72.8037 71.7572C73.1162 71.653 73.4474 71.6079 73.7784 71.6245C74.1094 71.641 74.4337 71.7189 74.7328 71.8536C75.0319 71.9884 75.2999 72.1774 75.5215 72.4098C75.7432 72.6422 75.9141 72.9136 76.0246 73.2083C76.135 73.503 76.1828 73.8154 76.1653 74.1276C76.1478 74.4397 76.0652 74.7456 75.9223 75.0277C73.6335 79.5535 80.0936 83.1171 81.4118 83.7771C88.6934 87.4642 99.0177 87.6089 102.972 81.363C103.136 81.0834 103.358 80.8378 103.625 80.6409C103.892 80.4441 104.198 80.2999 104.526 80.217C104.853 80.1341 105.195 80.1142 105.53 80.1585C105.866 80.2029 106.188 80.3104 106.479 80.4749C106.769 80.6394 107.022 80.8573 107.221 81.1158C107.42 81.3742 107.562 81.6679 107.639 81.9792C107.715 82.2906 107.724 82.6132 107.666 82.928C107.607 83.2427 107.481 83.5431 107.297 83.8111C104.033 88.9841 98.0923 91.1768 91.8128 91.1129Z" fill="white" stroke="#262C3F" stroke-width="0.71" stroke-miterlimit="10"/>
<path d="M68.8664 78.9787C68.5639 78.8127 67.4398 78.174 66.8485 78.1655C66.2571 78.157 66.1487 78.3273 65.6115 78.289C65.0772 78.2309 64.5706 78.0334 64.1489 77.7185C63.4492 77.2246 63.5078 76.867 63.0068 76.7052C62.4334 76.5349 62.2303 76.9904 61.6118 76.9053C60.7089 76.7775 60.709 75.76 59.6481 75.4194C59.1199 75.2491 59.1018 75.496 58.0681 75.4194C57.2239 75.3512 56.3345 75.2789 55.7793 74.7083C55.224 74.1378 55.3775 73.6099 54.8764 73.4694C54.5739 73.3842 54.4566 73.5843 54.0187 73.546C53.495 73.5034 53.3506 73.1884 52.854 72.95C51.9872 72.5242 51.5855 73.0777 50.8225 72.72C49.9197 72.2943 49.6533 71.1192 49.6307 71.017C49.4682 70.2208 49.8339 69.9228 49.545 69.3438C49.3057 68.8626 48.9807 68.918 48.4254 68.4028C48.0407 68.0635 47.7337 67.6535 47.5233 67.198C47.3129 66.7426 47.2035 66.2514 47.202 65.7546C47.2562 64.8477 47.8024 64.6263 47.5812 64.0132C47.36 63.4001 46.7506 63.4682 46.4707 62.7828C46.1908 62.0973 46.6422 61.8546 46.3624 61.1947C46.1366 60.654 45.7935 60.7306 45.4595 60.2112C44.9358 59.4193 45.5317 58.9339 45.2202 57.6225C44.9764 56.5454 44.4889 56.4347 44.5792 55.664C44.659 55.0916 44.9576 54.5663 45.4189 54.1866C46.1592 53.6204 46.8409 53.9142 47.1478 53.4118C47.4097 52.986 46.9537 52.6667 47.2111 51.994C47.3961 51.5129 47.6625 51.5682 47.9604 50.9934C48.2584 50.4187 48.0643 50.2143 48.3441 49.7843C48.624 49.3543 49.0078 49.4266 49.4095 49.0009C50.1228 48.2515 49.4863 47.3872 50.1409 46.7656C50.6465 46.2845 51.1972 46.6379 51.6487 46.1653C52.2129 45.5777 51.4861 44.888 51.915 43.9982C52.4296 42.9125 54.285 42.2313 55.2556 42.0226C55.6098 41.9821 55.9398 41.8324 56.1946 41.5969C56.5693 41.1711 56.3616 40.7752 56.646 40.2515C56.9824 39.7441 57.518 39.3829 58.1358 39.2467C59.0324 38.9896 59.9985 39.058 60.8444 39.4383C61.4944 39.7661 61.7247 40.1706 62.3477 40.1621C62.7991 40.1621 62.8939 39.9662 63.2776 40.0301C63.8013 40.1152 63.8193 40.5069 64.4017 40.8007C65.0518 41.1328 65.3046 40.7709 66.0494 41.0817C66.7943 41.3925 66.7807 41.7672 67.3405 41.814C67.792 41.8481 67.8416 41.6097 68.4556 41.5543C68.9268 41.4752 69.4122 41.5713 69.8099 41.8225C70.3967 42.2909 69.9859 43.07 70.5367 43.4277C70.8166 43.6107 70.9385 43.4277 71.7962 43.5511C72.3921 43.6405 72.9609 43.7257 73.2588 44.1174C73.4981 44.4367 73.3311 44.6538 73.5839 44.8667C73.9134 45.1477 74.2791 44.8667 74.6989 45.1052C75.0375 45.3053 75.1503 45.7055 75.2948 46.2079C75.4663 46.8125 75.3445 46.97 75.5476 47.1829C75.8681 47.5064 76.2925 47.2552 76.6536 47.5448C77.1863 47.9705 76.8658 49.0392 76.8432 49.1116C76.747 49.3939 76.592 49.6553 76.3873 49.8804C76.1827 50.1056 75.9325 50.29 75.6514 50.4229C75.3023 50.5612 74.932 50.646 74.5544 50.6741C75.4573 54.8083 72.7171 56.9285 70.2207 59.1425L69.3178 62.7913L72.532 72.554L68.8664 78.9787Z" fill="#262C3F"/>
<path d="M76.1164 102.285L67.8552 81.6525C67.161 79.92 67.1771 78.0056 67.9003 76.2837L70.5232 70.0633L76.1571 68.752L83.8314 76.0623C84.5627 76.7633 85.1388 77.5944 85.5263 78.5074C85.9138 79.4203 86.105 80.3968 86.0886 81.38L85.8448 100.02L76.1164 102.285Z" fill="white" stroke="#262C3F" stroke-width="0.71" stroke-miterlimit="10"/>
<path d="M76.5047 78.3699L67.0245 112.857C66.6363 114.266 65.2459 115.147 63.9141 114.819C62.5824 114.496 61.8195 113.086 62.2077 111.677L72.1032 77.2629C72.4643 75.9856 73.7103 75.2065 74.9111 75.479C76.1435 75.7515 76.8658 77.0628 76.5047 78.3699Z" fill="white" stroke="#262C3F" stroke-width="0.75" stroke-miterlimit="10"/>
<path d="M69.3088 62.7828C69.864 65.7631 70.4509 70.0633 70.4509 70.0633L76.0848 68.752C75.9557 67.59 75.7216 66.4405 75.3851 65.3161L74.2204 60.4581L68.9386 61.944L69.3088 62.7828Z" fill="white" stroke="#262C3F" stroke-width="0.71" stroke-miterlimit="10"/>
<path d="M70.5863 61.8631C70.3593 62.1928 70.0275 62.4462 69.6383 62.5869C69.1295 62.7397 68.5783 62.7062 68.0944 62.4933C67.7302 62.3507 67.4017 62.1375 67.1303 61.8676C66.8589 61.5977 66.6506 61.2771 66.5189 60.9265C66.3521 60.4626 66.3521 59.9598 66.5189 59.4959C66.6066 59.2368 66.7501 58.9975 66.9404 58.7931C67.1308 58.5887 67.3638 58.4235 67.6249 58.308C68.0531 58.1351 68.5314 58.1065 68.9792 58.2271C69.4941 58.3724 69.9313 58.6965 70.2026 59.134C72.2949 56.1687 73.1295 52.5703 72.5411 49.052C72.5411 49.052 75.6018 50.2228 76.4776 54.5869C76.4961 54.684 76.5367 54.7762 76.5968 54.8571C76.6568 54.938 76.7347 55.0056 76.8252 55.0552C77.7509 55.5469 78.6273 56.1169 79.4435 56.7583C79.5131 56.8202 79.5658 56.897 79.5972 56.9823C79.6286 57.0675 79.6379 57.1586 79.6241 57.2479C79.4661 57.6755 79.2241 58.0713 78.9108 58.4145C78.9108 58.4145 79.3893 59.2873 79.9175 60.5092C80.2736 61.32 80.5575 62.1574 80.7662 63.0127C80.8468 63.3396 80.7959 63.683 80.6232 63.9764C80.4505 64.2699 80.1685 64.4924 79.8317 64.6008C77.4407 65.3898 74.8661 65.5459 72.3876 65.0521" fill="white"/>
<path d="M70.5863 61.8631C70.3593 62.1928 70.0275 62.4462 69.6383 62.5869C69.1295 62.7397 68.5783 62.7062 68.0944 62.4933C67.7302 62.3507 67.4017 62.1375 67.1303 61.8676C66.8589 61.5977 66.6506 61.2771 66.5189 60.9265C66.3521 60.4626 66.3521 59.9598 66.5189 59.4959C66.6066 59.2368 66.7501 58.9975 66.9404 58.7931C67.1308 58.5887 67.3638 58.4235 67.6249 58.308C68.0531 58.1351 68.5314 58.1065 68.9792 58.2271C69.4941 58.3724 69.9313 58.6965 70.2026 59.134C72.2949 56.1687 73.1295 52.5703 72.5411 49.052C72.5411 49.052 75.6018 50.2228 76.4776 54.5869C76.4961 54.684 76.5367 54.7762 76.5968 54.8571C76.6568 54.938 76.7347 55.0056 76.8252 55.0552C77.7509 55.5469 78.6273 56.1169 79.4435 56.7583C79.5131 56.8202 79.5658 56.897 79.5972 56.9823C79.6286 57.0675 79.6379 57.1586 79.6241 57.2479C79.4661 57.6755 79.2241 58.0713 78.9108 58.4145C78.9108 58.4145 79.3893 59.2873 79.9175 60.5092C80.2736 61.32 80.5575 62.1574 80.7662 63.0127C80.8468 63.3396 80.7959 63.683 80.6232 63.9764C80.4505 64.2699 80.1685 64.4924 79.8317 64.6008C77.4407 65.3898 74.8661 65.5459 72.3876 65.0521" stroke="#262C3F" stroke-width="0.71" stroke-miterlimit="10"/>
<path d="M73.0421 54.8934C73.2283 54.4402 73.5226 54.0335 73.9023 53.705C74.282 53.3764 74.7369 53.1347 75.2316 52.9988" stroke="#262C3F" stroke-width="0.71" stroke-miterlimit="10"/>
<path d="M74.4868 55.8258C74.6323 55.4265 74.8878 55.0709 75.2271 54.7955C75.4054 54.6518 75.6045 54.5328 75.8185 54.4421" stroke="#345AFA" stroke-width="0.71" stroke-miterlimit="10"/>
<path d="M76.5543 60.3815C76.9893 60.4203 77.4278 60.406 77.859 60.3389C78.2079 60.2868 78.5499 60.1997 78.8792 60.0792" stroke="#262C3F" stroke-width="0.71" stroke-miterlimit="10"/>
<path d="M69.7151 60.6582C69.7151 60.3369 69.6021 60.0247 69.3938 59.7704C69.1855 59.5162 68.8936 59.3343 68.5639 59.2532C68.191 59.2085 67.8144 59.305 67.5166 59.5215" stroke="#262C3F" stroke-width="0.71" stroke-miterlimit="10"/>
<path d="M74.7982 55.2255C74.8943 55.5024 75.0478 55.7586 75.2497 55.9791C75.4889 56.2303 75.6334 56.2473 75.7011 56.2473C75.7662 56.251 75.8313 56.2392 75.8904 56.2132C75.9495 56.1872 76.0008 56.1477 76.0397 56.0983C76.0848 56.0302 76.1209 55.911 75.9584 55.5619C75.8109 55.2554 75.6094 54.9747 75.3625 54.7316" fill="#345AFA"/>
<path d="M76.6897 58.0355C77.3723 57.6282 77.856 56.9826 78.0354 56.2398C78.2147 55.4971 78.075 54.7176 77.6468 54.0717L76.9561 53.0328L71.7781 56.0855L72.4688 57.1244C72.682 57.4462 72.9605 57.725 73.2882 57.9451C73.616 58.1651 73.9865 58.3219 74.3787 58.4066C74.7708 58.4912 75.1769 58.502 75.5734 58.4383C75.97 58.3747 76.3494 58.2378 76.6897 58.0355Z" fill="#262C3F"/>
<path d="M99.5233 105.687C96.0789 102.732 92.824 102.161 88.6121 100.624C87.6988 100.319 86.7501 100.118 85.7862 100.024C85.2256 100.046 84.6764 100.179 84.1745 100.416C81.3666 101.14 78.8476 101.297 76.0487 102.285C75.8481 104.795 75.8119 107.315 75.9404 109.829C76.1435 113.482 75.5882 112.384 76.5814 116.867C81.3666 138.377 67.5527 140.05 52.1182 136.567C51.8473 140.399 51.7389 144.265 51.608 148.093L93.447 141.131C95.1111 138.492 96.374 135.646 97.1984 132.676C99.5519 134.904 101.917 137.121 104.295 139.326L131.381 134.822C120.425 125.451 110.462 115.058 99.5233 105.687Z" fill="#262C3F"/>
</g>
<defs>
<clipPath id="clip0_202_2288">
<rect width="250" height="150" fill="white"/>
</clipPath>
</defs>
</svg>
