<svg width="26" height="26" viewBox="0 0 26 26" fill="none" xmlns="http://www.w3.org/2000/svg">
<path d="M12.9498 0.65625C19.8561 0.65625 25.5436 6.34375 25.5436 13.25C25.5436 20.207 19.8561 25.8438 12.9498 25.8438C5.9928 25.8438 0.356079 20.207 0.356079 13.25C0.356079 6.34375 5.9928 0.65625 12.9498 0.65625ZM18.7389 9.23828C18.7897 9.08594 18.7897 8.93359 18.7389 8.73047C18.7389 8.62891 18.6373 8.47656 18.5865 8.42578C18.4342 8.27344 18.1803 8.27344 18.0787 8.27344C17.6217 8.27344 16.86 8.52734 13.3561 10C12.1373 10.5078 9.69983 11.5234 6.04358 13.1484C5.4342 13.4023 5.12952 13.6055 5.07874 13.8594C5.02795 14.2656 5.68811 14.418 6.44983 14.6719C7.10999 14.875 7.97327 15.1289 8.4303 15.1289C8.83655 15.1289 9.29358 14.9766 9.80139 14.6211C13.2037 12.2852 14.9811 11.1172 15.0826 11.1172C15.1842 11.1172 15.2858 11.0664 15.3365 11.1172C15.4381 11.2188 15.4381 11.3203 15.3873 11.3711C15.3365 11.625 12.1373 14.5703 11.9342 14.7734C11.2233 15.4844 10.4108 15.9414 11.6803 16.7539C12.7467 17.4648 13.3561 17.9219 14.4733 18.6328C15.1842 19.0898 15.7428 19.6484 16.4537 19.5977C16.8092 19.5469 17.1647 19.2422 17.317 18.2773C17.774 16.0938 18.5865 11.2188 18.7389 9.23828Z" fill="white"/>
</svg>
