<svg width="113" height="4" viewBox="0 0 113 4" fill="none" xmlns="http://www.w3.org/2000/svg">
<path fill-rule="evenodd" clip-rule="evenodd" d="M1.56944 3.5H0V0.5H1.56944V3.5ZM7.84722 3.5H4.70833V0.5H7.84722V3.5ZM14.125 3.5H10.9861V0.5H14.125V3.5ZM20.4028 3.5H17.2639V0.5H20.4028V3.5ZM26.6806 3.5H23.5417V0.5H26.6806V3.5ZM32.9583 3.5H29.8194V0.5H32.9583V3.5ZM39.2361 3.5H36.0972V0.5H39.2361V3.5ZM45.5139 3.5H42.375V0.5H45.5139V3.5ZM51.7917 3.5H48.6528V0.5H51.7917V3.5ZM54.9306 3.5V0.5H58.0694V3.5H54.9306ZM64.3472 3.5H61.2083V0.5H64.3472V3.5ZM70.625 3.5H67.4861V0.5H70.625V3.5ZM76.9028 3.5H73.7639V0.5H76.9028V3.5ZM83.1806 3.5H80.0417V0.5H83.1806V3.5ZM89.4583 3.5H86.3194V0.5H89.4583V3.5ZM95.7361 3.5H92.5972V0.5H95.7361V3.5ZM102.014 3.5H98.875V0.5H102.014V3.5ZM108.292 3.5H105.153V0.5H108.292V3.5ZM113 3.5H111.431V0.5H113V3.5Z" fill="#56D62A"/>
</svg>
