<svg width="505" height="320" viewBox="0 0 505 320" fill="none" xmlns="http://www.w3.org/2000/svg">
<rect y="320" width="320" height="505" transform="rotate(-90 0 320)" fill="url(#paint0_linear_140_5623)"/>
<mask id="mask0_140_5623" style="mask-type:alpha" maskUnits="userSpaceOnUse" x="0" y="0" width="505" height="320">
<rect y="320" width="320" height="505" transform="rotate(-90 0 320)" fill="#345AFA"/>
</mask>
<g mask="url(#mask0_140_5623)">
<g clip-path="url(#clip0_140_5623)">
<path d="M112.504 220.669L109.675 225.569L114.575 228.398L117.404 223.498L112.504 220.669Z" fill="#345AFA"/>
<path d="M86.789 227.562L83.96 232.462L88.8601 235.291L91.6892 230.391L86.789 227.562Z" fill="#345AFA"/>
<path d="M103.092 236.977L94.9693 232.288L92.1408 237.187L105.162 244.705L112.681 231.683L107.781 228.855L103.092 236.977Z" fill="#345AFA"/>
<path d="M98.271 218.985L106.393 223.675L109.222 218.776L96.2003 211.258L88.6822 224.279L93.5814 227.108L98.271 218.985Z" fill="#345AFA"/>
<path d="M99.6567 224.166L96.863 229.004L101.702 231.798L104.495 226.959L99.6567 224.166Z" fill="#345AFA"/>
</g>
<g clip-path="url(#clip1_140_5623)">
<path d="M398.275 144.097L395.446 148.997L400.346 151.826L403.175 146.926L398.275 144.097Z" fill="#345AFA"/>
<path d="M372.56 150.99L369.731 155.89L374.631 158.719L377.46 153.819L372.56 150.99Z" fill="#345AFA"/>
<path d="M388.863 160.405L380.74 155.715L377.912 160.615L390.933 168.133L398.452 155.111L393.552 152.282L388.863 160.405Z" fill="#345AFA"/>
<path d="M384.042 142.413L392.164 147.103L394.993 142.204L381.971 134.686L374.453 147.707L379.352 150.536L384.042 142.413Z" fill="#345AFA"/>
<path d="M385.428 147.594L382.634 152.432L387.473 155.226L390.266 150.387L385.428 147.594Z" fill="#345AFA"/>
</g>
<g clip-path="url(#clip2_140_5623)">
<path d="M109.084 17.393L106.255 22.2931L111.155 25.1222L113.985 20.2221L109.084 17.393Z" fill="#345AFA"/>
<path d="M83.3696 24.2855L80.5405 29.1856L85.4406 32.0147L88.2697 27.1146L83.3696 24.2855Z" fill="#345AFA"/>
<path d="M99.6724 33.701L91.5499 29.0115L88.7214 33.9106L101.743 41.4287L109.261 28.407L104.362 25.5785L99.6724 33.701Z" fill="#345AFA"/>
<path d="M94.8515 15.7093L102.974 20.3989L105.803 15.4997L92.7809 7.98162L85.2628 21.0033L90.162 23.8319L94.8515 15.7093Z" fill="#345AFA"/>
<path d="M96.2372 20.8896L93.4436 25.7283L98.2823 28.5219L101.076 23.6832L96.2372 20.8896Z" fill="#345AFA"/>
</g>
<g clip-path="url(#clip3_140_5623)">
<path d="M482.718 320.165L490.841 324.855L493.67 319.956L480.648 312.438L473.13 325.459L478.029 328.288L482.718 320.165Z" fill="#345AFA"/>
</g>
<g clip-path="url(#clip4_140_5623)">
<path d="M185.656 303.164L182.827 308.064L187.728 310.893L190.557 305.993L185.656 303.164Z" fill="#345AFA"/>
<path d="M159.942 310.057L157.113 314.957L162.013 317.786L164.842 312.886L159.942 310.057Z" fill="#345AFA"/>
<path d="M176.244 319.472L168.122 314.782L165.293 319.682L178.315 327.2L185.833 314.178L180.934 311.349L176.244 319.472Z" fill="#345AFA"/>
<path d="M171.424 301.48L179.546 306.17L182.375 301.271L169.353 293.753L161.835 306.774L166.734 309.603L171.424 301.48Z" fill="#345AFA"/>
<path d="M172.809 306.661L170.016 311.499L174.854 314.293L177.648 309.454L172.809 306.661Z" fill="#345AFA"/>
</g>
<g clip-path="url(#clip5_140_5623)">
<path d="M471.427 226.592L468.598 231.492L473.499 234.321L476.328 229.421L471.427 226.592Z" fill="#345AFA"/>
<path d="M445.713 233.484L442.884 238.385L447.784 241.214L450.613 236.314L445.713 233.484Z" fill="#345AFA"/>
<path d="M462.015 242.9L453.893 238.21L451.064 243.11L464.086 250.628L471.604 237.606L466.705 234.777L462.015 242.9Z" fill="#345AFA"/>
<path d="M457.195 224.908L465.317 229.598L468.146 224.699L455.124 217.181L447.606 230.202L452.505 233.031L457.195 224.908Z" fill="#345AFA"/>
<path d="M458.58 230.088L455.787 234.927L460.625 237.721L463.419 232.882L458.58 230.088Z" fill="#345AFA"/>
</g>
<g clip-path="url(#clip6_140_5623)">
<path d="M134.608 112.65L131.779 117.55L136.679 120.379L139.508 115.479L134.608 112.65Z" fill="#345AFA"/>
<path d="M108.894 119.543L106.064 124.443L110.965 127.272L113.794 122.372L108.894 119.543Z" fill="#345AFA"/>
<path d="M125.196 128.958L117.074 124.269L114.245 129.168L127.267 136.686L134.785 123.664L129.886 120.836L125.196 128.958Z" fill="#345AFA"/>
<path d="M120.375 110.966L128.498 115.656L131.327 110.757L118.305 103.239L110.787 116.26L115.686 119.089L120.375 110.966Z" fill="#345AFA"/>
<path d="M121.761 116.147L118.968 120.985L123.806 123.779L126.6 118.94L121.761 116.147Z" fill="#345AFA"/>
</g>
<g clip-path="url(#clip7_140_5623)">
<path d="M420.379 36.078L417.55 40.9781L422.45 43.8072L425.279 38.9071L420.379 36.078Z" fill="#345AFA"/>
<path d="M394.665 42.9705L391.835 47.8706L396.736 50.6997L399.565 45.7996L394.665 42.9705Z" fill="#345AFA"/>
<path d="M410.967 52.386L402.845 47.6964L400.016 52.5956L413.038 60.1137L420.556 47.092L415.657 44.2634L410.967 52.386Z" fill="#345AFA"/>
<path d="M406.146 34.3943L414.269 39.0839L417.098 34.1847L404.076 26.6666L396.558 39.6883L401.457 42.5168L406.146 34.3943Z" fill="#345AFA"/>
<path d="M407.532 39.5745L404.739 44.4133L409.577 47.2069L412.371 42.3682L407.532 39.5745Z" fill="#345AFA"/>
</g>
<g clip-path="url(#clip8_140_5623)">
<path d="M268.151 230.012L265.322 234.912L270.222 237.741L273.051 232.841L268.151 230.012Z" fill="#345AFA"/>
<path d="M242.437 236.904L239.607 241.804L244.508 244.633L247.337 239.733L242.437 236.904Z" fill="#345AFA"/>
<path d="M258.739 246.32L250.617 241.63L247.788 246.529L260.81 254.047L268.328 241.026L263.429 238.197L258.739 246.32Z" fill="#345AFA"/>
<path d="M253.918 228.328L262.041 233.017L264.869 228.118L251.848 220.6L244.33 233.622L249.229 236.45L253.918 228.328Z" fill="#345AFA"/>
<path d="M255.304 233.508L252.51 238.347L257.349 241.141L260.143 236.302L255.304 233.508Z" fill="#345AFA"/>
</g>
<g clip-path="url(#clip9_140_5623)">
<path d="M169.475 52.2596L166.646 57.1597L171.546 59.9888L174.375 55.0886L169.475 52.2596Z" fill="#345AFA"/>
<path d="M143.76 59.1521L140.931 64.0522L145.831 66.8813L148.66 61.9812L143.76 59.1521Z" fill="#345AFA"/>
<path d="M160.063 68.5676L151.94 63.878L149.112 68.7772L162.133 76.2953L169.652 63.2736L164.752 60.445L160.063 68.5676Z" fill="#345AFA"/>
<path d="M155.242 50.5759L163.364 55.2654L166.193 50.3663L153.171 42.8482L145.653 55.8699L150.552 58.6984L155.242 50.5759Z" fill="#345AFA"/>
<path d="M156.628 55.7561L153.834 60.5948L158.673 63.3885L161.466 58.5498L156.628 55.7561Z" fill="#345AFA"/>
</g>
<g clip-path="url(#clip10_140_5623)">
<path d="M445.834 -8.00459L437.711 -12.6941L434.883 -7.79495L447.904 -0.276864L455.423 -13.2986L450.523 -16.1271L445.834 -8.00459Z" fill="#345AFA"/>
</g>
<g clip-path="url(#clip11_140_5623)">
<path d="M279.442 323.585L287.565 328.274L290.393 323.375L277.372 315.857L269.854 328.879L274.753 331.707L279.442 323.585Z" fill="#345AFA"/>
</g>
<g clip-path="url(#clip12_140_5623)">
<path d="M242.627 134.755L239.798 139.655L244.698 142.484L247.528 137.584L242.627 134.755Z" fill="#345AFA"/>
<path d="M216.913 141.647L214.083 146.547L218.984 149.376L221.813 144.476L216.913 141.647Z" fill="#345AFA"/>
<path d="M233.215 151.063L225.093 146.373L222.264 151.272L235.286 158.79L242.804 145.769L237.905 142.94L233.215 151.063Z" fill="#345AFA"/>
<path d="M228.394 133.071L236.517 137.76L239.346 132.861L226.324 125.343L218.806 138.365L223.705 141.193L228.394 133.071Z" fill="#345AFA"/>
<path d="M229.78 138.251L226.987 143.09L231.825 145.883L234.619 141.045L229.78 138.251Z" fill="#345AFA"/>
</g>
<g clip-path="url(#clip13_140_5623)">
<path d="M502.684 65.075L499.854 69.9751L504.755 72.8042L507.584 67.9041L502.684 65.075Z" fill="#345AFA"/>
<path d="M514.165 56.4988L522.288 61.1883L525.117 56.2892L512.095 48.7711L504.577 61.7928L509.476 64.6213L514.165 56.4988Z" fill="#345AFA"/>
</g>
<path d="M17.053 252.849C15.3135 250.763 12.3377 250.552 12.3377 250.552C12.3377 250.552 15.2977 247.87 13.6177 244.613C12.5279 242.487 9.87509 240.766 6.05263 241.73L5.17524 238.455L1.78469 239.364L2.66207 242.638L0.194323 243.3L-0.683065 240.025L-4.07064 240.933L-3.19325 244.207L-7.44707 245.347L-6.61914 248.437L-4.65446 247.91C-4.54892 247.882 -4.43883 247.875 -4.3305 247.889C-4.22216 247.904 -4.11769 247.939 -4.02306 247.994C-3.92843 248.048 -3.84549 248.121 -3.77897 248.208C-3.71245 248.294 -3.66365 248.393 -3.63537 248.499L-0.0620081 261.835C0.00145512 262.072 -0.0317684 262.324 -0.15437 262.536C-0.276971 262.749 -0.478907 262.904 -0.715754 262.967L-1.88563 263.281L-1.70018 266.795L2.55364 265.655L3.49085 269.153L6.87843 268.245L5.94122 264.747L8.40897 264.086L9.34618 267.584L12.7338 266.676L11.7965 263.178L12.4514 263.003C19.0093 261.246 19.4196 255.728 17.053 252.849ZM4.47235 245.465C6.1959 245.003 8.09195 245.685 8.59284 247.376C9.09374 249.067 8.07677 250.915 6.21076 251.441C4.49278 251.923 2.63862 252.398 2.63862 252.398L1.02821 246.388C1.02821 246.388 2.66544 245.949 4.47235 245.465ZM9.51007 260.218C7.73278 260.729 5.0449 261.414 5.0449 261.414L3.36989 255.163C3.36989 255.163 5.85316 254.536 7.6892 254.005C9.9003 253.375 11.8121 253.973 12.3511 255.924C12.89 257.876 11.9079 259.534 9.51167 260.224L9.51007 260.218Z" fill="#345AFA"/>
<path d="M302.824 176.277C301.084 174.191 298.109 173.98 298.109 173.98C298.109 173.98 301.069 171.298 299.389 168.041C298.299 165.914 295.646 164.194 291.824 165.158L290.946 161.883L287.556 162.792L288.433 166.066L285.965 166.727L285.088 163.453L281.7 164.361L282.578 167.635L278.324 168.775L279.152 171.865L281.117 171.338C281.222 171.31 281.332 171.303 281.441 171.317C281.549 171.331 281.653 171.367 281.748 171.422C281.843 171.476 281.926 171.549 281.992 171.636C282.059 171.722 282.107 171.821 282.136 171.927L285.709 185.263C285.772 185.5 285.739 185.752 285.617 185.964C285.494 186.177 285.292 186.332 285.055 186.395L283.885 186.709L284.071 190.223L288.325 189.083L289.262 192.581L292.649 191.673L291.712 188.175L294.18 187.514L295.117 191.012L298.505 190.104L297.568 186.606L298.222 186.431C304.78 184.674 305.191 179.156 302.824 176.277ZM290.243 168.893C291.967 168.431 293.863 169.113 294.364 170.804C294.865 172.495 293.848 174.343 291.982 174.869C290.264 175.351 288.41 175.826 288.41 175.826L286.799 169.816C286.799 169.816 288.436 169.377 290.243 168.893ZM295.281 183.645C293.504 184.157 290.816 184.842 290.816 184.842L289.141 178.591C289.141 178.591 291.624 177.964 293.46 177.433C295.671 176.803 297.583 177.401 298.122 179.352C298.661 181.304 297.679 182.962 295.283 183.651L295.281 183.645Z" fill="#345AFA"/>
<path d="M13.6336 49.5732C11.894 47.4869 8.91824 47.276 8.91824 47.276C8.91824 47.276 11.8783 44.5941 10.1983 41.3369C9.10849 39.2105 6.45565 37.4902 2.63319 38.4538L1.75581 35.1793L-1.63475 36.0878L-0.757359 39.3623L-3.22511 40.0235L-4.1025 36.749L-7.49008 37.6567L-6.61269 40.9312L-10.8665 42.071L-10.0386 45.1609L-8.0739 44.6345C-7.96835 44.6062 -7.85826 44.599 -7.74993 44.6132C-7.64159 44.6275 -7.53713 44.663 -7.4425 44.7176C-7.34786 44.7722 -7.26492 44.845 -7.1984 44.9317C-7.13188 45.0183 -7.08309 45.1173 -7.05481 45.2228L-3.48144 58.5588C-3.41798 58.7957 -3.4512 59.048 -3.5738 59.2604C-3.6964 59.4727 -3.89834 59.6277 -4.13519 59.6911L-5.30506 60.0046L-5.11961 63.5187L-0.865792 62.3789L0.0714183 65.8766L3.459 64.9689L2.52179 61.4712L4.98954 60.81L5.92675 64.3077L9.31432 63.4L8.37711 59.9023L9.03201 59.7268C15.5899 57.9696 16.0001 52.4518 13.6336 49.5732ZM1.05291 42.1889C2.77647 41.7271 4.67252 42.4091 5.17341 44.0999C5.6743 45.7906 4.65734 47.6392 2.79132 48.1648C1.07335 48.6474 -0.780814 49.1219 -0.780814 49.1219L-2.39122 43.1118C-2.39122 43.1118 -0.753993 42.6731 1.05291 42.1889ZM6.09064 56.9416C4.31334 57.4529 1.62547 58.138 1.62547 58.138L-0.0495479 51.8868C-0.0495479 51.8868 2.43373 51.2597 4.26976 50.7294C6.48087 50.0987 8.3927 50.6967 8.93162 52.6484C9.47055 54.6002 8.48849 56.2576 6.09223 56.9475L6.09064 56.9416Z" fill="#345AFA"/>
<path d="M328.348 271.534C326.608 269.448 323.633 269.237 323.633 269.237C323.633 269.237 326.593 266.555 324.913 263.298C323.823 261.171 321.17 259.451 317.348 260.415L316.47 257.14L313.08 258.049L313.957 261.323L311.489 261.984L310.612 258.71L307.224 259.618L308.102 262.892L303.848 264.032L304.676 267.122L306.64 266.595C306.746 266.567 306.856 266.56 306.964 266.574C307.073 266.588 307.177 266.624 307.272 266.678C307.366 266.733 307.449 266.806 307.516 266.893C307.582 266.979 307.631 267.078 307.66 267.184L311.233 280.52C311.296 280.757 311.263 281.009 311.141 281.221C311.018 281.434 310.816 281.589 310.579 281.652L309.409 281.965L309.595 285.48L313.849 284.34L314.786 287.838L318.173 286.93L317.236 283.432L319.704 282.771L320.641 286.269L324.029 285.361L323.091 281.863L323.746 281.688C330.304 279.931 330.714 274.413 328.348 271.534ZM315.767 264.15C317.491 263.688 319.387 264.37 319.888 266.061C320.389 267.752 319.372 269.6 317.506 270.126C315.788 270.608 313.934 271.083 313.934 271.083L312.323 265.073C312.323 265.073 313.96 264.634 315.767 264.15ZM320.805 278.902C319.028 279.414 316.34 280.099 316.34 280.099L314.665 273.848C314.665 273.848 317.148 273.221 318.984 272.69C321.195 272.06 323.107 272.658 323.646 274.609C324.185 276.561 323.203 278.218 320.807 278.908L320.805 278.902Z" fill="#345AFA"/>
<path d="M277.3 81.0201C275.561 78.9338 272.585 78.723 272.585 78.723C272.585 78.723 275.545 76.041 273.865 72.7838C272.775 70.6574 270.122 68.9371 266.3 69.9007L265.422 66.6262L262.032 67.5347L262.909 70.8092L260.441 71.4704L259.564 68.196L256.176 69.1037L257.054 72.3781L252.8 73.5179L253.628 76.6078L255.593 76.0814C255.698 76.0531 255.808 76.0459 255.917 76.0602C256.025 76.0744 256.129 76.1099 256.224 76.1645C256.319 76.2192 256.402 76.2919 256.468 76.3786C256.535 76.4653 256.583 76.5642 256.612 76.6698L260.185 90.0057C260.249 90.2426 260.215 90.4949 260.093 90.7073C259.97 90.9197 259.768 91.0746 259.531 91.1381L258.361 91.4515L258.547 94.9656L262.801 93.8258L263.738 97.3235L267.125 96.4158L266.188 92.9181L268.656 92.2569L269.593 95.7546L272.981 94.8469L272.044 91.3492L272.699 91.1737C279.256 89.4165 279.667 83.8987 277.3 81.0201ZM264.719 73.6359C266.443 73.174 268.339 73.8561 268.84 75.5468C269.341 77.2376 268.324 79.0862 266.458 79.6117C264.74 80.0944 262.886 80.5688 262.886 80.5688L261.275 74.5587C261.275 74.5587 262.913 74.12 264.719 73.6359ZM269.757 88.3885C267.98 88.8998 265.292 89.5849 265.292 89.5849L263.617 83.3337C263.617 83.3337 266.1 82.7066 267.936 82.1763C270.147 81.5456 272.059 82.1436 272.598 84.0954C273.137 86.0471 272.155 87.7045 269.759 88.3944L269.757 88.3885Z" fill="#345AFA"/>
<path d="M125.073 274.954C123.333 272.867 120.357 272.656 120.357 272.656C120.357 272.656 123.317 269.975 121.637 266.717C120.547 264.591 117.895 262.871 114.072 263.834L113.195 260.56L109.804 261.468L110.682 264.743L108.214 265.404L107.336 262.13L103.949 263.037L104.826 266.312L100.572 267.451L101.4 270.541L103.365 270.015C103.471 269.987 103.581 269.979 103.689 269.994C103.797 270.008 103.902 270.043 103.996 270.098C104.091 270.153 104.174 270.225 104.241 270.312C104.307 270.399 104.356 270.498 104.384 270.603L107.958 283.939C108.021 284.176 107.988 284.428 107.865 284.641C107.743 284.853 107.541 285.008 107.304 285.072L106.134 285.385L106.319 288.899L110.573 287.759L111.51 291.257L114.898 290.349L113.961 286.852L116.429 286.19L117.366 289.688L120.753 288.78L119.816 285.283L120.471 285.107C127.029 283.35 127.439 277.832 125.073 274.954ZM112.492 267.569C114.215 267.108 116.111 267.79 116.612 269.48C117.113 271.171 116.096 273.02 114.23 273.545C112.512 274.028 110.658 274.502 110.658 274.502L109.048 268.492C109.048 268.492 110.685 268.054 112.492 267.569ZM117.53 282.322C115.752 282.833 113.064 283.518 113.064 283.518L111.389 277.267C111.389 277.267 113.873 276.64 115.709 276.11C117.92 275.479 119.832 276.077 120.371 278.029C120.91 279.981 119.927 281.638 117.531 282.328L117.53 282.322Z" fill="#345AFA"/>
<path d="M410.843 198.382C409.103 196.295 406.127 196.084 406.127 196.084C406.127 196.084 409.088 193.402 407.408 190.145C406.318 188.019 403.665 186.299 399.842 187.262L398.965 183.988L395.574 184.896L396.452 188.171L393.984 188.832L393.107 185.557L389.719 186.465L390.597 189.74L386.343 190.879L387.171 193.969L389.135 193.443C389.241 193.415 389.351 193.407 389.459 193.422C389.568 193.436 389.672 193.471 389.767 193.526C389.861 193.581 389.944 193.653 390.011 193.74C390.077 193.827 390.126 193.926 390.154 194.031L393.728 207.367C393.791 207.604 393.758 207.856 393.635 208.069C393.513 208.281 393.311 208.436 393.074 208.499L391.904 208.813L392.09 212.327L396.343 211.187L397.281 214.685L400.668 213.777L399.731 210.28L402.199 209.618L403.136 213.116L406.524 212.208L405.586 208.711L406.241 208.535C412.799 206.778 413.209 201.26 410.843 198.382ZM398.262 190.997C399.986 190.535 401.882 191.217 402.383 192.908C402.884 194.599 401.867 196.448 400.001 196.973C398.283 197.456 396.428 197.93 396.428 197.93L394.818 191.92C394.818 191.92 396.455 191.481 398.262 190.997ZM403.3 205.75C401.523 206.261 398.835 206.946 398.835 206.946L397.16 200.695C397.16 200.695 399.643 200.068 401.479 199.538C403.69 198.907 405.602 199.505 406.141 201.457C406.68 203.409 405.698 205.066 403.301 205.756L403.3 205.75Z" fill="#345AFA"/>
<path d="M74.0239 84.4396C72.2844 82.3533 69.3086 82.1425 69.3086 82.1425C69.3086 82.1425 72.2687 79.4606 70.5887 76.2033C69.4989 74.077 66.846 72.3566 63.0236 73.3202L62.1462 70.0458L58.7556 70.9543L59.633 74.2287L57.1653 74.8899L56.2879 71.6155L52.9003 72.5232L53.7777 75.7976L49.5239 76.9375L50.3518 80.0274L52.3165 79.5009C52.422 79.4726 52.5321 79.4654 52.6405 79.4797C52.7488 79.4939 52.8533 79.5294 52.9479 79.584C53.0425 79.6387 53.1255 79.7114 53.192 79.7981C53.2585 79.8848 53.3073 79.9837 53.3356 80.0893L56.9089 93.4253C56.9724 93.6621 56.9392 93.9145 56.8166 94.1268C56.694 94.3392 56.492 94.4941 56.2552 94.5576L55.0853 94.8711L55.2708 98.3852L59.5246 97.2454L60.4618 100.743L63.8494 99.8354L62.9122 96.3377L65.3799 95.6764L66.3171 99.1741L69.7047 98.2664L68.7675 94.7687L69.4224 94.5932C75.9802 92.8361 76.3905 87.3182 74.0239 84.4396ZM61.4433 77.0554C63.1669 76.5936 65.0629 77.2756 65.5638 78.9663C66.0647 80.6571 65.0477 82.5057 63.1817 83.0312C61.4637 83.5139 59.6096 83.9884 59.6096 83.9884L57.9992 77.9783C57.9992 77.9783 59.6364 77.5396 61.4433 77.0554ZM66.481 91.808C64.7037 92.3193 62.0158 93.0045 62.0158 93.0045L60.3408 86.7532C60.3408 86.7532 62.8241 86.1261 64.6601 85.5959C66.8712 84.9651 68.7831 85.5631 69.322 87.5149C69.8609 89.4666 68.8789 91.124 66.4826 91.814L66.481 91.808Z" fill="#345AFA"/>
<path d="M359.795 7.86747C358.055 5.78117 355.08 5.57033 355.08 5.57033C355.08 5.57033 358.04 2.88841 356.36 -0.368806C355.27 -2.49519 352.617 -4.21553 348.795 -3.25192L347.917 -6.52638L344.527 -5.61789L345.404 -2.34343L342.936 -1.6822L342.059 -4.95666L338.671 -4.04896L339.549 -0.774498L335.295 0.36531L336.123 3.45521L338.087 2.92877C338.193 2.90049 338.303 2.89328 338.411 2.90754C338.52 2.9218 338.624 2.95727 338.719 3.0119C338.814 3.06654 338.896 3.13928 338.963 3.22597C339.029 3.31266 339.078 3.4116 339.107 3.51715L342.68 16.8531C342.743 17.09 342.71 17.3423 342.588 17.5547C342.465 17.767 342.263 17.922 342.026 17.9854L340.856 18.2989L341.042 21.813L345.296 20.6732L346.233 24.1709L349.62 23.2632L348.683 19.7655L351.151 19.1043L352.088 22.602L355.476 21.6943L354.538 18.1966L355.193 18.0211C361.751 16.2639 362.162 10.7461 359.795 7.86747ZM347.214 0.483254C348.938 0.021428 350.834 0.703442 351.335 2.3942C351.836 4.08495 350.819 5.93356 348.953 6.45908C347.235 6.94174 345.381 7.41623 345.381 7.41623L343.77 1.40611C343.77 1.40611 345.407 0.967413 347.214 0.483254ZM352.252 15.2359C350.475 15.7472 347.787 16.4323 347.787 16.4323L346.112 10.1811C346.112 10.1811 348.595 9.55397 350.431 9.02372C352.642 8.39297 354.554 8.99099 355.093 10.9427C355.632 12.8945 354.65 14.5519 352.254 15.2418L352.252 15.2359Z" fill="#345AFA"/>
<path d="M483.996 280.876C482.257 278.79 479.281 278.579 479.281 278.579C479.281 278.579 482.241 275.897 480.561 272.64C479.471 270.514 476.818 268.793 472.996 269.757L472.118 266.483L468.728 267.391L469.605 270.666L467.137 271.327L466.26 268.052L462.872 268.96L463.75 272.235L459.496 273.374L460.324 276.464L462.289 275.938C462.394 275.909 462.504 275.902 462.613 275.917C462.721 275.931 462.825 275.966 462.92 276.021C463.015 276.076 463.098 276.148 463.164 276.235C463.231 276.322 463.279 276.421 463.308 276.526L466.881 289.862C466.945 290.099 466.911 290.351 466.789 290.564C466.666 290.776 466.464 290.931 466.227 290.994L465.057 291.308L465.243 294.822L469.497 293.682L470.434 297.18L473.822 296.272L472.884 292.775L475.352 292.113L476.289 295.611L479.677 294.703L478.74 291.206L479.395 291.03C485.952 289.273 486.363 283.755 483.996 280.876ZM471.415 273.492C473.139 273.03 475.035 273.712 475.536 275.403C476.037 277.094 475.02 278.943 473.154 279.468C471.436 279.951 469.582 280.425 469.582 280.425L467.971 274.415C467.971 274.415 469.609 273.976 471.415 273.492ZM476.453 288.245C474.676 288.756 471.988 289.441 471.988 289.441L470.313 283.19C470.313 283.19 472.796 282.563 474.632 282.033C476.843 281.402 478.755 282 479.294 283.952C479.833 285.904 478.851 287.561 476.455 288.251L476.453 288.245Z" fill="#345AFA"/>
<path d="M99.5479 179.697C97.8084 177.61 94.8325 177.399 94.8325 177.399C94.8325 177.399 97.7926 174.718 96.1126 171.46C95.0228 169.334 92.37 167.614 88.5475 168.577L87.6701 165.303L84.2796 166.211L85.1569 169.486L82.6892 170.147L81.8118 166.873L78.4242 167.78L79.3016 171.055L75.0478 172.194L75.8757 175.284L77.8404 174.758C77.946 174.73 78.056 174.722 78.1644 174.737C78.2727 174.751 78.3772 174.786 78.4718 174.841C78.5664 174.896 78.6494 174.968 78.7159 175.055C78.7824 175.142 78.8312 175.241 78.8595 175.346L82.4329 188.682C82.4963 188.919 82.4631 189.171 82.3405 189.384C82.2179 189.596 82.016 189.751 81.7791 189.815L80.6092 190.128L80.7947 193.642L85.0485 192.502L85.9857 196L89.3733 195.092L88.4361 191.595L90.9038 190.933L91.8411 194.431L95.2286 193.523L94.2914 190.026L94.9463 189.85C101.504 188.093 101.914 182.575 99.5479 179.697ZM86.9672 172.312C88.6908 171.851 90.5868 172.533 91.0877 174.223C91.5886 175.914 90.5716 177.763 88.7056 178.288C86.9877 178.771 85.1335 179.245 85.1335 179.245L83.5231 173.235C83.5231 173.235 85.1603 172.797 86.9672 172.312ZM92.0049 187.065C90.2277 187.576 87.5398 188.261 87.5398 188.261L85.8648 182.01C85.8648 182.01 88.348 181.383 90.1841 180.853C92.3952 180.222 94.307 180.82 94.8459 182.772C95.3849 184.724 94.4028 186.381 92.0065 187.071L92.0049 187.065Z" fill="#345AFA"/>
<path d="M385.32 103.125C383.58 101.038 380.604 100.827 380.604 100.827C380.604 100.827 383.564 98.1455 381.884 94.8883C380.795 92.7619 378.142 91.0416 374.319 92.0052L373.442 88.7307L370.051 89.6392L370.929 92.9137L368.461 93.5749L367.584 90.3005L364.196 91.2082L365.073 94.4826L360.82 95.6224L361.647 98.7123L363.612 98.1859C363.718 98.1576 363.828 98.1504 363.936 98.1647C364.044 98.1789 364.149 98.2144 364.244 98.269C364.338 98.3236 364.421 98.3964 364.488 98.4831C364.554 98.5698 364.603 98.6687 364.631 98.7743L368.205 112.11C368.268 112.347 368.235 112.599 368.112 112.812C367.99 113.024 367.788 113.179 367.551 113.243L366.381 113.556L366.566 117.07L370.82 115.93L371.757 119.428L375.145 118.52L374.208 115.023L376.676 114.361L377.613 117.859L381 116.951L380.063 113.454L380.718 113.278C387.276 111.521 387.686 106.003 385.32 103.125ZM372.739 95.7404C374.463 95.2785 376.359 95.9606 376.859 97.6513C377.36 99.3421 376.343 101.191 374.477 101.716C372.759 102.199 370.905 102.673 370.905 102.673L369.295 96.6632C369.295 96.6632 370.932 96.2245 372.739 95.7404ZM377.777 110.493C375.999 111.004 373.312 111.689 373.312 111.689L371.636 105.438C371.636 105.438 374.12 104.811 375.956 104.281C378.167 103.65 380.079 104.248 380.618 106.2C381.157 108.152 380.175 109.809 377.778 110.499L377.777 110.493Z" fill="#345AFA"/>
<path d="M152.7 227.197L140.162 230.557L139.761 225.24L149.647 222.592C157.446 220.502 156.531 215.323 155.96 211.051C155.514 207.575 153.141 206.21 148.441 207.469L138.448 210.147L137.958 204.854L149.455 201.774C158.385 199.381 160.802 204.614 161.433 206.971L161.736 208.1C163.657 215.271 162.446 224.586 152.7 227.197Z" fill="#345AFA"/>
<path d="M144.858 218.853L133.07 222.011L133.068 218.908C133.066 218.238 133.286 217.587 133.693 217.055C134.1 216.524 134.671 216.142 135.318 215.969L147.106 212.811L147.109 215.917C147.109 216.586 146.889 217.236 146.482 217.767C146.075 218.298 145.504 218.679 144.858 218.853Z" fill="#345AFA"/>
<path d="M438.471 150.625L425.933 153.985L425.532 148.668L435.418 146.019C443.217 143.93 442.302 138.751 441.731 134.479C441.285 131.003 438.912 129.638 434.212 130.897L424.219 133.575L423.729 128.282L435.226 125.202C444.156 122.809 446.573 128.042 447.204 130.399L447.507 131.527C449.428 138.698 448.217 148.014 438.471 150.625Z" fill="#345AFA"/>
<path d="M430.629 142.281L418.841 145.439L418.839 142.336C418.837 141.666 419.057 141.015 419.464 140.483C419.871 139.952 420.442 139.57 421.089 139.397L432.877 136.239L432.88 139.345C432.88 140.014 432.66 140.664 432.253 141.195C431.846 141.726 431.275 142.107 430.629 142.281Z" fill="#345AFA"/>
<path d="M244.537 -1.60272L231.999 1.75688L231.599 -3.55969L241.484 -6.2086C249.284 -8.29839 248.368 -13.477 247.798 -17.7493C247.351 -21.2254 244.979 -22.5901 240.278 -21.3307L230.285 -18.6531L229.796 -23.9457L241.292 -27.0261C250.222 -29.419 252.639 -24.1864 253.271 -21.8288L253.573 -20.7006C255.495 -13.5296 254.283 -4.21415 244.537 -1.60272Z" fill="#345AFA"/>
<path d="M82.9667 347.978L70.4285 351.338L70.028 346.021L79.9139 343.373C87.7131 341.283 86.7977 336.104 86.2272 331.832C85.7808 328.356 83.4083 326.991 78.7079 328.25L68.7149 330.928L68.2251 325.635L79.7215 322.555C88.6518 320.162 91.0685 325.395 91.7002 327.752L92.0025 328.88C93.924 336.052 92.7126 345.367 82.9667 347.978Z" fill="#345AFA"/>
<path d="M368.738 271.406L356.199 274.766L355.799 269.449L365.685 266.8C373.484 264.711 372.569 259.532 371.998 255.26C371.552 251.784 369.179 250.419 364.479 251.678L354.486 254.356L353.996 249.063L365.492 245.983C374.423 243.59 376.839 248.823 377.471 251.18L377.773 252.308C379.695 259.479 378.484 268.795 368.738 271.406Z" fill="#345AFA"/>
<path d="M360.896 263.062L349.108 266.22L349.106 263.117C349.104 262.447 349.324 261.796 349.731 261.264C350.138 260.733 350.709 260.351 351.356 260.178L363.144 257.02L363.147 260.126C363.147 260.795 362.927 261.445 362.52 261.976C362.113 262.507 361.542 262.888 360.896 263.062Z" fill="#345AFA"/>
<g clip-path="url(#clip14_140_5623)">
<path d="M79.5472 144.702L67.009 148.062L66.6086 142.745L76.4945 140.097C84.2937 138.007 83.3783 132.828 82.8078 128.556C82.3613 125.08 79.9888 123.715 75.2885 124.974L65.2954 127.652L64.8057 122.359L76.302 119.279C85.2324 116.886 87.649 122.119 88.2807 124.476L88.583 125.604C90.5045 132.776 89.2932 142.091 79.5472 144.702Z" fill="#345AFA"/>
<path d="M71.7056 136.358L59.9176 139.516L59.9154 136.413C59.9136 135.743 60.1332 135.092 60.5402 134.56C60.9473 134.029 61.5187 133.647 62.1655 133.474L73.9535 130.316L73.9565 133.422C73.9566 134.091 73.7361 134.741 73.3291 135.272C72.9222 135.803 72.3515 136.184 71.7056 136.358Z" fill="#345AFA"/>
</g>
<path d="M365.318 68.1303L352.78 71.4899L352.38 66.1733L362.265 63.5244C370.065 61.4346 369.149 56.256 368.579 51.9837C368.132 48.5076 365.76 47.1429 361.059 48.4023L351.066 51.0799L350.577 45.7873L362.073 42.7069C371.003 40.314 373.42 45.5466 374.052 47.9042L374.354 49.0324C376.276 56.2034 375.064 65.5188 365.318 68.1303Z" fill="#345AFA"/>
<path d="M357.477 59.7857L345.689 62.9443L345.686 59.8405C345.685 59.1711 345.904 58.5198 346.311 57.9883C346.718 57.4568 347.29 57.0749 347.936 56.9022L359.725 53.7436L359.727 56.8503C359.728 57.5191 359.507 58.1693 359.1 58.7C358.693 59.2307 358.123 59.6123 357.477 59.7857Z" fill="#345AFA"/>
<path d="M213.09 262.064L200.552 265.423L200.152 260.107L210.037 257.458C217.837 255.368 216.921 250.19 216.351 245.917C215.904 242.441 213.532 241.076 208.831 242.336L198.838 245.014L198.349 239.721L209.845 236.64C218.775 234.248 221.192 239.48 221.824 241.838L222.126 242.966C224.047 250.137 222.836 259.452 213.09 262.064Z" fill="#345AFA"/>
<path d="M205.249 253.719L193.461 256.878L193.458 253.774C193.457 253.105 193.676 252.453 194.083 251.922C194.49 251.39 195.062 251.008 195.708 250.836L207.496 247.677L207.499 250.784C207.5 251.453 207.279 252.103 206.872 252.634C206.465 253.164 205.895 253.546 205.249 253.719Z" fill="#345AFA"/>
<path d="M498.861 185.492L486.323 188.851L485.923 183.535L495.808 180.886C503.608 178.796 502.692 173.618 502.122 169.345C501.675 165.869 499.303 164.504 494.602 165.764L484.609 168.441L484.12 163.149L495.616 160.068C504.546 157.675 506.963 162.908 507.595 165.266L507.897 166.394C509.818 173.565 508.607 182.88 498.861 185.492Z" fill="#345AFA"/>
<path d="M491.02 177.147L479.232 180.306L479.229 177.202C479.228 176.533 479.447 175.881 479.854 175.35C480.261 174.818 480.833 174.436 481.479 174.264L493.267 171.105L493.27 174.212C493.271 174.881 493.05 175.531 492.643 176.061C492.236 176.592 491.665 176.974 491.02 177.147Z" fill="#345AFA"/>
<path d="M209.671 58.7878L197.133 62.1474L196.732 56.8309L206.618 54.182C214.417 52.0922 213.502 46.9136 212.931 42.6412C212.485 39.1652 210.112 37.8004 205.412 39.0599L195.419 41.7375L194.929 36.4449L206.426 33.3644C215.356 30.9716 217.773 36.2041 218.404 38.5617L218.707 39.6899C220.628 46.861 219.417 56.1764 209.671 58.7878Z" fill="#345AFA"/>
<path d="M201.829 50.4433L190.041 53.6019L190.039 50.4981C190.037 49.8286 190.257 49.1774 190.664 48.6459C191.071 48.1144 191.642 47.7325 192.289 47.5597L204.077 44.4011L204.08 47.5079C204.08 48.1767 203.86 48.8268 203.453 49.3575C203.046 49.8882 202.475 50.2699 201.829 50.4433Z" fill="#345AFA"/>
<path d="M41.2611 1.81686L28.7229 5.17646L28.3225 -0.140102L38.2084 -2.78902C46.0075 -4.8788 45.0921 -10.0574 44.5216 -14.3297C44.0752 -17.8058 41.7027 -19.1706 37.0023 -17.9111L27.0093 -15.2335L26.5196 -20.5261L38.0159 -23.6065C46.9462 -25.9994 49.3629 -20.7669 49.9946 -18.4092L50.2969 -17.281C52.2184 -10.11 51.0071 -0.794566 41.2611 1.81686Z" fill="#345AFA"/>
<path d="M429.129 306.273L416.59 309.632L416.19 304.316L426.076 301.667C433.875 299.577 432.96 294.399 432.389 290.126C431.943 286.65 429.57 285.285 424.87 286.545L414.877 289.222L414.387 283.93L425.883 280.849C434.814 278.456 437.23 283.689 437.862 286.047L438.164 287.175C440.086 294.346 438.875 303.661 429.129 306.273Z" fill="#345AFA"/>
<path d="M421.287 297.928L409.499 301.087L409.497 297.983C409.495 297.314 409.715 296.662 410.122 296.131C410.529 295.599 411.1 295.217 411.747 295.045L423.535 291.886L423.538 294.993C423.538 295.662 423.317 296.312 422.91 296.842C422.503 297.373 421.933 297.755 421.287 297.928Z" fill="#345AFA"/>
<path d="M139.938 179.569L127.399 182.928L126.999 177.612L136.885 174.963C144.684 172.873 143.769 167.695 143.198 163.422C142.752 159.946 140.379 158.581 135.679 159.841L125.686 162.519L125.196 157.226L136.692 154.145C145.623 151.753 148.039 156.985 148.671 159.343L148.973 160.471C150.895 167.642 149.684 176.957 139.938 179.569Z" fill="#345AFA"/>
<path d="M132.096 171.224L120.308 174.383L120.306 171.279C120.304 170.61 120.524 169.958 120.931 169.427C121.338 168.895 121.909 168.514 122.556 168.341L134.344 165.182L134.347 168.289C134.347 168.958 134.126 169.608 133.72 170.139C133.313 170.669 132.742 171.051 132.096 171.224Z" fill="#345AFA"/>
<path d="M425.709 102.997L413.17 106.356L412.77 101.04L422.656 98.3909C430.455 96.3011 429.54 91.1225 428.969 86.8502C428.523 83.3741 426.15 82.0093 421.45 83.2688L411.457 85.9464L410.967 80.6538L422.463 77.5734C431.394 75.1805 433.81 80.413 434.442 82.7707L434.744 83.8989C436.666 91.0699 435.455 100.385 425.709 102.997Z" fill="#345AFA"/>
<path d="M417.867 94.6522L406.079 97.8108L406.077 94.707C406.075 94.0376 406.295 93.3863 406.702 92.8548C407.109 92.3233 407.68 91.9414 408.327 91.7687L420.115 88.6101L420.118 91.7168C420.118 92.3856 419.897 93.0357 419.491 93.5665C419.084 94.0972 418.513 94.4788 417.867 94.6522Z" fill="#345AFA"/>
<g clip-path="url(#clip15_140_5623)">
<path d="M50.7268 232.063L63.1687 236.131L48.5062 223.776L42.2324 241.751L50.7268 232.063Z" fill="#345AFA"/>
<path d="M63.7406 237.873L51.2524 234.025L42.363 243.608L54.8529 247.462L63.7406 237.873Z" fill="#345AFA"/>
<path d="M42.9344 245.346L57.5993 257.711L63.8723 239.733L55.3787 249.424L42.9344 245.346Z" fill="#345AFA"/>
</g>
<path d="M336.498 155.491L348.94 159.559L334.277 147.204L328.003 165.178L336.498 155.491Z" fill="#345AFA"/>
<path d="M349.512 161.301L337.023 157.453L328.134 167.035L340.624 170.89L349.512 161.301Z" fill="#345AFA"/>
<path d="M328.705 168.774L343.37 181.139L349.643 163.161L341.15 172.851L328.705 168.774Z" fill="#345AFA"/>
<g clip-path="url(#clip16_140_5623)">
<path d="M47.3074 28.7869L59.7493 32.8551L45.0868 20.4995L38.813 38.4745L47.3074 28.7869Z" fill="#345AFA"/>
<path d="M60.3212 34.597L47.8329 30.7486L38.9436 40.3315L51.4334 44.1858L60.3212 34.597Z" fill="#345AFA"/>
<path d="M39.515 42.0704L54.1798 54.4349L60.4528 36.4569L51.9592 46.1475L39.515 42.0704Z" fill="#345AFA"/>
</g>
<path d="M123.879 314.558L136.321 318.626L121.659 306.271L115.385 324.246L123.879 314.558Z" fill="#345AFA"/>
<path d="M136.893 320.368L124.405 316.52L115.516 326.103L128.005 329.957L136.893 320.368Z" fill="#345AFA"/>
<g clip-path="url(#clip17_140_5623)">
<path d="M409.65 237.986L422.092 242.054L407.43 229.698L401.156 247.673L409.65 237.986Z" fill="#345AFA"/>
<path d="M422.664 243.796L410.176 239.947L401.287 249.53L413.776 253.385L422.664 243.796Z" fill="#345AFA"/>
<path d="M401.858 251.269L416.523 263.634L422.796 245.656L414.302 255.346L401.858 251.269Z" fill="#345AFA"/>
</g>
<g clip-path="url(#clip18_140_5623)">
<path d="M25.2029 136.806L37.6448 140.874L22.9823 128.519L16.7085 146.494L25.2029 136.806Z" fill="#345AFA"/>
<path d="M38.2167 142.616L25.7284 138.768L16.8391 148.351L29.3289 152.205L38.2167 142.616Z" fill="#345AFA"/>
<path d="M17.4105 150.089L32.0753 162.454L38.3483 144.476L29.8547 154.167L17.4105 150.089Z" fill="#345AFA"/>
</g>
<g clip-path="url(#clip19_140_5623)">
<path d="M310.974 60.2339L323.416 64.302L308.753 51.9465L302.479 69.9215L310.974 60.2339Z" fill="#345AFA"/>
<path d="M323.988 66.0439L311.499 62.1956L302.61 71.7784L315.1 75.6328L323.988 66.0439Z" fill="#345AFA"/>
<path d="M303.181 73.5174L317.846 85.8818L324.119 67.9039L315.626 77.5945L303.181 73.5174Z" fill="#345AFA"/>
</g>
<g clip-path="url(#clip20_140_5623)">
<path d="M158.746 254.167L171.188 258.236L156.525 245.88L150.251 263.855L158.746 254.167Z" fill="#345AFA"/>
<path d="M171.759 259.978L159.271 256.129L150.382 265.712L162.872 269.566L171.759 259.978Z" fill="#345AFA"/>
<path d="M150.953 267.451L165.618 279.815L171.891 261.837L163.397 271.528L150.953 267.451Z" fill="#345AFA"/>
</g>
<path d="M444.517 177.595L456.958 181.663L442.296 169.308L436.022 187.283L444.517 177.595Z" fill="#345AFA"/>
<path d="M457.53 183.405L445.042 179.557L436.153 189.14L448.643 192.994L457.53 183.405Z" fill="#345AFA"/>
<path d="M436.724 190.879L451.389 203.243L457.662 185.265L449.168 194.956L436.724 190.879Z" fill="#345AFA"/>
<path d="M107.698 63.6534L120.14 67.7216L105.477 55.3661L99.2034 73.341L107.698 63.6534Z" fill="#345AFA"/>
<path d="M120.712 69.4635L108.223 65.6151L99.3339 75.198L111.824 79.0523L120.712 69.4635Z" fill="#345AFA"/>
<path d="M99.9053 76.9369L114.57 89.3014L120.843 71.3234L112.35 81.014L99.9053 76.9369Z" fill="#345AFA"/>
<g clip-path="url(#clip21_140_5623)">
<path d="M406.483 -7.10862L393.994 -10.957L385.105 -1.37412L397.595 2.4802L406.483 -7.10862Z" fill="#345AFA"/>
<path d="M385.676 0.364794L400.341 12.7293L406.614 -5.24869L398.121 4.4419L385.676 0.364794Z" fill="#345AFA"/>
</g>
<g clip-path="url(#clip22_140_5623)">
<path d="M180.85 146.148L193.292 150.217L178.63 137.861L172.356 155.836L180.85 146.148Z" fill="#345AFA"/>
<path d="M193.864 151.958L181.376 148.11L172.487 157.693L184.976 161.547L193.864 151.958Z" fill="#345AFA"/>
<path d="M173.058 159.432L187.723 171.796L193.996 153.818L185.502 163.509L173.058 159.432Z" fill="#345AFA"/>
</g>
<path d="M466.621 69.5763L479.063 73.6445L464.401 61.2889L458.127 79.2639L466.621 69.5763Z" fill="#345AFA"/>
<path d="M479.635 75.3864L467.147 71.538L458.258 81.1209L470.747 84.9752L479.635 75.3864Z" fill="#345AFA"/>
<path d="M458.829 82.8598L473.494 95.2243L479.767 77.2463L471.273 86.9369L458.829 82.8598Z" fill="#345AFA"/>
<path d="M198.489 217.334C198.604 217.428 198.685 217.558 198.72 217.702C198.754 217.847 198.741 217.999 198.682 218.135C198.622 218.272 198.52 218.385 198.39 218.458C198.261 218.531 198.111 218.56 197.964 218.54C193.969 217.98 188.895 215.811 187.377 210.143C185.516 203.198 191.73 198.694 191.974 192.828C192.074 190.981 191.858 189.13 191.337 187.355C191.306 187.253 191.309 187.144 191.344 187.043C191.379 186.943 191.444 186.856 191.532 186.795C191.619 186.734 191.723 186.703 191.83 186.704C191.936 186.706 192.039 186.742 192.124 186.806C194.755 188.723 196.693 191.441 197.649 194.552C199.155 199.279 195.062 204.498 194.408 208.821C193.836 212.768 196.514 215.725 198.489 217.334Z" fill="#345AFA"/>
<path d="M203.608 216.588C203.594 216.644 203.567 216.696 203.529 216.739C203.491 216.782 203.443 216.815 203.389 216.836C203.335 216.856 203.277 216.863 203.219 216.856C203.162 216.849 203.107 216.828 203.06 216.795C202.015 216.073 199.649 214.126 199.177 211.518C198.331 206.851 200.323 203.079 200.89 200.812C201.143 199.849 201.244 198.853 201.19 197.86C201.187 197.817 201.195 197.775 201.214 197.737C201.233 197.699 201.262 197.667 201.298 197.644C201.334 197.622 201.375 197.609 201.418 197.608C201.46 197.607 201.502 197.618 201.539 197.638C203.167 198.714 206.298 201.242 207.24 205.006C208.842 211.404 204.897 214.018 203.84 215.98C203.736 216.171 203.658 216.376 203.608 216.588Z" fill="#345AFA"/>
<path d="M484.26 140.762C484.375 140.856 484.456 140.986 484.49 141.13C484.525 141.275 484.512 141.427 484.453 141.563C484.393 141.7 484.291 141.813 484.161 141.886C484.032 141.959 483.882 141.988 483.735 141.968C479.74 141.408 474.666 139.239 473.148 133.571C471.287 126.626 477.501 122.122 477.745 116.256C477.845 114.409 477.629 112.558 477.108 110.783C477.077 110.681 477.08 110.572 477.115 110.471C477.15 110.371 477.215 110.284 477.303 110.223C477.39 110.162 477.494 110.13 477.601 110.132C477.707 110.134 477.81 110.17 477.895 110.234C480.526 112.151 482.464 114.869 483.42 117.98C484.926 122.707 480.833 127.926 480.179 132.249C479.607 136.196 482.285 139.153 484.26 140.762Z" fill="#345AFA"/>
<path d="M489.379 140.016C489.365 140.072 489.338 140.124 489.3 140.167C489.262 140.21 489.214 140.243 489.16 140.264C489.106 140.284 489.048 140.291 488.99 140.284C488.933 140.277 488.878 140.256 488.831 140.223C487.786 139.501 485.42 137.554 484.948 134.946C484.102 130.279 486.094 126.507 486.661 124.239C486.914 123.277 487.015 122.281 486.961 121.288C486.958 121.245 486.966 121.203 486.985 121.165C487.004 121.127 487.033 121.095 487.069 121.072C487.105 121.05 487.146 121.037 487.189 121.036C487.231 121.035 487.273 121.045 487.31 121.066C488.938 122.142 492.069 124.67 493.011 128.434C494.613 134.832 490.668 137.446 489.611 139.408C489.507 139.599 489.429 139.804 489.379 140.016Z" fill="#345AFA"/>
<path d="M147.441 26.8199C147.556 26.9144 147.637 27.0437 147.672 27.1884C147.706 27.333 147.693 27.485 147.634 27.6213C147.574 27.7577 147.472 27.871 147.343 27.9441C147.213 28.0171 147.063 28.046 146.916 28.0263C142.921 27.4663 137.848 25.297 136.329 19.6292C134.468 12.6844 140.682 8.17978 140.926 2.31415C141.026 0.466767 140.811 -1.38417 140.289 -3.15916C140.258 -3.26111 140.261 -3.3701 140.296 -3.4706C140.331 -3.5711 140.397 -3.65797 140.484 -3.71885C140.571 -3.77972 140.675 -3.81149 140.782 -3.80961C140.888 -3.80774 140.991 -3.77232 141.077 -3.70841C143.707 -1.7912 145.645 0.926755 146.601 4.03821C148.107 8.76505 144.014 13.9838 143.361 18.3066C142.788 22.2536 145.466 25.2115 147.441 26.8199Z" fill="#345AFA"/>
<path d="M152.56 26.0737C152.546 26.1298 152.519 26.1817 152.481 26.2249C152.443 26.2682 152.395 26.3015 152.341 26.3219C152.287 26.3423 152.229 26.3493 152.171 26.3422C152.114 26.335 152.06 26.314 152.012 26.281C150.967 25.5593 148.601 23.6121 148.129 21.0043C147.283 16.3367 149.275 12.5647 149.842 10.2975C150.095 9.3352 150.196 8.33922 150.142 7.34563C150.139 7.30331 150.147 7.26092 150.166 7.223C150.185 7.18507 150.214 7.15305 150.25 7.13033C150.286 7.10762 150.327 7.09508 150.37 7.09404C150.412 7.09301 150.454 7.10352 150.491 7.12446C152.119 8.20046 155.25 10.7276 156.192 14.4921C157.794 20.8903 153.849 23.5043 152.793 25.4658C152.688 25.6571 152.61 25.8616 152.56 26.0737Z" fill="#345AFA"/>
<path d="M224.013 312.591C224.128 312.685 224.209 312.815 224.243 312.959C224.278 313.104 224.265 313.256 224.205 313.392C224.146 313.529 224.044 313.642 223.914 313.715C223.785 313.788 223.635 313.817 223.487 313.797C219.493 313.237 214.419 311.068 212.901 305.4C211.04 298.455 217.254 293.951 217.498 288.085C217.598 286.238 217.382 284.387 216.861 282.612C216.83 282.51 216.832 282.401 216.868 282.3C216.903 282.2 216.968 282.113 217.056 282.052C217.143 281.991 217.247 281.96 217.354 281.961C217.46 281.963 217.563 281.999 217.648 282.063C220.279 283.98 222.217 286.698 223.173 289.809C224.679 294.536 220.586 299.755 219.932 304.078C219.36 308.025 222.038 310.983 224.013 312.591Z" fill="#345AFA"/>
<path d="M229.132 311.845C229.118 311.901 229.091 311.953 229.053 311.996C229.015 312.039 228.967 312.073 228.913 312.093C228.859 312.113 228.801 312.12 228.743 312.113C228.686 312.106 228.631 312.085 228.584 312.052C227.539 311.33 225.173 309.383 224.701 306.775C223.855 302.108 225.847 298.336 226.413 296.069C226.667 295.106 226.768 294.11 226.714 293.117C226.71 293.074 226.719 293.032 226.738 292.994C226.757 292.956 226.786 292.924 226.822 292.901C226.858 292.879 226.899 292.866 226.942 292.865C226.984 292.864 227.026 292.875 227.063 292.896C228.691 293.972 231.822 296.499 232.763 300.263C234.366 306.661 230.421 309.275 229.364 311.237C229.26 311.428 229.182 311.633 229.132 311.845Z" fill="#345AFA"/>
<path d="M509.784 236.019C509.899 236.113 509.98 236.243 510.014 236.387C510.049 236.532 510.036 236.684 509.976 236.82C509.917 236.957 509.815 237.07 509.685 237.143C509.556 237.216 509.406 237.245 509.258 237.225C505.264 236.665 500.19 234.496 498.672 228.828C496.811 221.883 503.025 217.379 503.269 211.513C503.369 209.666 503.153 207.815 502.632 206.04C502.601 205.938 502.603 205.829 502.638 205.728C502.674 205.628 502.739 205.541 502.827 205.48C502.914 205.419 503.018 205.387 503.125 205.389C503.231 205.391 503.334 205.427 503.419 205.491C506.05 207.408 507.988 210.126 508.944 213.237C510.45 217.964 506.357 223.183 505.703 227.506C505.131 231.453 507.809 234.41 509.784 236.019Z" fill="#345AFA"/>
<path d="M172.965 122.077C173.08 122.171 173.161 122.301 173.196 122.445C173.23 122.59 173.217 122.742 173.158 122.878C173.098 123.015 172.996 123.128 172.866 123.201C172.737 123.274 172.587 123.303 172.44 123.283C168.445 122.723 163.372 120.554 161.853 114.886C159.992 107.941 166.206 103.437 166.45 97.5712C166.55 95.7238 166.335 93.8729 165.813 92.0979C165.782 91.9959 165.785 91.887 165.82 91.7865C165.855 91.686 165.921 91.5991 166.008 91.5382C166.095 91.4773 166.199 91.4456 166.306 91.4474C166.412 91.4493 166.515 91.4847 166.6 91.5486C169.231 93.4659 171.169 96.1838 172.125 99.2953C173.631 104.022 169.538 109.241 168.885 113.564C168.312 117.511 170.99 120.469 172.965 122.077Z" fill="#345AFA"/>
<path d="M178.084 121.331C178.07 121.387 178.043 121.439 178.005 121.482C177.967 121.525 177.919 121.559 177.865 121.579C177.811 121.599 177.753 121.606 177.695 121.599C177.638 121.592 177.584 121.571 177.536 121.538C176.491 120.816 174.125 118.869 173.653 116.261C172.807 111.594 174.799 107.822 175.366 105.555C175.619 104.592 175.72 103.596 175.666 102.603C175.663 102.56 175.671 102.518 175.69 102.48C175.709 102.442 175.738 102.41 175.774 102.387C175.81 102.365 175.851 102.352 175.894 102.351C175.936 102.35 175.978 102.361 176.015 102.382C177.643 103.458 180.774 105.985 181.716 109.749C183.318 116.147 179.373 118.761 178.316 120.723C178.212 120.914 178.134 121.119 178.084 121.331Z" fill="#345AFA"/>
<path d="M458.735 45.5048C458.85 45.5993 458.931 45.7287 458.966 45.8733C459.001 46.0179 458.987 46.1699 458.928 46.3063C458.868 46.4426 458.766 46.5559 458.637 46.629C458.507 46.7021 458.357 46.7309 458.21 46.7112C454.215 46.1512 449.142 43.982 447.623 38.3142C445.762 31.3693 451.976 26.8647 452.22 20.9991C452.32 19.1517 452.105 17.3008 451.583 15.5258C451.552 15.4238 451.555 15.3148 451.59 15.2143C451.625 15.1138 451.691 15.027 451.778 14.9661C451.865 14.9052 451.97 14.8735 452.076 14.8753C452.182 14.8772 452.286 14.9126 452.371 14.9765C455.001 16.8937 456.939 19.6117 457.895 22.7231C459.401 27.45 455.309 32.6687 454.655 36.9916C454.082 40.9386 456.76 43.8964 458.735 45.5048Z" fill="#345AFA"/>
<path d="M463.854 44.7586C463.84 44.8147 463.813 44.8666 463.775 44.9099C463.737 44.9531 463.689 44.9864 463.635 45.0068C463.581 45.0273 463.523 45.0342 463.466 45.0271C463.408 45.02 463.354 44.999 463.307 44.9659C462.261 44.2442 459.895 42.297 459.423 39.6893C458.578 35.0216 460.569 31.2496 461.136 28.9825C461.389 28.0201 461.49 27.0242 461.436 26.0306C461.433 25.9882 461.441 25.9459 461.46 25.9079C461.479 25.87 461.508 25.838 461.544 25.8153C461.58 25.7926 461.621 25.78 461.664 25.779C461.706 25.7779 461.748 25.7885 461.785 25.8094C463.414 26.8854 466.544 29.4125 467.486 33.177C469.089 39.5753 465.144 42.1893 464.087 44.1507C463.982 44.3421 463.904 44.5465 463.854 44.7586Z" fill="#345AFA"/>
<path d="M68.3654 303.249C68.4803 303.343 68.5612 303.472 68.596 303.617C68.6307 303.762 68.6174 303.914 68.558 304.05C68.4986 304.186 68.3964 304.3 68.2668 304.373C68.1373 304.446 67.9875 304.475 67.84 304.455C63.8454 303.895 58.7719 301.726 57.2533 296.058C55.3924 289.113 61.6065 284.608 61.8502 278.743C61.9504 276.895 61.735 275.044 61.2132 273.27C61.1826 273.168 61.185 273.059 61.22 272.958C61.2551 272.858 61.3209 272.771 61.4082 272.71C61.4955 272.649 61.5998 272.617 61.7062 272.619C61.8126 272.621 61.9157 272.656 62.0008 272.72C64.6312 274.637 66.5696 277.355 67.5255 280.467C69.0313 285.194 64.9388 290.412 64.2849 294.735C63.7121 298.682 66.3903 301.64 68.3654 303.249Z" fill="#345AFA"/>
<path d="M73.4841 302.502C73.4706 302.558 73.4435 302.61 73.4054 302.654C73.3672 302.697 73.3191 302.73 73.2651 302.751C73.2112 302.771 73.153 302.778 73.0958 302.771C73.0386 302.764 72.9839 302.743 72.9366 302.71C71.8914 301.988 69.5255 300.041 69.0533 297.433C68.2078 292.765 70.1994 288.993 70.766 286.726C71.0192 285.764 71.1205 284.768 71.0662 283.774C71.063 283.732 71.0714 283.69 71.0905 283.652C71.1096 283.614 71.1386 283.582 71.1744 283.559C71.2103 283.536 71.2516 283.524 71.294 283.523C71.3365 283.522 71.3784 283.532 71.4153 283.553C73.0436 284.629 76.1743 287.156 77.116 290.921C78.7187 297.319 74.7738 299.933 73.7168 301.894C73.6125 302.086 73.5343 302.29 73.4841 302.502Z" fill="#345AFA"/>
<path d="M354.136 226.676C354.251 226.771 354.332 226.9 354.367 227.045C354.402 227.189 354.388 227.341 354.329 227.478C354.27 227.614 354.167 227.728 354.038 227.801C353.908 227.874 353.758 227.903 353.611 227.883C349.616 227.323 344.543 225.154 343.024 219.486C341.163 212.541 347.378 208.036 347.621 202.171C347.721 200.323 347.506 198.472 346.984 196.697C346.954 196.595 346.956 196.486 346.991 196.386C347.026 196.285 347.092 196.199 347.179 196.138C347.267 196.077 347.371 196.045 347.477 196.047C347.584 196.049 347.687 196.084 347.772 196.148C350.402 198.065 352.341 200.783 353.296 203.895C354.802 208.622 350.71 213.84 350.056 218.163C349.483 222.11 352.161 225.068 354.136 226.676Z" fill="#345AFA"/>
<path d="M359.255 225.93C359.242 225.986 359.215 226.038 359.176 226.081C359.138 226.125 359.09 226.158 359.036 226.178C358.982 226.199 358.924 226.206 358.867 226.199C358.81 226.192 358.755 226.171 358.708 226.138C357.662 225.416 355.297 223.469 354.824 220.861C353.979 216.193 355.97 212.421 356.537 210.154C356.79 209.192 356.891 208.196 356.837 207.202C356.834 207.16 356.842 207.117 356.861 207.08C356.881 207.042 356.91 207.01 356.945 206.987C356.981 206.964 357.023 206.952 357.065 206.951C357.107 206.95 357.149 206.96 357.186 206.981C358.815 208.057 361.945 210.584 362.887 214.349C364.49 220.747 360.545 223.361 359.488 225.322C359.384 225.514 359.305 225.718 359.255 225.93Z" fill="#345AFA"/>
<path d="M255.46 48.9244C255.575 49.0189 255.656 49.1482 255.69 49.2928C255.725 49.4375 255.712 49.5895 255.652 49.7258C255.593 49.8622 255.491 49.9755 255.361 50.0486C255.232 50.1216 255.082 50.1505 254.935 50.1308C250.94 49.5708 245.866 47.4015 244.348 41.7337C242.487 34.7889 248.701 30.2843 248.945 24.4186C249.045 22.5713 248.829 20.7203 248.308 18.9453C248.277 18.8434 248.28 18.7344 248.315 18.6339C248.35 18.5334 248.415 18.4465 248.503 18.3856C248.59 18.3248 248.694 18.293 248.801 18.2949C248.907 18.2968 249.01 18.3322 249.095 18.3961C251.726 20.3133 253.664 23.0312 254.62 26.1427C256.126 30.8695 252.033 36.0883 251.379 40.4111C250.807 44.3581 253.485 47.316 255.46 48.9244Z" fill="#345AFA"/>
<path d="M260.579 48.1782C260.565 48.2343 260.538 48.2862 260.5 48.3294C260.462 48.3727 260.414 48.406 260.36 48.4264C260.306 48.4468 260.248 48.4538 260.19 48.4466C260.133 48.4395 260.078 48.4185 260.031 48.3855C258.986 47.6638 256.62 45.7166 256.148 43.1088C255.302 38.4411 257.294 34.6691 257.86 32.402C258.114 31.4397 258.215 30.4437 258.161 29.4501C258.158 29.4078 258.166 29.3654 258.185 29.3275C258.204 29.2896 258.233 29.2575 258.269 29.2348C258.305 29.2121 258.346 29.1996 258.389 29.1985C258.431 29.1975 258.473 29.208 258.51 29.229C260.138 30.3049 263.269 32.8321 264.21 36.5966C265.813 42.9948 261.868 45.6088 260.811 47.5702C260.707 47.7616 260.629 47.9661 260.579 48.1782Z" fill="#345AFA"/>
<path d="M-3.08841 16.7313C-3.10196 16.7873 -3.12899 16.8392 -3.16715 16.8825C-3.20531 16.9258 -3.25346 16.959 -3.3074 16.9795C-3.36135 16.9999 -3.41946 17.0068 -3.4767 16.9997C-3.53394 16.9926 -3.58858 16.9716 -3.63587 16.9386C-4.68113 16.2168 -7.04698 14.2696 -7.5192 11.6619C-8.36471 6.99422 -6.37315 3.22222 -5.80652 0.955085C-5.55333 -0.00723987 -5.45204 -1.00321 -5.50632 -1.99681C-5.50948 -2.03913 -5.50108 -2.08152 -5.48202 -2.11944C-5.46296 -2.15736 -5.43395 -2.18939 -5.39809 -2.2121C-5.36224 -2.23482 -5.32089 -2.24736 -5.27846 -2.2484C-5.23603 -2.24943 -5.19412 -2.23891 -5.1572 -2.21797C-3.52888 -1.14198 -0.398235 1.38515 0.543464 5.14967C2.1462 11.5479 -1.79875 14.1619 -2.85569 16.1233C-2.95999 16.3147 -3.03826 16.5191 -3.08841 16.7313Z" fill="#345AFA"/>
<path d="M379.661 321.933C379.775 322.028 379.856 322.157 379.891 322.302C379.926 322.446 379.913 322.598 379.853 322.735C379.794 322.871 379.692 322.985 379.562 323.058C379.432 323.131 379.283 323.16 379.135 323.14C375.141 322.58 370.067 320.411 368.548 314.743C366.688 307.798 372.902 303.293 373.145 297.428C373.246 295.58 373.03 293.729 372.508 291.954C372.478 291.852 372.48 291.743 372.515 291.643C372.55 291.542 372.616 291.456 372.703 291.395C372.791 291.334 372.895 291.302 373.001 291.304C373.108 291.306 373.211 291.341 373.296 291.405C375.926 293.322 377.865 296.04 378.821 299.152C380.326 303.879 376.234 309.097 375.58 313.42C375.007 317.367 377.685 320.325 379.661 321.933Z" fill="#345AFA"/>
<path d="M384.779 321.187C384.766 321.243 384.739 321.295 384.701 321.338C384.662 321.382 384.614 321.415 384.56 321.435C384.506 321.456 384.448 321.463 384.391 321.456C384.334 321.449 384.279 321.428 384.232 321.394C383.187 320.673 380.821 318.726 380.348 316.118C379.503 311.45 381.495 307.678 382.061 305.411C382.314 304.449 382.416 303.453 382.361 302.459C382.358 302.417 382.367 302.374 382.386 302.336C382.405 302.299 382.434 302.267 382.47 302.244C382.505 302.221 382.547 302.209 382.589 302.208C382.632 302.207 382.674 302.217 382.71 302.238C384.339 303.314 387.469 305.841 388.411 309.606C390.014 316.004 386.069 318.618 385.012 320.579C384.908 320.771 384.829 320.975 384.779 321.187Z" fill="#345AFA"/>
<path d="M42.8415 207.991C42.9564 208.086 43.0373 208.215 43.072 208.36C43.1068 208.505 43.0935 208.657 43.0341 208.793C42.9747 208.929 42.8725 209.043 42.7429 209.116C42.6134 209.189 42.4635 209.218 42.3161 209.198C38.3215 208.638 33.248 206.469 31.7293 200.801C29.8685 193.856 36.0826 189.351 36.3263 183.486C36.4265 181.638 36.211 179.787 35.6892 178.012C35.6587 177.91 35.6611 177.802 35.6961 177.701C35.7311 177.601 35.797 177.514 35.8843 177.453C35.9716 177.392 36.0759 177.36 36.1823 177.362C36.2887 177.364 36.3918 177.399 36.4769 177.463C39.1073 179.38 41.0457 182.098 42.0015 185.21C43.5074 189.937 39.4149 195.155 38.761 199.478C38.1882 203.425 40.8664 206.383 42.8415 207.991Z" fill="#345AFA"/>
<path d="M47.9602 207.245C47.9466 207.301 47.9196 207.353 47.8814 207.397C47.8433 207.44 47.7951 207.473 47.7412 207.494C47.6872 207.514 47.6291 207.521 47.5719 207.514C47.5146 207.507 47.46 207.486 47.4127 207.453C46.3675 206.731 44.0016 204.784 43.5294 202.176C42.6839 197.508 44.6754 193.736 45.2421 191.469C45.4953 190.507 45.5965 189.511 45.5423 188.517C45.5391 188.475 45.5475 188.433 45.5666 188.395C45.5856 188.357 45.6146 188.325 45.6505 188.302C45.6863 188.279 45.7277 188.267 45.7701 188.266C45.8126 188.265 45.8545 188.275 45.8914 188.296C47.5197 189.372 50.6503 191.899 51.592 195.664C53.1948 202.062 49.2498 204.676 48.1929 206.637C48.0886 206.829 48.0103 207.033 47.9602 207.245Z" fill="#345AFA"/>
<path d="M328.613 131.419C328.727 131.514 328.808 131.643 328.843 131.788C328.878 131.932 328.864 132.084 328.805 132.221C328.746 132.357 328.643 132.47 328.514 132.544C328.384 132.617 328.235 132.645 328.087 132.626C324.092 132.066 319.019 129.896 317.5 124.229C315.639 117.284 321.854 112.779 322.097 106.914C322.197 105.066 321.982 103.215 321.46 101.44C321.43 101.338 321.432 101.229 321.467 101.129C321.502 101.028 321.568 100.941 321.655 100.881C321.743 100.82 321.847 100.788 321.953 100.79C322.06 100.792 322.163 100.827 322.248 100.891C324.878 102.808 326.817 105.526 327.773 108.638C329.278 113.365 325.186 118.583 324.532 122.906C323.959 126.853 326.637 129.811 328.613 131.419Z" fill="#345AFA"/>
<path d="M333.731 130.673C333.718 130.729 333.691 130.781 333.652 130.824C333.614 130.868 333.566 130.901 333.512 130.921C333.458 130.942 333.4 130.949 333.343 130.942C333.286 130.934 333.231 130.913 333.184 130.88C332.138 130.159 329.773 128.212 329.3 125.604C328.455 120.936 330.446 117.164 331.013 114.897C331.266 113.935 331.368 112.939 331.313 111.945C331.31 111.903 331.318 111.86 331.338 111.822C331.357 111.785 331.386 111.753 331.421 111.73C331.457 111.707 331.499 111.695 331.541 111.693C331.584 111.692 331.625 111.703 331.662 111.724C333.291 112.8 336.421 115.327 337.363 119.092C338.966 125.49 335.021 128.104 333.964 130.065C333.86 130.257 333.781 130.461 333.731 130.673Z" fill="#345AFA"/>
<g clip-path="url(#clip23_140_5623)">
<path d="M248.605 175.385L245.087 185.261C245.046 185.398 245.053 185.546 245.108 185.678C245.163 185.81 245.263 185.919 245.389 185.985C245.516 186.052 245.662 186.073 245.802 186.044C245.942 186.015 246.068 185.938 246.157 185.826L250.503 179.86L254.411 194.447L233.349 179.534C232.712 179.084 231.952 178.842 231.173 178.839C230.393 178.837 229.632 179.075 228.992 179.521C228.353 179.966 227.866 180.598 227.598 181.331C227.331 182.063 227.295 182.86 227.496 183.613L232.841 203.557C233.71 206.802 237.723 206.298 238.462 204.189L242.113 193.999C242.153 193.888 242.155 193.768 242.121 193.655C242.086 193.542 242.016 193.444 241.92 193.375C241.803 193.288 241.656 193.251 241.512 193.273C241.367 193.294 241.237 193.372 241.15 193.489L236.645 199.587L232.686 184.81L253.741 199.699C257.033 201.969 260.535 199.132 259.594 195.62L254.248 175.666C253.445 172.672 249.561 172.775 248.605 175.385Z" fill="#345AFA"/>
</g>
<g clip-path="url(#clip24_140_5623)">
<path d="M197.557 -15.1287L194.039 -5.25266C193.998 -5.11567 194.005 -4.96848 194.06 -4.83635C194.115 -4.70422 194.215 -4.59539 194.341 -4.52855C194.468 -4.4617 194.614 -4.44102 194.754 -4.47003C194.894 -4.49905 195.02 -4.57597 195.11 -4.68758L199.455 -10.6536L203.363 3.93262L182.301 -10.9803C181.664 -11.4299 180.905 -11.6723 180.125 -11.6746C179.345 -11.677 178.584 -11.4391 177.944 -10.9933C177.305 -10.5475 176.818 -9.91556 176.55 -9.18335C176.283 -8.45114 176.247 -7.65426 176.449 -6.90112L181.793 13.0433C182.662 16.288 186.675 15.7839 187.414 13.6746L191.065 3.48539C191.105 3.3744 191.108 3.25355 191.073 3.14094C191.038 3.02833 190.968 2.93001 190.872 2.8607C190.755 2.77392 190.608 2.73718 190.464 2.75852C190.319 2.77987 190.189 2.85756 190.102 2.97457L185.597 9.07261L181.638 -5.70413L202.694 9.18496C205.985 11.4552 209.488 8.6184 208.546 5.1058L203.2 -14.8476C202.397 -17.8422 198.513 -17.7395 197.557 -15.1287Z" fill="#345AFA"/>
</g>
<g clip-path="url(#clip25_140_5623)">
<path d="M274.13 270.642L270.612 280.518C270.57 280.655 270.578 280.803 270.633 280.935C270.688 281.067 270.787 281.176 270.914 281.242C271.04 281.309 271.186 281.33 271.327 281.301C271.467 281.272 271.592 281.195 271.682 281.083L276.027 275.117L279.936 289.704L258.874 274.791C258.237 274.341 257.477 274.099 256.697 274.096C255.918 274.094 255.156 274.332 254.517 274.778C253.877 275.223 253.391 275.855 253.123 276.588C252.855 277.32 252.82 278.117 253.021 278.87L258.365 298.814C259.235 302.059 263.247 301.555 263.987 299.446L267.638 289.256C267.677 289.145 267.68 289.025 267.645 288.912C267.61 288.799 267.54 288.701 267.445 288.632C267.328 288.545 267.181 288.508 267.036 288.53C266.892 288.551 266.762 288.629 266.675 288.746L262.17 294.844L258.211 280.067L279.266 294.956C282.558 297.226 286.06 294.389 285.119 290.877L279.772 270.923C278.97 267.929 275.086 268.031 274.13 270.642Z" fill="#345AFA"/>
</g>
<g clip-path="url(#clip26_140_5623)">
<path d="M223.081 80.1283L219.563 90.0043C219.522 90.1413 219.529 90.2885 219.584 90.4206C219.639 90.5527 219.739 90.6616 219.865 90.7284C219.992 90.7953 220.138 90.8159 220.278 90.7869C220.418 90.7579 220.544 90.681 220.633 90.5694L224.979 84.6033L228.887 99.1896L207.825 84.2767C207.188 83.8271 206.428 83.5847 205.649 83.5823C204.869 83.58 204.108 83.8179 203.468 84.2637C202.829 84.7094 202.342 85.3414 202.074 86.0736C201.807 86.8058 201.771 87.6027 201.973 88.3558L207.317 108.3C208.186 111.545 212.199 111.041 212.938 108.932L216.589 98.7423C216.629 98.6314 216.631 98.5105 216.597 98.3979C216.562 98.2853 216.492 98.187 216.396 98.1177C216.279 98.0309 216.132 97.9941 215.988 98.0155C215.843 98.0368 215.713 98.1145 215.626 98.2315L211.121 104.33L207.162 89.5528L228.218 104.442C231.509 106.712 235.011 103.875 234.07 100.363L228.724 80.4094C227.921 77.4147 224.037 77.5175 223.081 80.1283Z" fill="#345AFA"/>
</g>
<g clip-path="url(#clip27_140_5623)">
<path d="M508.852 3.55624L505.334 13.4322C505.293 13.5692 505.3 13.7164 505.355 13.8486C505.41 13.9807 505.51 14.0895 505.636 14.1564C505.763 14.2232 505.909 14.2439 506.049 14.2149C506.189 14.1859 506.315 14.1089 506.404 13.9973L510.75 8.0313L514.658 22.6175L493.596 7.70463C492.959 7.25505 492.199 7.0126 491.42 7.01027C490.64 7.00794 489.879 7.24584 489.239 7.69161C488.6 8.13737 488.113 8.76935 487.845 9.50155C487.578 10.2338 487.542 11.0306 487.744 11.7838L493.088 31.7282C493.957 34.9729 497.97 34.4688 498.709 32.3595L502.36 22.1703C502.4 22.0593 502.402 21.9385 502.368 21.8258C502.333 21.7132 502.263 21.6149 502.167 21.5456C502.05 21.4588 501.903 21.4221 501.759 21.4434C501.614 21.4648 501.484 21.5425 501.397 21.6595L496.892 27.7575L492.933 12.9808L513.989 27.8699C517.28 30.1401 520.782 27.3033 519.841 23.7907L514.495 3.83734C513.692 0.842695 509.808 0.945412 508.852 3.55624Z" fill="#345AFA"/>
</g>
<g clip-path="url(#clip28_140_5623)">
<path d="M23.2248 286.824L19.707 296.7C19.6654 296.837 19.6728 296.984 19.7279 297.116C19.783 297.248 19.8824 297.357 20.009 297.424C20.1356 297.491 20.2815 297.512 20.4217 297.483C20.5619 297.454 20.6876 297.377 20.7773 297.265L25.1226 291.299L29.031 305.885L7.96906 290.972C7.33216 290.523 6.57223 290.28 5.79264 290.278C5.01306 290.276 4.25168 290.514 3.61211 290.959C2.97253 291.405 2.48582 292.037 2.21818 292.769C1.95055 293.501 1.91499 294.298 2.11634 295.051L7.46044 314.996C8.32985 318.241 12.3424 317.737 13.0822 315.627L16.733 305.438C16.7726 305.327 16.7753 305.206 16.7405 305.094C16.7057 304.981 16.6354 304.883 16.5401 304.813C16.4227 304.727 16.2758 304.69 16.1314 304.711C15.987 304.732 15.857 304.81 15.7698 304.927L11.2652 311.025L7.30579 296.248L28.3613 311.138C31.6528 313.408 35.1552 310.571 34.214 307.058L28.8675 287.105C28.0651 284.11 24.1811 284.213 23.2248 286.824Z" fill="#345AFA"/>
</g>
<g clip-path="url(#clip29_140_5623)">
<path d="M308.996 210.252L305.478 220.128C305.437 220.265 305.444 220.412 305.499 220.544C305.554 220.676 305.654 220.785 305.78 220.852C305.907 220.919 306.053 220.939 306.193 220.91C306.333 220.881 306.459 220.805 306.549 220.693L310.894 214.727L314.802 229.313L293.74 214.4C293.103 213.951 292.343 213.708 291.564 213.706C290.784 213.704 290.023 213.941 289.383 214.387C288.744 214.833 288.257 215.465 287.989 216.197C287.722 216.929 287.686 217.726 287.888 218.479L293.232 238.424C294.101 241.668 298.114 241.164 298.853 239.055L302.504 228.866C302.544 228.755 302.547 228.634 302.512 228.521C302.477 228.409 302.407 228.31 302.311 228.241C302.194 228.154 302.047 228.118 301.903 228.139C301.758 228.16 301.628 228.238 301.541 228.355L297.036 234.453L293.077 219.676L314.133 234.565C317.424 236.836 320.926 233.999 319.985 230.486L314.639 210.533C313.836 207.538 309.952 207.641 308.996 210.252Z" fill="#345AFA"/>
</g>
<g clip-path="url(#clip30_140_5623)">
<path d="M19.8056 83.5479L16.2878 93.4239C16.2462 93.5609 16.2536 93.7081 16.3087 93.8402C16.3638 93.9723 16.4632 94.0812 16.5898 94.148C16.7164 94.2148 16.8623 94.2355 17.0025 94.2065C17.1427 94.1775 17.2684 94.1006 17.3581 93.989L21.7034 88.0229L25.6118 102.609L4.54987 87.6963C3.91298 87.2467 3.15304 87.0042 2.37345 87.0019C1.59387 86.9996 0.832491 87.2375 0.192918 87.6832C-0.446656 88.129 -0.933371 88.761 -1.20101 89.4932C-1.46864 90.2254 -1.5042 91.0223 -1.30285 91.7754L4.04125 111.72C4.91066 114.965 8.92325 114.46 9.66298 112.351L13.3138 102.162C13.3534 102.051 13.3561 101.93 13.3213 101.817C13.2865 101.705 13.2162 101.607 13.1209 101.537C13.0035 101.45 12.8566 101.414 12.7122 101.435C12.5678 101.456 12.4378 101.534 12.3506 101.651L7.84601 107.749L3.8866 92.9724L24.9421 107.862C28.2336 110.132 31.736 107.295 30.7948 103.782L25.4484 83.829C24.6459 80.8343 20.7619 80.9371 19.8056 83.5479Z" fill="#345AFA"/>
</g>
<g clip-path="url(#clip31_140_5623)">
<path d="M305.577 6.97574L302.059 16.8517C302.017 16.9887 302.025 17.1359 302.08 17.2681C302.135 17.4002 302.234 17.509 302.361 17.5759C302.487 17.6427 302.633 17.6634 302.774 17.6344C302.914 17.6053 303.039 17.5284 303.129 17.4168L307.474 11.4508L311.383 26.037L290.321 11.1241C289.684 10.6745 288.924 10.4321 288.144 10.4298C287.365 10.4274 286.603 10.6653 285.964 11.1111C285.324 11.5569 284.838 12.1888 284.57 12.921C284.302 13.6533 284.267 14.4501 284.468 15.2033L289.812 35.1477C290.682 38.3924 294.694 37.8883 295.434 35.779L299.085 25.5898C299.124 25.4788 299.127 25.358 299.092 25.2453C299.058 25.1327 298.987 25.0344 298.892 24.9651C298.775 24.8783 298.628 24.8416 298.483 24.8629C298.339 24.8843 298.209 24.962 298.122 25.079L293.617 31.177L289.658 16.4003L310.713 31.2894C314.005 33.5596 317.507 30.7228 316.566 27.2102L311.219 7.25683C310.417 4.26219 306.533 4.36491 305.577 6.97574Z" fill="#345AFA"/>
</g>
<g clip-path="url(#clip32_140_5623)">
<path d="M334.52 305.509L331.002 315.385C330.961 315.522 330.968 315.669 331.023 315.801C331.078 315.933 331.178 316.042 331.304 316.109C331.431 316.176 331.577 316.196 331.717 316.167C331.857 316.138 331.983 316.062 332.072 315.95L336.418 309.984L340.326 324.57L319.264 309.657C318.627 309.208 317.867 308.965 317.088 308.963C316.308 308.961 315.547 309.198 314.907 309.644C314.268 310.09 313.781 310.722 313.513 311.454C313.246 312.186 313.21 312.983 313.412 313.736L318.756 333.681C319.625 336.926 323.638 336.421 324.377 334.312L328.028 324.123C328.068 324.012 328.07 323.891 328.036 323.778C328.001 323.666 327.931 323.568 327.835 323.498C327.718 323.411 327.571 323.375 327.427 323.396C327.282 323.417 327.152 323.495 327.065 323.612L322.56 329.71L318.601 314.933L339.656 329.822C342.948 332.093 346.45 329.256 345.509 325.743L340.163 305.79C339.36 302.795 335.476 302.898 334.52 305.509Z" fill="#345AFA"/>
</g>
<g clip-path="url(#clip33_140_5623)">
<path d="M-2.29913 191.567L-5.81692 201.443C-5.85851 201.58 -5.85112 201.727 -5.79601 201.859C-5.7409 201.991 -5.64152 202.1 -5.51492 202.167C-5.38832 202.234 -5.2424 202.255 -5.10221 202.226C-4.96202 202.197 -4.8363 202.12 -4.74664 202.008L-0.401323 196.042L3.50704 210.628L-17.5549 195.715C-18.1918 195.266 -18.9517 195.023 -19.7313 195.021C-20.5109 195.019 -21.2722 195.257 -21.9118 195.702C-22.5514 196.148 -23.0381 196.78 -23.3057 197.512C-23.5734 198.244 -23.6089 199.041 -23.4076 199.794L-18.0635 219.739C-17.1941 222.984 -13.1815 222.48 -12.4418 220.37L-8.79094 210.181C-8.75129 210.07 -8.74866 209.949 -8.78344 209.837C-8.81821 209.724 -8.88853 209.626 -8.98385 209.556C-9.1012 209.47 -9.24815 209.433 -9.39253 209.454C-9.53691 209.475 -9.66694 209.553 -9.75416 209.67L-14.2587 215.768L-18.2181 200.991L2.83739 215.881C6.12891 218.151 9.63131 215.314 8.69011 211.801L3.34362 191.848C2.54121 188.853 -1.34283 188.956 -2.29913 191.567Z" fill="#345AFA"/>
</g>
<g clip-path="url(#clip34_140_5623)">
<path d="M283.472 114.995L279.954 124.871C279.912 125.008 279.92 125.155 279.975 125.287C280.03 125.419 280.129 125.528 280.256 125.595C280.383 125.662 280.529 125.682 280.669 125.653C280.809 125.624 280.935 125.548 281.024 125.436L285.37 119.47L289.278 134.056L268.216 119.143C267.579 118.694 266.819 118.451 266.04 118.449C265.26 118.447 264.499 118.684 263.859 119.13C263.22 119.576 262.733 120.208 262.465 120.94C262.198 121.672 262.162 122.469 262.363 123.222L267.708 143.167C268.577 146.411 272.59 145.907 273.329 143.798L276.98 133.609C277.02 133.498 277.022 133.377 276.988 133.264C276.953 133.152 276.882 133.053 276.787 132.984C276.67 132.897 276.523 132.861 276.378 132.882C276.234 132.903 276.104 132.981 276.017 133.098L271.512 139.196L267.553 124.419L288.608 139.308C291.9 141.579 295.402 138.742 294.461 135.229L289.115 115.276C288.312 112.281 284.428 112.384 283.472 114.995Z" fill="#345AFA"/>
</g>
</g>
<defs>
<linearGradient id="paint0_linear_140_5623" x1="320" y1="290" x2="-7.41844e-05" y2="838" gradientUnits="userSpaceOnUse">
<stop stop-color="#345AFA"/>
<stop offset="0.0001" stop-color="#2E51E4"/>
<stop offset="1" stop-color="#345AFA"/>
</linearGradient>
<clipPath id="clip0_140_5623">
<rect width="39.4469" height="39.4469" fill="white" transform="translate(76.5251 214.035) rotate(-15)"/>
</clipPath>
<clipPath id="clip1_140_5623">
<rect width="39.4469" height="39.4469" fill="white" transform="translate(362.296 137.463) rotate(-15)"/>
</clipPath>
<clipPath id="clip2_140_5623">
<rect width="39.4469" height="39.4469" fill="white" transform="translate(73.1057 10.7586) rotate(-15)"/>
</clipPath>
<clipPath id="clip3_140_5623">
<rect width="39.4469" height="39.4469" fill="white" transform="translate(460.973 315.215) rotate(-15)"/>
</clipPath>
<clipPath id="clip4_140_5623">
<rect width="39.4469" height="39.4469" fill="white" transform="translate(149.678 296.53) rotate(-15)"/>
</clipPath>
<clipPath id="clip5_140_5623">
<rect width="39.4469" height="39.4469" fill="white" transform="translate(435.449 219.958) rotate(-15)"/>
</clipPath>
<clipPath id="clip6_140_5623">
<rect width="39.4469" height="39.4469" fill="white" transform="translate(98.6296 106.016) rotate(-15)"/>
</clipPath>
<clipPath id="clip7_140_5623">
<rect width="39.4469" height="39.4469" fill="white" transform="translate(384.401 29.4435) rotate(-15)"/>
</clipPath>
<clipPath id="clip8_140_5623">
<rect width="39.4469" height="39.4469" fill="white" transform="translate(232.173 223.377) rotate(-15)"/>
</clipPath>
<clipPath id="clip9_140_5623">
<rect width="39.4469" height="39.4469" fill="white" transform="translate(133.496 45.6251) rotate(-15)"/>
</clipPath>
<clipPath id="clip10_140_5623">
<rect width="39.4469" height="39.4469" fill="white" transform="translate(419.267 -30.947) rotate(-15)"/>
</clipPath>
<clipPath id="clip11_140_5623">
<rect width="39.4469" height="39.4469" fill="white" transform="translate(257.697 318.634) rotate(-15)"/>
</clipPath>
<clipPath id="clip12_140_5623">
<rect width="39.4469" height="39.4469" fill="white" transform="translate(206.649 128.12) rotate(-15)"/>
</clipPath>
<clipPath id="clip13_140_5623">
<rect width="39.4469" height="39.4469" fill="white" transform="translate(492.42 51.548) rotate(-15)"/>
</clipPath>
<clipPath id="clip14_140_5623">
<rect width="39.4469" height="39.4469" fill="white" transform="translate(51.001 118.778) rotate(-15)"/>
</clipPath>
<clipPath id="clip15_140_5623">
<rect width="39.4469" height="39.4469" fill="white" transform="translate(28.8965 226.797) rotate(-15)"/>
</clipPath>
<clipPath id="clip16_140_5623">
<rect width="39.4469" height="39.4469" fill="white" transform="translate(25.4771 23.5206) rotate(-15)"/>
</clipPath>
<clipPath id="clip17_140_5623">
<rect width="39.4469" height="39.4469" fill="white" transform="translate(387.82 232.719) rotate(-15)"/>
</clipPath>
<clipPath id="clip18_140_5623">
<rect width="39.4469" height="39.4469" fill="white" transform="translate(3.37256 131.54) rotate(-15)"/>
</clipPath>
<clipPath id="clip19_140_5623">
<rect width="39.4469" height="39.4469" fill="white" transform="translate(289.144 54.9676) rotate(-15)"/>
</clipPath>
<clipPath id="clip20_140_5623">
<rect width="39.4469" height="39.4469" fill="white" transform="translate(136.915 248.901) rotate(-15)"/>
</clipPath>
<clipPath id="clip21_140_5623">
<rect width="39.4469" height="39.4469" fill="white" transform="translate(371.638 -18.185) rotate(-15)"/>
</clipPath>
<clipPath id="clip22_140_5623">
<rect width="39.4469" height="39.4469" fill="white" transform="translate(159.02 140.882) rotate(-15)"/>
</clipPath>
<clipPath id="clip23_140_5623">
<rect width="39.4469" height="39.4469" fill="white" transform="translate(219.41 175.749) rotate(-15)"/>
</clipPath>
<clipPath id="clip24_140_5623">
<rect width="39.4469" height="39.4469" fill="white" transform="translate(168.362 -14.7654) rotate(-15)"/>
</clipPath>
<clipPath id="clip25_140_5623">
<rect width="39.4469" height="39.4469" fill="white" transform="translate(244.935 271.006) rotate(-15)"/>
</clipPath>
<clipPath id="clip26_140_5623">
<rect width="39.4469" height="39.4469" fill="white" transform="translate(193.886 80.4916) rotate(-15)"/>
</clipPath>
<clipPath id="clip27_140_5623">
<rect width="39.4469" height="39.4469" fill="white" transform="translate(479.657 3.91953) rotate(-15)"/>
</clipPath>
<clipPath id="clip28_140_5623">
<rect width="39.4469" height="39.4469" fill="white" transform="translate(-5.96997 287.187) rotate(-15)"/>
</clipPath>
<clipPath id="clip29_140_5623">
<rect width="39.4469" height="39.4469" fill="white" transform="translate(279.801 210.615) rotate(-15)"/>
</clipPath>
<clipPath id="clip30_140_5623">
<rect width="39.4469" height="39.4469" fill="white" transform="translate(-9.38916 83.9112) rotate(-15)"/>
</clipPath>
<clipPath id="clip31_140_5623">
<rect width="39.4469" height="39.4469" fill="white" transform="translate(276.382 7.33902) rotate(-15)"/>
</clipPath>
<clipPath id="clip32_140_5623">
<rect width="39.4469" height="39.4469" fill="white" transform="translate(305.325 305.872) rotate(-15)"/>
</clipPath>
<clipPath id="clip33_140_5623">
<rect width="39.4469" height="39.4469" fill="white" transform="translate(-31.4939 191.93) rotate(-15)"/>
</clipPath>
<clipPath id="clip34_140_5623">
<rect width="39.4469" height="39.4469" fill="white" transform="translate(254.277 115.358) rotate(-15)"/>
</clipPath>
</defs>
</svg>
