<svg width="72" height="88" viewBox="0 0 72 88" fill="none" xmlns="http://www.w3.org/2000/svg">
<path d="M67.5609 16.8696L40.4429 1.19298C39.0922 0.411459 37.5599 0 36 0C34.4402 0 32.9078 0.411459 31.5571 1.19298L4.43913 16.8696C3.08939 17.6515 1.96871 18.7752 1.18954 20.1279C0.410376 21.4807 0.000138989 23.0149 0 24.5766V55.9412C0.000138989 57.5029 0.410376 59.0371 1.18954 60.3899C1.96871 61.7426 3.08939 62.8663 4.43913 63.6482L17.5842 71.2501V49.9527C17.5842 49.7988 17.5842 49.645 17.5842 49.4874V38.8725C17.5837 37.247 18.0106 35.6501 18.8222 34.2424C19.6337 32.8348 20.8011 31.6661 22.2069 30.854L31.3773 25.5484C32.7833 24.7371 34.3774 24.3101 36 24.3101C37.6226 24.3101 39.2167 24.7371 40.6227 25.5484L49.7931 30.854C51.1989 31.6661 52.3663 32.8348 53.1779 34.2424C53.9894 35.6501 54.4164 37.247 54.4158 38.8725V49.4799C54.4158 49.6375 54.4158 49.7913 54.4158 49.9452V71.2464L67.5609 63.6444C68.9106 62.8626 70.0313 61.7389 70.8105 60.3861C71.5896 59.0334 71.9999 57.4992 72 55.9374V24.5804C72.0005 23.018 71.5906 21.483 70.8114 20.1295C70.0322 18.7761 68.9112 17.6518 67.5609 16.8696Z" fill="white"/>
<path d="M31.3772 79.231L17.5841 71.2538V73.4376C17.5836 75.0631 18.0106 76.66 18.8221 78.0677C19.6336 79.4753 20.801 80.644 22.2068 81.456L31.3772 86.7616C32.7832 87.5729 34.3773 88 35.9999 88C37.6225 88 39.2166 87.5729 40.6226 86.7616L49.7931 81.456C51.1988 80.644 52.3663 79.4753 53.1778 78.0677C53.9893 76.66 54.4163 75.0631 54.4157 73.4376V71.2538L40.6226 79.231C39.2166 80.0423 37.6225 80.4693 35.9999 80.4693C34.3773 80.4693 32.7832 80.0423 31.3772 79.231Z" fill="white"/>
</svg>
