<svg width="53" height="64" viewBox="0 0 53 64" fill="none" xmlns="http://www.w3.org/2000/svg">
<path d="M49.1352 12.2688L29.413 0.867623C28.4307 0.299243 27.3163 0 26.1818 0C25.0474 0 23.933 0.299243 22.9506 0.867623L3.22846 12.2688C2.24683 12.8374 1.43179 13.6547 0.865121 14.6385C0.298455 15.6223 0.000101083 16.7381 0 17.8739V40.6845C0.000101083 41.8203 0.298455 42.9361 0.865121 43.9199C1.43179 44.9037 2.24683 45.721 3.22846 46.2896L12.7885 51.8183V36.3292C12.7885 36.2173 12.7885 36.1055 12.7885 35.9908V28.2709C12.7881 27.0887 13.0986 25.9273 13.6888 24.9036C14.279 23.8799 15.1281 23.0299 16.1504 22.4393L22.8199 18.5807C23.8424 17.9906 25.0017 17.6801 26.1818 17.6801C27.3619 17.6801 28.5212 17.9906 29.5438 18.5807L36.2132 22.4393C37.2356 23.0299 38.0846 23.8799 38.6748 24.9036C39.265 25.9273 39.5755 27.0887 39.5751 28.2709V35.9854C39.5751 36.1 39.5751 36.2119 39.5751 36.3238V51.8155L49.1352 46.2869C50.1168 45.7182 50.9318 44.901 51.4985 43.9172C52.0652 42.9334 52.3635 41.8176 52.3636 40.6818V17.8766C52.364 16.7404 52.0659 15.624 51.4992 14.6397C50.9325 13.6553 50.1172 12.8377 49.1352 12.2688Z" fill="#345AFA"/>
<path d="M22.8199 57.6225L12.7886 51.821V53.4092C12.7882 54.5913 13.0987 55.7527 13.6889 56.7765C14.2791 57.8002 15.1281 58.6502 16.1505 59.2408L22.8199 63.0994C23.8425 63.6894 25.0018 64 26.1819 64C27.362 64 28.5213 63.6894 29.5438 63.0994L36.2133 59.2408C37.2357 58.6502 38.0847 57.8002 38.6749 56.7765C39.2651 55.7527 39.5756 54.5913 39.5752 53.4092V51.821L29.5438 57.6225C28.5213 58.2126 27.362 58.5232 26.1819 58.5232C25.0018 58.5232 23.8425 58.2126 22.8199 57.6225Z" fill="#345AFA"/>
</svg>
