<svg width="20" height="19" viewBox="0 0 20 19" fill="none" xmlns="http://www.w3.org/2000/svg">
<path d="M10.8217 13.6H17.2783M10.8217 13.6L9.1 17.2M10.8217 13.6L13.4005 8.2081C13.6083 7.77367 13.7121 7.55641 13.8543 7.48774C13.9779 7.42807 14.1221 7.42807 14.2457 7.48774C14.3879 7.55641 14.4917 7.77367 14.6995 8.2081L17.2783 13.6M17.2783 13.6L19 17.2M1 2.8H6.4M6.4 2.8H9.55M6.4 2.8V1M9.55 2.8H11.8M9.55 2.8C9.10351 5.46156 8.06733 7.87258 6.549 9.89596M6.549 9.89596C7.08639 10.3079 7.64872 10.6523 8.2 10.9M6.549 9.89596C5.33172 8.96302 4.24248 7.68394 3.7 6.4M6.549 9.89596C5.10477 11.8206 3.22429 13.3946 1 14.5" stroke="#345AFA" stroke-width="2" stroke-linecap="round" stroke-linejoin="round"/>
</svg>
