<svg width="300" height="147" viewBox="0 0 300 147" fill="none" xmlns="http://www.w3.org/2000/svg">
<rect x="0.5" y="0.5" width="299" height="146" rx="4.5" fill="#262C3F"/>
<path d="M188.451 95.6385C187.608 95.8649 186.876 95.8034 186.254 95.454C185.632 95.1047 185.19 94.443 184.929 93.4688L182.799 85.5388L184.9 84.9744L185.54 87.3551L187.699 86.7753L188.157 88.4828L185.998 89.0626L186.918 92.4858C187.059 93.0112 187.263 93.3554 187.529 93.5184C187.795 93.676 188.111 93.7056 188.477 93.6071C188.664 93.5571 188.833 93.4882 188.985 93.4003C189.143 93.311 189.284 93.2116 189.407 93.1023L190.185 94.6888C189.978 94.8793 189.725 95.0617 189.425 95.236C189.126 95.4103 188.801 95.5444 188.451 95.6385ZM182.165 90.0922L181.706 88.3847L183.676 87.8555L184.135 89.563L182.165 90.0922ZM191.209 94.6336L188.035 82.8125L190.136 82.2481L191.572 87.5922L191.004 87.2165C191.235 86.6325 191.568 86.1469 192.004 85.76C192.439 85.373 192.947 85.1016 193.528 84.9458C194.283 84.743 194.95 84.7252 195.529 84.8925C196.113 85.0583 196.596 85.3481 196.977 85.7621C197.358 86.1761 197.62 86.6513 197.765 87.1876L199.189 92.4907L197.087 93.0551L195.824 88.3513C195.678 87.8095 195.393 87.4137 194.968 87.1641C194.549 86.913 194.052 86.8646 193.477 87.0189C193.092 87.1163 192.777 87.2861 192.531 87.5281C192.285 87.7702 192.124 88.0658 192.048 88.4149C191.97 88.7585 191.985 89.1328 192.094 89.5378L193.311 94.0692L191.209 94.6336ZM204.573 91.3088C203.681 91.5484 202.85 91.5779 202.08 91.3975C201.308 91.2116 200.646 90.8437 200.093 90.2939C199.546 89.7426 199.157 89.0346 198.924 88.1699C198.754 87.5351 198.704 86.9236 198.775 86.3354C198.851 85.7457 199.034 85.2037 199.324 84.7093C199.618 84.208 200.001 83.7793 200.475 83.4233C200.954 83.0658 201.511 82.8019 202.146 82.6314C202.835 82.4462 203.484 82.404 204.092 82.5047C204.698 82.6 205.239 82.8216 205.714 83.1693C206.193 83.5101 206.582 83.957 206.883 84.5098C207.188 85.0557 207.38 85.6909 207.457 86.4153L201.037 88.1393C201.148 88.5732 201.351 88.9236 201.645 89.1906C201.945 89.4562 202.315 89.6298 202.753 89.7116C203.196 89.7863 203.683 89.7524 204.213 89.6099C204.684 89.4835 205.117 89.2938 205.513 89.0409C205.908 88.7879 206.256 88.4774 206.556 88.1093L207.69 89.3803C207.488 89.6574 207.217 89.924 206.875 90.1801C206.533 90.4362 206.16 90.6626 205.755 90.8594C205.355 91.0546 204.961 91.2044 204.573 91.3088ZM200.759 86.6122L205.02 85.468C204.855 84.9197 204.555 84.5365 204.121 84.3187C203.686 84.0953 203.153 84.0681 202.524 84.2372C201.9 84.4047 201.428 84.7016 201.109 85.1278C200.787 85.5485 200.671 86.0433 200.759 86.6122ZM216.038 88.2296C215.234 88.4457 214.47 88.4514 213.746 88.2468C213.027 88.0407 212.402 87.6571 211.87 87.0959C211.338 86.5347 210.959 85.8327 210.732 84.9899C210.562 84.3551 210.507 83.745 210.567 83.1598C210.626 82.5746 210.788 82.0384 211.05 81.5514C211.318 81.0629 211.675 80.6443 212.121 80.2956C212.573 79.9455 213.099 79.6896 213.701 79.5279C214.495 79.3148 215.208 79.3052 215.841 79.499C216.474 79.6928 216.997 80.0246 217.411 80.4944L217.237 81.0252L216.69 78.9894L218.537 78.4933L220.742 86.7024L218.895 87.1985L218.348 85.1626L218.765 85.5348C218.642 86.1486 218.355 86.6979 217.905 87.1827C217.454 87.6675 216.832 88.0165 216.038 88.2296ZM215.856 86.307C216.311 86.185 216.688 85.975 216.99 85.677C217.29 85.3735 217.494 85.0077 217.602 84.5797C217.708 84.1462 217.692 83.6723 217.554 83.1579C217.416 82.6434 217.192 82.2253 216.883 81.9035C216.574 81.5818 216.214 81.3674 215.804 81.2605C215.394 81.1535 214.961 81.161 214.507 81.283C214.053 81.405 213.672 81.6157 213.366 81.9152C213.064 82.2133 212.86 82.579 212.754 83.0125C212.653 83.4445 212.671 83.9177 212.809 84.4321C212.947 84.9466 213.169 85.3654 213.472 85.6887C213.78 86.005 214.14 86.2193 214.552 86.3317C214.967 86.4372 215.402 86.429 215.856 86.307ZM226.225 85.4939C225.355 85.7276 224.529 85.7468 223.749 85.5514C222.973 85.3491 222.304 84.9745 221.74 84.4276C221.175 83.8752 220.781 83.1831 220.558 82.3512C220.389 81.7219 220.349 81.1136 220.437 80.5265C220.525 79.9339 220.724 79.3875 221.036 78.8872C221.346 78.3815 221.751 77.9469 222.252 77.5836C222.757 77.2133 223.341 76.9392 224.003 76.7614C224.577 76.6071 225.132 76.5404 225.665 76.5613C226.199 76.5823 226.714 76.6964 227.209 76.9036L226.658 78.7503C226.339 78.5895 226.001 78.4985 225.643 78.4772C225.289 78.449 224.934 78.4826 224.579 78.5782C224.042 78.7222 223.606 78.9449 223.271 79.2463C222.941 79.5462 222.721 79.9101 222.613 80.3381C222.505 80.7661 222.523 81.2456 222.665 81.7764C222.877 82.5645 223.273 83.1212 223.853 83.4465C224.437 83.7649 225.129 83.8167 225.928 83.6022C226.327 83.4949 226.685 83.3196 227.001 83.0763C227.317 82.833 227.572 82.5474 227.766 82.2197L229.129 83.5609C228.77 84.0153 228.34 84.4124 227.839 84.7524C227.337 85.0924 226.799 85.3396 226.225 85.4939ZM233.46 83.5508C232.656 83.7668 231.892 83.7725 231.168 83.5679C230.449 83.3619 229.824 82.9783 229.292 82.4171C228.76 81.8559 228.381 81.1539 228.154 80.3111C227.984 79.6762 227.929 79.0662 227.988 78.481C228.048 77.8957 228.21 77.3596 228.472 76.8725C228.74 76.384 229.097 75.9654 229.543 75.6168C229.994 75.2667 230.521 75.0108 231.123 74.8491C231.917 74.636 232.63 74.6263 233.263 74.8201C233.896 75.0139 234.419 75.3457 234.833 75.8155L234.659 76.3464L234.112 74.3105L235.959 73.8145L238.164 82.0236L236.316 82.5196L235.77 80.4838L236.187 80.8559C236.064 81.4697 235.777 82.019 235.327 82.5039C234.876 82.9887 234.254 83.3376 233.46 83.5508ZM233.278 81.6281C233.733 81.5061 234.11 81.2961 234.412 80.9981C234.712 80.6946 234.915 80.3289 235.024 79.9009C235.13 79.4674 235.114 78.9934 234.976 78.479C234.838 77.9646 234.614 77.5465 234.305 77.2247C233.995 76.9029 233.636 76.6886 233.226 76.5816C232.815 76.4747 232.383 76.4822 231.929 76.6042C231.475 76.7261 231.094 76.9369 230.787 77.2364C230.486 77.5344 230.282 77.9002 230.176 78.3336C230.075 78.7656 230.093 79.2389 230.231 79.7533C230.369 80.2677 230.59 80.6866 230.894 81.0098C231.202 81.3261 231.562 81.5405 231.974 81.6529C232.389 81.7584 232.824 81.7501 233.278 81.6281ZM243.253 80.9209C242.454 81.1355 241.695 81.1397 240.977 80.9337C240.258 80.7276 239.636 80.3432 239.109 79.7806C238.582 79.2179 238.206 78.5152 237.98 77.6724C237.816 77.0649 237.763 76.472 237.819 75.8937C237.879 75.3085 238.039 74.7696 238.3 74.2771C238.565 73.7776 238.92 73.3509 239.364 72.9967C239.808 72.6371 240.336 72.375 240.949 72.2104C241.655 72.0208 242.311 71.997 242.918 72.139C243.524 72.2756 244.082 72.5511 244.593 72.9656L244.261 73.5652L242.795 68.1061L244.896 67.5417L248.071 79.3628L246.216 79.8611L245.671 77.8334L246.095 78.2302C245.955 78.8251 245.654 79.3664 245.193 79.8541C244.731 80.3419 244.084 80.6975 243.253 80.9209ZM243.145 78.9784C243.604 78.855 243.988 78.6435 244.294 78.344C244.605 78.0375 244.815 77.6703 244.923 77.2423C245.029 76.8089 245.013 76.3349 244.875 75.8205C244.737 75.306 244.513 74.8879 244.204 74.5662C243.895 74.2444 243.532 74.0308 243.117 73.9253C242.701 73.8198 242.261 73.8295 241.795 73.9544C241.33 74.0794 240.941 74.2923 240.629 74.5933C240.322 74.8928 240.116 75.2593 240.009 75.6927C239.908 76.1247 239.927 76.598 240.065 77.1124C240.203 77.6268 240.427 78.0449 240.736 78.3667C241.044 78.683 241.406 78.8966 241.823 79.0076C242.239 79.1131 242.679 79.1034 243.145 78.9784ZM253.536 78.1592C252.644 78.3988 251.813 78.4284 251.042 78.248C250.271 78.0621 249.609 77.6942 249.056 77.1444C248.509 76.5931 248.119 75.8851 247.887 75.0204C247.717 74.3855 247.667 73.774 247.738 73.1858C247.814 72.5962 247.997 72.0542 248.287 71.5598C248.581 71.0585 248.964 70.6298 249.438 70.2738C249.917 69.9163 250.474 69.6523 251.108 69.4818C251.798 69.2966 252.447 69.2544 253.055 69.3552C253.661 69.4505 254.202 69.672 254.677 70.0198C255.155 70.3606 255.545 70.8074 255.846 71.3603C256.151 71.9062 256.342 72.5413 256.42 73.2658L250 74.9898C250.111 75.4236 250.313 75.774 250.608 76.0411C250.908 76.3067 251.278 76.4803 251.716 76.562C252.159 76.6368 252.645 76.6029 253.176 76.4603C253.647 76.3339 254.08 76.1443 254.476 75.8913C254.871 75.6384 255.219 75.3279 255.519 74.9598L256.653 76.2308C256.451 76.5078 256.18 76.7744 255.838 77.0305C255.496 77.2867 255.122 77.5131 254.718 77.7098C254.318 77.9051 253.924 78.0549 253.536 78.1592ZM249.722 73.4627L253.983 72.3185C253.818 71.7701 253.518 71.387 253.084 71.1691C252.649 70.9458 252.116 70.9186 251.487 71.0876C250.863 71.2552 250.391 71.5521 250.071 71.9782C249.75 72.3989 249.634 72.8938 249.722 73.4627ZM258.364 76.5986L256.159 68.3894L258.261 67.8251L258.554 68.9169C258.685 68.5531 258.864 68.2352 259.09 67.9632C259.316 67.6912 259.575 67.4661 259.868 67.2878C260.159 67.1041 260.466 66.9688 260.789 66.8821C261.434 66.7087 262.017 66.7047 262.537 66.8703C263.057 67.0358 263.466 67.3249 263.764 67.7376C263.989 67.067 264.342 66.544 264.822 66.1687C265.302 65.7933 265.826 65.5292 266.396 65.3763C267.167 65.1691 267.821 65.155 268.356 65.334C268.891 65.513 269.32 65.8114 269.643 66.2291C269.967 66.6469 270.198 67.113 270.336 67.6274L271.778 72.9962L269.676 73.5605L268.397 68.7993C268.255 68.2684 267.995 67.8805 267.618 67.6355C267.246 67.3835 266.783 67.3318 266.23 67.4803C265.874 67.5758 265.575 67.7384 265.331 67.968C265.093 68.1962 264.929 68.4692 264.838 68.7869C264.752 69.0977 264.755 69.4255 264.847 69.7703L266.121 74.5152L264.02 75.0796L262.741 70.3183C262.599 69.7874 262.339 69.3995 261.962 69.1545C261.589 68.9026 261.127 68.8508 260.574 68.9993C260.218 69.0948 259.919 69.2574 259.675 69.4871C259.437 69.7152 259.273 69.9882 259.182 70.3059C259.096 70.6167 259.099 70.9445 259.191 71.2893L260.465 76.0342L258.364 76.5986ZM275.01 76.0711C274.687 76.1578 274.36 76.2075 274.029 76.2201C273.698 76.2328 273.366 76.1987 273.033 76.1179L273.023 74.2108C273.22 74.2692 273.43 74.2979 273.653 74.2968C273.876 74.2956 274.072 74.2723 274.241 74.2267C274.592 74.1327 274.854 73.9741 275.029 73.7512C275.205 73.5337 275.304 73.2344 275.325 72.8532L275.37 72.137L269.921 64.6936L272.211 64.0785L275.972 69.6255L276.39 62.9563L278.614 62.3589L277.606 72.5661C277.523 73.3044 277.365 73.9071 277.133 74.3744C276.902 74.8471 276.605 75.2172 276.243 75.4847C275.886 75.7507 275.475 75.9462 275.01 76.0711Z" fill="white"/>
<g clip-path="url(#clip0_167_3262)">
<path d="M189.59 76.73C181.81 87.84 159.91 85.92 140.68 72.45C121.45 58.98 112.15 39.05 119.92 28" stroke="#FF4553" stroke-width="0.47" stroke-miterlimit="10"/>
<path d="M168.84 32.23C188.08 45.7 197.37 65.62 189.59 76.73L197.38 65.61C205.15 54.51 195.86 34.61 176.62 21.11C157.38 7.60999 135.49 5.71999 127.71 16.83L119.93 28C127.7 16.84 149.6 18.76 168.84 32.23Z" fill="#FF4553" stroke="#FF4553" stroke-width="0.47" stroke-miterlimit="10"/>
<path d="M186.432 74.376C193.267 64.5441 184.408 46.565 166.647 34.2184C148.885 21.8719 128.946 19.8333 122.112 29.6652C115.277 39.4971 124.136 57.4763 141.897 69.8228C159.659 82.1694 179.598 84.2079 186.432 74.376Z" stroke="#FF4553" stroke-width="0.469365" stroke-miterlimit="10"/>
<mask id="mask0_167_3262" style="mask-type:luminance" maskUnits="userSpaceOnUse" x="106" y="28" width="78" height="59">
<path d="M165.06 37.63C150.38 27.35 133.87 25.63 128.18 33.73L106.18 59.88L113.39 80.55L153.34 86.13L173.51 75.64C176.111 75.1889 178.508 73.9415 180.37 72.07C180.707 71.7198 181.018 71.3454 181.3 70.95C187 62.82 179.74 47.91 165.06 37.63Z" fill="white"/>
</mask>
<g mask="url(#mask0_167_3262)">
<path d="M176.93 39H171L161.48 48.51C161.48 48.51 175.24 44.03 180.63 43.74C179.5 42.15 178.27 40.55 176.93 39Z" stroke="#345AFA" stroke-width="0.47" stroke-miterlimit="10"/>
<path d="M137.48 68.35C139.705 65.9963 142.258 63.9755 145.06 62.35C148.64 60.35 151.95 58.06 154.18 54.41C155.5 52.26 157.78 51.11 160.18 50.25C159.127 51.7058 158.216 53.2596 157.46 54.89C156.549 56.5733 155.216 57.99 153.59 59C152.58 59.5868 151.647 60.2954 150.81 61.11C149.7 62.35 149.93 63.39 151.47 63.97C153.47 64.72 154.25 65.88 153.95 67.45C153.84 68.09 153.62 68.45 152.88 68.25C151.49 67.89 150.07 67.62 148.69 67.25C146.94 66.77 146.31 66.13 145.38 64.09C145.211 64.4009 145.132 64.7525 145.152 65.1056C145.171 65.4587 145.288 65.7995 145.49 66.09C146.02 67.18 146.62 68.24 147.15 69.33C148.15 71.45 147.9 73.43 146.39 74.58C145.64 75.15 144.98 75.39 144.52 74.22C144.222 73.5234 143.835 72.868 143.37 72.27C143.37 72.98 143.56 73.64 143.5 74.33C143.437 74.9356 143.21 75.5126 142.843 75.9989C142.477 76.4852 141.985 76.8624 141.42 77.09C140.62 77.52 140.42 77 140.2 76.38C139.3 73.7 138.393 71.0233 137.48 68.35Z" stroke="#345AFA" stroke-width="0.47" stroke-miterlimit="10"/>
<path d="M165.43 35.81C160.11 39.56 154.71 43.18 148.57 45.52C142.74 47.6391 137.264 50.6298 132.33 54.39C128.42 57.46 124.09 59.99 120.83 63.86C118.875 66.1453 116.709 68.2412 114.36 70.12C113.44 70.85 113.65 71.43 114.36 72.06C115.48 72.99 117.27 72.9 118.87 71.79C120.642 70.5018 122.313 69.081 123.87 67.54C125.935 65.3421 128.434 63.5984 131.21 62.42C133.6 61.55 136.15 61.05 138.28 59.54C138.28 59.54 138.4 59.61 138.54 59.7C137.289 61.8134 135.796 63.7733 134.09 65.54C133.32 66.2693 132.62 67.0695 132 67.93C131.1 69.16 131.78 70.46 133.32 70.58C133.999 70.6339 134.675 70.4384 135.22 70.03C135.99 69.49 136.72 68.91 137.47 68.35C139.695 65.9963 142.248 63.9755 145.05 62.35C148.63 60.35 151.94 58.06 154.17 54.41C155.49 52.26 157.78 51.11 160.17 50.25C163.23 48.48 166.29 46.69 169.37 44.94C172.87 42.94 176.19 40.63 179.79 38.8L176.12 27.8C172.63 30.6 169.06 33.25 165.43 35.81Z" fill="#345AFA"/>
</g>
<path d="M131.82 54.78C126.23 46.98 124.53 38.95 128.18 33.73" stroke="#FF4553" stroke-width="0.47" stroke-miterlimit="10"/>
<path d="M158.48 33.64C160.761 34.8239 162.959 36.1603 165.06 37.64C179.74 47.91 187 62.82 181.34 71" stroke="#FF4553" stroke-width="0.47" stroke-miterlimit="10"/>
<path d="M34.88 72.07C42.66 61 64.56 62.88 83.8 76.35C103.04 89.82 112.32 109.74 104.55 120.85" stroke="#FF4553" stroke-width="0.47" stroke-miterlimit="10"/>
<path d="M55.63 116.57C36.39 103.1 27.1 83.18 34.88 72.07L27.1 83.19C19.32 94.29 28.61 114.19 47.85 127.69C67.09 141.19 89 143.07 96.76 132L104.55 120.88C96.77 132 74.87 130 55.63 116.57Z" fill="#FF4553" stroke="#FF4553" stroke-width="0.47" stroke-miterlimit="10"/>
<path d="M101.839 118.956C108.716 109.134 99.9072 91.1001 82.1639 78.6761C64.4206 66.2521 44.4617 64.1425 37.5844 73.9642C30.7072 83.7859 39.5159 101.82 57.2592 114.244C75.0026 126.668 94.9615 128.777 101.839 118.956Z" stroke="#FF4553" stroke-width="0.47" stroke-miterlimit="10"/>
<mask id="mask1_167_3262" style="mask-type:luminance" maskUnits="userSpaceOnUse" x="41" y="55" width="81" height="66">
<path d="M59.15 55.32L43.15 77.85C37.46 85.97 44.75 100.85 59.42 111.17C74.09 121.49 90.61 123.17 96.3 115.07C96.46 114.84 96.61 114.6 96.75 114.36L114 110.48L121.58 69L59.15 55.32Z" fill="white"/>
</mask>
<g mask="url(#mask1_167_3262)">
<path d="M107 83.14C104.796 82.5215 102.661 81.6771 100.63 80.62C94.24 81.72 88.38 83.94 83.71 88.62C85.09 89.47 86.79 89.75 87.95 91C89.4794 91.2614 91.0377 91.3085 92.58 91.14C92.44 88.74 91.1 87.14 88.66 85.92C90.709 85.8685 92.7183 86.4903 94.38 87.69C95.6 88.53 96.77 89.45 98.04 90.21C98.7461 90.6677 99.5895 90.8651 100.425 90.7684C101.261 90.6717 102.037 90.2868 102.62 89.68C103.2 89.06 103.31 88.53 102.49 88.06L99.58 86.35C98.2077 85.5269 96.8976 84.6044 95.66 83.59C96.6661 83.6425 97.6518 83.894 98.56 84.33C100.055 85.0589 101.603 85.674 103.19 86.17C103.964 86.4301 104.799 86.4427 105.581 86.2061C106.362 85.9696 107.05 85.4956 107.55 84.85C108.36 83.82 108.25 83.51 107 83.14Z" stroke="#345AFA" stroke-width="0.47" stroke-miterlimit="10"/>
<path d="M90.85 98.14C92.09 98.67 92.58 98.37 92.66 97.05C92.66 96.47 92.72 95.89 92.75 95.31C91.5205 94.9898 90.2295 94.9898 89 95.31C89.33 96.46 89.63 97.61 90.85 98.14Z" stroke="#345AFA" stroke-width="0.47" stroke-miterlimit="10"/>
<path d="M55.63 116.57L57.1 117.57C59.1124 110.5 62.4183 103.865 66.85 98L50.12 110.86L50.69 112.79C52.26 114.1 53.9 115.36 55.63 116.57Z" stroke="#345AFA" stroke-width="0.47" stroke-miterlimit="10"/>
<path d="M109.16 73.69C108.61 73.17 108.05 73.69 107.55 73.86C105.983 74.5385 104.36 75.0805 102.7 75.48C96.8733 76.7887 90.9819 77.7901 85.05 78.48C80.79 79 76.63 79.79 72.81 81.89C68.81 84.09 64.81 86.3 60.7 88.38C56.5814 90.5393 53.167 93.8323 50.86 97.87C48.5449 101.786 45.9163 105.508 43 109L48 124.1C49.43 121.97 50.37 119.58 51.62 117.36C55.1691 110.832 59.7022 104.889 65.06 99.74C66.0181 98.7507 67.2021 98.009 68.5104 97.5787C69.8186 97.1485 71.2118 97.0425 72.57 97.27C77.06 98.02 81.32 97.15 85.57 95.93C86.6679 95.5262 87.8303 95.3263 89 95.34C90.2295 95.0198 91.5205 95.0198 92.75 95.34C93.27 95.34 93.75 95.27 94.32 95.19C95.18 95.05 96.03 94.82 96.16 93.77C96.1986 93.5446 96.1921 93.3139 96.141 93.0911C96.0899 92.8682 95.9951 92.6577 95.8621 92.4718C95.7291 92.2858 95.5606 92.128 95.3663 92.0076C95.172 91.8871 94.9557 91.8064 94.73 91.77C94.02 91.54 93.3 91.37 92.57 91.17C91.0263 91.3286 89.468 91.2714 87.94 91C85.8739 91.0664 83.807 90.8952 81.78 90.49C83.13 89.09 83.7 88.62 83.7 88.62C88.37 83.9 94.23 81.68 100.62 80.62C102.71 79.91 104.8 79.24 106.87 78.5C107.519 78.2955 108.107 77.9324 108.58 77.4435C109.053 76.9545 109.397 76.3553 109.58 75.7C109.71 75.3599 109.739 74.9897 109.665 74.6334C109.59 74.277 109.415 73.9496 109.16 73.69Z" fill="#345AFA"/>
</g>
<path d="M96.26 115.05C90.58 123.17 74.09 121.42 59.43 111.15C53.8295 107.337 49.0461 102.445 45.36 96.76" stroke="#FF4553" stroke-width="0.47" stroke-miterlimit="10"/>
<path d="M48.26 73.94C54.77 71.36 64.83 73 74.75 78.47" stroke="#FF4553" stroke-width="0.47" stroke-miterlimit="10"/>
<path d="M28.77 60.19H26.92V57.63H24.35V55.78H26.92V53.21H28.77V55.78H31.34V57.63H28.77V60.19ZM27.26 59.85H28.43V57.29H31V56.12H28.43V53.55H27.26V56.12H24.7V57.29H27.26V59.85Z" fill="#E6F19E"/>
<path d="M28.6 55.95V53.38H27.09V55.95H24.53V57.46H27.09" fill="#E6F19E"/>
<path d="M93.35 29H91.5V26.4H88.94V24.55H91.5V22H93.35V24.56H95.92V26.4H93.35V29ZM91.85 28.66H93V26.06H95.57V24.9H93V22.33H91.85V24.9H89.28V26.06H91.85V28.66Z" fill="#E6F19E"/>
<path d="M93.18 24.73V22.16H91.67V24.73H89.11V26.23H91.67" fill="#E6F19E"/>
<path d="M162.73 98.12H160.88V95.55H158.31V93.7H160.88V91.13H162.73V93.7H165.29V95.55H162.73V98.12ZM161.22 97.78H162.38V95.21H165V94H162.43V91.48H161.27V94H158.7V95.17H161.27L161.22 97.78Z" fill="#E6F19E"/>
<path d="M162.56 93.87V91.31H161.05V93.87H158.48V95.38H161.05" fill="#E6F19E"/>
<path d="M138.41 125.37H136.56V122.8H134V121H136.57V118.44H138.42V121H141V122.85H138.43L138.41 125.37ZM136.9 125H138.07V122.43H140.63V121.3H138.07V118.73H136.9V121.3H134.33V122.46H136.9V125Z" fill="#E6F19E"/>
<path d="M138.24 121.13V118.56H136.73V121.13H134.16V122.63H136.73" fill="#E6F19E"/>
<path d="M77.6071 38.0079C78.8377 34.3022 74.6345 29.5711 68.219 27.4407C61.8035 25.3103 55.6052 26.5873 54.3746 30.293C53.1441 33.9986 57.3473 38.7297 63.7627 40.8601C70.1782 42.9906 76.3766 41.7136 77.6071 38.0079Z" fill="#F4B8C2"/>
<path d="M69.85 22.53C68.3241 22.0225 66.7131 21.8207 65.1091 21.936C63.5051 22.0514 61.9396 22.4817 60.502 23.2024C59.0644 23.923 57.7829 24.9199 56.7308 26.136C55.6786 27.3521 54.8764 28.7637 54.37 30.29L77.61 38C78.6319 34.9195 78.3884 31.5592 76.9332 28.6582C75.478 25.7572 72.9302 23.5528 69.85 22.53Z" fill="#F4B8C2"/>
<path d="M53.84 44.63L50.84 53.65L57.15 60.76L60.15 51.74L53.84 44.63Z" fill="#F4B8C2"/>
<path d="M57.1 60.93H57.02L50.7 53.77C50.6851 53.7423 50.6773 53.7114 50.6773 53.68C50.6773 53.6486 50.6851 53.6177 50.7 53.59L53.7 44.59C53.7093 44.5586 53.7275 44.5306 53.7523 44.5094C53.7771 44.4881 53.8076 44.4744 53.84 44.47C53.8711 44.4642 53.9032 44.4666 53.933 44.4772C53.9629 44.4877 53.9894 44.5059 54.01 44.53L60.33 51.63C60.3468 51.657 60.3558 51.6882 60.3558 51.72C60.3558 51.7518 60.3468 51.783 60.33 51.81L57.33 60.81C57.3173 60.8393 57.2981 60.8654 57.2738 60.8862C57.2496 60.907 57.2209 60.922 57.19 60.93H57.1ZM51.05 53.61L57.05 60.4L59.91 51.78L53.91 44.99L51.05 53.61Z" fill="#F4B8C2"/>
<path d="M57.1 60.93H57.02C57.0031 60.903 56.9942 60.8718 56.9942 60.84C56.9942 60.8082 57.0031 60.777 57.02 60.75L60.02 51.75C60.0295 51.7205 60.0464 51.6939 60.0692 51.6729C60.092 51.6519 60.1198 51.6371 60.15 51.63L69.47 49.71C69.5011 49.7042 69.5332 49.7066 69.563 49.7172C69.5929 49.7277 69.6194 49.7459 69.64 49.77C69.654 49.7979 69.6614 49.8287 69.6614 49.86C69.6614 49.8912 69.654 49.9221 69.64 49.95L66.64 58.95C66.6307 58.9813 66.6125 59.0093 66.5877 59.0306C66.5628 59.0519 66.5324 59.0656 66.5 59.07L57.19 60.99L57.1 60.93ZM60.29 51.93L57.43 60.55L66.32 58.72L69.19 50.1L60.29 51.93Z" fill="#F4B8C2"/>
<path d="M60.09 51.91H60.01L53.7 44.75C53.6779 44.7263 53.6626 44.6971 53.6557 44.6655C53.6488 44.6339 53.6506 44.601 53.6608 44.5703C53.6711 44.5396 53.6894 44.5122 53.7139 44.491C53.7384 44.4699 53.7681 44.4557 53.8 44.45L63.11 42.53C63.1411 42.5242 63.1732 42.5266 63.2031 42.5372C63.2329 42.5477 63.2594 42.5659 63.28 42.59L69.6 49.7C69.6141 49.7279 69.6214 49.7587 69.6214 49.79C69.6214 49.8213 69.6141 49.8521 69.6 49.88C69.5888 49.9102 69.57 49.9371 69.5455 49.9581C69.521 49.9791 69.4916 49.9935 69.46 50L60.15 51.92L60.09 51.91ZM54.18 44.75L60.18 51.53L69.07 49.7L63.07 42.91L54.18 44.75Z" fill="#F4B8C2"/>
<path d="M64.72 48.24L61.06 48.99L58.58 46.21L62.24 45.45L64.72 48.24Z" fill="#F4B8C2"/>
<path d="M61 49.17L60.92 49.12L58.45 46.33C58.4279 46.3063 58.4126 46.2771 58.4057 46.2455C58.3988 46.2139 58.4006 46.181 58.4108 46.1503C58.4211 46.1196 58.4394 46.0922 58.4639 46.071C58.4884 46.0498 58.5181 46.0357 58.55 46.03L62.2 45.27C62.2311 45.2642 62.2632 45.2666 62.2931 45.2772C62.3229 45.2877 62.3494 45.3059 62.37 45.33L64.85 48.12C64.8721 48.1437 64.8874 48.1728 64.8943 48.2045C64.9012 48.2361 64.8994 48.269 64.8892 48.2997C64.8789 48.3304 64.8606 48.3578 64.8361 48.379C64.8116 48.4001 64.7819 48.4143 64.75 48.42L61.1 49.17H61ZM58.93 46.32L61.13 48.79L64.37 48.13L62.17 45.66L58.93 46.32Z" fill="#F4B8C2"/>
<path d="M55.5282 30.9539L55.1663 31.0308L58.3993 46.241L58.7613 46.1641L55.5282 30.9539Z" fill="#F4B8C2"/>
<path d="M76.2753 37.8521L64.586 48.1069L64.83 48.3851L76.5193 38.1302L76.2753 37.8521Z" fill="#F4B8C2"/>
<path d="M64.028 40.667L61.1864 49.103L61.5379 49.2214L64.3795 40.7854L64.028 40.667Z" fill="#F4B8C2"/>
<path d="M140.137 101.072C142.66 98.9242 141.69 93.6408 137.97 89.2716C134.25 84.9023 129.19 83.1018 126.666 85.2499C124.143 87.398 125.113 92.6814 128.833 97.0506C132.553 101.42 137.614 103.22 140.137 101.072Z" fill="#F4B8C2"/>
<path d="M141.31 86.42C140.426 85.3803 139.345 84.525 138.13 83.9029C136.916 83.2809 135.59 82.9044 134.23 82.7948C132.869 82.6852 131.5 82.8447 130.201 83.2643C128.903 83.6839 127.699 84.3552 126.66 85.24L140.13 101.06C141.169 100.177 142.025 99.097 142.646 97.883C143.268 96.6689 143.645 95.3442 143.754 93.9846C143.864 92.6249 143.705 91.257 143.285 89.959C142.866 88.661 142.195 87.4584 141.31 86.42Z" fill="#F4B8C2"/>
<path d="M119.97 95.41L113.83 100.64L115.29 108.57L121.43 103.34L119.97 95.41Z" fill="#F4B8C2"/>
<path d="M115.17 108.68V108.6L113.72 100.67C113.709 100.647 113.703 100.621 113.703 100.595C113.703 100.569 113.709 100.543 113.72 100.52L119.86 95.29C119.908 95.2705 119.962 95.2705 120.01 95.29C120.035 95.3005 120.057 95.3169 120.075 95.3378C120.092 95.3587 120.104 95.3834 120.11 95.41L121.57 103.35C121.581 103.372 121.587 103.396 121.587 103.42C121.587 103.444 121.581 103.468 121.57 103.49L115.43 108.72C115.406 108.734 115.378 108.741 115.35 108.741C115.322 108.741 115.294 108.734 115.27 108.72C115.27 108.72 115.18 108.7 115.17 108.68ZM114 100.68L115.39 108.26L121.26 103.26L119.87 95.68L114 100.68Z" fill="#F4B8C2"/>
<path d="M115.17 108.68V108.6C115.164 108.573 115.167 108.545 115.177 108.52C115.188 108.495 115.207 108.474 115.23 108.46L121.37 103.23C121.392 103.216 121.418 103.208 121.445 103.208C121.472 103.208 121.498 103.216 121.52 103.23L129.12 105.93C129.145 105.941 129.167 105.957 129.185 105.978C129.202 105.999 129.214 106.023 129.22 106.05C129.224 106.077 129.222 106.105 129.213 106.131C129.205 106.157 129.19 106.181 129.17 106.2L123 111.4C122.975 111.412 122.948 111.419 122.92 111.419C122.892 111.419 122.865 111.412 122.84 111.4L115.24 108.7C115.24 108.7 115.18 108.7 115.17 108.68ZM121.46 103.52L115.59 108.52L122.85 111.1L128.72 106.1L121.46 103.52Z" fill="#F4B8C2"/>
<path d="M121.31 103.45C121.305 103.424 121.305 103.396 121.31 103.37L119.86 95.44C119.856 95.4128 119.858 95.3849 119.867 95.3588C119.875 95.3327 119.89 95.3091 119.91 95.29C119.958 95.2705 120.012 95.2705 120.06 95.29L127.66 98C127.686 98.0089 127.709 98.0248 127.727 98.0459C127.745 98.0671 127.756 98.0927 127.76 98.12L129.22 106.05C129.224 106.077 129.222 106.105 129.214 106.131C129.205 106.157 129.19 106.181 129.17 106.2C129.122 106.219 129.068 106.219 129.02 106.2L121.42 103.49L121.31 103.45ZM120.17 95.65L121.56 103.23L128.83 105.81L127.43 98.23L120.17 95.65Z" fill="#F4B8C2"/>
<path d="M126.28 102.82L123.29 101.76L122.72 98.64L125.7 99.7L126.28 102.82Z" fill="#F4B8C2"/>
<path d="M123.18 101.86C123.175 101.834 123.175 101.806 123.18 101.78L122.61 98.67C122.606 98.6428 122.608 98.615 122.617 98.5888C122.625 98.5627 122.64 98.5391 122.66 98.52C122.683 98.5077 122.709 98.5013 122.735 98.5013C122.761 98.5013 122.787 98.5077 122.81 98.52L125.81 99.58C125.836 99.5889 125.859 99.6048 125.877 99.626C125.895 99.6471 125.906 99.6727 125.91 99.7L126.48 102.81C126.484 102.837 126.482 102.865 126.474 102.891C126.465 102.917 126.45 102.941 126.43 102.96C126.405 102.972 126.378 102.979 126.35 102.979C126.322 102.979 126.295 102.972 126.27 102.96L123.27 101.9C123.27 101.9 123.19 101.88 123.18 101.86ZM122.92 98.86L123.43 101.62L126.07 102.56L125.57 99.8L122.92 98.86Z" fill="#F4B8C2"/>
<path d="M126.922 86.1295L122.579 98.5945L122.872 98.6965L127.215 86.2315L126.922 86.1295Z" fill="#F4B8C2"/>
<path d="M138.169 100.477L125.233 102.721L125.286 103.025L138.222 100.781L138.169 100.477Z" fill="#F4B8C2"/>
<path d="M128.936 96.7667L123.202 101.648L123.403 101.884L129.137 97.0028L128.936 96.7667Z" fill="#F4B8C2"/>
<path d="M111.901 53.3927C113.481 51.1484 111.625 47.12 107.755 44.3951C103.885 41.6701 99.4666 41.2805 97.8863 43.5249C96.3061 45.7692 98.1623 49.7975 102.032 52.5225C105.902 55.2474 110.321 55.637 111.901 53.3927Z" fill="#F4B8C2"/>
<path d="M109.72 41.34C108.798 40.6974 107.757 40.2447 106.658 40.0083C105.56 39.7719 104.425 39.7566 103.32 39.9632C102.215 40.1698 101.162 40.5943 100.223 41.2118C99.2843 41.8293 98.4775 42.6275 97.85 43.56L111.93 53.35C113.213 51.459 113.7 49.1393 113.286 46.8921C112.873 44.6449 111.592 42.6506 109.72 41.34Z" fill="#F4B8C2"/>
<path d="M94.73 53.17L90.98 58.7L93.83 64.75L97.58 59.23L94.73 53.17Z" fill="#F4B8C2"/>
<path d="M93.76 64.86L90.9 58.81C90.8895 58.7899 90.884 58.7676 90.884 58.745C90.884 58.7224 90.8895 58.7 90.9 58.68L94.65 53.15C94.6634 53.1307 94.6814 53.1152 94.7023 53.1047C94.7233 53.0942 94.7465 53.0892 94.77 53.09C94.7913 53.0957 94.8111 53.1058 94.8283 53.1196C94.8455 53.1333 94.8597 53.1505 94.87 53.17L97.73 59.22C97.7425 59.2394 97.7491 59.2619 97.7491 59.285C97.7491 59.308 97.7425 59.3306 97.73 59.35L93.98 64.88C93.9637 64.8907 93.9445 64.8965 93.925 64.8965C93.9054 64.8965 93.8863 64.8907 93.87 64.88L93.76 64.86ZM91.12 58.71L93.86 64.5L97.44 59.22L94.71 53.43L91.12 58.71Z" fill="#F4B8C2"/>
<path d="M93.76 64.86C93.7475 64.8406 93.7408 64.818 93.7408 64.795C93.7408 64.7719 93.7475 64.7494 93.76 64.73L97.51 59.2C97.527 59.1912 97.5458 59.1866 97.565 59.1866C97.5841 59.1866 97.603 59.1912 97.62 59.2L104.23 59.73C104.253 59.7298 104.276 59.7363 104.295 59.7487C104.315 59.7612 104.33 59.779 104.34 59.8C104.35 59.8203 104.355 59.8425 104.355 59.865C104.355 59.8875 104.35 59.9097 104.34 59.93L100.59 65.45C100.577 65.4692 100.559 65.4848 100.538 65.4953C100.517 65.5058 100.493 65.5108 100.47 65.51L93.87 64.98L93.76 64.86ZM97.65 59.36L94.07 64.64L100.38 65.15L104 59.87L97.65 59.36Z" fill="#F4B8C2"/>
<path d="M97.51 59.33L94.65 53.28C94.6403 53.2597 94.6352 53.2375 94.6352 53.215C94.6352 53.1925 94.6403 53.1703 94.65 53.15C94.6634 53.1307 94.6814 53.1152 94.7024 53.1047C94.7233 53.0942 94.7466 53.0892 94.77 53.09L101.37 53.62C101.393 53.6198 101.416 53.6263 101.435 53.6388C101.455 53.6512 101.47 53.669 101.48 53.69L104.34 59.75C104.35 59.7703 104.355 59.7925 104.355 59.815C104.355 59.8375 104.35 59.8597 104.34 59.88C104.328 59.9 104.31 59.9156 104.288 59.9246C104.267 59.9336 104.243 59.9355 104.22 59.93L97.61 59.41C97.61 59.41 97.53 59.35 97.51 59.33ZM94.94 53.33L97.67 59.11L103.98 59.62L101.25 53.83L94.94 53.33Z" fill="#F4B8C2"/>
<path d="M101.32 57.76L98.72 57.55L97.6 55.17L100.19 55.38L101.32 57.76Z" fill="#F4B8C2"/>
<path d="M98.65 57.65L97.53 55.28C97.5175 55.2606 97.5109 55.2381 97.5109 55.215C97.5109 55.192 97.5175 55.1694 97.53 55.15C97.5418 55.1316 97.5581 55.1164 97.5773 55.1059C97.5965 55.0954 97.6181 55.09 97.64 55.09L100.23 55.3C100.253 55.2999 100.276 55.3064 100.295 55.3188C100.315 55.3312 100.33 55.349 100.34 55.37L101.46 57.75C101.472 57.7694 101.479 57.792 101.479 57.815C101.479 57.8381 101.472 57.8606 101.46 57.88C101.45 57.8992 101.433 57.9145 101.413 57.9235C101.394 57.9325 101.371 57.9348 101.35 57.93L98.75 57.73C98.7382 57.7314 98.7262 57.7304 98.7147 57.7272C98.7033 57.7239 98.6926 57.7184 98.6833 57.7109C98.674 57.7035 98.6662 57.6943 98.6605 57.6838C98.6548 57.6734 98.6512 57.6619 98.65 57.65ZM97.81 55.32L98.81 57.42L101.11 57.61L100.11 55.5L97.81 55.32Z" fill="#F4B8C2"/>
<path d="M97.47 55.16L98.25 44.22L98.5 44.24L97.73 55.18L97.47 55.16Z" fill="#F4B8C2"/>
<path d="M101.37 57.87L101.26 57.64L111.07 52.98L111.18 53.22L101.37 57.87Z" fill="#F4B8C2"/>
<path d="M98.83 57.62L98.62 57.48L102.12 52.31L102.33 52.46L98.83 57.62Z" fill="#F4B8C2"/>
</g>
<rect x="0.5" y="0.5" width="299" height="146" rx="4.5" stroke="black"/>
<defs>
<clipPath id="clip0_167_3262">
<rect width="209.79" height="145.44" fill="white" transform="translate(5)"/>
</clipPath>
</defs>
</svg>
