<svg width="300" height="147" viewBox="0 0 300 147" fill="none" xmlns="http://www.w3.org/2000/svg">
<rect x="0.5" y="0.5" width="299" height="146" rx="4.5" fill="#262C3F"/>
<path d="M209.456 81.4498L206.37 69.9571L213.791 67.9641L214.293 69.8357L209.007 71.2555L209.761 74.0631L211.739 73.5317C213.003 73.1922 214.09 73.2084 215 73.5802C215.915 73.9505 216.523 74.6966 216.824 75.8186C217.018 76.541 217.017 77.2015 216.819 77.8001C216.621 78.3932 216.246 78.9077 215.694 79.3434C215.147 79.7776 214.436 80.1123 213.561 80.3475L209.456 81.4498ZM211.152 79.243L212.958 78.758C213.642 78.5743 214.127 78.2827 214.413 77.8832C214.704 77.4822 214.773 76.9972 214.62 76.428C214.472 75.8753 214.174 75.4887 213.728 75.2683C213.28 75.0424 212.736 75.0154 212.096 75.1874L210.199 75.6967L211.152 79.243ZM217.856 79.194L219.177 66.5174L221.558 65.878L229.143 76.1626L226.738 76.8086L225.062 74.4687L220.44 75.7099L220.195 78.5657L217.856 79.194ZM220.479 73.7546L224.033 72.7999L220.975 68.6222L220.479 73.7546ZM233.266 75.3194C232.38 75.5575 231.542 75.6621 230.754 75.6332C229.966 75.6043 229.236 75.4541 228.565 75.1826L229.088 73.2291C229.574 73.4681 230.121 73.6146 230.728 73.6686C231.339 73.7157 231.949 73.6577 232.556 73.4946C233.082 73.3535 233.516 73.1576 233.859 72.907C234.203 72.6563 234.443 72.3717 234.581 72.0532C234.723 71.7332 234.748 71.398 234.654 71.0478C234.507 70.5005 234.21 70.1373 233.763 69.9581C233.314 69.7735 232.699 69.7862 231.916 69.9964L229.642 70.6071L229.19 68.9242L231.3 68.3577C231.738 68.2401 232.096 68.0765 232.374 67.8668C232.657 67.6557 232.853 67.4124 232.961 67.137C233.068 66.8561 233.077 66.5515 232.988 66.2231C232.902 65.9002 232.744 65.6521 232.516 65.4788C232.293 65.3039 232 65.2066 231.636 65.1868C231.277 65.1601 230.859 65.2107 230.383 65.3385C229.853 65.4811 229.362 65.7068 228.911 66.0157C228.465 66.3231 228.109 66.6798 227.843 67.0858L226.428 65.7846C226.807 65.2076 227.318 64.7066 227.961 64.2817C228.602 63.8513 229.325 63.5281 230.13 63.312C230.972 63.0857 231.731 63.0141 232.404 63.0972C233.076 63.1748 233.635 63.3974 234.08 63.7649C234.53 64.131 234.841 64.6314 235.011 65.2663C235.105 65.6165 235.118 65.9799 235.049 66.3564C234.978 66.7273 234.847 67.0795 234.655 67.4127C234.466 67.739 234.237 68.0117 233.968 68.2308C234.664 68.2668 235.274 68.4755 235.799 68.8567C236.33 69.2365 236.691 69.7965 236.884 70.5368C237.063 71.2045 237.034 71.8579 236.795 72.4971C236.561 73.1349 236.142 73.7051 235.538 74.2077C234.937 74.7033 234.18 75.0739 233.266 75.3194ZM237.907 73.809L239.229 61.1323L241.609 60.493L249.195 70.7776L246.789 71.4236L245.114 69.0836L240.492 70.3248L240.247 73.1807L237.907 73.809ZM240.53 68.3695L244.084 67.4149L241.026 63.2372L240.53 68.3695ZM205.769 100.306C204.882 100.545 204.045 100.649 203.257 100.62C202.469 100.591 201.739 100.441 201.068 100.17L201.59 98.2162C202.077 98.4552 202.624 98.6017 203.231 98.6557C203.842 98.7028 204.451 98.6448 205.059 98.4817C205.584 98.3406 206.019 98.1447 206.362 97.894C206.706 97.6434 206.946 97.3588 207.083 97.0403C207.226 96.7202 207.251 96.3851 207.157 96.0349C207.01 95.4876 206.713 95.1244 206.265 94.9452C205.817 94.7606 205.201 94.7733 204.419 94.9835L202.145 95.5942L201.693 93.9113L203.803 93.3447C204.24 93.2272 204.598 93.0635 204.877 92.8539C205.16 92.6428 205.356 92.3995 205.464 92.1241C205.57 91.8432 205.579 91.5386 205.491 91.2102C205.405 90.8873 205.247 90.6392 205.019 90.4658C204.796 90.291 204.502 90.1937 204.139 90.1739C203.78 90.1472 203.362 90.1977 202.886 90.3256C202.355 90.4682 201.864 90.6939 201.413 91.0028C200.968 91.3102 200.612 91.6669 200.345 92.0729L198.931 90.7717C199.31 90.1947 199.821 89.6937 200.464 89.2688C201.105 88.8384 201.828 88.5151 202.632 88.2991C203.475 88.0727 204.233 88.0011 204.907 88.0843C205.579 88.1619 206.138 88.3845 206.583 88.752C207.033 89.1181 207.343 89.6185 207.514 90.2534C207.608 90.6036 207.62 90.967 207.551 91.3434C207.481 91.7144 207.349 92.0665 207.157 92.3998C206.969 92.7261 206.74 92.9988 206.471 93.2179C207.167 93.2539 207.777 93.4625 208.302 93.8438C208.832 94.2236 209.194 94.7836 209.387 95.5239C209.566 96.1916 209.536 96.845 209.297 97.4842C209.064 98.122 208.645 98.6921 208.04 99.1948C207.44 99.6904 206.683 100.061 205.769 100.306ZM211.723 98.4433L208.637 86.9506L210.771 86.3774L211.97 90.8431L217.191 89.441L215.992 84.9752L218.126 84.402L221.213 95.8948L219.079 96.468L217.716 91.3947L212.495 92.7969L213.858 97.8701L211.723 98.4433ZM221.983 95.688L223.305 83.0114L225.685 82.372L233.27 92.6566L230.865 93.3026L229.189 90.9627L224.568 92.2039L224.322 95.0597L221.983 95.688ZM224.606 90.2486L228.16 89.294L225.102 85.1162L224.606 90.2486ZM234.035 92.4512L230.949 80.9584L233.083 80.3852L234.283 84.8509L239.504 83.4488L238.304 78.983L240.439 78.4098L243.525 89.9026L241.391 90.4758L240.028 85.4026L234.807 86.8047L236.17 91.8779L234.035 92.4512ZM245.608 89.3431L242.522 77.8504L244.64 77.2816L246.803 85.3347L250.025 75.8353L252.11 75.2753L255.197 86.7681L253.079 87.3369L250.898 79.2181L247.677 88.7875L245.608 89.3431ZM257.277 86.2092L254.191 74.7165L256.309 74.1477L258.472 82.2008L261.694 72.7014L263.779 72.1415L266.866 83.6342L264.748 84.203L262.567 76.0842L259.346 85.6537L257.277 86.2092ZM258.632 72.1155C257.997 72.286 257.408 72.3093 256.864 72.1854C256.319 72.0561 255.855 71.8023 255.472 71.4241C255.094 71.0444 254.835 70.5596 254.694 69.9696L256.426 69.5044C256.536 69.9795 256.756 70.3282 257.085 70.5507C257.419 70.7662 257.808 70.8144 258.251 70.6953C258.694 70.5763 259.003 70.3407 259.179 69.9885C259.358 69.6293 259.371 69.2181 259.217 68.7548L260.957 68.2874C261.128 68.8576 261.141 69.4059 260.994 69.9321C260.852 70.4515 260.578 70.9037 260.171 71.2887C259.763 71.6738 259.251 71.9494 258.632 72.1155Z" fill="white"/>
<g clip-path="url(#clip0_167_3262)">
<path d="M191.59 76.73C183.81 87.84 161.91 85.92 142.68 72.45C123.45 58.98 114.15 39.05 121.92 28" stroke="#FF4553" stroke-width="0.47" stroke-miterlimit="10"/>
<path d="M170.84 32.23C190.08 45.7 199.37 65.62 191.59 76.73L199.38 65.61C207.15 54.51 197.86 34.61 178.62 21.11C159.38 7.60999 137.49 5.71999 129.71 16.83L121.93 28C129.7 16.84 151.6 18.76 170.84 32.23Z" fill="#FF4553" stroke="#FF4553" stroke-width="0.47" stroke-miterlimit="10"/>
<path d="M188.432 74.376C195.267 64.5441 186.408 46.565 168.647 34.2184C150.885 21.8719 130.946 19.8333 124.112 29.6652C117.277 39.4971 126.136 57.4763 143.897 69.8228C161.659 82.1694 181.598 84.2079 188.432 74.376Z" stroke="#FF4553" stroke-width="0.469365" stroke-miterlimit="10"/>
<mask id="mask0_167_3262" style="mask-type:luminance" maskUnits="userSpaceOnUse" x="108" y="28" width="78" height="59">
<path d="M167.06 37.63C152.38 27.35 135.87 25.63 130.18 33.73L108.18 59.88L115.39 80.55L155.34 86.13L175.51 75.64C178.111 75.1889 180.508 73.9415 182.37 72.07C182.707 71.7198 183.018 71.3454 183.3 70.95C189 62.82 181.74 47.91 167.06 37.63Z" fill="white"/>
</mask>
<g mask="url(#mask0_167_3262)">
<path d="M178.93 39H173L163.48 48.51C163.48 48.51 177.24 44.03 182.63 43.74C181.5 42.15 180.27 40.55 178.93 39Z" stroke="#345AFA" stroke-width="0.47" stroke-miterlimit="10"/>
<path d="M139.48 68.35C141.705 65.9963 144.258 63.9755 147.06 62.35C150.64 60.35 153.95 58.06 156.18 54.41C157.5 52.26 159.78 51.11 162.18 50.25C161.127 51.7058 160.216 53.2596 159.46 54.89C158.549 56.5733 157.216 57.99 155.59 59C154.58 59.5868 153.647 60.2954 152.81 61.11C151.7 62.35 151.93 63.39 153.47 63.97C155.47 64.72 156.25 65.88 155.95 67.45C155.84 68.09 155.62 68.45 154.88 68.25C153.49 67.89 152.07 67.62 150.69 67.25C148.94 66.77 148.31 66.13 147.38 64.09C147.211 64.4009 147.132 64.7525 147.152 65.1056C147.171 65.4587 147.288 65.7995 147.49 66.09C148.02 67.18 148.62 68.24 149.15 69.33C150.15 71.45 149.9 73.43 148.39 74.58C147.64 75.15 146.98 75.39 146.52 74.22C146.222 73.5234 145.835 72.868 145.37 72.27C145.37 72.98 145.56 73.64 145.5 74.33C145.437 74.9356 145.21 75.5126 144.843 75.9989C144.477 76.4852 143.985 76.8624 143.42 77.09C142.62 77.52 142.42 77 142.2 76.38C141.3 73.7 140.393 71.0233 139.48 68.35Z" stroke="#345AFA" stroke-width="0.47" stroke-miterlimit="10"/>
<path d="M167.43 35.81C162.11 39.56 156.71 43.18 150.57 45.52C144.74 47.6391 139.264 50.6298 134.33 54.39C130.42 57.46 126.09 59.99 122.83 63.86C120.875 66.1453 118.709 68.2412 116.36 70.12C115.44 70.85 115.65 71.43 116.36 72.06C117.48 72.99 119.27 72.9 120.87 71.79C122.642 70.5018 124.313 69.081 125.87 67.54C127.935 65.3421 130.434 63.5984 133.21 62.42C135.6 61.55 138.15 61.05 140.28 59.54C140.28 59.54 140.4 59.61 140.54 59.7C139.289 61.8134 137.796 63.7733 136.09 65.54C135.32 66.2693 134.62 67.0695 134 67.93C133.1 69.16 133.78 70.46 135.32 70.58C135.999 70.6339 136.675 70.4384 137.22 70.03C137.99 69.49 138.72 68.91 139.47 68.35C141.695 65.9963 144.248 63.9755 147.05 62.35C150.63 60.35 153.94 58.06 156.17 54.41C157.49 52.26 159.78 51.11 162.17 50.25C165.23 48.48 168.29 46.69 171.37 44.94C174.87 42.94 178.19 40.63 181.79 38.8L178.12 27.8C174.63 30.6 171.06 33.25 167.43 35.81Z" fill="#345AFA"/>
</g>
<path d="M133.82 54.78C128.23 46.98 126.53 38.95 130.18 33.73" stroke="#FF4553" stroke-width="0.47" stroke-miterlimit="10"/>
<path d="M160.48 33.64C162.761 34.8239 164.959 36.1603 167.06 37.64C181.74 47.91 189 62.82 183.34 71" stroke="#FF4553" stroke-width="0.47" stroke-miterlimit="10"/>
<path d="M36.88 72.07C44.66 61 66.56 62.88 85.8 76.35C105.04 89.82 114.32 109.74 106.55 120.85" stroke="#FF4553" stroke-width="0.47" stroke-miterlimit="10"/>
<path d="M57.63 116.57C38.39 103.1 29.1 83.18 36.88 72.07L29.1 83.19C21.32 94.29 30.61 114.19 49.85 127.69C69.09 141.19 91 143.07 98.76 132L106.55 120.88C98.77 132 76.87 130 57.63 116.57Z" fill="#FF4553" stroke="#FF4553" stroke-width="0.47" stroke-miterlimit="10"/>
<path d="M103.839 118.956C110.716 109.134 101.907 91.1001 84.1639 78.6761C66.4206 66.2521 46.4617 64.1425 39.5844 73.9642C32.7072 83.7859 41.5159 101.82 59.2592 114.244C77.0026 126.668 96.9615 128.777 103.839 118.956Z" stroke="#FF4553" stroke-width="0.47" stroke-miterlimit="10"/>
<mask id="mask1_167_3262" style="mask-type:luminance" maskUnits="userSpaceOnUse" x="43" y="55" width="81" height="66">
<path d="M61.15 55.32L45.15 77.85C39.46 85.97 46.75 100.85 61.42 111.17C76.09 121.49 92.61 123.17 98.3 115.07C98.46 114.84 98.61 114.6 98.75 114.36L116 110.48L123.58 69L61.15 55.32Z" fill="white"/>
</mask>
<g mask="url(#mask1_167_3262)">
<path d="M109 83.14C106.796 82.5215 104.661 81.6771 102.63 80.62C96.24 81.72 90.38 83.94 85.71 88.62C87.09 89.47 88.79 89.75 89.95 91C91.4794 91.2614 93.0377 91.3085 94.58 91.14C94.44 88.74 93.1 87.14 90.66 85.92C92.709 85.8685 94.7183 86.4903 96.38 87.69C97.6 88.53 98.77 89.45 100.04 90.21C100.746 90.6677 101.589 90.8651 102.425 90.7684C103.261 90.6717 104.037 90.2868 104.62 89.68C105.2 89.06 105.31 88.53 104.49 88.06L101.58 86.35C100.208 85.5269 98.8976 84.6044 97.66 83.59C98.6661 83.6425 99.6518 83.894 100.56 84.33C102.055 85.0589 103.603 85.674 105.19 86.17C105.964 86.4301 106.799 86.4427 107.581 86.2061C108.362 85.9696 109.05 85.4956 109.55 84.85C110.36 83.82 110.25 83.51 109 83.14Z" stroke="#345AFA" stroke-width="0.47" stroke-miterlimit="10"/>
<path d="M92.85 98.14C94.09 98.67 94.58 98.37 94.66 97.05C94.66 96.47 94.72 95.89 94.75 95.31C93.5205 94.9898 92.2295 94.9898 91 95.31C91.33 96.46 91.63 97.61 92.85 98.14Z" stroke="#345AFA" stroke-width="0.47" stroke-miterlimit="10"/>
<path d="M57.63 116.57L59.1 117.57C61.1124 110.5 64.4183 103.865 68.85 98L52.12 110.86L52.69 112.79C54.26 114.1 55.9 115.36 57.63 116.57Z" stroke="#345AFA" stroke-width="0.47" stroke-miterlimit="10"/>
<path d="M111.16 73.69C110.61 73.17 110.05 73.69 109.55 73.86C107.983 74.5385 106.36 75.0805 104.7 75.48C98.8733 76.7887 92.9819 77.7901 87.05 78.48C82.79 79 78.63 79.79 74.81 81.89C70.81 84.09 66.81 86.3 62.7 88.38C58.5814 90.5393 55.167 93.8323 52.86 97.87C50.5449 101.786 47.9163 105.508 45 109L50 124.1C51.43 121.97 52.37 119.58 53.62 117.36C57.1691 110.832 61.7022 104.889 67.06 99.74C68.0181 98.7507 69.2021 98.009 70.5104 97.5787C71.8186 97.1485 73.2118 97.0425 74.57 97.27C79.06 98.02 83.32 97.15 87.57 95.93C88.6679 95.5262 89.8303 95.3263 91 95.34C92.2295 95.0198 93.5205 95.0198 94.75 95.34C95.27 95.34 95.75 95.27 96.32 95.19C97.18 95.05 98.03 94.82 98.16 93.77C98.1986 93.5446 98.1921 93.3139 98.141 93.0911C98.0899 92.8682 97.9951 92.6577 97.8621 92.4718C97.7291 92.2858 97.5606 92.128 97.3663 92.0076C97.172 91.8871 96.9557 91.8064 96.73 91.77C96.02 91.54 95.3 91.37 94.57 91.17C93.0263 91.3286 91.468 91.2714 89.94 91C87.8739 91.0664 85.807 90.8952 83.78 90.49C85.13 89.09 85.7 88.62 85.7 88.62C90.37 83.9 96.23 81.68 102.62 80.62C104.71 79.91 106.8 79.24 108.87 78.5C109.519 78.2955 110.107 77.9324 110.58 77.4435C111.053 76.9545 111.397 76.3553 111.58 75.7C111.71 75.3599 111.739 74.9897 111.665 74.6334C111.59 74.277 111.415 73.9496 111.16 73.69Z" fill="#345AFA"/>
</g>
<path d="M98.26 115.05C92.58 123.17 76.09 121.42 61.43 111.15C55.8295 107.337 51.0461 102.445 47.36 96.76" stroke="#FF4553" stroke-width="0.47" stroke-miterlimit="10"/>
<path d="M50.26 73.94C56.77 71.36 66.83 73 76.75 78.47" stroke="#FF4553" stroke-width="0.47" stroke-miterlimit="10"/>
<path d="M30.77 60.19H28.92V57.63H26.35V55.78H28.92V53.21H30.77V55.78H33.34V57.63H30.77V60.19ZM29.26 59.85H30.43V57.29H33V56.12H30.43V53.55H29.26V56.12H26.7V57.29H29.26V59.85Z" fill="#E6F19E"/>
<path d="M30.6 55.95V53.38H29.09V55.95H26.53V57.46H29.09" fill="#E6F19E"/>
<path d="M95.35 29H93.5V26.4H90.94V24.55H93.5V22H95.35V24.56H97.92V26.4H95.35V29ZM93.85 28.66H95V26.06H97.57V24.9H95V22.33H93.85V24.9H91.28V26.06H93.85V28.66Z" fill="#E6F19E"/>
<path d="M95.18 24.73V22.16H93.67V24.73H91.11V26.23H93.67" fill="#E6F19E"/>
<path d="M164.73 98.12H162.88V95.55H160.31V93.7H162.88V91.13H164.73V93.7H167.29V95.55H164.73V98.12ZM163.22 97.78H164.38V95.21H167V94H164.43V91.48H163.27V94H160.7V95.17H163.27L163.22 97.78Z" fill="#E6F19E"/>
<path d="M164.56 93.87V91.31H163.05V93.87H160.48V95.38H163.05" fill="#E6F19E"/>
<path d="M140.41 125.37H138.56V122.8H136V121H138.57V118.44H140.42V121H143V122.85H140.43L140.41 125.37ZM138.9 125H140.07V122.43H142.63V121.3H140.07V118.73H138.9V121.3H136.33V122.46H138.9V125Z" fill="#E6F19E"/>
<path d="M140.24 121.13V118.56H138.73V121.13H136.16V122.63H138.73" fill="#E6F19E"/>
<path d="M79.6071 38.0079C80.8377 34.3022 76.6345 29.5711 70.219 27.4407C63.8035 25.3103 57.6052 26.5873 56.3746 30.293C55.1441 33.9986 59.3473 38.7297 65.7627 40.8601C72.1782 42.9906 78.3766 41.7136 79.6071 38.0079Z" fill="#F4B8C2"/>
<path d="M71.85 22.53C70.3241 22.0225 68.7131 21.8207 67.1091 21.936C65.5051 22.0514 63.9396 22.4817 62.502 23.2024C61.0644 23.923 59.7829 24.9199 58.7308 26.136C57.6786 27.3521 56.8764 28.7637 56.37 30.29L79.61 38C80.6319 34.9195 80.3884 31.5592 78.9332 28.6582C77.478 25.7572 74.9302 23.5528 71.85 22.53Z" fill="#F4B8C2"/>
<path d="M55.84 44.63L52.84 53.65L59.15 60.76L62.15 51.74L55.84 44.63Z" fill="#F4B8C2"/>
<path d="M59.1 60.93H59.02L52.7 53.77C52.6851 53.7423 52.6773 53.7114 52.6773 53.68C52.6773 53.6486 52.6851 53.6177 52.7 53.59L55.7 44.59C55.7093 44.5586 55.7275 44.5306 55.7523 44.5094C55.7771 44.4881 55.8076 44.4744 55.84 44.47C55.8711 44.4642 55.9032 44.4666 55.933 44.4772C55.9629 44.4877 55.9894 44.5059 56.01 44.53L62.33 51.63C62.3468 51.657 62.3558 51.6882 62.3558 51.72C62.3558 51.7518 62.3468 51.783 62.33 51.81L59.33 60.81C59.3173 60.8393 59.2981 60.8654 59.2738 60.8862C59.2496 60.907 59.2209 60.922 59.19 60.93H59.1ZM53.05 53.61L59.05 60.4L61.91 51.78L55.91 44.99L53.05 53.61Z" fill="#F4B8C2"/>
<path d="M59.1 60.93H59.02C59.0031 60.903 58.9942 60.8718 58.9942 60.84C58.9942 60.8082 59.0031 60.777 59.02 60.75L62.02 51.75C62.0295 51.7205 62.0464 51.6939 62.0692 51.6729C62.092 51.6519 62.1198 51.6371 62.15 51.63L71.47 49.71C71.5011 49.7042 71.5332 49.7066 71.563 49.7172C71.5929 49.7277 71.6194 49.7459 71.64 49.77C71.654 49.7979 71.6614 49.8287 71.6614 49.86C71.6614 49.8912 71.654 49.9221 71.64 49.95L68.64 58.95C68.6307 58.9813 68.6125 59.0093 68.5877 59.0306C68.5628 59.0519 68.5324 59.0656 68.5 59.07L59.19 60.99L59.1 60.93ZM62.29 51.93L59.43 60.55L68.32 58.72L71.19 50.1L62.29 51.93Z" fill="#F4B8C2"/>
<path d="M62.09 51.91H62.01L55.7 44.75C55.6779 44.7263 55.6626 44.6971 55.6557 44.6655C55.6488 44.6339 55.6506 44.601 55.6608 44.5703C55.6711 44.5396 55.6894 44.5122 55.7139 44.491C55.7384 44.4699 55.7681 44.4557 55.8 44.45L65.11 42.53C65.1411 42.5242 65.1732 42.5266 65.2031 42.5372C65.2329 42.5477 65.2594 42.5659 65.28 42.59L71.6 49.7C71.6141 49.7279 71.6214 49.7587 71.6214 49.79C71.6214 49.8213 71.6141 49.8521 71.6 49.88C71.5888 49.9102 71.57 49.9371 71.5455 49.9581C71.521 49.9791 71.4916 49.9935 71.46 50L62.15 51.92L62.09 51.91ZM56.18 44.75L62.18 51.53L71.07 49.7L65.07 42.91L56.18 44.75Z" fill="#F4B8C2"/>
<path d="M66.72 48.24L63.06 48.99L60.58 46.21L64.24 45.45L66.72 48.24Z" fill="#F4B8C2"/>
<path d="M63 49.17L62.92 49.12L60.45 46.33C60.4279 46.3063 60.4126 46.2771 60.4057 46.2455C60.3988 46.2139 60.4006 46.181 60.4108 46.1503C60.4211 46.1196 60.4394 46.0922 60.4639 46.071C60.4884 46.0498 60.5181 46.0357 60.55 46.03L64.2 45.27C64.2311 45.2642 64.2632 45.2666 64.2931 45.2772C64.3229 45.2877 64.3494 45.3059 64.37 45.33L66.85 48.12C66.8721 48.1437 66.8874 48.1728 66.8943 48.2045C66.9012 48.2361 66.8994 48.269 66.8892 48.2997C66.8789 48.3304 66.8606 48.3578 66.8361 48.379C66.8116 48.4001 66.7819 48.4143 66.75 48.42L63.1 49.17H63ZM60.93 46.32L63.13 48.79L66.37 48.13L64.17 45.66L60.93 46.32Z" fill="#F4B8C2"/>
<path d="M57.5282 30.9539L57.1663 31.0308L60.3993 46.241L60.7613 46.1641L57.5282 30.9539Z" fill="#F4B8C2"/>
<path d="M78.2753 37.8521L66.586 48.1069L66.83 48.3851L78.5193 38.1302L78.2753 37.8521Z" fill="#F4B8C2"/>
<path d="M66.028 40.667L63.1864 49.103L63.5379 49.2214L66.3795 40.7854L66.028 40.667Z" fill="#F4B8C2"/>
<path d="M142.137 101.072C144.66 98.9242 143.69 93.6408 139.97 89.2716C136.25 84.9023 131.19 83.1018 128.666 85.2499C126.143 87.398 127.113 92.6814 130.833 97.0506C134.553 101.42 139.614 103.22 142.137 101.072Z" fill="#F4B8C2"/>
<path d="M143.31 86.42C142.426 85.3803 141.345 84.525 140.13 83.9029C138.916 83.2809 137.59 82.9044 136.23 82.7948C134.869 82.6852 133.5 82.8447 132.201 83.2643C130.903 83.6839 129.699 84.3552 128.66 85.24L142.13 101.06C143.169 100.177 144.025 99.097 144.646 97.883C145.268 96.6689 145.645 95.3442 145.754 93.9846C145.864 92.6249 145.705 91.257 145.285 89.959C144.866 88.661 144.195 87.4584 143.31 86.42Z" fill="#F4B8C2"/>
<path d="M121.97 95.41L115.83 100.64L117.29 108.57L123.43 103.34L121.97 95.41Z" fill="#F4B8C2"/>
<path d="M117.17 108.68V108.6L115.72 100.67C115.709 100.647 115.703 100.621 115.703 100.595C115.703 100.569 115.709 100.543 115.72 100.52L121.86 95.29C121.908 95.2705 121.962 95.2705 122.01 95.29C122.035 95.3005 122.057 95.3169 122.075 95.3378C122.092 95.3587 122.104 95.3834 122.11 95.41L123.57 103.35C123.581 103.372 123.587 103.396 123.587 103.42C123.587 103.444 123.581 103.468 123.57 103.49L117.43 108.72C117.406 108.734 117.378 108.741 117.35 108.741C117.322 108.741 117.294 108.734 117.27 108.72C117.27 108.72 117.18 108.7 117.17 108.68ZM116 100.68L117.39 108.26L123.26 103.26L121.87 95.68L116 100.68Z" fill="#F4B8C2"/>
<path d="M117.17 108.68V108.6C117.164 108.573 117.167 108.545 117.177 108.52C117.188 108.495 117.207 108.474 117.23 108.46L123.37 103.23C123.392 103.216 123.418 103.208 123.445 103.208C123.472 103.208 123.498 103.216 123.52 103.23L131.12 105.93C131.145 105.941 131.167 105.957 131.185 105.978C131.202 105.999 131.214 106.023 131.22 106.05C131.224 106.077 131.222 106.105 131.213 106.131C131.205 106.157 131.19 106.181 131.17 106.2L125 111.4C124.975 111.412 124.948 111.419 124.92 111.419C124.892 111.419 124.865 111.412 124.84 111.4L117.24 108.7C117.24 108.7 117.18 108.7 117.17 108.68ZM123.46 103.52L117.59 108.52L124.85 111.1L130.72 106.1L123.46 103.52Z" fill="#F4B8C2"/>
<path d="M123.31 103.45C123.305 103.424 123.305 103.396 123.31 103.37L121.86 95.44C121.856 95.4128 121.858 95.3849 121.867 95.3588C121.875 95.3327 121.89 95.3091 121.91 95.29C121.958 95.2705 122.012 95.2705 122.06 95.29L129.66 98C129.686 98.0089 129.709 98.0248 129.727 98.0459C129.745 98.0671 129.756 98.0927 129.76 98.12L131.22 106.05C131.224 106.077 131.222 106.105 131.214 106.131C131.205 106.157 131.19 106.181 131.17 106.2C131.122 106.219 131.068 106.219 131.02 106.2L123.42 103.49L123.31 103.45ZM122.17 95.65L123.56 103.23L130.83 105.81L129.43 98.23L122.17 95.65Z" fill="#F4B8C2"/>
<path d="M128.28 102.82L125.29 101.76L124.72 98.64L127.7 99.7L128.28 102.82Z" fill="#F4B8C2"/>
<path d="M125.18 101.86C125.175 101.834 125.175 101.806 125.18 101.78L124.61 98.67C124.606 98.6428 124.608 98.615 124.617 98.5888C124.625 98.5627 124.64 98.5391 124.66 98.52C124.683 98.5077 124.709 98.5013 124.735 98.5013C124.761 98.5013 124.787 98.5077 124.81 98.52L127.81 99.58C127.836 99.5889 127.859 99.6048 127.877 99.626C127.895 99.6471 127.906 99.6727 127.91 99.7L128.48 102.81C128.484 102.837 128.482 102.865 128.474 102.891C128.465 102.917 128.45 102.941 128.43 102.96C128.405 102.972 128.378 102.979 128.35 102.979C128.322 102.979 128.295 102.972 128.27 102.96L125.27 101.9C125.27 101.9 125.19 101.88 125.18 101.86ZM124.92 98.86L125.43 101.62L128.07 102.56L127.57 99.8L124.92 98.86Z" fill="#F4B8C2"/>
<path d="M128.922 86.1295L124.579 98.5945L124.872 98.6965L129.215 86.2315L128.922 86.1295Z" fill="#F4B8C2"/>
<path d="M140.169 100.477L127.233 102.721L127.286 103.025L140.222 100.781L140.169 100.477Z" fill="#F4B8C2"/>
<path d="M130.936 96.7667L125.202 101.648L125.403 101.884L131.137 97.0028L130.936 96.7667Z" fill="#F4B8C2"/>
<path d="M113.901 53.3927C115.481 51.1484 113.625 47.12 109.755 44.3951C105.885 41.6701 101.467 41.2805 99.8863 43.5249C98.3061 45.7692 100.162 49.7975 104.032 52.5225C107.902 55.2474 112.321 55.637 113.901 53.3927Z" fill="#F4B8C2"/>
<path d="M111.72 41.34C110.798 40.6974 109.757 40.2447 108.658 40.0083C107.56 39.7719 106.425 39.7566 105.32 39.9632C104.215 40.1698 103.162 40.5943 102.223 41.2118C101.284 41.8293 100.477 42.6275 99.85 43.56L113.93 53.35C115.213 51.459 115.7 49.1393 115.286 46.8921C114.873 44.6449 113.592 42.6506 111.72 41.34Z" fill="#F4B8C2"/>
<path d="M96.73 53.17L92.98 58.7L95.83 64.75L99.58 59.23L96.73 53.17Z" fill="#F4B8C2"/>
<path d="M95.76 64.86L92.9 58.81C92.8895 58.7899 92.884 58.7676 92.884 58.745C92.884 58.7224 92.8895 58.7 92.9 58.68L96.65 53.15C96.6634 53.1307 96.6814 53.1152 96.7023 53.1047C96.7233 53.0942 96.7465 53.0892 96.77 53.09C96.7913 53.0957 96.8111 53.1058 96.8283 53.1196C96.8455 53.1333 96.8597 53.1505 96.87 53.17L99.73 59.22C99.7425 59.2394 99.7491 59.2619 99.7491 59.285C99.7491 59.308 99.7425 59.3306 99.73 59.35L95.98 64.88C95.9637 64.8907 95.9445 64.8965 95.925 64.8965C95.9054 64.8965 95.8863 64.8907 95.87 64.88L95.76 64.86ZM93.12 58.71L95.86 64.5L99.44 59.22L96.71 53.43L93.12 58.71Z" fill="#F4B8C2"/>
<path d="M95.76 64.86C95.7475 64.8406 95.7408 64.818 95.7408 64.795C95.7408 64.7719 95.7475 64.7494 95.76 64.73L99.51 59.2C99.527 59.1912 99.5458 59.1866 99.565 59.1866C99.5841 59.1866 99.603 59.1912 99.62 59.2L106.23 59.73C106.253 59.7298 106.276 59.7363 106.295 59.7487C106.315 59.7612 106.33 59.779 106.34 59.8C106.35 59.8203 106.355 59.8425 106.355 59.865C106.355 59.8875 106.35 59.9097 106.34 59.93L102.59 65.45C102.577 65.4692 102.559 65.4848 102.538 65.4953C102.517 65.5058 102.493 65.5108 102.47 65.51L95.87 64.98L95.76 64.86ZM99.65 59.36L96.07 64.64L102.38 65.15L106 59.87L99.65 59.36Z" fill="#F4B8C2"/>
<path d="M99.51 59.33L96.65 53.28C96.6403 53.2597 96.6352 53.2375 96.6352 53.215C96.6352 53.1925 96.6403 53.1703 96.65 53.15C96.6634 53.1307 96.6814 53.1152 96.7024 53.1047C96.7233 53.0942 96.7466 53.0892 96.77 53.09L103.37 53.62C103.393 53.6198 103.416 53.6263 103.435 53.6388C103.455 53.6512 103.47 53.669 103.48 53.69L106.34 59.75C106.35 59.7703 106.355 59.7925 106.355 59.815C106.355 59.8375 106.35 59.8597 106.34 59.88C106.328 59.9 106.31 59.9156 106.288 59.9246C106.267 59.9336 106.243 59.9355 106.22 59.93L99.61 59.41C99.61 59.41 99.53 59.35 99.51 59.33ZM96.94 53.33L99.67 59.11L105.98 59.62L103.25 53.83L96.94 53.33Z" fill="#F4B8C2"/>
<path d="M103.32 57.76L100.72 57.55L99.6 55.17L102.19 55.38L103.32 57.76Z" fill="#F4B8C2"/>
<path d="M100.65 57.65L99.53 55.28C99.5175 55.2606 99.5109 55.2381 99.5109 55.215C99.5109 55.192 99.5175 55.1694 99.53 55.15C99.5418 55.1316 99.5581 55.1164 99.5773 55.1059C99.5965 55.0954 99.6181 55.09 99.64 55.09L102.23 55.3C102.253 55.2999 102.276 55.3064 102.295 55.3188C102.315 55.3312 102.33 55.349 102.34 55.37L103.46 57.75C103.472 57.7694 103.479 57.792 103.479 57.815C103.479 57.8381 103.472 57.8606 103.46 57.88C103.45 57.8992 103.433 57.9145 103.413 57.9235C103.394 57.9325 103.371 57.9348 103.35 57.93L100.75 57.73C100.738 57.7314 100.726 57.7304 100.715 57.7272C100.703 57.7239 100.693 57.7184 100.683 57.7109C100.674 57.7035 100.666 57.6943 100.661 57.6838C100.655 57.6734 100.651 57.6619 100.65 57.65ZM99.81 55.32L100.81 57.42L103.11 57.61L102.11 55.5L99.81 55.32Z" fill="#F4B8C2"/>
<path d="M99.47 55.16L100.25 44.22L100.5 44.24L99.73 55.18L99.47 55.16Z" fill="#F4B8C2"/>
<path d="M103.37 57.87L103.26 57.64L113.07 52.98L113.18 53.22L103.37 57.87Z" fill="#F4B8C2"/>
<path d="M100.83 57.62L100.62 57.48L104.12 52.31L104.33 52.46L100.83 57.62Z" fill="#F4B8C2"/>
</g>
<rect x="0.5" y="0.5" width="299" height="146" rx="4.5" stroke="black"/>
<defs>
<clipPath id="clip0_167_3262">
<rect width="209.79" height="145.44" fill="white" transform="translate(7)"/>
</clipPath>
</defs>
</svg>
