<svg width="300" height="147" viewBox="0 0 300 147" fill="none" xmlns="http://www.w3.org/2000/svg">
<rect x="0.25" y="0.25" width="299.5" height="146.5" rx="4.75" fill="#F9FAFE"/>
<path d="M20.09 77.2715H18.24V74.7015H15.67V72.8515H18.24V70.2815H20.09V72.8515H22.66V74.7015H20.09V77.2715ZM18.58 76.9315H19.76V74.3615H22.33V73.1915H19.76V70.6315H18.58V73.1915H16.01V74.3615H18.58V76.9315Z" fill="#E6F19E"/>
<path d="M19.92 73.0214V70.4514H18.41V73.0214H15.84V74.5314H18.41" fill="#9AB9A4"/>
<path d="M47.63 46.8915H45.76V44.3315H43.22V42.4815H45.76V39.9115H47.61V42.4815H50.18V44.3315H47.63V46.8915ZM46.12 46.5515H47.29V43.9815H49.86V42.8215H47.29V40.2515H46.12V42.8215H43.56V43.9815H46.12V46.5515Z" fill="#E6F19E"/>
<path d="M47.46 42.6515V40.0815H45.95V42.6515H43.39V44.1615H45.95" fill="#E6F19E"/>
<path d="M167.76 24.3515H165.91V21.7615H163.34V19.9415H165.91V17.3715H167.76V19.9415H170.32V21.7615H167.76V24.3515ZM166.25 24.0115H167.41V21.4415H169.98V20.2815H167.41V17.7615H166.25V20.3315H163.68V21.4915H166.25V24.0115Z" fill="#E6F19E"/>
<path d="M167.58 20.1115V17.5415H166.08V20.1115H163.51V21.6215H166.08" fill="#454545"/>
<path d="M141.25 35.6815H139.4V33.1215H136.83V31.2715H139.4V28.7015H141.25V31.2715H143.82V33.1215H141.25V35.6815ZM139.76 35.3415H140.93V32.7615H143.49V31.6115H140.93V29.0415H139.76V31.6115H137.19V32.7615H139.76V35.3415Z" fill="#E6F19E"/>
<path d="M141.08 31.4415V28.8715H139.57V31.4415H137V32.9515H139.57" fill="#FF4553"/>
<path d="M160.84 63.7615H158.99V61.2315H156.42V59.3815H158.99V56.8115H160.84V59.3815H163.4V61.2315H160.84V63.7615ZM159.33 63.4215H160.49V60.8915H163.06V59.7615H160.49V57.1515H159.33V59.7615H156.76V60.9315H159.33V63.4215Z" fill="#E6F19E"/>
<path d="M160.66 59.5514V56.9814H159.16V59.5514H156.59V61.0614H159.16" fill="#9747FF"/>
<path d="M21.37 22.0215H19.52V19.4515H16.96V17.6015H19.52V15.0315H21.37V17.6015H23.94V19.4515H21.37V22.0215ZM19.87 21.6715H21.03V19.1115H23.6V17.9415H21.03V15.3715H19.87V17.9415H17.3V19.1115H19.87V21.6715Z" fill="#E6F19E"/>
<path d="M21.2 17.7715V15.2015H19.7V17.7715H17.13V19.2815H19.7" fill="#F4B8C2"/>
<path d="M85.59 60.3715C82.47 66.2615 82.7 72.4915 86.1 74.2915C89.5 76.0915 94.76 72.7615 97.91 66.8915C101.06 61.0215 100.76 54.7615 97.4 52.9615C94.04 51.1615 88.76 54.4815 85.59 60.3715ZM97.13 66.4715C94.4 71.6215 89.79 74.5215 86.82 72.9415C83.85 71.3615 83.65 65.9415 86.37 60.7815C89.09 55.6215 93.76 52.7615 96.68 54.3115C99.6 55.8615 99.85 61.3315 97.13 66.4715Z" fill="#345AFA" stroke="#345AFA" stroke-width="0.47" stroke-miterlimit="10"/>
<path d="M97.91 66.8915C94.76 72.7615 89.5 76.0915 86.1 74.2915L89.51 76.0915C92.91 77.8915 98.19 74.5815 101.31 68.6915C104.43 62.8015 104.2 56.5615 100.76 54.7615L97.36 52.9615C100.76 54.7615 101.02 61.0015 97.91 66.8915Z" stroke="#345AFA" stroke-width="0.47" stroke-miterlimit="10"/>
<path d="M86.15 60.6615C83.31 66.0215 83.52 71.6615 86.61 73.3315C89.7 75.0015 94.51 71.9515 97.35 66.5915C100.19 61.2315 99.98 55.5915 96.89 53.9215C93.8 52.2515 88.98 55.3015 86.15 60.6615ZM97.08 59.4215C97.46 59.6215 97.49 60.3015 97.15 60.9515L97.02 61.1915C96.8654 61.5132 96.6182 61.7813 96.31 61.9615L87.88 66.2415C87.82 66.2415 87.78 66.3915 87.83 66.4215L91.44 68.3215C91.44 68.3215 91.55 68.3215 91.56 68.2015V65.3415C91.56 65.0615 91.89 64.8415 91.94 65.0715L92.76 68.4215C92.8464 68.8259 92.7749 69.2481 92.56 69.6015C92.22 70.2415 91.64 70.6015 91.25 70.4015L86.18 67.7615C85.8 67.5615 85.77 66.8715 86.11 66.2415L86.23 66.0015C86.3878 65.6787 86.6386 65.4105 86.95 65.2315L95.38 60.9515C95.44 60.9515 95.48 60.8015 95.38 60.7715L91.77 58.8615C91.77 58.8615 91.66 58.9115 91.65 58.9915V61.8515C91.65 62.1315 91.33 62.3515 91.27 62.1215L90.48 58.7615C90.4029 58.3525 90.4775 57.9294 90.69 57.5715C91.03 56.9215 91.62 56.5715 92 56.7615L97.08 59.4215Z" fill="#345AFA"/>
<path d="M42.58 94.4814C38.78 94.4814 35.71 96.2614 35.71 98.4814C35.71 100.701 38.78 102.481 42.58 102.481C46.38 102.481 49.45 100.711 49.45 98.4814C49.45 96.2514 46.37 94.4814 42.58 94.4814ZM42.58 101.911C39.26 101.911 36.58 100.361 36.58 98.4514C36.58 96.5414 39.26 94.9814 42.58 94.9814C45.9 94.9814 48.58 96.5314 48.58 98.4514C48.58 100.371 45.89 101.911 42.58 101.911Z" fill="#345AFA" stroke="#345AFA" stroke-width="0.47" stroke-miterlimit="10"/>
<path d="M42.58 102.412C38.78 102.412 35.71 100.642 35.71 98.4116V100.602C35.71 102.792 38.78 104.602 42.58 104.602C46.38 104.602 49.45 102.832 49.45 100.602V98.4516C49.45 100.642 46.37 102.412 42.58 102.412Z" stroke="#345AFA" stroke-width="0.47" stroke-miterlimit="10"/>
<path d="M42.58 94.8416C39.13 94.8416 36.33 96.4516 36.33 98.4516C36.33 100.452 39.13 102.062 42.58 102.062C46.03 102.062 48.83 100.442 48.83 98.4516C48.83 96.4616 46.03 94.8416 42.58 94.8416ZM46.12 100.012C46.12 100.252 45.78 100.452 45.36 100.452H45.21C45.0048 100.459 44.8023 100.403 44.63 100.292L40.23 97.2016H40.13V99.5216C40.13 99.5216 40.19 99.5216 40.23 99.5216L41.68 98.7815C41.82 98.7115 42.02 98.7816 41.91 98.9016L40.44 100.192C40.2547 100.336 40.0246 100.41 39.79 100.402C39.38 100.402 39.04 100.202 39.04 99.9615V96.7616C39.04 96.5216 39.38 96.3215 39.79 96.3215H39.94C40.1452 96.3141 40.3477 96.3699 40.52 96.4816L44.91 99.5816H45.02V97.2016C45.02 97.2016 44.96 97.2016 44.92 97.2016L43.47 97.9416C43.33 98.0216 43.13 97.9415 43.23 97.8215L44.76 96.5015C44.9453 96.3574 45.1754 96.2831 45.41 96.2915C45.83 96.2915 46.17 96.4916 46.17 96.7316L46.12 100.012Z" fill="#345AFA"/>
<path d="M96.03 123.802C109.771 123.802 120.91 117.61 120.91 109.972C120.91 102.334 109.771 96.1416 96.03 96.1416C82.2892 96.1416 71.15 102.334 71.15 109.972C71.15 117.61 82.2892 123.802 96.03 123.802Z" stroke="#345AFA" stroke-width="0.47" stroke-miterlimit="10"/>
<path d="M66.94 102.031C66.94 93.1414 79.94 85.9214 96.03 85.9214C112.12 85.9214 125.11 93.1414 125.11 102.031C125.11 110.921 112.11 118.151 96.03 118.151C79.95 118.151 66.94 110.931 66.94 102.031Z" stroke="#345AFA" stroke-width="0.47" stroke-miterlimit="10"/>
<path d="M96.03 118.152C85.5 118.152 76.27 115.052 71.17 110.402C71.58 117.842 82.55 123.812 96.03 123.812C109.51 123.812 120.48 117.812 120.89 110.402C115.76 115.052 106.56 118.152 96.03 118.152Z" fill="#345AFA"/>
<path d="M103.76 40.5515C116.08 42.3115 125.13 48.1815 125.13 55.1515C125.13 63.5115 112.13 70.2815 96.05 70.2815C79.97 70.2815 66.94 63.5115 66.94 55.1515C66.94 48.1515 76.16 42.2115 88.65 40.5115" stroke="#345AFA" stroke-width="0.47" stroke-miterlimit="10"/>
<path d="M66.95 54.7615C67.0447 51.9299 67.7017 49.1454 68.8829 46.5702C70.0641 43.995 71.7457 41.6805 73.83 39.7615" stroke="#345AFA" stroke-width="0.47" stroke-miterlimit="10"/>
<path d="M118.19 39.7615C120.332 41.7194 122.051 44.0946 123.241 46.7413C124.431 49.3879 125.067 52.2499 125.11 55.1515" stroke="#345AFA" stroke-width="0.47" stroke-miterlimit="10"/>
<path d="M72.27 61.6215C70.01 59.7615 68.76 57.5015 68.76 55.1515C68.76 52.4515 70.47 49.9415 73.39 47.8615" stroke="#345AFA" stroke-width="0.47" stroke-miterlimit="10"/>
<path d="M123.35 55.1515C123.35 61.0215 115.27 65.9915 104.14 67.6515" stroke="#345AFA" stroke-width="0.47" stroke-miterlimit="10"/>
<path d="M96 50.9115C108.255 50.9115 118.19 45.821 118.19 39.5415C118.19 33.262 108.255 28.1715 96 28.1715C83.7448 28.1715 73.81 33.262 73.81 39.5415C73.81 45.821 83.7448 50.9115 96 50.9115Z" stroke="#345AFA" stroke-width="0.47" stroke-miterlimit="10"/>
<path d="M96 41.1515C108.255 41.1515 118.19 36.061 118.19 29.7815C118.19 23.502 108.255 18.4115 96 18.4115C83.7448 18.4115 73.81 23.502 73.81 29.7815C73.81 36.061 83.7448 41.1515 96 41.1515Z" stroke="#345AFA" stroke-width="0.47" stroke-miterlimit="10"/>
<path d="M96 38.7815C107.084 38.7815 116.07 34.7521 116.07 29.7815C116.07 24.8109 107.084 20.7815 96 20.7815C84.9156 20.7815 75.93 24.8109 75.93 29.7815C75.93 34.7521 84.9156 38.7815 96 38.7815Z" stroke="#345AFA" stroke-width="0.47" stroke-miterlimit="10"/>
<path d="M66.94 102.031V54.7415" stroke="#345AFA" stroke-width="0.47" stroke-miterlimit="10"/>
<path d="M68.71 102.031V54.7415" stroke="#345AFA" stroke-width="0.47" stroke-miterlimit="10"/>
<path d="M123.35 102.032V76.5815" stroke="#345AFA" stroke-width="0.47" stroke-miterlimit="10"/>
<path d="M125.11 55.0715V102.032" stroke="#345AFA" stroke-width="0.47" stroke-miterlimit="10"/>
<path d="M73.82 40.0815V29.7815" stroke="#345AFA" stroke-width="0.47" stroke-miterlimit="10"/>
<path d="M118.19 40.0115V29.7815" stroke="#345AFA" stroke-width="0.47" stroke-miterlimit="10"/>
<path d="M96 41.1515C83.76 41.1515 73.82 36.0615 73.82 29.7615V40.0615C74.38 46.0615 84.08 50.8815 95.98 50.8815C107.88 50.8815 117.59 46.0815 118.14 40.0615V29.7615C118.19 36.0615 108.26 41.1515 96 41.1515Z" fill="#345AFA"/>
<path d="M87.14 94.3516C80.47 94.3516 75.07 97.4716 75.07 101.352C75.07 105.232 80.47 108.352 87.14 108.352C93.81 108.352 99.2 105.232 99.2 101.352C99.2 97.4716 93.76 94.3516 87.14 94.3516ZM87.14 107.352C81.32 107.352 76.6 104.632 76.6 101.272C76.6 97.9116 81.32 95.1816 87.14 95.1816C92.96 95.1816 97.68 97.9116 97.68 101.272C97.68 104.632 92.96 107.402 87.14 107.402V107.352Z" fill="#345AFA" stroke="#345AFA" stroke-width="0.47" stroke-miterlimit="10"/>
<path d="M87.14 108.281C80.47 108.281 75.07 105.161 75.07 101.281V105.132C75.07 108.982 80.47 112.132 87.14 112.132C93.81 112.132 99.2 109.012 99.2 105.132V101.281C99.2 105.171 93.76 108.281 87.14 108.281Z" stroke="#345AFA" stroke-width="0.47" stroke-miterlimit="10"/>
<path d="M87.14 94.9814C81.07 94.9814 76.14 97.8214 76.14 101.321C76.14 104.821 81.05 107.661 87.14 107.661C93.23 107.661 98.14 104.821 98.14 101.321C98.14 97.8214 93.2 94.9814 87.14 94.9814ZM87.14 104.851C87.0329 104.982 86.8842 105.073 86.7186 105.107C86.553 105.142 86.3806 105.119 86.23 105.041L79.93 101.761C79.8398 101.723 79.7629 101.659 79.7089 101.577C79.6548 101.495 79.626 101.399 79.626 101.301C79.626 101.203 79.6548 101.108 79.7089 101.026C79.7629 100.944 79.8398 100.88 79.93 100.841L86.21 97.5814C86.3597 97.5005 86.5332 97.4751 86.6998 97.5099C86.8664 97.5447 87.0153 97.6373 87.12 97.7714L88.93 100.401C89.1151 100.663 89.2145 100.976 89.2145 101.296C89.2145 101.617 89.1151 101.93 88.93 102.191L87.14 104.851ZM94.03 101.761L88.76 105.041C88.64 105.111 88.5 105.041 88.57 104.901L90.2 102.521C90.4488 102.169 90.5824 101.748 90.5824 101.316C90.5824 100.885 90.4488 100.464 90.2 100.111L88.54 97.7614C88.47 97.6614 88.61 97.5614 88.73 97.6214L94.04 100.871C94.1117 100.922 94.1699 100.989 94.2099 101.067C94.2498 101.145 94.2701 101.231 94.2691 101.319C94.2682 101.407 94.2459 101.493 94.2042 101.57C94.1626 101.647 94.1028 101.713 94.03 101.761Z" fill="#345AFA"/>
<path d="M19.37 110.542C14.19 110.542 10 112.972 10 115.962C10 118.952 14.19 121.372 19.37 121.372C24.55 121.372 28.76 118.952 28.76 115.962C28.76 112.972 24.55 110.542 19.37 110.542ZM19.37 120.692C14.85 120.692 11.18 118.572 11.18 115.962C11.18 113.352 14.85 111.232 19.37 111.232C23.89 111.232 27.57 113.342 27.57 115.962C27.57 118.582 23.9 120.692 19.37 120.692Z" fill="#345AFA" stroke="#345AFA" stroke-width="0.47" stroke-miterlimit="10"/>
<path d="M19.37 121.371C14.19 121.371 10 118.951 10 115.961V118.961C10 121.961 14.19 124.371 19.37 124.371C24.55 124.371 28.76 121.941 28.76 118.951V115.951C28.76 118.951 24.55 121.371 19.37 121.371Z" stroke="#345AFA" stroke-width="0.47" stroke-miterlimit="10"/>
<path d="M19.37 111.031C14.66 111.031 10.84 113.231 10.84 115.961C10.84 118.691 14.66 120.882 19.37 120.882C24.08 120.882 27.91 118.681 27.91 115.961C27.91 113.241 24.09 111.031 19.37 111.031ZM19.37 118.701C19.288 118.803 19.1739 118.873 19.0465 118.9C18.9192 118.927 18.7863 118.91 18.67 118.851L13.76 116.312C13.6881 116.284 13.6263 116.235 13.5826 116.172C13.539 116.109 13.5156 116.033 13.5156 115.956C13.5156 115.88 13.539 115.804 13.5826 115.741C13.6263 115.678 13.6881 115.629 13.76 115.601L18.66 113.062C18.7763 113.003 18.9092 112.986 19.0365 113.013C19.1639 113.04 19.278 113.11 19.36 113.211L20.77 115.211C20.9115 115.416 20.9873 115.658 20.9873 115.906C20.9873 116.155 20.9115 116.397 20.77 116.601L19.37 118.701ZM24.76 116.331L20.64 118.851C20.55 118.851 20.44 118.852 20.49 118.742L21.76 116.891C21.9547 116.619 22.0594 116.292 22.0594 115.956C22.0594 115.621 21.9547 115.294 21.76 115.021L20.49 113.172C20.49 113.092 20.55 113.012 20.64 113.062L24.76 115.591C24.8269 115.627 24.8828 115.681 24.9217 115.746C24.9607 115.811 24.9813 115.886 24.9813 115.961C24.9813 116.037 24.9607 116.112 24.9217 116.177C24.8828 116.242 24.8269 116.296 24.76 116.331Z" fill="#345AFA"/>
<path d="M99.91 6.6515C95.55 1.6115 89.66 -0.438496 86.76 2.0715C83.86 4.5815 85.01 10.7615 89.36 15.7615C93.71 20.7615 99.61 22.8515 102.52 20.3415C105.43 17.8315 104.27 11.6915 99.91 6.6515ZM90.03 15.1815C86.22 10.7615 85.2 5.4215 87.76 3.2215C90.32 1.0215 95.45 2.8215 99.25 7.2215C103.05 11.6215 104.08 16.9815 101.54 19.2215C99 21.4615 93.84 19.5915 90.03 15.1815Z" fill="#345AFA" stroke="#345AFA" stroke-width="0.47" stroke-miterlimit="10"/>
<path d="M89.36 15.7615C85.01 10.7615 83.84 4.59153 86.76 2.07153L83.83 4.59153C80.92 7.10153 82.09 13.2315 86.45 18.2715C90.81 23.3115 96.7 25.3715 99.61 22.8515L102.52 20.3415C99.61 22.8515 93.76 20.7615 89.36 15.7615Z" fill="white" stroke="#345AFA" stroke-width="0.47" stroke-miterlimit="10"/>
<path d="M93.18 6.12146C93.18 6.12146 93.1 6.12146 93.09 6.21146L92.35 11.9715L95.77 8.97146L93.35 6.21146C93.329 6.18598 93.3032 6.1649 93.274 6.14946C93.2448 6.13401 93.2129 6.12449 93.18 6.12146Z" fill="#345AFA"/>
<path d="M99.39 13.2115L96.96 10.4015L93.54 13.3515L99.36 13.4615C99.43 13.4615 99.45 13.4615 99.45 13.3815C99.454 13.3504 99.4506 13.3189 99.4402 13.2893C99.4298 13.2598 99.4126 13.2332 99.39 13.2115Z" fill="#345AFA"/>
<path d="M99.43 7.06155C95.43 2.47155 90.11 0.601549 87.43 2.89155C84.75 5.18155 85.87 10.7615 89.84 15.3515C93.81 19.9415 99.16 21.8015 101.84 19.5115C104.52 17.2215 103.4 11.6515 99.43 7.06155ZM99.92 15.0615L92.25 14.7015C91.8564 14.6525 91.4975 14.4516 91.25 14.1415C90.9913 13.8724 90.8448 13.5149 90.84 13.1415L91.6 5.49155C91.6059 5.27969 91.688 5.07706 91.8313 4.9209C91.9746 4.76475 92.1695 4.66555 92.38 4.64155C92.7394 4.64271 93.0935 4.72732 93.4145 4.88871C93.7356 5.0501 94.0148 5.28386 94.23 5.57155L100.23 12.5015C100.489 12.7601 100.683 13.0758 100.798 13.4231C100.912 13.7704 100.944 14.1398 100.89 14.5015C100.812 14.6863 100.673 14.8392 100.497 14.9354C100.321 15.0316 100.118 15.0655 99.92 15.0315V15.0615Z" fill="#345AFA"/>
<path d="M53.68 118.352C47.02 118.352 41.61 121.472 41.61 125.352C41.61 129.232 47.02 132.352 53.68 132.352C60.34 132.352 65.75 129.232 65.75 125.352C65.75 121.472 60.35 118.352 53.68 118.352ZM53.68 131.352C47.86 131.352 43.14 128.632 43.14 125.272C43.14 121.912 47.86 119.182 53.68 119.182C59.5 119.182 64.22 121.912 64.22 125.272C64.22 128.632 59.5 131.402 53.68 131.402V131.352Z" fill="#345AFA" stroke="#345AFA" stroke-width="0.47" stroke-miterlimit="10"/>
<path d="M53.68 132.292C47.02 132.292 41.61 129.172 41.61 125.292V129.142C41.61 132.992 47.02 136.142 53.68 136.142C60.34 136.142 65.75 133.022 65.75 129.142V125.292C65.76 129.172 60.34 132.292 53.68 132.292Z" fill="white" stroke="#345AFA" stroke-width="0.47" stroke-miterlimit="10"/>
<path d="M48.88 123.101C48.8715 123.109 48.8647 123.118 48.86 123.129C48.8553 123.139 48.8529 123.15 48.8529 123.161C48.8529 123.173 48.8553 123.184 48.86 123.194C48.8647 123.205 48.8715 123.214 48.88 123.221L52.76 127.551V123.031H49.06C49.0267 123.029 48.9934 123.035 48.9623 123.047C48.9312 123.059 48.9031 123.077 48.88 123.101Z" fill="#345AFA"/>
<path d="M58.3 123.032H54.59V127.552L58.47 123.222C58.4785 123.214 58.4854 123.205 58.49 123.194C58.4947 123.184 58.4971 123.173 58.4971 123.162C58.4971 123.15 58.4947 123.139 58.49 123.129C58.4854 123.118 58.4785 123.109 58.47 123.102C58.448 123.079 58.4216 123.061 58.3923 123.049C58.3631 123.037 58.3317 123.031 58.3 123.032Z" fill="#345AFA"/>
<path d="M53.68 118.981C47.62 118.981 42.68 121.821 42.68 125.321C42.68 128.821 47.6 131.661 53.68 131.661C59.76 131.661 64.68 128.821 64.68 125.321C64.68 121.821 59.76 118.981 53.68 118.981ZM60.03 123.821L54.76 129.391C54.4612 129.637 54.0866 129.771 53.7 129.771C53.3134 129.771 52.9387 129.637 52.64 129.391L47.35 123.821C47.1888 123.679 47.0855 123.482 47.0597 123.268C47.0339 123.054 47.0874 122.838 47.21 122.661C47.4476 122.394 47.7433 122.185 48.0744 122.05C48.4055 121.914 48.7632 121.857 49.12 121.881H58.26C58.6178 121.856 58.9768 121.914 59.3083 122.051C59.6398 122.188 59.9348 122.4 60.17 122.671C60.2919 122.847 60.3451 123.061 60.3192 123.273C60.2934 123.485 60.1905 123.68 60.03 123.821Z" fill="#345AFA"/>
<path d="M109.62 91.8415C103.41 89.4215 97.24 90.3615 95.84 93.9515C94.44 97.5415 98.34 102.401 104.55 104.821C110.76 107.241 116.93 106.301 118.33 102.721C119.73 99.1415 115.82 94.2615 109.62 91.8415ZM104.87 104.001C99.45 101.891 96.04 97.6315 97.26 94.5015C98.48 91.3715 103.87 90.5515 109.26 92.6615C114.65 94.7715 118.09 99.0315 116.87 102.161C115.65 105.291 110.3 106.121 104.87 104.001Z" fill="#345AFA" stroke="#345AFA" stroke-width="0.47" stroke-miterlimit="10"/>
<path d="M104.55 104.821C98.34 102.401 94.44 97.5314 95.84 93.9514L94.44 97.5314C93.04 101.121 96.94 105.991 103.15 108.411C109.36 110.831 115.53 109.891 116.93 106.301L118.33 102.721C116.93 106.301 110.76 107.241 104.55 104.821Z" fill="white" stroke="#345AFA" stroke-width="0.47" stroke-miterlimit="10"/>
<path d="M107.08 104.252C111.189 104.252 114.52 101.821 114.52 98.8216C114.52 95.8227 111.189 93.3916 107.08 93.3916C102.971 93.3916 99.64 95.8227 99.64 98.8216C99.64 101.821 102.971 104.252 107.08 104.252Z" fill="white"/>
<path d="M109.39 92.4315C103.76 90.2215 98.13 91.0815 96.85 94.3415C95.57 97.6015 99.13 102.032 104.78 104.242C110.43 106.452 116.04 105.582 117.31 102.322C118.58 99.0615 115.04 94.6315 109.39 92.4315ZM109.39 102.992C109.28 103.272 109.23 103.402 109.12 103.462C109.055 103.489 108.985 103.504 108.915 103.504C108.845 103.504 108.775 103.489 108.71 103.462C108.51 103.346 108.331 103.197 108.18 103.022L101.76 96.7615C101.49 96.5015 101.36 96.3615 101.33 96.2515C101.316 96.1938 101.32 96.1331 101.341 96.0776C101.363 96.0222 101.401 95.9746 101.45 95.9415C101.666 95.8698 101.894 95.8426 102.12 95.8615L103.92 95.7615C104.199 95.7315 104.481 95.7315 104.76 95.7615C104.98 95.8028 105.19 95.8841 105.38 96.0015C105.602 96.1595 105.806 96.3405 105.99 96.5415L109.36 99.8515C109.561 100.029 109.739 100.23 109.89 100.452C109.988 100.611 110.044 100.794 110.05 100.982C110.018 101.2 109.954 101.412 109.86 101.612L109.39 102.992ZM111.22 98.2915C111.11 98.5715 111.06 98.7115 110.95 98.7715C110.885 98.7993 110.815 98.8136 110.745 98.8136C110.675 98.8136 110.605 98.7993 110.54 98.7715C110.41 98.7715 110.28 98.6015 110.01 98.3315L108.22 96.5315C107.95 96.2615 107.82 96.1315 107.79 96.0215C107.778 95.9652 107.783 95.9067 107.804 95.8532C107.826 95.7998 107.862 95.754 107.91 95.7215C108.109 95.6398 108.326 95.6088 108.54 95.6315L111.07 95.5215C111.288 95.485 111.512 95.485 111.73 95.5215C111.795 95.5477 111.855 95.5869 111.905 95.6367C111.955 95.6866 111.994 95.746 112.02 95.8115C112.02 95.9315 112.02 96.0715 111.9 96.3515L111.22 98.2915Z" fill="#345AFA"/>
<path d="M160.643 61.3023L162.756 49.5913L166.537 50.2735C167.714 50.4857 168.709 50.9215 169.523 51.5809C170.337 52.2402 170.918 53.0561 171.266 54.0288C171.615 55.0015 171.685 56.065 171.477 57.2194C171.322 58.0782 171.034 58.8411 170.615 59.5082C170.196 60.1697 169.672 60.7114 169.043 61.1335C168.42 61.5565 167.714 61.8438 166.927 61.9954C166.145 62.1481 165.311 62.1444 164.424 61.9844L160.643 61.3023ZM163.183 59.6703L164.589 59.9239C165.174 60.0295 165.722 60.0391 166.233 59.9528C166.744 59.8664 167.202 59.6899 167.607 59.4233C168.018 59.1577 168.358 58.8044 168.627 58.3636C168.902 57.9238 169.094 57.4056 169.201 56.8089C169.347 56.0003 169.307 55.2819 169.081 54.6537C168.861 54.0209 168.483 53.5007 167.946 53.0929C167.416 52.6805 166.757 52.4034 165.971 52.2616L164.566 52.008L163.183 59.6703ZM175.4 64.2237C174.508 64.0627 173.752 63.7191 173.133 63.1928C172.521 62.662 172.08 62.0268 171.81 61.2871C171.541 60.5419 171.479 59.7678 171.624 58.9648C171.731 58.3737 171.944 57.8305 172.264 57.3354C172.583 56.8403 172.983 56.4259 173.464 56.0923C173.951 55.7541 174.495 55.5182 175.095 55.3845C175.696 55.2454 176.331 55.2361 177 55.3569C177.886 55.5168 178.637 55.8595 179.25 56.3847C179.869 56.911 180.313 57.5467 180.582 58.2919C180.856 59.0381 180.92 59.8128 180.776 60.6158C180.669 61.2069 180.453 61.7495 180.128 62.2436C179.809 62.7332 179.409 63.1476 178.927 63.4868C178.446 63.826 177.905 64.0652 177.304 64.2044C176.704 64.338 176.069 64.3444 175.4 64.2237ZM175.738 62.35C176.207 62.4345 176.643 62.4068 177.049 62.2668C177.461 62.1223 177.807 61.8796 178.087 61.5386C178.368 61.1921 178.556 60.7567 178.651 60.2325C178.745 59.7083 178.721 59.2347 178.579 58.8116C178.436 58.3886 178.2 58.0407 177.869 57.768C177.538 57.4953 177.136 57.3161 176.662 57.2306C176.188 57.1451 175.745 57.1718 175.334 57.3107C174.929 57.4507 174.586 57.6939 174.304 58.0405C174.029 58.388 173.844 58.8239 173.749 59.3481C173.654 59.8723 173.678 60.3459 173.821 60.7689C173.964 61.1864 174.201 61.5343 174.531 61.8126C174.862 62.0853 175.264 62.2644 175.738 62.35ZM184.349 69.4485C184.02 69.3891 183.703 69.2945 183.398 69.1647C183.093 69.0348 182.807 68.8624 182.541 68.6474L183.345 66.9182C183.499 67.0553 183.677 67.1709 183.879 67.2649C184.081 67.3589 184.268 67.4215 184.441 67.4527C184.798 67.5171 185.103 67.4857 185.356 67.3587C185.608 67.2372 185.825 67.0086 186.007 66.6728L186.353 66.0443L184.602 56.9874L186.935 57.4085L187.969 64.0297L191.193 58.1766L193.46 58.5856L188.193 67.3867C187.802 68.0188 187.402 68.4965 186.993 68.82C186.582 69.149 186.156 69.3571 185.714 69.4444C185.278 69.5326 184.823 69.534 184.349 69.4485ZM196.221 67.9801C195.329 67.8191 194.573 67.4755 193.954 66.9492C193.342 66.4183 192.9 65.7831 192.631 65.0435C192.362 64.2983 192.3 63.5242 192.445 62.7211C192.552 62.13 192.765 61.5869 193.085 61.0918C193.404 60.5967 193.804 60.1823 194.285 59.8486C194.772 59.5104 195.316 59.2745 195.915 59.1409C196.516 59.0017 197.151 58.9925 197.821 59.1132C198.707 59.2732 199.457 59.6158 200.071 60.1411C200.69 60.6673 201.134 61.3031 201.402 62.0483C201.677 62.7945 201.741 63.5691 201.596 64.3721C201.49 64.9633 201.274 65.5059 200.949 66C200.63 66.4895 200.23 66.9039 199.748 67.2431C199.267 67.5824 198.726 67.8216 198.125 67.9607C197.525 68.0944 196.89 68.1008 196.221 67.9801ZM196.559 66.1063C197.027 66.1908 197.464 66.1631 197.87 66.0232C198.281 65.8787 198.628 65.6359 198.908 65.295C199.189 64.9484 199.377 64.513 199.472 63.9888C199.566 63.4646 199.542 62.991 199.4 62.568C199.257 62.145 199.021 61.7971 198.69 61.5243C198.359 61.2516 197.957 61.0725 197.483 60.987C197.009 60.9014 196.566 60.9281 196.155 61.0671C195.75 61.207 195.407 61.4503 195.125 61.7968C194.85 62.1444 194.664 62.5803 194.57 63.1045C194.475 63.6287 194.499 64.1023 194.642 64.5253C194.785 64.9427 195.022 65.2906 195.352 65.5689C195.683 65.8417 196.085 66.0208 196.559 66.1063ZM204.968 69.5582C204.215 69.4224 203.618 69.1591 203.176 68.7684C202.74 68.3788 202.447 67.9113 202.297 67.3662C202.149 66.8154 202.131 66.2278 202.244 65.6032L203.193 60.3416L205.335 60.728L204.452 65.6215C204.355 66.1568 204.431 66.6139 204.68 66.9927C204.929 67.3659 205.333 67.6028 205.89 67.7034C206.247 67.7678 206.582 67.7448 206.896 67.6344C207.211 67.5184 207.475 67.33 207.689 67.0692C207.903 66.8084 208.045 66.4856 208.114 66.1008L208.965 61.3829L211.107 61.7693L209.598 70.1342L207.707 69.7932L207.879 68.8396C207.507 69.1467 207.081 69.3721 206.6 69.5157C206.125 69.6547 205.582 69.6689 204.968 69.5582ZM214.407 71.0019L216.58 58.9564L218.721 59.3427L216.548 71.3882L214.407 71.0019ZM218.178 71.6822L219.687 63.3172L221.828 63.7036L220.319 72.0685L218.178 71.6822ZM221.011 62.1051C220.643 62.0387 220.346 61.8642 220.121 61.5817C219.895 61.2992 219.817 60.9656 219.887 60.5808C219.956 60.196 220.146 59.9106 220.456 59.7247C220.766 59.5388 221.105 59.479 221.473 59.5454C221.841 59.6118 222.138 59.7863 222.363 60.0688C222.588 60.3513 222.666 60.685 222.597 61.0697C222.528 61.4545 222.338 61.7399 222.028 61.9258C221.718 62.1117 221.379 62.1715 221.011 62.1051ZM221.948 72.3625L224.122 60.317L226.263 60.7033L225.024 67.5709L228.627 64.9302L231.137 65.3829L227.604 68.114L230.004 73.8158L227.453 73.3555L225.796 69.2303L224.567 70.1055L224.09 72.7488L221.948 72.3625ZM234.358 74.8605C233.449 74.6965 232.685 74.3686 232.065 73.8768C231.447 73.3794 231.005 72.7642 230.74 72.0311C230.48 71.2991 230.43 70.4925 230.589 69.6114C230.706 68.9645 230.922 68.3902 231.237 67.8885C231.558 67.3879 231.954 66.9758 232.427 66.6523C232.907 66.3242 233.437 66.1002 234.017 65.9803C234.603 65.8614 235.219 65.8603 235.866 65.977C236.568 66.1038 237.173 66.3425 237.68 66.693C238.188 67.038 238.582 67.469 238.863 67.9861C239.151 68.4987 239.313 69.0691 239.349 69.6976C239.392 70.3214 239.294 70.9774 239.054 71.6655L232.513 70.4854C232.428 70.9249 232.462 71.3283 232.614 71.6956C232.772 72.0639 233.032 72.3785 233.394 72.6395C233.762 72.896 234.217 73.073 234.758 73.1706C235.238 73.2572 235.71 73.2704 236.176 73.2105C236.642 73.1506 237.089 73.0182 237.517 72.8134L238 74.4465C237.7 74.6111 237.34 74.7363 236.922 74.822C236.503 74.9077 236.069 74.9532 235.619 74.9584C235.174 74.9645 234.754 74.9319 234.358 74.8605ZM232.913 68.9856L237.255 69.7689C237.34 69.2026 237.232 68.7283 236.933 68.3461C236.634 67.9582 236.164 67.7065 235.523 67.5908C234.887 67.4761 234.334 67.5432 233.863 67.7922C233.393 68.0356 233.076 68.4334 232.913 68.9856ZM241.233 71.9464C241.198 71.3124 241.234 70.8093 241.342 70.4371C241.45 70.0594 241.634 69.7585 241.893 69.5347C242.158 69.3118 242.502 69.1119 242.925 68.9349C243.523 68.6858 243.932 68.4602 244.153 68.2582C244.374 68.0561 244.51 67.8129 244.561 67.5285C244.642 67.0824 244.543 66.7219 244.264 66.4471C243.992 66.1676 243.56 65.9746 242.969 65.868C242.534 65.7895 242.127 65.7794 241.748 65.8377C241.375 65.897 241.003 66.0085 240.634 66.1722L240.442 64.3152C240.637 64.1948 240.903 64.093 241.24 64.01C241.579 63.9213 241.968 63.8678 242.409 63.8495C242.85 63.8311 243.316 63.8662 243.807 63.9548C244.532 64.0856 245.16 64.3199 245.692 64.6577C246.224 64.9956 246.616 65.4117 246.866 65.906C247.123 66.4014 247.197 66.9474 247.089 67.5441C247.028 67.8842 246.909 68.191 246.733 68.4645C246.557 68.7379 246.298 68.9935 245.956 69.2311C245.619 69.4698 245.175 69.7094 244.625 69.9499C244.245 70.1116 243.955 70.281 243.756 70.4581C243.563 70.6363 243.429 70.8684 243.354 71.1543C243.286 71.4357 243.243 71.8195 243.224 72.3055L241.233 71.9464ZM241.57 76.1616C241.18 76.0911 240.864 75.9076 240.624 75.6109C240.385 75.3086 240.303 74.9512 240.377 74.5385C240.427 74.2597 240.535 74.0287 240.701 73.8455C240.872 73.6633 241.076 73.536 241.314 73.4637C241.551 73.3915 241.801 73.3789 242.063 73.4262C242.459 73.4977 242.774 73.684 243.008 73.9853C243.248 74.2819 243.33 74.6394 243.255 75.0577C243.205 75.3309 243.095 75.5586 242.924 75.7408C242.759 75.924 242.557 76.0518 242.319 76.1241C242.082 76.1964 241.832 76.2089 241.57 76.1616ZM164.456 79.2646L166.569 67.5536L170.349 68.2357C171.526 68.448 172.521 68.8838 173.335 69.5431C174.149 70.2024 174.73 71.0184 175.079 71.9911C175.427 72.9638 175.498 74.0273 175.289 75.1816C175.134 76.0404 174.847 76.8034 174.427 77.4704C174.008 78.1319 173.485 78.6737 172.856 79.0957C172.232 79.5188 171.527 79.8061 170.739 79.9577C169.958 80.1103 169.123 80.1067 168.237 79.9467L164.456 79.2646ZM166.996 77.6326L168.401 77.8861C168.987 77.9918 169.535 78.0014 170.046 77.9151C170.556 77.8287 171.014 77.6522 171.419 77.3856C171.83 77.1199 172.17 76.7667 172.44 76.3259C172.715 75.8861 172.906 75.3678 173.014 74.7711C173.16 73.9625 173.12 73.2441 172.893 72.616C172.673 71.9832 172.295 71.463 171.758 71.0552C171.228 70.6428 170.57 70.3657 169.784 70.2238L168.378 69.9703L166.996 77.6326ZM179.213 82.186C178.32 82.025 177.565 81.6814 176.946 81.1551C176.333 80.6243 175.892 79.989 175.622 79.2494C175.354 78.5042 175.292 77.7301 175.437 76.9271C175.544 76.3359 175.757 75.7928 176.076 75.2977C176.396 74.8026 176.796 74.3882 177.277 74.0546C177.764 73.7163 178.307 73.4804 178.907 73.3468C179.508 73.2076 180.143 73.1984 180.812 73.3191C181.699 73.4791 182.449 73.8217 183.063 74.347C183.682 74.8733 184.126 75.509 184.394 76.2542C184.668 77.0004 184.733 77.775 184.588 78.5781C184.481 79.1692 184.266 79.7118 183.94 80.2059C183.622 80.6955 183.222 81.1098 182.74 81.4491C182.258 81.7883 181.717 82.0275 181.116 82.1667C180.516 82.3003 179.882 82.3067 179.213 82.186ZM179.551 80.3122C180.019 80.3968 180.456 80.369 180.861 80.2291C181.273 80.0846 181.619 79.8419 181.9 79.5009C182.181 79.1543 182.369 78.719 182.463 78.1947C182.558 77.6705 182.534 77.1969 182.392 76.7739C182.249 76.3509 182.012 76.003 181.682 75.7303C181.351 75.4575 180.948 75.2784 180.474 75.1929C180 75.1074 179.558 75.1341 179.147 75.273C178.742 75.4129 178.398 75.6562 178.117 76.0027C177.841 76.3503 177.656 76.7862 177.562 77.3104C177.467 77.8346 177.491 78.3082 177.633 78.7312C177.777 79.1487 178.014 79.4965 178.343 79.7749C178.674 80.0476 179.077 80.2267 179.551 80.3122ZM184.76 82.9276L186.269 74.5627L188.41 74.949L188.229 75.9528C188.643 75.5726 189.091 75.3252 189.572 75.2105C190.06 75.0912 190.549 75.0758 191.04 75.1644C191.81 75.3032 192.418 75.5713 192.864 75.9685C193.317 76.3668 193.622 76.8279 193.781 77.3517C193.94 77.8756 193.972 78.3996 193.877 78.9238L192.89 84.3945L190.749 84.0082L191.615 79.2067C191.718 78.6379 191.635 78.1565 191.366 77.7625C191.097 77.3686 190.668 77.1183 190.076 77.0116C189.692 76.9422 189.333 76.9668 189.001 77.0853C188.675 77.1993 188.401 77.3945 188.178 77.6711C187.956 77.9476 187.808 78.2866 187.736 78.6881L186.901 83.314L184.76 82.9276ZM197.913 85.5597C197.093 85.4118 196.399 85.0909 195.832 84.597C195.27 84.1041 194.869 83.4904 194.627 82.7558C194.385 82.0212 194.342 81.2245 194.497 80.3657C194.613 79.7188 194.824 79.1435 195.127 78.6398C195.431 78.1361 195.806 77.7199 196.251 77.3914C196.702 77.0639 197.203 76.8377 197.755 76.7127C198.313 76.5888 198.899 76.5822 199.512 76.6929C200.321 76.8387 200.97 77.1344 201.46 77.5797C201.95 78.0251 202.281 78.5484 202.455 79.1498L202.071 79.5556L202.445 77.4811L204.327 77.8206L202.818 86.1856L200.936 85.846L201.31 83.7715L201.528 84.2859C201.155 84.7887 200.662 85.1632 200.047 85.4093C199.433 85.6555 198.721 85.7056 197.913 85.5597ZM198.569 83.7433C199.031 83.8268 199.463 83.7981 199.862 83.6572C200.263 83.5106 200.604 83.2669 200.884 82.9259C201.165 82.5794 201.353 82.144 201.448 81.6198C201.542 81.0956 201.518 80.622 201.376 80.1989C201.233 79.7759 201 79.4285 200.674 79.1568C200.349 78.8851 199.955 78.7075 199.492 78.624C199.029 78.5404 198.595 78.5687 198.19 78.7086C197.79 78.8495 197.45 79.0933 197.168 79.4398C196.893 79.7874 196.707 80.2233 196.613 80.7475C196.518 81.2717 196.539 81.7448 196.676 82.1668C196.82 82.5843 197.054 82.9316 197.378 83.2089C197.709 83.4817 198.106 83.6598 198.569 83.7433ZM207.983 87.3765C207.124 87.2216 206.488 86.8535 206.075 86.2722C205.661 85.6909 205.544 84.9039 205.723 83.9113L207.181 75.8307L209.323 76.2171L208.885 78.6429L211.085 79.0398L210.771 80.7797L208.571 80.3828L207.942 83.871C207.845 84.4064 207.883 84.8047 208.054 85.066C208.227 85.3217 208.5 85.4833 208.874 85.5507C209.063 85.5849 209.246 85.5948 209.421 85.5803C209.602 85.5669 209.772 85.537 209.93 85.4907L209.956 87.2575C209.688 87.3415 209.381 87.3984 209.036 87.4283C208.691 87.4582 208.34 87.4409 207.983 87.3765ZM204.665 79.678L204.979 77.9381L206.986 78.3003L206.672 80.0402L204.665 79.678ZM214.677 88.5842C213.768 88.4202 213.004 88.0923 212.384 87.6005C211.766 87.1031 211.324 86.4879 211.059 85.7549C210.799 85.0228 210.749 84.2162 210.908 83.3351C211.025 82.6883 211.241 82.114 211.556 81.6123C211.876 81.1116 212.273 80.6995 212.746 80.376C213.226 80.0479 213.755 79.8239 214.336 79.704C214.921 79.5851 215.538 79.584 216.185 79.7007C216.887 79.8275 217.492 80.0662 217.999 80.4167C218.507 80.7617 218.901 81.1927 219.182 81.7098C219.47 82.2224 219.632 82.7929 219.668 83.4213C219.711 84.0452 219.613 84.7011 219.373 85.3893L212.832 84.2091C212.747 84.6487 212.781 85.0521 212.933 85.4193C213.091 85.7876 213.351 86.1022 213.713 86.3633C214.081 86.6197 214.536 86.7968 215.077 86.8943C215.556 86.9809 216.029 86.9942 216.495 86.9342C216.96 86.8743 217.408 86.7419 217.836 86.5371L218.319 88.1702C218.018 88.3348 217.659 88.46 217.24 88.5457C216.822 88.6315 216.388 88.6769 215.938 88.6821C215.493 88.6883 215.073 88.6556 214.677 88.5842ZM213.232 82.7093L217.573 83.4926C217.658 82.9263 217.551 82.452 217.251 82.0698C216.953 81.682 216.483 81.4302 215.842 81.3145C215.206 81.1998 214.653 81.2669 214.181 81.5159C213.711 81.7594 213.395 82.1571 213.232 82.7093ZM226.092 90.6437C225.339 90.5079 224.742 90.2446 224.3 89.8539C223.864 89.4642 223.571 88.9968 223.422 88.4517C223.273 87.9009 223.256 87.3133 223.368 86.6887L224.318 81.4271L226.459 81.8135L225.576 86.707C225.48 87.2423 225.555 87.6994 225.804 88.0782C226.053 88.4514 226.457 88.6883 227.014 88.7889C227.371 88.8533 227.706 88.8303 228.02 88.7199C228.335 88.6039 228.599 88.4155 228.813 88.1547C229.027 87.8939 229.169 87.5711 229.238 87.1863L230.089 82.4684L232.231 82.8548L230.722 91.2197L228.831 90.8787L229.003 89.9251C228.631 90.2322 228.205 90.4576 227.724 90.6012C227.25 90.7402 226.706 90.7543 226.092 90.6437ZM235.232 92.284C234.513 92.1542 233.861 91.9359 233.278 91.629C232.699 91.3232 232.226 90.9614 231.858 90.5438L232.877 89.1557C233.237 89.5257 233.649 89.8419 234.114 90.1043C234.579 90.3667 235.049 90.5407 235.523 90.6262C236.025 90.7168 236.43 90.7036 236.739 90.5866C237.048 90.4696 237.23 90.2605 237.284 89.9594C237.335 89.675 237.25 89.4437 237.029 89.2656C236.808 89.0875 236.37 88.8646 235.716 88.5968C234.672 88.1897 233.943 87.7356 233.526 87.2344C233.111 86.7276 232.969 86.1089 233.101 85.3784C233.195 84.8598 233.419 84.4281 233.775 84.0835C234.137 83.7399 234.588 83.5046 235.129 83.3777C235.677 83.2461 236.28 83.2397 236.938 83.3585C237.579 83.4742 238.168 83.6726 238.704 83.9536C239.247 84.2357 239.695 84.5757 240.049 84.9736L239.062 86.3761C238.878 86.1528 238.658 85.9491 238.404 85.765C238.149 85.5808 237.872 85.4244 237.573 85.2955C237.279 85.1677 236.982 85.0766 236.681 85.0223C236.24 84.9428 235.869 84.9565 235.568 85.0633C235.272 85.1712 235.098 85.3673 235.047 85.6517C234.996 85.9361 235.083 86.1707 235.309 86.3554C235.535 86.5345 235.964 86.7587 236.595 87.028C237.667 87.469 238.407 87.9307 238.815 88.4132C239.224 88.8956 239.363 89.4938 239.235 90.2076C239.136 90.7541 238.902 91.2042 238.533 91.558C238.165 91.9062 237.696 92.1468 237.125 92.2799C236.56 92.4084 235.929 92.4098 235.232 92.284Z" fill="black"/>
<rect x="0.25" y="0.25" width="299.5" height="146.5" rx="4.75" stroke="#EDEFF4" stroke-width="0.5"/>
</svg>
