<svg width="300" height="147" viewBox="0 0 300 147" fill="none" xmlns="http://www.w3.org/2000/svg">
<rect x="0.25" y="0.25" width="299.5" height="146.5" rx="4.75" fill="#F9FAFE"/>
<path d="M20.09 77.2715H18.24V74.7015H15.67V72.8515H18.24V70.2815H20.09V72.8515H22.66V74.7015H20.09V77.2715ZM18.58 76.9315H19.76V74.3615H22.33V73.1915H19.76V70.6315H18.58V73.1915H16.01V74.3615H18.58V76.9315Z" fill="#E6F19E"/>
<path d="M19.92 73.0215V70.4515H18.41V73.0215H15.84V74.5315H18.41" fill="#9AB9A4"/>
<path d="M47.63 46.8915H45.76V44.3315H43.22V42.4815H45.76V39.9115H47.61V42.4815H50.18V44.3315H47.63V46.8915ZM46.12 46.5515H47.29V43.9815H49.86V42.8215H47.29V40.2515H46.12V42.8215H43.56V43.9815H46.12V46.5515Z" fill="#E6F19E"/>
<path d="M47.46 42.6515V40.0815H45.95V42.6515H43.39V44.1615H45.95" fill="#E6F19E"/>
<path d="M167.76 24.3515H165.91V21.7615H163.34V19.9415H165.91V17.3715H167.76V19.9415H170.32V21.7615H167.76V24.3515ZM166.25 24.0115H167.41V21.4415H169.98V20.2815H167.41V17.7615H166.25V20.3315H163.68V21.4915H166.25V24.0115Z" fill="#E6F19E"/>
<path d="M167.58 20.1115V17.5415H166.08V20.1115H163.51V21.6215H166.08" fill="#454545"/>
<path d="M141.25 35.6815H139.4V33.1215H136.83V31.2715H139.4V28.7015H141.25V31.2715H143.82V33.1215H141.25V35.6815ZM139.76 35.3415H140.93V32.7615H143.49V31.6115H140.93V29.0415H139.76V31.6115H137.19V32.7615H139.76V35.3415Z" fill="#E6F19E"/>
<path d="M141.08 31.4415V28.8715H139.57V31.4415H137V32.9515H139.57" fill="#FF4553"/>
<path d="M160.84 63.7615H158.99V61.2315H156.42V59.3815H158.99V56.8115H160.84V59.3815H163.4V61.2315H160.84V63.7615ZM159.33 63.4215H160.49V60.8915H163.06V59.7615H160.49V57.1515H159.33V59.7615H156.76V60.9315H159.33V63.4215Z" fill="#E6F19E"/>
<path d="M160.66 59.5514V56.9814H159.16V59.5514H156.59V61.0614H159.16" fill="#9747FF"/>
<path d="M21.37 22.0215H19.52V19.4515H16.96V17.6015H19.52V15.0315H21.37V17.6015H23.94V19.4515H21.37V22.0215ZM19.87 21.6715H21.03V19.1115H23.6V17.9415H21.03V15.3715H19.87V17.9415H17.3V19.1115H19.87V21.6715Z" fill="#E6F19E"/>
<path d="M21.2 17.7715V15.2015H19.7V17.7715H17.13V19.2815H19.7" fill="#F4B8C2"/>
<path d="M85.59 60.3715C82.47 66.2615 82.7 72.4915 86.1 74.2915C89.5 76.0915 94.76 72.7615 97.91 66.8915C101.06 61.0215 100.76 54.7615 97.4 52.9615C94.04 51.1615 88.76 54.4815 85.59 60.3715ZM97.13 66.4715C94.4 71.6215 89.79 74.5215 86.82 72.9415C83.85 71.3615 83.65 65.9415 86.37 60.7815C89.09 55.6215 93.76 52.7615 96.68 54.3115C99.6 55.8615 99.85 61.3315 97.13 66.4715Z" fill="#345AFA" stroke="#345AFA" stroke-width="0.47" stroke-miterlimit="10"/>
<path d="M97.91 66.8915C94.76 72.7615 89.5 76.0915 86.1 74.2915L89.51 76.0915C92.91 77.8915 98.19 74.5815 101.31 68.6915C104.43 62.8015 104.2 56.5615 100.76 54.7615L97.36 52.9615C100.76 54.7615 101.02 61.0015 97.91 66.8915Z" stroke="#345AFA" stroke-width="0.47" stroke-miterlimit="10"/>
<path d="M86.15 60.6615C83.31 66.0215 83.52 71.6615 86.61 73.3315C89.7 75.0015 94.51 71.9515 97.35 66.5915C100.19 61.2315 99.98 55.5915 96.89 53.9215C93.8 52.2515 88.98 55.3015 86.15 60.6615ZM97.08 59.4215C97.46 59.6215 97.49 60.3015 97.15 60.9515L97.02 61.1915C96.8654 61.5132 96.6182 61.7813 96.31 61.9615L87.88 66.2415C87.82 66.2415 87.78 66.3915 87.83 66.4215L91.44 68.3215C91.44 68.3215 91.55 68.3215 91.56 68.2015V65.3415C91.56 65.0615 91.89 64.8415 91.94 65.0715L92.76 68.4215C92.8464 68.8259 92.7749 69.2481 92.56 69.6015C92.22 70.2415 91.64 70.6015 91.25 70.4015L86.18 67.7615C85.8 67.5615 85.77 66.8715 86.11 66.2415L86.23 66.0015C86.3878 65.6787 86.6386 65.4105 86.95 65.2315L95.38 60.9515C95.44 60.9515 95.48 60.8015 95.38 60.7715L91.77 58.8615C91.77 58.8615 91.66 58.9115 91.65 58.9915V61.8515C91.65 62.1315 91.33 62.3515 91.27 62.1215L90.48 58.7615C90.4029 58.3525 90.4775 57.9294 90.69 57.5715C91.03 56.9215 91.62 56.5715 92 56.7615L97.08 59.4215Z" fill="#345AFA"/>
<path d="M42.58 94.4814C38.78 94.4814 35.71 96.2614 35.71 98.4814C35.71 100.701 38.78 102.481 42.58 102.481C46.38 102.481 49.45 100.711 49.45 98.4814C49.45 96.2514 46.37 94.4814 42.58 94.4814ZM42.58 101.911C39.26 101.911 36.58 100.361 36.58 98.4514C36.58 96.5414 39.26 94.9814 42.58 94.9814C45.9 94.9814 48.58 96.5314 48.58 98.4514C48.58 100.371 45.89 101.911 42.58 101.911Z" fill="#345AFA" stroke="#345AFA" stroke-width="0.47" stroke-miterlimit="10"/>
<path d="M42.58 102.411C38.78 102.411 35.71 100.641 35.71 98.4115V100.601C35.71 102.791 38.78 104.601 42.58 104.601C46.38 104.601 49.45 102.831 49.45 100.601V98.4515C49.45 100.641 46.37 102.411 42.58 102.411Z" stroke="#345AFA" stroke-width="0.47" stroke-miterlimit="10"/>
<path d="M42.58 94.8416C39.13 94.8416 36.33 96.4516 36.33 98.4516C36.33 100.452 39.13 102.062 42.58 102.062C46.03 102.062 48.83 100.442 48.83 98.4516C48.83 96.4616 46.03 94.8416 42.58 94.8416ZM46.12 100.012C46.12 100.252 45.78 100.452 45.36 100.452H45.21C45.0048 100.459 44.8023 100.403 44.63 100.292L40.23 97.2016H40.13V99.5216C40.13 99.5216 40.19 99.5216 40.23 99.5216L41.68 98.7815C41.82 98.7115 42.02 98.7816 41.91 98.9016L40.44 100.192C40.2547 100.336 40.0246 100.41 39.79 100.402C39.38 100.402 39.04 100.202 39.04 99.9615V96.7616C39.04 96.5216 39.38 96.3215 39.79 96.3215H39.94C40.1452 96.3141 40.3477 96.3699 40.52 96.4816L44.91 99.5816H45.02V97.2016C45.02 97.2016 44.96 97.2016 44.92 97.2016L43.47 97.9416C43.33 98.0216 43.13 97.9415 43.23 97.8215L44.76 96.5015C44.9453 96.3574 45.1754 96.2831 45.41 96.2915C45.83 96.2915 46.17 96.4916 46.17 96.7316L46.12 100.012Z" fill="#345AFA"/>
<path d="M96.03 123.801C109.771 123.801 120.91 117.61 120.91 109.971C120.91 102.333 109.771 96.1415 96.03 96.1415C82.2892 96.1415 71.15 102.333 71.15 109.971C71.15 117.61 82.2892 123.801 96.03 123.801Z" stroke="#345AFA" stroke-width="0.47" stroke-miterlimit="10"/>
<path d="M66.94 102.032C66.94 93.1415 79.94 85.9215 96.03 85.9215C112.12 85.9215 125.11 93.1415 125.11 102.032C125.11 110.922 112.11 118.152 96.03 118.152C79.95 118.152 66.94 110.932 66.94 102.032Z" stroke="#345AFA" stroke-width="0.47" stroke-miterlimit="10"/>
<path d="M96.03 118.151C85.5 118.151 76.27 115.051 71.17 110.401C71.58 117.841 82.55 123.811 96.03 123.811C109.51 123.811 120.48 117.811 120.89 110.401C115.76 115.051 106.56 118.151 96.03 118.151Z" fill="#345AFA"/>
<path d="M103.76 40.5515C116.08 42.3115 125.13 48.1815 125.13 55.1515C125.13 63.5115 112.13 70.2815 96.05 70.2815C79.97 70.2815 66.94 63.5115 66.94 55.1515C66.94 48.1515 76.16 42.2115 88.65 40.5115" stroke="#345AFA" stroke-width="0.47" stroke-miterlimit="10"/>
<path d="M66.95 54.7615C67.0447 51.9299 67.7017 49.1454 68.8829 46.5702C70.0641 43.995 71.7457 41.6805 73.83 39.7615" stroke="#345AFA" stroke-width="0.47" stroke-miterlimit="10"/>
<path d="M118.19 39.7615C120.332 41.7194 122.051 44.0946 123.241 46.7413C124.431 49.3879 125.067 52.2499 125.11 55.1515" stroke="#345AFA" stroke-width="0.47" stroke-miterlimit="10"/>
<path d="M72.27 61.6215C70.01 59.7615 68.76 57.5015 68.76 55.1515C68.76 52.4515 70.47 49.9415 73.39 47.8615" stroke="#345AFA" stroke-width="0.47" stroke-miterlimit="10"/>
<path d="M123.35 55.1515C123.35 61.0215 115.27 65.9915 104.14 67.6515" stroke="#345AFA" stroke-width="0.47" stroke-miterlimit="10"/>
<path d="M96 50.9115C108.255 50.9115 118.19 45.821 118.19 39.5415C118.19 33.262 108.255 28.1715 96 28.1715C83.7448 28.1715 73.81 33.262 73.81 39.5415C73.81 45.821 83.7448 50.9115 96 50.9115Z" stroke="#345AFA" stroke-width="0.47" stroke-miterlimit="10"/>
<path d="M96 41.1515C108.255 41.1515 118.19 36.061 118.19 29.7815C118.19 23.502 108.255 18.4115 96 18.4115C83.7448 18.4115 73.81 23.502 73.81 29.7815C73.81 36.061 83.7448 41.1515 96 41.1515Z" stroke="#345AFA" stroke-width="0.47" stroke-miterlimit="10"/>
<path d="M96 38.7815C107.084 38.7815 116.07 34.7521 116.07 29.7815C116.07 24.8109 107.084 20.7815 96 20.7815C84.9156 20.7815 75.93 24.8109 75.93 29.7815C75.93 34.7521 84.9156 38.7815 96 38.7815Z" stroke="#345AFA" stroke-width="0.47" stroke-miterlimit="10"/>
<path d="M66.94 102.031V54.7415" stroke="#345AFA" stroke-width="0.47" stroke-miterlimit="10"/>
<path d="M68.71 102.031V54.7415" stroke="#345AFA" stroke-width="0.47" stroke-miterlimit="10"/>
<path d="M123.35 102.032V76.5815" stroke="#345AFA" stroke-width="0.47" stroke-miterlimit="10"/>
<path d="M125.11 55.0715V102.032" stroke="#345AFA" stroke-width="0.47" stroke-miterlimit="10"/>
<path d="M73.82 40.0815V29.7815" stroke="#345AFA" stroke-width="0.47" stroke-miterlimit="10"/>
<path d="M118.19 40.0115V29.7815" stroke="#345AFA" stroke-width="0.47" stroke-miterlimit="10"/>
<path d="M96 41.1515C83.76 41.1515 73.82 36.0615 73.82 29.7615V40.0615C74.38 46.0615 84.08 50.8815 95.98 50.8815C107.88 50.8815 117.59 46.0815 118.14 40.0615V29.7615C118.19 36.0615 108.26 41.1515 96 41.1515Z" fill="#345AFA"/>
<path d="M87.14 94.3516C80.47 94.3516 75.07 97.4716 75.07 101.352C75.07 105.232 80.47 108.352 87.14 108.352C93.81 108.352 99.2 105.232 99.2 101.352C99.2 97.4716 93.76 94.3516 87.14 94.3516ZM87.14 107.352C81.32 107.352 76.6 104.632 76.6 101.272C76.6 97.9116 81.32 95.1816 87.14 95.1816C92.96 95.1816 97.68 97.9116 97.68 101.272C97.68 104.632 92.96 107.402 87.14 107.402V107.352Z" fill="#345AFA" stroke="#345AFA" stroke-width="0.47" stroke-miterlimit="10"/>
<path d="M87.14 108.281C80.47 108.281 75.07 105.161 75.07 101.281V105.132C75.07 108.982 80.47 112.132 87.14 112.132C93.81 112.132 99.2 109.012 99.2 105.132V101.281C99.2 105.171 93.76 108.281 87.14 108.281Z" stroke="#345AFA" stroke-width="0.47" stroke-miterlimit="10"/>
<path d="M87.14 94.9814C81.07 94.9814 76.14 97.8214 76.14 101.321C76.14 104.821 81.05 107.661 87.14 107.661C93.23 107.661 98.14 104.821 98.14 101.321C98.14 97.8214 93.2 94.9814 87.14 94.9814ZM87.14 104.851C87.0329 104.982 86.8842 105.073 86.7186 105.107C86.553 105.142 86.3806 105.119 86.23 105.041L79.93 101.761C79.8398 101.723 79.7629 101.659 79.7089 101.577C79.6548 101.495 79.626 101.399 79.626 101.301C79.626 101.203 79.6548 101.108 79.7089 101.026C79.7629 100.944 79.8398 100.88 79.93 100.841L86.21 97.5814C86.3597 97.5005 86.5332 97.4751 86.6998 97.5099C86.8664 97.5447 87.0153 97.6373 87.12 97.7714L88.93 100.401C89.1151 100.663 89.2145 100.976 89.2145 101.296C89.2145 101.617 89.1151 101.93 88.93 102.191L87.14 104.851ZM94.03 101.761L88.76 105.041C88.64 105.111 88.5 105.041 88.57 104.901L90.2 102.521C90.4488 102.169 90.5824 101.748 90.5824 101.316C90.5824 100.885 90.4488 100.464 90.2 100.111L88.54 97.7614C88.47 97.6614 88.61 97.5614 88.73 97.6214L94.04 100.871C94.1117 100.922 94.1699 100.989 94.2099 101.067C94.2498 101.145 94.2701 101.231 94.2691 101.319C94.2682 101.407 94.2459 101.493 94.2042 101.57C94.1626 101.647 94.1028 101.713 94.03 101.761Z" fill="#345AFA"/>
<path d="M19.37 110.542C14.19 110.542 10 112.972 10 115.962C10 118.952 14.19 121.372 19.37 121.372C24.55 121.372 28.76 118.952 28.76 115.962C28.76 112.972 24.55 110.542 19.37 110.542ZM19.37 120.692C14.85 120.692 11.18 118.572 11.18 115.962C11.18 113.352 14.85 111.232 19.37 111.232C23.89 111.232 27.57 113.342 27.57 115.962C27.57 118.582 23.9 120.692 19.37 120.692Z" fill="#345AFA" stroke="#345AFA" stroke-width="0.47" stroke-miterlimit="10"/>
<path d="M19.37 121.372C14.19 121.372 10 118.952 10 115.962V118.962C10 121.962 14.19 124.372 19.37 124.372C24.55 124.372 28.76 121.942 28.76 118.952V115.952C28.76 118.952 24.55 121.372 19.37 121.372Z" stroke="#345AFA" stroke-width="0.47" stroke-miterlimit="10"/>
<path d="M19.37 111.031C14.66 111.031 10.84 113.231 10.84 115.961C10.84 118.691 14.66 120.882 19.37 120.882C24.08 120.882 27.91 118.681 27.91 115.961C27.91 113.241 24.09 111.031 19.37 111.031ZM19.37 118.701C19.288 118.803 19.1739 118.873 19.0465 118.9C18.9192 118.927 18.7863 118.91 18.67 118.851L13.76 116.312C13.6881 116.284 13.6263 116.235 13.5826 116.172C13.539 116.109 13.5156 116.033 13.5156 115.956C13.5156 115.88 13.539 115.804 13.5826 115.741C13.6263 115.678 13.6881 115.629 13.76 115.601L18.66 113.062C18.7763 113.003 18.9092 112.986 19.0365 113.013C19.1639 113.04 19.278 113.11 19.36 113.211L20.77 115.211C20.9115 115.416 20.9873 115.658 20.9873 115.906C20.9873 116.155 20.9115 116.397 20.77 116.601L19.37 118.701ZM24.76 116.331L20.64 118.851C20.55 118.851 20.44 118.852 20.49 118.742L21.76 116.891C21.9547 116.619 22.0594 116.292 22.0594 115.956C22.0594 115.621 21.9547 115.294 21.76 115.021L20.49 113.172C20.49 113.092 20.55 113.012 20.64 113.062L24.76 115.591C24.8269 115.627 24.8828 115.681 24.9217 115.746C24.9607 115.811 24.9813 115.886 24.9813 115.961C24.9813 116.037 24.9607 116.112 24.9217 116.177C24.8828 116.242 24.8269 116.296 24.76 116.331Z" fill="#345AFA"/>
<path d="M99.91 6.6515C95.55 1.6115 89.66 -0.438496 86.76 2.0715C83.86 4.5815 85.01 10.7615 89.36 15.7615C93.71 20.7615 99.61 22.8515 102.52 20.3415C105.43 17.8315 104.27 11.6915 99.91 6.6515ZM90.03 15.1815C86.22 10.7615 85.2 5.4215 87.76 3.2215C90.32 1.0215 95.45 2.8215 99.25 7.2215C103.05 11.6215 104.08 16.9815 101.54 19.2215C99 21.4615 93.84 19.5915 90.03 15.1815Z" fill="#345AFA" stroke="#345AFA" stroke-width="0.47" stroke-miterlimit="10"/>
<path d="M89.36 15.7615C85.01 10.7615 83.84 4.59153 86.76 2.07153L83.83 4.59153C80.92 7.10153 82.09 13.2315 86.45 18.2715C90.81 23.3115 96.7 25.3715 99.61 22.8515L102.52 20.3415C99.61 22.8515 93.76 20.7615 89.36 15.7615Z" fill="white" stroke="#345AFA" stroke-width="0.47" stroke-miterlimit="10"/>
<path d="M93.18 6.12146C93.18 6.12146 93.1 6.12146 93.09 6.21146L92.35 11.9715L95.77 8.97146L93.35 6.21146C93.329 6.18598 93.3032 6.1649 93.274 6.14946C93.2448 6.13401 93.2129 6.12449 93.18 6.12146Z" fill="#345AFA"/>
<path d="M99.39 13.2115L96.96 10.4015L93.54 13.3515L99.36 13.4615C99.43 13.4615 99.45 13.4615 99.45 13.3815C99.454 13.3504 99.4506 13.3189 99.4402 13.2893C99.4298 13.2598 99.4126 13.2332 99.39 13.2115Z" fill="#345AFA"/>
<path d="M99.43 7.06155C95.43 2.47155 90.11 0.601549 87.43 2.89155C84.75 5.18155 85.87 10.7615 89.84 15.3515C93.81 19.9415 99.16 21.8015 101.84 19.5115C104.52 17.2215 103.4 11.6515 99.43 7.06155ZM99.92 15.0615L92.25 14.7015C91.8564 14.6525 91.4975 14.4516 91.25 14.1415C90.9913 13.8724 90.8448 13.5149 90.84 13.1415L91.6 5.49155C91.6059 5.27969 91.688 5.07706 91.8313 4.9209C91.9746 4.76475 92.1695 4.66555 92.38 4.64155C92.7394 4.64271 93.0935 4.72732 93.4145 4.88871C93.7356 5.0501 94.0148 5.28386 94.23 5.57155L100.23 12.5015C100.489 12.7601 100.683 13.0758 100.798 13.4231C100.912 13.7704 100.944 14.1398 100.89 14.5015C100.812 14.6863 100.673 14.8392 100.497 14.9354C100.321 15.0316 100.118 15.0655 99.92 15.0315V15.0615Z" fill="#345AFA"/>
<path d="M53.68 118.352C47.02 118.352 41.61 121.472 41.61 125.352C41.61 129.232 47.02 132.352 53.68 132.352C60.34 132.352 65.75 129.232 65.75 125.352C65.75 121.472 60.35 118.352 53.68 118.352ZM53.68 131.352C47.86 131.352 43.14 128.632 43.14 125.272C43.14 121.912 47.86 119.182 53.68 119.182C59.5 119.182 64.22 121.912 64.22 125.272C64.22 128.632 59.5 131.402 53.68 131.402V131.352Z" fill="#345AFA" stroke="#345AFA" stroke-width="0.47" stroke-miterlimit="10"/>
<path d="M53.68 132.292C47.02 132.292 41.61 129.172 41.61 125.292V129.142C41.61 132.992 47.02 136.142 53.68 136.142C60.34 136.142 65.75 133.022 65.75 129.142V125.292C65.76 129.172 60.34 132.292 53.68 132.292Z" fill="white" stroke="#345AFA" stroke-width="0.47" stroke-miterlimit="10"/>
<path d="M48.88 123.101C48.8715 123.109 48.8647 123.118 48.86 123.129C48.8553 123.139 48.8529 123.15 48.8529 123.161C48.8529 123.173 48.8553 123.184 48.86 123.194C48.8647 123.205 48.8715 123.214 48.88 123.221L52.76 127.551V123.031H49.06C49.0267 123.029 48.9934 123.035 48.9623 123.047C48.9312 123.059 48.9031 123.077 48.88 123.101Z" fill="#345AFA"/>
<path d="M58.3 123.032H54.59V127.552L58.47 123.222C58.4785 123.214 58.4854 123.205 58.49 123.194C58.4947 123.184 58.4971 123.173 58.4971 123.162C58.4971 123.15 58.4947 123.139 58.49 123.129C58.4854 123.118 58.4785 123.109 58.47 123.102C58.448 123.079 58.4216 123.061 58.3923 123.049C58.3631 123.037 58.3317 123.031 58.3 123.032Z" fill="#345AFA"/>
<path d="M53.68 118.981C47.62 118.981 42.68 121.821 42.68 125.321C42.68 128.821 47.6 131.661 53.68 131.661C59.76 131.661 64.68 128.821 64.68 125.321C64.68 121.821 59.76 118.981 53.68 118.981ZM60.03 123.821L54.76 129.391C54.4612 129.637 54.0866 129.771 53.7 129.771C53.3134 129.771 52.9387 129.637 52.64 129.391L47.35 123.821C47.1888 123.679 47.0855 123.482 47.0597 123.268C47.0339 123.054 47.0874 122.838 47.21 122.661C47.4476 122.394 47.7433 122.185 48.0744 122.05C48.4055 121.914 48.7632 121.857 49.12 121.881H58.26C58.6178 121.856 58.9768 121.914 59.3083 122.051C59.6398 122.188 59.9348 122.4 60.17 122.671C60.2919 122.847 60.3451 123.061 60.3192 123.273C60.2934 123.485 60.1905 123.68 60.03 123.821Z" fill="#345AFA"/>
<path d="M109.62 91.8415C103.41 89.4215 97.24 90.3615 95.84 93.9515C94.44 97.5415 98.34 102.401 104.55 104.821C110.76 107.241 116.93 106.301 118.33 102.721C119.73 99.1415 115.82 94.2615 109.62 91.8415ZM104.87 104.001C99.45 101.891 96.04 97.6315 97.26 94.5015C98.48 91.3715 103.87 90.5515 109.26 92.6615C114.65 94.7715 118.09 99.0315 116.87 102.161C115.65 105.291 110.3 106.121 104.87 104.001Z" fill="#345AFA" stroke="#345AFA" stroke-width="0.47" stroke-miterlimit="10"/>
<path d="M104.55 104.822C98.34 102.402 94.44 97.5315 95.84 93.9515L94.44 97.5315C93.04 101.122 96.94 105.992 103.15 108.412C109.36 110.832 115.53 109.892 116.93 106.302L118.33 102.722C116.93 106.302 110.76 107.242 104.55 104.822Z" fill="white" stroke="#345AFA" stroke-width="0.47" stroke-miterlimit="10"/>
<path d="M107.08 104.251C111.189 104.251 114.52 101.82 114.52 98.8215C114.52 95.8226 111.189 93.3915 107.08 93.3915C102.971 93.3915 99.64 95.8226 99.64 98.8215C99.64 101.82 102.971 104.251 107.08 104.251Z" fill="white"/>
<path d="M109.39 92.4315C103.76 90.2215 98.13 91.0815 96.85 94.3415C95.57 97.6015 99.13 102.032 104.78 104.242C110.43 106.452 116.04 105.582 117.31 102.322C118.58 99.0615 115.04 94.6315 109.39 92.4315ZM109.39 102.992C109.28 103.272 109.23 103.402 109.12 103.462C109.055 103.489 108.985 103.504 108.915 103.504C108.845 103.504 108.775 103.489 108.71 103.462C108.51 103.346 108.331 103.197 108.18 103.022L101.76 96.7615C101.49 96.5015 101.36 96.3615 101.33 96.2515C101.316 96.1938 101.32 96.1331 101.341 96.0776C101.363 96.0222 101.401 95.9746 101.45 95.9415C101.666 95.8698 101.894 95.8426 102.12 95.8615L103.92 95.7615C104.199 95.7315 104.481 95.7315 104.76 95.7615C104.98 95.8028 105.19 95.8841 105.38 96.0015C105.602 96.1595 105.806 96.3405 105.99 96.5415L109.36 99.8515C109.561 100.029 109.739 100.23 109.89 100.452C109.988 100.611 110.044 100.794 110.05 100.982C110.018 101.2 109.954 101.412 109.86 101.612L109.39 102.992ZM111.22 98.2915C111.11 98.5715 111.06 98.7115 110.95 98.7715C110.885 98.7993 110.815 98.8136 110.745 98.8136C110.675 98.8136 110.605 98.7993 110.54 98.7715C110.41 98.7715 110.28 98.6015 110.01 98.3315L108.22 96.5315C107.95 96.2615 107.82 96.1315 107.79 96.0215C107.778 95.9652 107.783 95.9067 107.804 95.8532C107.826 95.7998 107.862 95.754 107.91 95.7215C108.109 95.6398 108.326 95.6089 108.54 95.6315L111.07 95.5215C111.288 95.485 111.512 95.485 111.73 95.5215C111.795 95.5477 111.855 95.5869 111.905 95.6367C111.955 95.6866 111.994 95.746 112.02 95.8115C112.02 95.9315 112.02 96.0715 111.9 96.3515L111.22 98.2915Z" fill="#345AFA"/>
<path d="M131.946 47.9959L134.059 36.2849L136.234 36.6773L135.413 41.2278L140.733 42.1877L141.554 37.6371L143.729 38.0295L141.616 49.7404L139.441 49.3481L140.374 44.1785L135.054 43.2187L134.121 48.3882L131.946 47.9959ZM142.863 53.5929L145.006 41.7147L146.896 42.0558L146.697 43.1599C147.094 42.8112 147.568 42.5599 148.12 42.4061C148.673 42.2467 149.309 42.2319 150.028 42.3617C150.837 42.5076 151.522 42.827 152.084 43.3199C152.645 43.8128 153.044 44.426 153.28 45.1596C153.523 45.8886 153.567 46.6853 153.411 47.5497C153.299 48.1687 153.092 48.7272 152.789 49.2254C152.486 49.7235 152.111 50.1424 151.664 50.4821C151.218 50.8162 150.715 51.0508 150.155 51.1859C149.601 51.322 149.014 51.3342 148.395 51.2225C147.793 51.1138 147.276 50.9141 146.845 50.6232C146.42 50.3278 146.07 49.9682 145.796 49.5443L144.996 53.9778L142.863 53.5929ZM148.373 49.2838C148.847 49.3694 149.287 49.3422 149.692 49.2022C150.098 49.0567 150.442 48.8135 150.722 48.4725C151.003 48.1259 151.191 47.6906 151.286 47.1664C151.381 46.6421 151.357 46.1685 151.214 45.7455C151.072 45.3225 150.832 44.9741 150.496 44.7004C150.165 44.4276 149.765 44.249 149.297 44.1645C148.823 44.079 148.383 44.1062 147.978 44.2461C147.573 44.3861 147.229 44.6293 146.948 44.9759C146.667 45.3224 146.479 45.7578 146.384 46.282C146.29 46.8062 146.311 47.2793 146.448 47.7013C146.591 48.1188 146.828 48.4666 147.158 48.745C147.494 49.0187 147.899 49.1983 148.373 49.2838ZM157.14 52.8002C156.32 52.6523 155.626 52.3314 155.059 51.8375C154.497 51.3446 154.096 50.7308 153.854 49.9962C153.612 49.2616 153.569 48.4649 153.724 47.6061C153.84 46.9592 154.051 46.3839 154.355 45.8802C154.658 45.3765 155.033 44.9604 155.478 44.6319C155.929 44.3043 156.43 44.0781 156.982 43.9532C157.54 43.8293 158.126 43.8226 158.739 43.9333C159.548 44.0792 160.197 44.3748 160.687 44.8202C161.177 45.2655 161.508 45.7889 161.682 46.3903L161.298 46.796L161.672 44.7215L163.554 45.0611L162.045 53.426L160.163 53.0865L160.537 51.012L160.755 51.5264C160.382 52.0291 159.889 52.4036 159.274 52.6498C158.66 52.8959 157.948 52.946 157.14 52.8002ZM157.796 50.9838C158.258 51.0673 158.69 51.0385 159.089 50.8976C159.49 50.7511 159.831 50.5073 160.111 50.1664C160.392 49.8198 160.58 49.3844 160.675 48.8602C160.769 48.336 160.745 47.8624 160.603 47.4394C160.46 47.0164 160.227 46.669 159.901 46.3973C159.576 46.1255 159.182 45.9479 158.719 45.8644C158.256 45.7809 157.822 45.8091 157.417 45.949C157.017 46.09 156.677 46.3337 156.395 46.6803C156.12 47.0279 155.934 47.4637 155.84 47.9879C155.745 48.5121 155.767 48.9853 155.903 49.4073C156.047 49.8247 156.281 50.1721 156.605 50.4494C156.936 50.7221 157.333 50.9003 157.796 50.9838ZM163.683 53.7216L165.193 45.3567L169.317 46.1007C170.281 46.2747 171.013 46.5938 171.51 47.0579C172.015 47.5174 172.202 48.1069 172.072 48.8263C172.008 49.1832 171.862 49.4794 171.636 49.7149C171.41 49.9448 171.128 50.1185 170.79 50.236C170.453 50.348 170.083 50.405 169.68 50.4071L169.732 49.9242C170.48 50.1513 171.033 50.5015 171.391 50.9749C171.75 51.4428 171.874 51.9834 171.764 52.5968C171.67 53.1155 171.456 53.5375 171.121 53.8628C170.791 54.1891 170.357 54.4074 169.819 54.5176C169.281 54.6278 168.658 54.6191 167.95 54.4913L163.683 53.7216ZM166.016 52.5705L167.94 52.9176C168.436 53.0071 168.833 52.9924 169.131 52.8734C169.43 52.7488 169.609 52.522 169.668 52.193C169.727 51.8695 169.637 51.6 169.4 51.3844C169.168 51.1698 168.801 51.0172 168.299 50.9267L166.133 50.5358L166.395 49.0803L168.361 49.435C168.829 49.5195 169.205 49.5124 169.488 49.4137C169.771 49.3094 169.942 49.0955 170.001 48.7721C170.06 48.4431 169.972 48.1796 169.737 47.9818C169.508 47.7849 169.162 47.6447 168.699 47.5612L166.976 47.2503L166.016 52.5705ZM172.454 55.3039L173.963 46.9389L176.021 47.3102L175.067 52.5968L180.245 48.0723L182.135 48.4133L180.626 56.7783L178.568 56.407L179.534 51.0535L174.319 55.6404L172.454 55.3039ZM184.051 57.3963L185.247 50.7712L182.612 50.2958L182.926 48.5559L190.337 49.893L190.023 51.6329L187.388 51.1576L186.193 57.7826L184.051 57.3963ZM193.454 59.3517C192.567 59.1918 191.813 58.857 191.191 58.3475C190.576 57.8334 190.13 57.2088 189.853 56.4737C189.578 55.7331 189.517 54.939 189.67 54.0913C189.786 53.45 190.009 52.8828 190.34 52.3897C190.672 51.891 191.085 51.4819 191.58 51.1625C192.077 50.8374 192.629 50.6174 193.237 50.5026C193.851 50.3831 194.496 50.3843 195.171 50.506C195.757 50.6117 196.286 50.7878 196.76 51.0345C197.234 51.2812 197.65 51.604 198.01 52.0029L196.724 53.4378C196.504 53.1563 196.237 52.9296 195.922 52.7577C195.614 52.5812 195.279 52.4603 194.917 52.3949C194.37 52.2963 193.881 52.3116 193.449 52.441C193.022 52.5713 192.669 52.8069 192.388 53.1479C192.108 53.4889 191.919 53.9299 191.821 54.4708C191.676 55.2738 191.797 55.9462 192.183 56.488C192.575 57.0253 193.179 57.3673 193.993 57.5142C194.4 57.5877 194.798 57.5818 195.188 57.4966C195.578 57.4115 195.93 57.262 196.245 57.0481L196.906 58.843C196.387 59.1007 195.829 59.2763 195.23 59.3699C194.632 59.4634 194.04 59.4574 193.454 59.3517ZM196.92 59.7179L200.805 55.9448L201.072 57.3836C200.392 57.2608 199.825 57.052 199.372 56.7572C198.919 56.4567 198.594 56.0872 198.397 55.6485C198.2 55.2098 198.149 54.7228 198.246 54.1875C198.351 53.6075 198.582 53.1368 198.941 52.7755C199.307 52.4095 199.774 52.1656 200.343 52.0437C200.913 51.9162 201.555 51.9169 202.269 52.0457L206.025 52.7233L204.515 61.0882L202.466 60.7185L203.691 53.9261L202.211 53.659C201.681 53.5634 201.259 53.5881 200.945 53.733C200.638 53.8733 200.45 54.133 200.381 54.5122C200.315 54.8803 200.389 55.1901 200.602 55.4417C200.822 55.6944 201.171 55.8639 201.651 55.9505L203.516 56.287L203.244 57.7927L201.948 57.5588L199.312 60.1495L196.92 59.7179ZM211.127 62.2809L212.322 55.6559L209.687 55.1805L210.001 53.4406L217.412 54.7777L217.098 56.5176L214.463 56.0422L213.268 62.6673L211.127 62.2809ZM220.521 64.2349C219.629 64.0739 218.873 63.7303 218.254 63.204C217.641 62.6732 217.2 62.038 216.931 61.2983C216.662 60.5531 216.6 59.779 216.745 58.976C216.852 58.3849 217.065 57.8417 217.384 57.3466C217.704 56.8515 218.104 56.4371 218.585 56.1035C219.072 55.7653 219.615 55.5293 220.215 55.3957C220.816 55.2565 221.451 55.2473 222.121 55.3681C223.007 55.528 223.757 55.8706 224.371 56.3959C224.99 56.9222 225.434 57.5579 225.702 58.3031C225.977 59.0493 226.041 59.8239 225.896 60.627C225.79 61.2181 225.574 61.7607 225.248 62.2548C224.93 62.7444 224.53 63.1587 224.048 63.498C223.567 63.8372 223.025 64.0764 222.424 64.2156C221.825 64.3492 221.19 64.3556 220.521 64.2349ZM220.859 62.3612C221.327 62.4457 221.764 62.418 222.169 62.278C222.581 62.1335 222.927 61.8908 223.208 61.5498C223.489 61.2032 223.677 60.7679 223.772 60.2437C223.866 59.7195 223.842 59.2458 223.7 58.8228C223.557 58.3998 223.321 58.0519 222.99 57.7792C222.659 57.5064 222.256 57.3273 221.782 57.2418C221.308 57.1563 220.866 57.183 220.455 57.3219C220.05 57.4618 219.707 57.7051 219.425 58.0517C219.149 58.3992 218.964 58.8351 218.87 59.3593C218.775 59.8835 218.799 60.3571 218.942 60.7801C219.085 61.1976 219.322 61.5455 219.652 61.8238C219.982 62.0965 220.385 62.2756 220.859 62.3612ZM225.395 67.6277L224.864 66.5473C225.341 66.426 225.776 66.2483 226.17 66.0141C226.563 65.7799 226.852 65.5327 227.038 65.2724C226.756 65.2388 226.51 65.1512 226.299 65.0096C226.089 64.868 225.931 64.687 225.827 64.4667C225.728 64.2473 225.703 64.0066 225.75 63.7445C225.822 63.343 226.009 63.0427 226.31 62.8436C226.617 62.6399 226.974 62.5748 227.381 62.6483C227.839 62.7308 228.182 62.951 228.411 63.3091C228.641 63.6615 228.709 64.0998 228.614 64.6241C228.541 65.0311 228.37 65.4178 228.103 65.7841C227.84 66.157 227.482 66.4984 227.028 66.8082C226.575 67.118 226.031 67.3911 225.395 67.6277ZM234.527 66.5026L235.096 63.3491C234.694 63.3744 234.318 63.3843 233.968 63.3787C233.618 63.3675 233.262 63.3293 232.9 63.2639C232.164 63.131 231.557 62.9035 231.08 62.5813C230.609 62.2546 230.28 61.8295 230.092 61.3062C229.911 60.7783 229.886 60.1491 230.018 59.4186L230.431 57.1266L232.573 57.5129L232.212 59.5121C232.112 60.0698 232.163 60.5168 232.368 60.853C232.577 61.1903 232.997 61.4158 233.627 61.5295C233.996 61.5959 234.316 61.6365 234.59 61.6513C234.87 61.6616 235.14 61.667 235.399 61.6677L236.036 58.1377L238.177 58.524L236.668 66.889L234.527 66.5026ZM240.097 67.5075L241.292 60.8825L238.657 60.4071L238.971 58.6672L246.382 60.0043L246.068 61.7442L243.433 61.2688L242.238 67.8939L240.097 67.5075ZM249.491 69.4615C248.599 69.3005 247.843 68.9569 247.224 68.4306C246.612 67.8998 246.17 67.2645 245.901 66.5249C245.632 65.7797 245.57 65.0056 245.715 64.2026C245.822 63.6114 246.035 63.0683 246.355 62.5732C246.674 62.0781 247.074 61.6637 247.555 61.3301C248.042 60.9918 248.586 60.7559 249.186 60.6223C249.786 60.4831 250.422 60.4739 251.091 60.5946C251.977 60.7546 252.727 61.0972 253.341 61.6225C253.96 62.1488 254.404 62.7845 254.673 63.5297C254.947 64.2759 255.011 65.0505 254.866 65.8536C254.76 66.4447 254.544 66.9873 254.219 67.4814C253.9 67.9709 253.5 68.3853 253.018 68.7246C252.537 69.0638 251.996 69.303 251.395 69.4422C250.795 69.5758 250.16 69.5822 249.491 69.4615ZM249.829 67.5877C250.298 67.6723 250.734 67.6445 251.14 67.5046C251.552 67.3601 251.898 67.1174 252.178 66.7764C252.459 66.4298 252.647 65.9944 252.742 65.4702C252.836 64.946 252.812 64.4724 252.67 64.0494C252.527 63.6264 252.291 63.2785 251.96 63.0058C251.629 62.733 251.227 62.5539 250.753 62.4684C250.279 62.3829 249.836 62.4096 249.425 62.5485C249.02 62.6884 248.677 62.9317 248.395 63.2782C248.12 63.6258 247.935 64.0617 247.84 64.5859C247.745 65.1101 247.769 65.5837 247.912 66.0067C248.055 66.4242 248.292 66.772 248.622 67.0504C248.953 67.3231 249.355 67.5022 249.829 67.5877ZM258.221 70.7773L259.73 62.4123L261.57 62.7443L261.62 62.7534L264.288 68.7452L263.365 68.5959L267.768 63.8626L269.651 64.2022L268.141 72.5671L266.226 72.2215L267.319 66.3037L267.699 66.5449L264.135 70.212L262.805 69.972L260.607 65.2568L261.039 65.1619L260.002 71.0987L258.221 70.7773ZM269.768 72.8606L271.277 64.4957L273.419 64.882L272.193 71.6743L273.54 71.9173C274.087 72.0159 274.519 71.9816 274.837 71.8144C275.162 71.6427 275.362 71.3449 275.439 70.9211C275.514 70.5028 275.441 70.1557 275.22 69.8798C275.001 69.5983 274.645 69.4133 274.155 69.3247L272.406 69.0093L272.687 67.4534L274.603 67.799C275.707 67.9982 276.532 68.4006 277.08 69.006C277.628 69.6059 277.817 70.377 277.647 71.3195C277.539 71.9162 277.296 72.4021 276.918 72.7771C276.539 73.1522 276.056 73.4048 275.468 73.5348C274.88 73.6649 274.218 73.6635 273.482 73.5307L269.768 72.8606ZM278.392 74.4165L279.902 66.0516L282.043 66.4379L280.534 74.8029L278.392 74.4165ZM174.521 72.9514L175.717 66.3263L172.672 65.777L172.504 66.7055C172.375 67.4193 172.206 68.0711 171.996 68.6608C171.792 69.2516 171.524 69.7618 171.193 70.1916C170.862 70.6213 170.45 70.9587 169.957 71.2036C169.464 71.443 168.868 71.5716 168.168 71.5893L167.956 70.0394C168.496 70.0102 168.929 69.8437 169.255 69.5396C169.587 69.231 169.848 68.8059 170.038 68.2644C170.233 67.7238 170.397 67.0855 170.53 66.3493L171.012 63.6809L178.172 64.9727L176.663 73.3377L174.521 72.9514ZM167.201 74.2218L167.956 70.0394L169.174 70.3715L169.54 70.2562L178.658 71.9011L177.891 76.1505L175.934 75.7974L176.387 73.2879L169.611 72.0655L169.158 74.575L167.201 74.2218ZM182.747 74.6945C181.838 74.5305 181.074 74.2026 180.454 73.7108C179.836 73.2134 179.394 72.5982 179.129 71.8651C178.869 71.1331 178.819 70.3265 178.978 69.4454C179.095 68.7985 179.311 68.2242 179.626 67.7225C179.946 67.2219 180.343 66.8098 180.816 66.4863C181.296 66.1582 181.825 65.9342 182.406 65.8143C182.991 65.6954 183.608 65.6943 184.255 65.811C184.957 65.9378 185.562 66.1764 186.069 66.527C186.577 66.872 186.971 67.303 187.252 67.8201C187.54 68.3327 187.702 68.9031 187.738 69.5316C187.781 70.1554 187.683 70.8114 187.443 71.4995L180.902 70.3194C180.817 70.7589 180.851 71.1623 181.003 71.5296C181.161 71.8978 181.421 72.2125 181.783 72.4735C182.151 72.73 182.606 72.907 183.147 73.0046C183.626 73.0911 184.099 73.1044 184.565 73.0445C185.03 72.9846 185.478 72.8522 185.906 72.6473L186.389 74.2805C186.088 74.4451 185.729 74.5703 185.31 74.656C184.892 74.7417 184.458 74.7872 184.008 74.7924C183.563 74.7985 183.143 74.7659 182.747 74.6945ZM181.302 68.8196L185.643 69.6028C185.728 69.0366 185.621 68.5623 185.321 68.1801C185.023 67.7922 184.553 67.5405 183.912 67.4248C183.276 67.3101 182.723 67.3772 182.251 67.6262C181.781 67.8696 181.465 68.2674 181.302 68.8196ZM187.548 75.4744L187.166 73.4275C187.761 73.3851 188.217 73.237 188.533 72.9832C188.85 72.7293 189.092 72.344 189.26 71.8273C189.428 71.3106 189.587 70.6396 189.736 69.8143L190.217 67.1458L197.21 68.4075L195.701 76.7724L193.56 76.3861L194.755 69.7611L191.877 69.2419L191.71 70.1704C191.552 71.0459 191.368 71.8075 191.159 72.455C190.95 73.1025 190.689 73.6427 190.375 74.0754C190.066 74.5092 189.681 74.8399 189.22 75.0676C188.764 75.2963 188.207 75.4319 187.548 75.4744ZM200.802 77.9518C199.982 77.8039 199.288 77.483 198.721 76.9891C198.159 76.4962 197.758 75.8824 197.516 75.1478C197.274 74.4133 197.231 73.6166 197.386 72.7578C197.502 72.1109 197.713 71.5356 198.017 71.0319C198.321 70.5282 198.695 70.112 199.14 69.7835C199.591 69.456 200.092 69.2297 200.645 69.1048C201.202 68.9809 201.788 68.9743 202.401 69.0849C203.21 69.2308 203.859 69.5264 204.349 69.9718C204.839 70.4172 205.17 70.9405 205.344 71.5419L204.96 71.9476L205.334 69.8731L207.216 70.2127L205.707 78.5777L203.825 78.2381L204.199 76.1636L204.417 76.678C204.045 77.1808 203.551 77.5552 202.936 77.8014C202.322 78.0475 201.61 78.0977 200.802 77.9518ZM201.458 76.1354C201.921 76.2189 202.352 76.1902 202.752 76.0492C203.152 75.9027 203.493 75.659 203.773 75.318C204.054 74.9714 204.242 74.5361 204.337 74.0119C204.432 73.4876 204.408 73.014 204.265 72.591C204.123 72.168 203.889 71.8206 203.563 71.5489C203.238 71.2772 202.844 71.0995 202.381 71.016C201.918 70.9325 201.484 70.9607 201.079 71.1007C200.679 71.2416 200.339 71.4854 200.057 71.8319C199.782 72.1795 199.597 72.6154 199.502 73.1396C199.407 73.6638 199.429 74.1369 199.566 74.5589C199.709 74.9763 199.943 75.3237 200.267 75.601C200.598 75.8738 200.995 76.0519 201.458 76.1354ZM211.165 79.8214C210.256 79.6574 209.492 79.3295 208.872 78.8377C208.254 78.3403 207.812 77.7251 207.547 76.9921C207.287 76.2601 207.237 75.4535 207.396 74.5724C207.513 73.9255 207.729 73.3512 208.044 72.8495C208.364 72.3488 208.761 71.9367 209.234 71.6132C209.714 71.2851 210.243 71.0612 210.824 70.9413C211.409 70.8224 212.026 70.8213 212.673 70.938C213.375 71.0647 213.98 71.3034 214.487 71.654C214.995 71.9989 215.389 72.43 215.67 72.9471C215.958 73.4596 216.12 74.0301 216.156 74.6585C216.199 75.2824 216.101 75.9384 215.861 76.6265L209.32 75.4463C209.235 75.8859 209.269 76.2893 209.421 76.6565C209.579 77.0248 209.839 77.3395 210.201 77.6005C210.569 77.857 211.024 78.034 211.565 78.1316C212.044 78.2181 212.517 78.2314 212.983 78.1715C213.448 78.1115 213.896 77.9791 214.324 77.7743L214.807 79.4075C214.506 79.5721 214.147 79.6972 213.728 79.783C213.31 79.8687 212.876 79.9141 212.426 79.9193C211.981 79.9255 211.561 79.8929 211.165 79.8214ZM209.72 73.9466L214.061 74.7298C214.146 74.1635 214.039 73.6893 213.739 73.307C213.441 72.9192 212.971 72.6674 212.33 72.5517C211.694 72.437 211.14 72.5042 210.669 72.7532C210.199 72.9966 209.883 73.3944 209.72 73.9466ZM216.197 80.4702L217.707 72.1053L219.547 72.4373L219.597 72.4463L222.265 78.4382L221.341 78.2889L225.745 73.5556L227.627 73.8951L226.118 82.2601L224.203 81.9145L225.296 75.9966L225.676 76.2379L222.112 79.9049L220.782 79.665L218.584 74.9498L219.016 74.8549L217.979 80.7917L216.197 80.4702ZM229.915 79.0496C229.879 78.4156 229.915 77.9125 230.023 77.5403C230.131 77.1626 230.315 76.8618 230.574 76.6379C230.839 76.415 231.183 76.2151 231.607 76.0382C232.204 75.789 232.614 75.5634 232.834 75.3614C233.055 75.1594 233.191 74.9161 233.242 74.6317C233.323 74.1856 233.224 73.8251 232.945 73.5503C232.673 73.2709 232.241 73.0778 231.65 72.9712C231.215 72.8927 230.808 72.8826 230.429 72.9409C230.056 73.0002 229.684 73.1117 229.315 73.2754L229.123 71.4184C229.318 71.298 229.584 71.1963 229.921 71.1132C230.26 71.0245 230.649 70.971 231.09 70.9527C231.531 70.9344 231.997 70.9695 232.488 71.058C233.213 71.1888 233.841 71.4231 234.373 71.761C234.906 72.0988 235.297 72.5149 235.547 73.0092C235.804 73.5046 235.878 74.0506 235.77 74.6473C235.709 74.9875 235.59 75.2943 235.414 75.5677C235.238 75.8411 234.979 76.0967 234.637 76.3343C234.3 76.573 233.857 76.8126 233.306 77.0531C232.926 77.2148 232.636 77.3842 232.437 77.5614C232.244 77.7395 232.11 77.9716 232.035 78.2576C231.967 78.5389 231.924 78.9227 231.905 79.4088L229.915 79.0496ZM230.251 83.2648C229.861 83.1944 229.545 83.0108 229.305 82.7141C229.066 82.4119 228.984 82.0544 229.058 81.6417C229.109 81.3629 229.216 81.1319 229.382 80.9487C229.553 80.7665 229.757 80.6393 229.995 80.567C230.233 80.4947 230.482 80.4822 230.744 80.5295C231.14 80.6009 231.455 80.7872 231.689 81.0885C231.929 81.3852 232.011 81.7426 231.936 82.1609C231.886 82.4341 231.776 82.6619 231.605 82.844C231.44 83.0272 231.238 83.155 231.001 83.2273C230.763 83.2996 230.513 83.3121 230.251 83.2648ZM143.364 84.6046L145.476 72.8936L155.146 74.6382L153.033 86.3491L150.859 85.9567L152.612 76.2367L147.292 75.2769L145.538 84.9969L143.364 84.6046ZM158.741 87.638C157.849 87.477 157.093 87.1334 156.474 86.6071C155.862 86.0763 155.421 85.4411 155.151 84.7014C154.883 83.9562 154.821 83.1821 154.966 82.3791C155.072 81.788 155.285 81.2448 155.605 80.7497C155.925 80.2546 156.325 79.8402 156.805 79.5066C157.292 79.1684 157.836 78.9324 158.436 78.7988C159.037 78.6596 159.672 78.6504 160.341 78.7712C161.228 78.9311 161.978 79.2737 162.591 79.799C163.21 80.3253 163.654 80.961 163.923 81.7062C164.197 82.4524 164.262 83.227 164.117 84.0301C164.01 84.6212 163.794 85.1638 163.469 85.6579C163.15 86.1475 162.75 86.5618 162.269 86.9011C161.787 87.2403 161.246 87.4795 160.645 87.6187C160.045 87.7523 159.41 87.7587 158.741 87.638ZM159.079 85.7643C159.548 85.8488 159.985 85.8211 160.39 85.6811C160.802 85.5366 161.148 85.2939 161.428 84.9529C161.71 84.6063 161.897 84.171 161.992 83.6468C162.087 83.1226 162.063 82.6489 161.92 82.2259C161.778 81.8029 161.541 81.455 161.21 81.1823C160.879 80.9096 160.477 80.7304 160.003 80.6449C159.529 80.5594 159.086 80.5861 158.676 80.725C158.27 80.865 157.927 81.1082 157.646 81.4548C157.37 81.8023 157.185 82.2382 157.09 82.7624C156.996 83.2866 157.02 83.7602 157.162 84.1832C157.306 84.6007 157.542 84.9486 157.872 85.2269C158.203 85.4996 158.605 85.6787 159.079 85.7643ZM170.286 89.4617L171.481 82.8366L168.436 82.2873L168.269 83.2158C168.14 83.9296 167.971 84.5814 167.761 85.1711C167.556 85.7619 167.288 86.2721 166.958 86.7019C166.627 87.1316 166.215 87.469 165.721 87.714C165.229 87.9534 164.633 88.0819 163.933 88.0996L163.72 86.5497C164.261 86.5206 164.694 86.354 165.019 86.0499C165.352 85.7413 165.612 85.3162 165.802 84.7747C165.998 84.2341 166.162 83.5958 166.295 82.8597L166.776 80.1912L173.936 81.4831L172.427 89.848L170.286 89.4617ZM162.966 90.7322L163.72 86.5497L164.938 86.8818L165.305 86.7665L174.423 88.4114L173.656 92.6608L171.699 92.3077L172.151 89.7982L165.376 88.5758L164.923 91.0853L162.966 90.7322ZM181.147 91.4212L182.343 84.7962L179.298 84.2468L179.13 85.1753C179.001 85.8892 178.832 86.5409 178.622 87.1307C178.417 87.7214 178.15 88.2317 177.819 88.6614C177.488 89.0912 177.076 89.4285 176.583 89.6735C176.09 89.9129 175.494 90.0414 174.794 90.0591L174.581 88.5092C175.122 88.4801 175.555 88.3135 175.881 88.0095C176.213 87.7009 176.474 87.2758 176.664 86.7342C176.859 86.1936 177.023 85.5553 177.156 84.8192L177.637 82.1508L184.798 83.4426L183.289 91.8075L181.147 91.4212ZM173.827 92.6917L174.581 88.5092L175.8 88.8413L176.166 88.726L185.284 90.371L184.517 94.6204L182.56 94.2672L183.013 91.7577L176.237 90.5353L175.784 93.0448L173.827 92.6917ZM189.373 93.1643C188.464 93.0003 187.7 92.6724 187.08 92.1806C186.462 91.6832 186.02 91.068 185.755 90.335C185.495 89.6029 185.445 88.7964 185.604 87.9153C185.721 87.2684 185.937 86.6941 186.252 86.1924C186.572 85.6917 186.969 85.2796 187.442 84.9561C187.922 84.628 188.451 84.404 189.032 84.2841C189.617 84.1653 190.234 84.1642 190.881 84.2809C191.583 84.4076 192.188 84.6463 192.695 84.9968C193.203 85.3418 193.597 85.7729 193.878 86.29C194.166 86.8025 194.327 87.373 194.364 88.0014C194.407 88.6253 194.309 89.2813 194.069 89.9694L187.528 88.7892C187.443 89.2288 187.477 89.6322 187.629 89.9994C187.787 90.3677 188.047 90.6823 188.409 90.9434C188.777 91.1998 189.232 91.3769 189.773 91.4745C190.252 91.561 190.725 91.5743 191.191 91.5144C191.656 91.4544 192.103 91.322 192.532 91.1172L193.015 92.7503C192.714 92.915 192.355 93.0401 191.936 93.1259C191.518 93.2116 191.084 93.257 190.633 93.2622C190.189 93.2684 189.769 93.2358 189.373 93.1643ZM187.928 87.2894L192.269 88.0727C192.354 87.5064 192.247 87.0322 191.947 86.6499C191.649 86.2621 191.179 86.0103 190.538 85.8946C189.902 85.7799 189.348 85.8471 188.877 86.0961C188.407 86.3395 188.091 86.7373 187.928 87.2894ZM193.771 97.3264L195.914 85.4482L197.805 85.7892L197.606 86.8934C198.003 86.5447 198.477 86.2934 199.029 86.1396C199.581 85.9802 200.218 85.9654 200.937 86.0952C201.746 86.241 202.431 86.5604 202.992 87.0533C203.554 87.5462 203.953 88.1595 204.189 88.8931C204.432 89.6221 204.475 90.4188 204.32 91.2832C204.208 91.9022 204.001 92.4607 203.698 92.9589C203.395 93.457 203.02 93.8759 202.573 94.2156C202.127 94.5497 201.624 94.7843 201.064 94.9194C200.509 95.0555 199.923 95.0677 199.304 94.956C198.701 94.8473 198.185 94.6476 197.754 94.3567C197.329 94.0613 196.979 93.7017 196.704 93.2778L195.905 97.7112L193.771 97.3264ZM199.282 93.0173C199.756 93.1029 200.196 93.0756 200.601 92.9357C201.007 92.7902 201.351 92.547 201.631 92.206C201.912 91.8594 202.1 91.424 202.195 90.8998C202.289 90.3756 202.265 89.902 202.123 89.479C201.98 89.056 201.741 88.7076 201.405 88.4339C201.074 88.1611 200.674 87.9825 200.206 87.898C199.732 87.8125 199.292 87.8397 198.887 87.9796C198.481 88.1195 198.138 88.3628 197.857 88.7093C197.575 89.0559 197.388 89.4913 197.293 90.0155C197.198 90.5397 197.22 91.0128 197.356 91.4348C197.5 91.8522 197.737 92.2001 198.066 92.4784C198.403 92.7522 198.808 92.9318 199.282 93.0173ZM208.853 96.4196L209.479 92.9481L207.17 92.5316L207.484 90.7917L209.793 91.2082L210.362 88.0546L212.503 88.441L211.934 91.5946L214.226 92.0081L213.912 93.748L211.62 93.3345L210.994 96.8059L208.853 96.4196ZM203.424 95.4401L206.822 91.4928L205.167 87.1174L207.501 87.5385L209.122 91.9078L205.85 95.8778L203.424 95.4401ZM213.938 97.3371L212.309 92.4828L215.431 88.9692L217.689 89.3766L214.629 92.7891L216.473 97.7944L213.938 97.3371ZM217.174 97.9208L218.683 89.5559L220.741 89.9271L219.787 95.2138L224.965 90.6892L226.855 91.0303L225.346 99.3953L223.288 99.024L224.254 93.6704L219.039 98.2574L217.174 97.9208ZM230.156 100.263L231.665 91.898L233.806 92.2843L233.237 95.4379L237.094 96.1336L237.663 92.98L239.804 93.3664L238.295 101.731L236.153 101.345L236.78 97.8735L232.923 97.1778L232.297 100.649L230.156 100.263ZM243.39 102.91C242.571 102.762 241.877 102.441 241.31 101.947C240.748 101.454 240.346 100.84 240.105 100.106C239.863 99.3712 239.819 98.5745 239.974 97.7157C240.091 97.0688 240.301 96.4935 240.605 95.9898C240.909 95.4861 241.284 95.07 241.729 94.7415C242.179 94.4139 242.681 94.1877 243.233 94.0628C243.791 93.9389 244.377 93.9322 244.99 94.0429C245.799 94.1888 246.448 94.4844 246.938 94.9298C247.427 95.3751 247.759 95.8985 247.933 96.4999L247.549 96.9056L247.923 94.8311L249.805 95.1707L248.296 103.536L246.414 103.196L246.788 101.122L247.006 101.636C246.633 102.139 246.14 102.513 245.525 102.759C244.911 103.006 244.199 103.056 243.39 102.91ZM244.046 101.093C244.509 101.177 244.941 101.148 245.34 101.007C245.741 100.861 246.081 100.617 246.362 100.276C246.643 99.9294 246.831 99.494 246.926 98.9698C247.02 98.4456 246.996 97.972 246.854 97.549C246.711 97.126 246.477 96.7786 246.152 96.5069C245.827 96.2351 245.433 96.0575 244.97 95.974C244.507 95.8905 244.073 95.9187 243.668 96.0587C243.268 96.1996 242.928 96.4433 242.646 96.7899C242.37 97.1375 242.185 97.5733 242.091 98.0975C241.996 98.6218 242.017 99.0949 242.154 99.5169C242.298 99.9343 242.532 100.282 242.856 100.559C243.187 100.832 243.584 101.01 244.046 101.093ZM253.77 104.782C252.884 104.622 252.129 104.288 251.507 103.778C250.892 103.264 250.446 102.639 250.17 101.904C249.894 101.164 249.833 100.37 249.986 99.522C250.102 98.8807 250.325 98.3135 250.656 97.8204C250.988 97.3217 251.401 96.9126 251.897 96.5931C252.393 96.2681 252.945 96.0481 253.553 95.9333C254.168 95.8138 254.812 95.815 255.487 95.9367C256.073 96.0423 256.602 96.2185 257.076 96.4652C257.55 96.7119 257.967 97.0347 258.326 97.4336L257.04 98.8684C256.82 98.5869 256.553 98.3602 256.238 98.1883C255.93 98.0119 255.595 97.8909 255.233 97.8255C254.686 97.7269 254.197 97.7423 253.765 97.8716C253.338 98.002 252.985 98.2376 252.704 98.5786C252.424 98.9196 252.235 99.3605 252.137 99.9015C251.993 100.705 252.113 101.377 252.499 101.919C252.892 102.456 253.495 102.798 254.309 102.945C254.716 103.018 255.115 103.012 255.504 102.927C255.894 102.842 256.246 102.693 256.561 102.479L257.222 104.274C256.703 104.531 256.145 104.707 255.546 104.801C254.948 104.894 254.356 104.888 253.77 104.782Z" fill="black"/>
<rect x="0.25" y="0.25" width="299.5" height="146.5" rx="4.75" stroke="#EDEFF4" stroke-width="0.5"/>
</svg>
